<svg id="Ebene_1" data-name="Ebene 1" xmlns="http://www.w3.org/2000/svg" viewBox="0 0 200 200"><defs><style>.cls-1{fill:#fff;}</style></defs><title>Parisienne_Logo</title><path class="cls-1" d="M200,126.13a.91.91,0,0,1-.85.9L.85,137.45a.8.8,0,0,1-.85-.81v-5.16a.91.91,0,0,1,.85-.9l198.29-10.41a.79.79,0,0,1,.85.8Z"/><path class="cls-1" d="M.77,123.73A.68.68,0,0,1,.09,123V72.5a.68.68,0,0,1,.65-.69l8.71-.46c5.47-.26,9.4,3.48,9.4,8.85V94.88a9.68,9.68,0,0,1-9.41,9.85L7,104.86v17.89a.67.67,0,0,1-.65.68ZM7,98l2.44-.13A2.57,2.57,0,0,0,12,95.25V80.56a2.27,2.27,0,0,0-2.52-2.38L7,78.31Zm12.78,24.7a.69.69,0,0,1-.68-.79L26.47,71a.68.68,0,0,1,.64-.58l5.74-.31a.69.69,0,0,1,.68.58l7.32,50.15a.69.69,0,0,1-.64.79l-5.54.29a.69.69,0,0,1-.68-.59l-1-7.48-6.07.33-1,7.65a.68.68,0,0,1-.65.59Zm7.87-15.4,4.67-.25L30,89h-.16Zm16.69,14.1a.68.68,0,0,1-.68-.68l0-50.54a.69.69,0,0,1,.65-.69l8.56-.46c5.68-.29,9.52,3.55,9.52,8.84V88.66c0,3.19-.56,6-3.06,7.78,2.5,1.46,3.06,4.21,3,7.43v16a.69.69,0,0,1-.65.68l-5.56.3a.68.68,0,0,1-.68-.69V102.61A2.27,2.27,0,0,0,53,100.22l-2.44.13v20.11a.69.69,0,0,1-.65.69Zm6.22-27.91L53,93.39a2.58,2.58,0,0,0,2.52-2.65V78.28A2.27,2.27,0,0,0,53,75.89L50.56,76Zm17.54,25.94a.68.68,0,0,0,.68.69l5.56-.3a.67.67,0,0,0,.64-.68V68.64a.68.68,0,0,0-.68-.69l-5.55.29a.68.68,0,0,0-.65.69Zm33.69-1.76a.68.68,0,0,0,.68.69l5.56-.3a.68.68,0,0,0,.64-.69V66.87a.68.68,0,0,0-.68-.69l-5.55.3a.68.68,0,0,0-.65.69Zm-4-7.69V103.5c0-6.14-3.73-9.94-7-13.3C88.32,87.68,86,85.29,86,82.4V76a2.55,2.55,0,0,1,2.61-2.66,2.25,2.25,0,0,1,2.35,2.39v7.11a.68.68,0,0,0,.68.69l5.56-.3a.69.69,0,0,0,.65-.68V75.31A8.5,8.5,0,0,0,89,66.45a9.68,9.68,0,0,0-9.93,9.87v6.45c0,6.18,3.74,10,7,13.33,2.46,2.51,4.8,4.88,4.8,7.76v6.53a2.58,2.58,0,0,1-2.67,2.66,2.24,2.24,0,0,1-2.29-2.4v-7.18a.69.69,0,0,0-.69-.68l-5.55.3a.67.67,0,0,0-.65.68V111a8.45,8.45,0,0,0,8.74,8.86A9.7,9.7,0,0,0,97.81,110Zm32,6.94a.67.67,0,0,0,.65-.68v-5.45a.68.68,0,0,0-.69-.68l-8.6.43V94.86l7.13-.38a.69.69,0,0,0,.65-.68V88.35a.69.69,0,0,0-.69-.69l-7.09.38V72.32l8.61-.46a.68.68,0,0,0,.65-.68V65.73a.68.68,0,0,0-.68-.69l-14.81.79a.68.68,0,0,0-.65.69l0,50.53a.69.69,0,0,0,.69.69Zm69.57-3.64a.69.69,0,0,0,.65-.68v-5.45a.68.68,0,0,0-.69-.68l-8.59.43V91.22l7.13-.38a.69.69,0,0,0,.65-.69V84.7a.68.68,0,0,0-.68-.68l-7.09.38V68.67l8.61-.46a.67.67,0,0,0,.64-.68V62.08a.68.68,0,0,0-.69-.68l-14.81.78a.7.7,0,0,0-.65.69l0,50.54a.69.69,0,0,0,.69.69Zm-60.12,3.16a.69.69,0,0,0,.65-.69l0-28.25.14,0,7.14,28a.68.68,0,0,0,.67.54l4.59-.24a.68.68,0,0,0,.65-.69V64.54a.69.69,0,0,0-.68-.69l-5,.26a.68.68,0,0,0-.65.69l0,28.27h-.14l-7-28a.68.68,0,0,0-.67-.53l-4.72.24a.67.67,0,0,0-.65.68v50.56a.69.69,0,0,0,.68.69Zm25-1.33a.68.68,0,0,0,.65-.68V86.21h.14l7.14,28a.68.68,0,0,0,.67.53l4.6-.23a.7.7,0,0,0,.65-.69V63.21a.69.69,0,0,0-.69-.68l-5,.26a.69.69,0,0,0-.65.69V91.74l-.14,0-7-28a.69.69,0,0,0-.67-.53l-4.73.24a.67.67,0,0,0-.65.68v50.56a.69.69,0,0,0,.69.69Z"/></svg>