<svg id="Ebene_1" data-name="Ebene 1" xmlns="http://www.w3.org/2000/svg" viewBox="0 0 200 200"><defs><style>.cls-1{fill:#fff;}</style></defs><title>ZentrumOberland_Logo</title><path class="cls-1" d="M21.19,79.92c3.47-.36,11.87,13.24,13.58,13.26s5.23-2.7,6.45-2.6,6.92,6,6.92,6V75H0v25.59C9.39,90.37,19.34,80.11,21.19,79.92Z"/><path class="cls-1" d="M41.5,92.76c-1.26-.5-4.36,3.89-6.81,3.15-2-.6-10.25-10.33-13-11.61C20.24,83.6,9.77,97.44,0,110.4v12.79H48.14V98.72S42.76,93.25,41.5,92.76Zm-4.5,12h1.1v1.19H37Zm-1.85,0h1.1v1.19h-1.1Zm-28,15.77a2.84,2.84,0,0,1-2.22-.77l.92-.92a1.89,1.89,0,0,0,1.31.41c.56,0,.83-.19.83-.52a.51.51,0,0,0-.11-.35.68.68,0,0,0-.39-.15l-.7-.1a2,2,0,0,1-1.18-.52,1.61,1.61,0,0,1-.4-1.17,1.89,1.89,0,0,1,2.13-1.84,2.59,2.59,0,0,1,2,.69l-.9.9a1.47,1.47,0,0,0-1.11-.34c-.5,0-.7.29-.7.54a.38.38,0,0,0,.11.27.63.63,0,0,0,.41.17l.7.1A2,2,0,0,1,9,117.4a1.69,1.69,0,0,1,.43,1.28C9.38,119.86,8.36,120.51,7.13,120.51Zm2.29-12.73H8v4.56H6.55v-4.56H5.12V106.5h4.3Zm5.3,12.68H13.29v-2.31H11.76v2.31H10.33v-5.83h1.43v2.24h1.53v-2.24h1.43Zm.08-8.12H13.36V110H11.84v2.32H10.4V106.5h1.44v2.24h1.52V106.5H14.8Zm4.77,7.52a2.38,2.38,0,0,1-3.27,0,4.84,4.84,0,0,1,0-4.63,2.38,2.38,0,0,1,3.27,0,4.84,4.84,0,0,1,0,4.63Zm.88-9.57a2.09,2.09,0,0,1-2.23,2.09,2.07,2.07,0,0,1-2.2-2.09V106.5h1.43v3.75a.76.76,0,0,0,.77.86.77.77,0,0,0,.79-.86V106.5h1.44Zm3,8.09h-.87v2.08H21.15v-5.83h2.31a1.88,1.88,0,1,1,0,3.75Zm2.77-6H25L23.1,109.4v2.94H21.67V106.5h1.25l1.87,2.93V106.5h1.44Zm2.37,6h-.87v2.08H26.29v-5.83H28.6a1.88,1.88,0,1,1,0,3.75Zm4.27,2.08H31.43v-5.83h1.44Zm-1.7-8.08a2.83,2.83,0,0,1-2.21-.77l.92-.91a1.9,1.9,0,0,0,1.3.41c.57,0,.84-.19.84-.53a.49.49,0,0,0-.12-.34.64.64,0,0,0-.38-.16l-.71-.1a1.93,1.93,0,0,1-1.17-.51,1.64,1.64,0,0,1-.4-1.18,1.89,1.89,0,0,1,2.13-1.84,2.61,2.61,0,0,1,2,.7l-.91.9a1.43,1.43,0,0,0-1.1-.35c-.5,0-.71.29-.71.54a.38.38,0,0,0,.12.27.62.62,0,0,0,.4.18l.7.1a1.89,1.89,0,0,1,1.15.48,1.71,1.71,0,0,1,.44,1.28C33.43,111.74,32.4,112.38,31.17,112.38Zm7.44,8.08H37.35l-1.87-2.93v2.93H34.05v-5.83H35.3l1.87,2.93v-2.93h1.44Zm.23-10.17a2.22,2.22,0,0,1-4.43,0V106.5h1.44v3.75c0,.54.29.86.77.86a.76.76,0,0,0,.78-.86V106.5h1.44Zm5.26,7.62a2.49,2.49,0,0,1-.59,2,2.44,2.44,0,0,1-3.32,0,4.84,4.84,0,0,1,0-4.63,2.16,2.16,0,0,1,1.62-.65,2.12,2.12,0,0,1,2.28,1.93H42.65a.76.76,0,0,0-.84-.66.7.7,0,0,0-.56.26c-.13.17-.21.37-.21,1.43s.08,1.28.21,1.45a.69.69,0,0,0,.56.24.82.82,0,0,0,.64-.23.84.84,0,0,0,.23-.62v-.08h-.87v-1.2H44.1Zm-.3-6.15a2.18,2.18,0,0,1-1.57.58H40.06V106.5h2.17a2.18,2.18,0,0,1,1.57.57,4.81,4.81,0,0,1,0,4.69Z"/><path class="cls-1" d="M17.94,115.85a.73.73,0,0,0-.58.26c-.13.17-.21.37-.21,1.43s.08,1.26.21,1.43a.77.77,0,0,0,1.15,0c.13-.17.21-.36.21-1.43s-.08-1.26-.21-1.43A.72.72,0,0,0,17.94,115.85Z"/><path class="cls-1" d="M23.4,115.91h-.81v1.18h.81a.59.59,0,1,0,0-1.18Z"/><path class="cls-1" d="M28.54,115.91h-.81v1.18h.81a.59.59,0,1,0,0-1.18Z"/><path class="cls-1" d="M42.13,107.78H41.5v3.28h.63a.75.75,0,0,0,.69-.33c.11-.17.15-.32.15-1.31s0-1.15-.15-1.31A.75.75,0,0,0,42.13,107.78Z"/><path class="cls-1" d="M55.14,96.64V92.56L63.33,80H55.5V75.29H69.62v4.08L61.41,92h8.21v4.68Z"/><path class="cls-1" d="M72.67,96.64V75.29H87.18V80H77.92v3.57h7.91v4.67H77.92V92h9.26v4.68Z"/><path class="cls-1" d="M102.29,96.64,95.45,85.9V96.64H90.21V75.29h4.58L101.63,86V75.29h5.25V96.64Z"/><path class="cls-1" d="M120.06,80V96.64h-5.24V80h-5.25V75.29h15.74V80Z"/><path class="cls-1" d="M138.74,96.64l-3.78-8h-1.77v8H128V75.29h8.45c4.74,0,7.29,3.36,7.29,6.87a6.14,6.14,0,0,1-3.48,5.57l4.62,8.91ZM136.16,80h-3v4.31h3a2.16,2.16,0,1,0,0-4.31Z"/><path class="cls-1" d="M154.51,96.82c-4.44,0-8.07-3-8.07-7.68V75.29h5.25V89c0,2,1.08,3.12,2.82,3.12S157.39,91,157.39,89V75.29h5.24V89.14C162.63,93.82,158.94,96.82,154.51,96.82Z"/><path class="cls-1" d="M180.53,96.64V86.41l-3,5.28h-3.36l-3-5.28V96.64h-5.24V75.29H171l4.8,9.41,4.8-9.41h5.15V96.64Z"/><path class="cls-1" d="M69,121a8.64,8.64,0,0,1-11.93,0c-2.25-2.25-2.16-5.25-2.16-8.46s-.09-6.21,2.16-8.45a7.83,7.83,0,0,1,6-2.4,7.83,7.83,0,0,1,6,2.4c2.25,2.24,2.16,5.24,2.16,8.45S71.23,118.79,69,121Zm-3.87-13.71a2.82,2.82,0,0,0-4.19,0c-.48.63-.78,1.35-.78,5.25s.3,4.59.78,5.22a2.77,2.77,0,0,0,4.19,0c.48-.63.78-1.32.78-5.22S65.59,108,65.11,107.33Z"/><path class="cls-1" d="M83.09,123.25H73.8V101.91h8.84c4.44,0,6.81,2.49,6.81,6.17a5.14,5.14,0,0,1-2.34,4.23A5,5,0,0,1,89.75,117C89.75,121,86.9,123.25,83.09,123.25Zm-.78-16.64H79v3.48h3.27a1.75,1.75,0,1,0,0-3.48Zm.27,8.19H79v3.75h3.54a1.76,1.76,0,0,0,1.92-1.89A1.74,1.74,0,0,0,82.58,114.8Z"/><path class="cls-1" d="M92.32,123.28V101.93h14.51v4.68H97.57v3.57h7.91v4.68H97.57v3.74h9.26v4.68Z"/><path class="cls-1" d="M120.4,123.28l-3.78-7.94h-1.76v7.94h-5.25V101.93h8.45c4.74,0,7.29,3.36,7.29,6.87a6.14,6.14,0,0,1-3.48,5.58l4.62,8.9Zm-2.58-16.64h-3V111h3a2.16,2.16,0,1,0,0-4.32Z"/><path class="cls-1" d="M128.13,123.28V101.93h5.25V118.6h9v4.68Z"/><path class="cls-1" d="M157.41,123.28l-1-3.18h-6.57l-1,3.18h-5.48l7.76-21.35h4l7.77,21.35ZM153.24,110l-1.92,5.7H155Z"/><path class="cls-1" d="M176.47,123.28l-6.84-10.73v10.73h-5.24V101.93H169l6.84,10.74V101.93h5.25v21.35Z"/><path class="cls-1" d="M197.77,121.18a7.93,7.93,0,0,1-5.75,2.1H184.1V101.93H192a7.93,7.93,0,0,1,5.75,2.1c2.49,2.49,2.22,5.22,2.22,8.58S200.26,118.69,197.77,121.18Zm-3.59-13.37a2.73,2.73,0,0,0-2.52-1.2h-2.31v12h2.31a2.74,2.74,0,0,0,2.52-1.19c.42-.6.56-1.17.56-4.8S194.6,108.41,194.18,107.81Z"/></svg>