<?xml version="1.0" encoding="utf-8"?>
<!-- Generator: Adobe Illustrator 24.1.0, SVG Export Plug-In . SVG Version: 6.00 Build 0)  -->
<svg version="1.1" id="Ebene_1" xmlns="http://www.w3.org/2000/svg" xmlns:xlink="http://www.w3.org/1999/xlink" x="0px" y="0px"
	 viewBox="0 0 200 200" style="enable-background:new 0 0 200 200;" xml:space="preserve">
<style type="text/css">
	.st0{fill:#FFFFFF;}
</style>
<g>
	<path class="st0" d="M28.2,95.5c0-1.3,0.9-2.3,2.3-2.3c1.4,0,2.2,0.9,2.2,2.3v16c0,1.3-0.9,2.3-2.2,2.3c-1.4,0-2.3-0.9-2.3-2.3
		V95.5z"/>
	<path class="st0" d="M36.5,95.9c0-1.9,0.9-2.6,2.8-2.6c0.9,0,1.8,0.4,2.3,1.2l7.9,12.7h0.1V95.4c0-1.5,0.8-2.2,2.2-2.2
		c1.3,0,2.2,0.7,2.2,2.2v15.5c0,1.8-0.8,2.8-2.7,2.8c-1.4,0-1.9-0.3-2.5-1.2l-7.8-12.3h-0.1v11.4c0,1.5-0.8,2.2-2.2,2.2
		s-2.2-0.7-2.2-2.2V95.9z"/>
	<path class="st0" d="M60.9,97.4h-3.2c-1.3,0-2.3-0.7-2.3-1.9c0-1.2,1-1.9,2.3-1.9h10.9c1.3,0,2.3,0.7,2.3,1.9c0,1.2-1,1.9-2.3,1.9
		h-3.2v14.1c0,1.3-0.9,2.3-2.3,2.3c-1.4,0-2.3-0.9-2.3-2.3V97.4z"/>
	<path class="st0" d="M72.6,96.2c0-2,1-2.6,2.6-2.6h9.9c1.3,0,2.3,0.4,2.3,1.8c0,1.4-1,1.8-2.3,1.8h-8v4.3H84c1.2,0,2.1,0.3,2.1,1.7
		S85.2,105,84,105h-6.9v4.8h8.2c1.3,0,2.3,0.4,2.3,1.8c0,1.4-1,1.8-2.3,1.8H75.2c-1.6,0-2.6-0.6-2.6-2.6V96.2z"/>
	<path class="st0" d="M94.1,102.4h3.8c1.7,0,3.4-0.4,3.4-2.7c0-2.1-1.3-2.7-3.3-2.7h-3.9V102.4z M89.6,96.2c0-2,1-2.6,2.6-2.6H99
		c5.4,0,6.8,2.9,6.8,5.5c0,2.1-1.3,4.3-3.4,4.7v0.1c2.3,0.3,2.7,2,2.7,4c0,2.3,0.6,3.1,0.6,4.1c0,1-1.1,1.8-2.1,1.8
		c-2.5,0-2.7-2.4-2.7-3.2c0-3.5-0.6-4.9-3.1-4.9h-3.7v5.8c0,1.3-0.9,2.3-2.2,2.3s-2.3-0.9-2.3-2.3V96.2z"/>
	<path class="st0" d="M167.3,102.4h3.8c1.7,0,3.4-0.4,3.4-2.7c0-2.1-1.3-2.7-3.3-2.7h-3.9V102.4z M162.8,96.2c0-2,1-2.6,2.6-2.6h6.8
		c5.4,0,6.8,2.9,6.8,5.5c0,2.1-1.3,4.3-3.4,4.7v0.1c2.3,0.3,2.7,2,2.7,4c0,2.3,0.6,3.1,0.6,4.1c0,1-1.1,1.8-2.1,1.8
		c-2.5,0-2.7-2.4-2.7-3.2c0-3.5-0.6-4.9-3.1-4.9h-3.7v5.8c0,1.3-0.9,2.3-2.2,2.3c-1.4,0-2.3-0.9-2.3-2.3V96.2z"/>
	<path class="st0" d="M119.1,101.9c4.1,0.9,5.2,3.4,5.2,5.7c0,3.6-2.7,6.2-8.1,6.2c-5.7,0-8.3-2.9-8.3-5c0-1.1,0.8-1.9,1.9-1.9
		c2.4,0,1.8,3.6,6.4,3.6c2.3,0,3.6-1.3,3.6-2.6c0-0.8-0.4-1.7-1.9-2.1l-5.1-1.3c-4.1-1-4.8-3.3-4.8-5.4c0-4.4,4.1-6,7.9-6
		c3.5,0,7.7,2,7.7,4.6c0,1.1-1,1.8-2.1,1.8c-2.1,0-1.7-2.9-5.9-2.9c-2.1,0-3.2,1-3.2,2.3c0,1.4,1.6,1.8,3.1,2.1L119.1,101.9z"/>
	<path class="st0" d="M130.8,102.7h3.5c1.8,0,3.2-1.1,3.2-2.8c0-2-1.4-2.8-3.6-2.8h-3V102.7z M126.3,96.2c0-2,1-2.6,2.6-2.6h6.2
		c3.8,0,6.8,1.9,6.8,6.3c0,3.6-2.5,6.3-6.9,6.3h-4.3v5.4c0,1.3-0.9,2.3-2.2,2.3c-1.4,0-2.3-0.9-2.3-2.3V96.2z"/>
	<path class="st0" d="M151.8,110.2c4.1,0,4.1-3.2,4.1-7c0-3.8-0.4-6.5-4.1-6.5s-4.1,2.7-4.1,6.5C147.7,107,147.6,110.2,151.8,110.2
		 M151.8,93.1c6.5,0,8.6,4.3,8.6,10.1c0,5.6-1.8,10.6-8.6,10.6c-7.1,0-8.6-4.6-8.6-10.6C143.2,97.4,145.3,93.1,151.8,93.1"/>
	<path class="st0" d="M185,97.4h-3.2c-1.3,0-2.3-0.7-2.3-1.9c0-1.2,1-1.9,2.3-1.9h10.9c1.3,0,2.3,0.7,2.3,1.9c0,1.2-1,1.9-2.3,1.9
		h-3.2v14.1c0,1.3-0.9,2.3-2.3,2.3c-1.4,0-2.3-0.9-2.3-2.3V97.4z"/>
	<path class="st0" d="M197.8,95.4v-0.7h0.6c0.1,0,0.2,0,0.3,0.1c0.1,0.1,0.2,0.2,0.2,0.3c0,0.1,0,0.2-0.1,0.3
		c-0.1,0.1-0.2,0.1-0.4,0.1H197.8z M199.2,96.4l-0.5-0.9c0.3-0.1,0.4-0.3,0.4-0.5c0-0.2-0.1-0.3-0.2-0.4c-0.2-0.1-0.3-0.1-0.5-0.1
		h-0.9v2h0.3v-0.9h0.6l0.4,0.9H199.2z"/>
	<path class="st0" d="M198.2,94c-0.8,0-1.4,0.6-1.4,1.4c0,0.8,0.6,1.4,1.4,1.4c0.8,0,1.4-0.6,1.4-1.4C199.7,94.7,199,94,198.2,94
		 M198.2,97.2c-1,0-1.8-0.8-1.8-1.8c0-1,0.8-1.8,1.8-1.8c1,0,1.8,0.8,1.8,1.8C200,96.4,199.2,97.2,198.2,97.2"/>
	<path class="st0" d="M0,97.8c0-2.4,2-4.4,4.4-4.4s4.4,2,4.4,4.4c0,2.4-2,4.4-4.4,4.4S0,100.2,0,97.8"/>
	<path class="st0" d="M4.4,113.5c-0.6,0-1.1-0.5-1.1-1.2v-7.2c0-0.7,0.5-1.2,1.1-1.2c7,0,7.5-9.4,17.5-9.4c0.6,0,1.1,0.5,1.1,1.2
		v7.2c0,0.7-0.5,1.2-1.1,1.2C15.1,104,14.7,113.5,4.4,113.5"/>
</g>
</svg>
