<?xml version="1.0" encoding="utf-8"?>
<!-- Generator: Adobe Illustrator 24.1.0, SVG Export Plug-In . SVG Version: 6.00 Build 0)  -->
<svg version="1.1" xmlns="http://www.w3.org/2000/svg" xmlns:xlink="http://www.w3.org/1999/xlink" x="0px" y="0px"
	 viewBox="0 0 200 200" style="enable-background:new 0 0 200 200;" xml:space="preserve">
<style type="text/css">
	.st0{fill:#FFFFFF;}
</style>
<g id="Ebene_1">
	<rect x="66" y="52.2" class="st0" width="5.9" height="77.8"/>
	<polygon class="st0" points="77.8,58 77.8,83.8 127.6,83.8 138,70.9 127.6,58 	"/>
	<polygon class="st0" points="10.3,58 0,70.9 10.3,83.8 60.2,83.8 60.2,58 	"/>
	<path class="st0" d="M87,98.9c-0.8-0.4-1.9-0.7-2.9-0.7c-1.1,0-1.9,0.5-1.9,1.6c0,2.6,5.7,1.4,5.7,6.5c0,2.7-2.2,4.4-5.1,4.4
		c-1.8,0-3.3-0.4-3.9-0.6l0.2-2.8c1,0.4,1.9,0.9,3.2,0.9c1.1,0,2.1-0.5,2.1-1.7c0-2.8-5.7-1.4-5.7-6.6c0-0.4,0.2-4.1,5-4.1
		c1.3,0,2.2,0.2,3.4,0.5L87,98.9z"/>
	<path class="st0" d="M97.7,110.1c-1,0.2-1.9,0.5-3,0.5c-4.2,0-5.1-3.5-5.1-5.4c0-3.3,1.9-5.7,5.3-5.7c1.1,0,1.7,0.3,2.6,0.5
		l-0.2,2.5c-0.6-0.2-1.2-0.5-1.9-0.5c-2.5,0-2.5,2.7-2.5,3.1c0,2.3,1.4,3,2.7,3c0.7,0,1.3-0.3,1.9-0.5L97.7,110.1z"/>
	<path class="st0" d="M99.6,94.9h3.3v6.3h0c0.4-1.2,1.6-1.8,2.8-1.8c2.4,0,3.2,1.7,3.2,3.9v7.1h-3.3v-6.6c0-1.3-0.6-1.7-1.3-1.7
		c-1.1,0-1.4,0.9-1.4,2.3v6h-3.3V94.9z"/>
	<polygon class="st0" points="113.3,99.6 114.9,107.3 114.9,107.3 116.5,99.6 120.2,99.6 121.7,107.3 121.7,107.3 123.2,99.6 
		126.3,99.6 123.5,110.4 120,110.4 118.2,102.5 118.2,102.5 116.5,110.4 112.9,110.4 110,99.6 	"/>
	<path class="st0" d="M136.7,105.9h-6.4c0,1.3,0.8,2.5,2.7,2.5c1.1,0,2.2-0.4,3-0.9l0.1,2.5c-1.1,0.4-2.3,0.6-3.4,0.6
		c-3.8,0-5.5-2.3-5.5-5.6c0-2.9,1.7-5.5,4.8-5.5c1,0,4.7,0,4.7,5.6V105.9z M133.7,104.1c0-1.4-0.4-2.7-1.7-2.7
		c-1.7,0-1.7,2.1-1.7,2.7H133.7z"/>
	<path class="st0" d="M138.8,94.9h3.3v2.9h-3.3V94.9z M138.8,99.6h3.3v10.8h-3.3V99.6z"/>
	<polygon class="st0" points="144.3,99.6 151.8,99.6 151.8,102.3 147.7,107.9 151.9,107.9 151.9,110.4 144.2,110.4 144.2,107.7 
		148.3,102 144.3,102 	"/>
	<path class="st0" d="M162.8,105.9h-6.4c0,1.3,0.8,2.5,2.7,2.5c1.1,0,2.2-0.4,3-0.9l0.1,2.5c-1.1,0.4-2.3,0.6-3.4,0.6
		c-3.8,0-5.5-2.3-5.5-5.6c0-2.9,1.7-5.5,4.8-5.5c1,0,4.7,0,4.7,5.6V105.9z M159.8,104.1c0-1.4-0.4-2.7-1.7-2.7
		c-1.7,0-1.7,2.1-1.7,2.7H159.8z"/>
	<path class="st0" d="M164.9,101.9c0-1,0-1.7-0.1-2.3h3c0,0.6,0.1,1.3,0.1,1.9h0c0.7-1.2,1.1-2.1,3-2.1h0.5v3
		c-0.4-0.1-0.6-0.1-1.1-0.1c-1.9,0-2.1,1.7-2.1,3.2v4.8h-3.3V101.9z"/>
	<polygon class="st0" points="86.6,118.7 86.6,118.7 84.8,129.9 80.8,129.9 77.9,115.5 81.2,115.5 82.9,125.7 83,125.7 84.7,115.5 
		88.7,115.5 90.4,125.7 90.5,125.7 92.3,115.5 95.3,115.5 92.5,129.9 88.5,129.9 	"/>
	<path class="st0" d="M97.1,119.7c0.8-0.3,2.3-0.7,3.5-0.7c3.8,0,4.7,1.6,4.7,4v3.9c0,1.6,0,2.3,0.1,3h-3l-0.1-1.5h0
		c-0.1,0.7-1.4,1.7-3,1.7c-2,0-3.3-1.3-3.3-3.3c0-3.6,4.2-3.6,5.3-3.6h1c0-2.1-1.5-2.1-2-2.1c-0.8,0-1.7,0.2-3,1L97.1,119.7z
		 M102.3,124.7c-1.3,0-3.4,0.1-3.4,1.9c0,1.4,1.1,1.4,1.4,1.4c0.3,0,1.9,0,1.9-2.7V124.7z"/>
	<path class="st0" d="M113.7,123.3c0-1.3-0.6-1.7-1.3-1.7c-1.1,0-1.4,0.9-1.4,2.3v6h-3.3v-8.5c0-1,0-1.7-0.1-2.3h3
		c0,0.5,0.1,1.1,0.1,1.8h0c0.5-1.2,1.3-2,3-2c2.4,0,3.2,1.7,3.2,3.9v7.1h-3.3V123.3z"/>
	<path class="st0" d="M128.9,127.5c0,1.4,0,1.9,0.1,2.4h-3.1c0-0.4-0.1-1-0.1-1.7h0c-0.3,0.7-1.1,1.9-2.9,1.9
		c-2.4,0-3.8-2.4-3.8-5.8c0-2.9,1.1-5.3,3.8-5.3c1.5,0,2.4,0.8,2.8,1.8h0v-6.3h3.3V127.5z M124,127.7c1.3,0,1.6-1.9,1.6-3.2
		c0-1.7-0.3-3.3-1.6-3.3c-1.4,0-1.6,1.6-1.6,3.3C122.5,125.7,122.5,127.7,124,127.7"/>
	<path class="st0" d="M140.5,125.4h-6.4c0,1.3,0.8,2.5,2.7,2.5c1.1,0,2.2-0.4,3-0.9l0.1,2.5c-1.1,0.4-2.3,0.6-3.4,0.6
		c-3.8,0-5.5-2.3-5.5-5.6c0-2.9,1.7-5.5,4.8-5.5c1,0,4.7,0,4.7,5.6V125.4z M137.5,123.6c0-1.4-0.4-2.7-1.7-2.7
		c-1.7,0-1.7,2.1-1.7,2.7H137.5z"/>
	<path class="st0" d="M142.6,121.4c0-1,0-1.7-0.1-2.3h3c0,0.6,0.1,1.3,0.1,1.9h0c0.7-1.2,1.1-2.1,3-2.1h0.5v3
		c-0.4-0.1-0.6-0.1-1.1-0.1c-1.9,0-2.1,1.7-2.1,3.2v4.8h-3.3V121.4z"/>
	<polygon class="st0" points="153.5,119.1 155,126.8 155.1,126.8 156.6,119.1 160.3,119.1 161.8,126.8 161.9,126.8 163.4,119.1 
		166.5,119.1 163.6,129.9 160.1,129.9 158.3,122 158.3,122 156.7,129.9 153.1,129.9 150.2,119.1 	"/>
	<path class="st0" d="M176.8,125.4h-6.4c0,1.3,0.8,2.5,2.7,2.5c1.1,0,2.2-0.4,3-0.9l0.1,2.5c-1.1,0.4-2.3,0.6-3.4,0.6
		c-3.8,0-5.5-2.3-5.5-5.6c0-2.9,1.7-5.5,4.8-5.5c1,0,4.7,0,4.7,5.6V125.4z M173.8,123.6c0-1.4-0.4-2.7-1.7-2.7
		c-1.7,0-1.7,2.1-1.7,2.7H173.8z"/>
	<path class="st0" d="M188.5,128.6c0,1.6,0,5.9-5.5,5.9c-1.5,0-2.9-0.3-3.9-0.6l0.1-2.7c0.6,0.3,1.9,1,3.4,1c2.6,0,2.7-1.9,2.7-4.1
		h0c-0.2,0.6-1,1.9-2.8,1.9c-1.9,0-3.8-1.3-3.8-5.4c0-3.4,1.4-5.6,3.8-5.6c1.9,0,2.6,1.2,2.9,1.9h0l0.1-1.7h3.1
		c0,0.5-0.1,1.1-0.1,2.4V128.6z M183.5,127.6c1.3,0,1.6-1.6,1.6-3.1c0-1.2-0.3-3.2-1.6-3.2c-1.5,0-1.6,2.1-1.6,3.2
		C182,125.4,182.1,127.6,183.5,127.6"/>
	<path class="st0" d="M200,125.4h-6.4c0,1.3,0.8,2.5,2.7,2.5c1.1,0,2.2-0.4,3-0.9l0.1,2.5c-1.1,0.4-2.3,0.6-3.4,0.6
		c-3.8,0-5.5-2.3-5.5-5.6c0-2.9,1.7-5.5,4.8-5.5c1,0,4.7,0,4.7,5.6V125.4z M197,123.6c0-1.4-0.4-2.7-1.7-2.7c-1.7,0-1.7,2.1-1.7,2.7
		H197z"/>
	<g>
		<path class="st0" d="M25.1,94.9v35.1h35.1V94.9H25.1z M53.5,116.1h-7.6v7.6h-6.7v-7.6h-7.6v-6.7h7.6v-7.6h6.7v7.6h7.6V116.1z"/>
	</g>
</g>
<g id="Ebene_3">
</g>
<g id="Ebene_2">
</g>
</svg>
