<svg id="Ebene_1" data-name="Ebene 1" xmlns="http://www.w3.org/2000/svg" viewBox="0 0 200 200"><defs><style>.cls-1{fill:#fff;}</style></defs><title>Verfora_Logo</title><path class="cls-1" d="M197.6,82a2.34,2.34,0,0,1-2.42-2.4A2.41,2.41,0,1,1,197.6,82m0-4.4a2,2,0,1,0,1.87,2,1.89,1.89,0,0,0-1.87-2M197.11,81h-.44V78.31h1c.65,0,1,.22,1,.77a.68.68,0,0,1-.71.72l.76,1.17h-.51l-.7-1.14h-.42Zm.5-1.51c.33,0,.63,0,.63-.42s-.32-.36-.59-.36h-.54v.78Z"/><path class="cls-1" d="M56,77.19c.76,0,1.08.16,1.3.68l6.38,16h.11l6-15.93c.22-.58.47-.78,1.34-.78h2.49c.64,0,.86.32.64.87L65.85,98.93a1,1,0,0,1-1.11.72H62.36a1.18,1.18,0,0,1-1.26-.82L52.26,78.16c-.26-.58,0-1,.61-1Z"/><path class="cls-1" d="M89.48,89.07c0,.45-.18.71-.87.71H81.73v6.49h9.66c.61,0,.9.23.9.75v1.85c0,.51-.25.78-.86.78H78.05c-.73,0-1-.16-1-.88V78a.72.72,0,0,1,.83-.81H91.5c.72,0,.83.29.76.74L92,79.88c-.07.59-.46.68-1.22.68h-9v5.88h6.88c.69,0,.87.26.87.71Z"/><path class="cls-1" d="M113.25,98.67c.4.59.32,1-.36,1h-3.21a1.33,1.33,0,0,1-1.37-.64l-5.19-7.63h-2.78v7.47c0,.48-.22.8-.83.8h-3c-.61,0-.86-.26-.86-.8V78.13c0-.71.18-.94,1-.94H102c3.13,0,6.45.42,8.36,2.4a6.39,6.39,0,0,1,1.74,4.54,6.8,6.8,0,0,1-4.66,6.46Zm-11.11-18.3h-1.8v7.85h2.23c2.89,0,4.8-1.4,4.8-4,0-2.83-2.09-3.83-5.23-3.83"/><path class="cls-1" d="M130.72,77.19c.69,0,1,.26.81.74l-.8,1.95c-.24.59-.59.68-1.27.68H121v5.88h6.85c.69,0,.9.26.9.71V89c0,.55-.25.78-.86.78H121v9c0,.59-.25.82-.86.82h-2.82c-.72,0-1-.16-1-.88V78a.72.72,0,0,1,.83-.81Z"/><path class="cls-1" d="M142.41,100c-6.89,0-10.85-4.51-10.85-11.55s4.32-11.71,11.1-11.71c7.14,0,10.86,4.86,10.86,11.52,0,7.33-4.65,11.74-11.11,11.74m.14-19.73c-3.6,0-6,3-6,8.09,0,5.38,2.2,8.11,6,8.11,3.57,0,6-2.82,6-8.11,0-5.46-2.13-8.09-6-8.09"/><path class="cls-1" d="M174.18,98.67c.4.59.33,1-.36,1h-3.21a1.33,1.33,0,0,1-1.37-.64l-5.19-7.63h-2.78v7.47c0,.48-.22.8-.83.8h-3c-.61,0-.86-.26-.86-.8V78.13c0-.71.18-.94,1-.94h5.34c3.14,0,6.45.42,8.37,2.4A6.43,6.43,0,0,1,173,84.13a6.8,6.8,0,0,1-4.66,6.46Zm-11.11-18.3h-1.8v7.85h2.24c2.88,0,4.79-1.4,4.79-4,0-2.83-2.09-3.83-5.23-3.83"/><path class="cls-1" d="M184.68,77.84a1,1,0,0,1,1-.65h2.88a1,1,0,0,1,1,.58l8.87,21c.19.46,0,.84-.54.84H194.6a1.09,1.09,0,0,1-1.22-.77L191.5,94.1h-9.12L180.5,99a.9.9,0,0,1-1,.68h-3.11c-.57,0-.72-.35-.54-.81ZM190.27,91l-2.56-6.85c-.32-.91-.54-1.59-.72-2.11h-.07c-.18.55-.43,1.27-.76,2.14L183.6,91Z"/><path class="cls-1" d="M43.65,76.8c-4.17-7.58-17-8.52-28.71-2.1S-2.86,92.48,1.31,100.07s17,8.52,28.71,2.09S47.82,84.38,43.65,76.8Zm-5.93,1.09-17,23.89a.74.74,0,0,1-.6.3h0a.74.74,0,0,1-.59-.31l-11-16.1a.44.44,0,0,1,0-.47A.47.47,0,0,1,8.84,85h2.68a.66.66,0,0,1,.44.17l8.4,7.64L33.63,77.39a.65.65,0,0,1,.5-.22h3.21a.46.46,0,0,1,.38.72Z"/><path class="cls-1" d="M61.1,127.57V114.83a.48.48,0,0,1,.58-.58h4a5.64,5.64,0,0,1,3,.82,3.27,3.27,0,0,1,1.32,3,3.64,3.64,0,0,1-2.47,3.73,5.65,5.65,0,0,1-1.7.3h-3v5.45c0,.29-.26.43-.78.43h-.16C61.36,128,61.1,127.86,61.1,127.57Zm4.78-6.94a2.68,2.68,0,0,0,1.6-.56,2.32,2.32,0,0,0,.77-2,2,2,0,0,0-.79-1.84,3.33,3.33,0,0,0-1.86-.52H62.82v4.9Z"/><path class="cls-1" d="M74,126.29a7.76,7.76,0,0,1-1.55-5.23A7.63,7.63,0,0,1,74,115.88a5.64,5.64,0,0,1,4.49-1.75A5.68,5.68,0,0,1,83,115.88a7.63,7.63,0,0,1,1.55,5.18A7.81,7.81,0,0,1,83,126.29a6.54,6.54,0,0,1-9,0Zm7.66-1.11a6.61,6.61,0,0,0,1.09-4.12A6.42,6.42,0,0,0,81.69,117a3.82,3.82,0,0,0-3.18-1.38A3.78,3.78,0,0,0,75.35,117a6.42,6.42,0,0,0-1.09,4.06,6.61,6.61,0,0,0,1.09,4.12,3.74,3.74,0,0,0,3.16,1.41A3.78,3.78,0,0,0,81.69,125.18Z"/><path class="cls-1" d="M89.24,126.89a4.13,4.13,0,0,1-1.38-3.32v-8.93c0-.29.26-.43.78-.43h.16c.52,0,.78.14.78.43v9a2.65,2.65,0,0,0,.47,1.54,3.16,3.16,0,0,0,1.3,1,4.8,4.8,0,0,0,3.72,0,3.16,3.16,0,0,0,1.29-1.06,2.56,2.56,0,0,0,.47-1.52v-9c0-.29.26-.43.79-.43h.15c.53,0,.79.14.79.43v8.93a4.14,4.14,0,0,1-1.39,3.32,7.2,7.2,0,0,1-7.93,0Z"/><path class="cls-1" d="M102.57,127.57V114.83a.5.5,0,0,1,.59-.58h3.29a6.13,6.13,0,0,1,3.54.83,3,3,0,0,1,1.18,2.63,3.47,3.47,0,0,1-.58,2.05,3.58,3.58,0,0,1-1.67,1.26v.08a1.86,1.86,0,0,1,1,.77,8.26,8.26,0,0,1,.81,1.68l1.53,3.86a.94.94,0,0,1,.06.28c0,.21-.27.31-.82.31h-.2a1.36,1.36,0,0,1-.51-.09.48.48,0,0,1-.27-.22L109,123.85a3,3,0,0,0-1.08-1.52,3.47,3.47,0,0,0-1.84-.4H104.3v5.64c0,.29-.26.43-.79.43h-.15C102.83,128,102.57,127.86,102.57,127.57Zm4.31-7.13a2.44,2.44,0,0,0,1.27-.34,2.48,2.48,0,0,0,.91-.88,2.25,2.25,0,0,0,.33-1.19,2.09,2.09,0,0,0-.7-1.73,3,3,0,0,0-1.94-.57H104.3v4.71Z"/><path class="cls-1" d="M119.36,127.82a.62.62,0,0,1-.13-.45V114.64c0-.29.26-.43.78-.43h.16c.52,0,.78.14.78.43v11.83h5.39a.34.34,0,0,1,.3.14.84.84,0,0,1,.09.45v.31a.84.84,0,0,1-.09.45.34.34,0,0,1-.3.14h-6.53A.65.65,0,0,1,119.36,127.82Z"/><path class="cls-1" d="M128.49,127.67a.94.94,0,0,1,.06-.28l4.65-12.87c.07-.21.34-.31.78-.31h.57c.47,0,.73.1.78.31L140,127.41a.85.85,0,0,1,.05.26q0,.33-.84.33H139c-.45,0-.71-.1-.78-.31l-1.16-3.22h-5.76l-1.11,3.22c-.07.21-.33.31-.79.31h-.09C128.77,128,128.49,127.89,128.49,127.67Zm8.08-4.69-2.06-5.83a8.55,8.55,0,0,1-.24-1.14h0a7.55,7.55,0,0,1-.29,1.14L131.88,123Z"/><path class="cls-1" d="M149.93,127.69l-4.49-12.9a.69.69,0,0,1-.06-.25q0-.33.84-.33h.18c.46,0,.72.1.78.31L150.81,125l.2,1h.05l.22-1,3.62-10.44c.07-.21.33-.31.79-.31h.12q.84,0,.84.33a.83.83,0,0,1-.06.27l-4.49,12.88c-.06.21-.32.31-.78.31h-.61C150.25,128,150,127.9,149.93,127.69Z"/><path class="cls-1" d="M159.51,127.57V114.64c0-.29.26-.43.78-.43h.16c.52,0,.78.14.78.43v12.93c0,.29-.26.43-.78.43h-.16C159.77,128,159.51,127.86,159.51,127.57Z"/><path class="cls-1" d="M165.56,127.82a.62.62,0,0,1-.13-.45V114.83a.48.48,0,0,1,.58-.58h6.84a.32.32,0,0,1,.3.13.84.84,0,0,1,.09.45v.32a.84.84,0,0,1-.09.45.32.32,0,0,1-.3.13h-5.7v4.47h5.11a.34.34,0,0,1,.31.14.84.84,0,0,1,.09.45v.31a.84.84,0,0,1-.09.45.32.32,0,0,1-.31.14h-5.11v4.78h5.72a.33.33,0,0,1,.3.14.84.84,0,0,1,.09.45v.31a.84.84,0,0,1-.09.45.33.33,0,0,1-.3.14H166A.62.62,0,0,1,165.56,127.82Z"/></svg>