<svg id="Ebene_1" data-name="Ebene 1" xmlns="http://www.w3.org/2000/svg" viewBox="0 0 200 200"><defs><style>.cls-1{fill:#fff;}</style></defs><title>DasZelt_Logo</title><polygon class="cls-1" points="90.46 106.63 106.18 106.63 101.2 82.22 95.44 82.22 90.46 106.63"/><polygon class="cls-1" points="64.46 106.63 73.73 106.63 76.93 106.63 90.48 82.22 85.91 82.22 64.46 106.63"/><polygon class="cls-1" points="110.73 82.22 106.16 82.22 119.72 106.63 122.91 106.63 132.18 106.63 110.73 82.22"/><polygon class="cls-1" points="95.44 79.31 101.2 79.31 98.32 65.18 95.44 79.31"/><polygon class="cls-1" points="85.91 79.31 90.48 79.31 98.32 65.18 85.91 79.31"/><polygon class="cls-1" points="98.32 65.18 106.16 79.31 110.73 79.31 98.32 65.18"/><polygon class="cls-1" points="53.71 106.63 57.34 106.63 63.17 101.14 59.09 83.81 53.71 106.63"/><polygon class="cls-1" points="35.92 106.63 44.45 106.63 59.09 83.81 35.92 106.63"/><polygon class="cls-1" points="59.09 83.81 67.56 97.01 70.08 94.64 59.09 83.81"/><polygon class="cls-1" points="133.47 101.14 139.31 106.63 142.93 106.63 137.55 83.81 133.47 101.14"/><polygon class="cls-1" points="126.56 94.64 129.08 97.01 137.55 83.81 126.56 94.64"/><polygon class="cls-1" points="152.19 106.63 160.72 106.63 137.55 83.81 152.19 106.63"/><path class="cls-1" d="M0,111.66H13.07c12.26,0,18.48,5.84,18.48,16.71v.34c0,10.92-6.41,17.19-18.48,17.19H0Zm12.69,25.91c5.31,0,7.56-2.64,7.56-8.62v-.38c0-6.28-2.34-8.58-7.61-8.58H10.87v17.58Z"/><path class="cls-1" d="M40.46,111.66h14L65.21,145.9H53.72l-1.58-5.7H41.32l-1.53,5.7H29.69Zm2.92,21.17h6.75l-3.35-12.4Z"/><path class="cls-1" d="M64.88,134.93H75.17c.2,2.16,1.25,3.93,4.79,3.93,2.54,0,3.78-1.15,3.78-2.83s-1.19-2.39-4.88-2.92c-9.86-1.1-13.21-4-13.21-11,0-6.32,5.17-10.92,13.69-10.92s13.21,3.45,13.79,10.92H83.07a3.36,3.36,0,0,0-3.73-3.3c-2.25,0-3.4,1-3.4,2.49s1,2.39,4.79,2.87c8.62.91,13.4,3.11,13.4,10.73,0,6.36-5,11.63-14.17,11.63C70.29,146.52,65.12,142.64,64.88,134.93Z"/><path class="cls-1" d="M93.8,144.75l13.69-25H95.71v-8.14h27v1.15l-13.55,24.9h12.74v8.19H93.8Z"/><path class="cls-1" d="M124.54,111.66h24.32V120h-13.5v4.84h10.73v7.61H135.36v5.13h14.27v8.33H124.54Z"/><path class="cls-1" d="M153.27,111.66h10.87v25.86h12.45v8.38H153.27Z"/><path class="cls-1" d="M180.42,120H171.8v-8.33H200V120h-8.67V145.9H180.42Z"/><path class="cls-1" d="M26,106.4l-.08,0A3.41,3.41,0,0,1,24,101.76,2.74,2.74,0,0,1,27.5,100L27,101.18a1.52,1.52,0,0,0-2,1c-.5,1.15.07,2.29,1.53,2.92l.07,0c1.47.64,2.64.31,3.16-.89a1.67,1.67,0,0,0-.65-2.27l.51-1.18a2.83,2.83,0,0,1,1.13,3.88A3.26,3.26,0,0,1,26,106.4Z"/><path class="cls-1" d="M30.24,97.27l-.07,0a3.48,3.48,0,0,1-1.23-5,3.44,3.44,0,0,1,4.92-1.2l.07,0a3.59,3.59,0,1,1-3.69,6.16Zm3-5-.07,0a2.26,2.26,0,0,0-3.32.57c-.72,1.19-.27,2.42,1,3.22l.07,0a2.3,2.3,0,0,0,3.34-.59C35,94.34,34.55,93.09,33.23,92.29Z"/><path class="cls-1" d="M33.49,85.58l1.12-1.37,4.94,1.64L37,81.36,38.08,80l5.48,4.51-.84,1-4.14-3.42,2.8,5.05-.27.33-5.52-1.75,4.14,3.41L39,90.1Z"/><path class="cls-1" d="M41.41,76.58l3.24-3,.72.76-2.28,2.14,1.33,1.42,1.83-1.71.68.72L45.1,78.59l1.43,1.51,2.4-2.25.71.76-3.36,3.16Z"/><path class="cls-1" d="M48.06,70.68l1.73-1.28c2-1.47,3.8-1.05,5,.61l0,.07c1.23,1.66,1.14,3.56-.87,5l-1.72,1.27Zm5.29,3.63a2.17,2.17,0,0,0,.42-3.4l-.05-.06c-.91-1.24-2-1.57-3.36-.57l-.62.45,3,4Z"/><path class="cls-1" d="M59.47,67.79l-4-2.32,1.27-.73,2.85,1.76-.11-3.33,1.12-.65.08,4.61,1.53,2.66L61,70.46Z"/><path class="cls-1" d="M69.82,62.19l0-.07a3.42,3.42,0,0,1,2.06-4.57,2.75,2.75,0,0,1,3.7,1.34l-1.27.45a1.52,1.52,0,0,0-2.07-.8c-1.19.42-1.63,1.6-1.11,3.11l0,.07c.52,1.51,1.56,2.15,2.8,1.72a1.65,1.65,0,0,0,1.22-2L76.37,61a2.83,2.83,0,0,1-2.09,3.46A3.26,3.26,0,0,1,69.82,62.19Z"/><path class="cls-1" d="M79.4,59.09l0-.08a3.49,3.49,0,0,1,2.81-4.26,3.44,3.44,0,0,1,4.22,2.8v.08a3.59,3.59,0,1,1-7,1.46Zm5.68-1.18v-.07a2.26,2.26,0,0,0-2.67-2.06c-1.37.28-2,1.44-1.67,2.94l0,.08a2.29,2.29,0,0,0,2.7,2.06C84.76,60.6,85.39,59.42,85.08,57.91Z"/><path class="cls-1" d="M90.13,53.6l1.58-.11L95,58.43l-.34-5.13,1.2-.08.46,7.1L95,60.41l-3.54-5.23.35,5.43-1.2.08Z"/><path class="cls-1" d="M100.08,56.79v-.08a3.42,3.42,0,0,1,3.67-3.41A2.74,2.74,0,0,1,106.65,56l-1.34-.09a1.51,1.51,0,0,0-1.61-1.53c-1.25-.08-2.12.84-2.22,2.43v.07c-.1,1.6.6,2.59,1.91,2.68a1.67,1.67,0,0,0,1.92-1.39l1.29.08a2.83,2.83,0,0,1-3.27,2.38A3.26,3.26,0,0,1,100.08,56.79Z"/><path class="cls-1" d="M111.07,54.2l4.37.81-.19,1-3.07-.56-.35,1.92,2.46.45-.18,1-2.46-.46-.38,2,3.24.59-.19,1-4.54-.84Z"/><path class="cls-1" d="M119.75,56.06l2.28.7c1.49.45,2.35,1.38,1.93,2.77v0a1.88,1.88,0,0,1-2.07,1.36l1,3.52L121.52,64l-.94-3.29-.81-.25-.84,2.75-1.26-.39Zm1.32,3.84c.84.26,1.4,0,1.62-.69v0c.24-.78-.16-1.2-1-1.45l-1-.31-.66,2.17Z"/><path class="cls-1" d="M129.57,60.61l-1.82-.79.42-1L133,61l-.42,1-1.81-.78-2.42,5.56-1.22-.53Z"/><path class="cls-1" d="M139.07,68.32l0-.06A3.42,3.42,0,0,1,144,67.19,2.75,2.75,0,0,1,145.14,71L144,70.21a1.51,1.51,0,0,0-.6-2.14c-1-.71-2.26-.36-3.15,1l-.05.07c-.9,1.32-.79,2.53.29,3.27a1.67,1.67,0,0,0,2.35-.22l1.07.72a2.82,2.82,0,0,1-4,.39A3.27,3.27,0,0,1,139.07,68.32Z"/><path class="cls-1" d="M149.78,71.66l1,.85L146.24,78l-1-.85Z"/><path class="cls-1" d="M154.28,75.61,156,77.3c1.1,1.12,1.41,2.34.38,3.36l0,0a1.86,1.86,0,0,1-2.46.21l-.79,3.58-1-1,.74-3.34-.6-.6-2,2-.93-.94Zm-.67,4c.62.63,1.22.7,1.76.17l0,0c.58-.57.42-1.13-.17-1.73l-.75-.75-1.61,1.59Z"/><path class="cls-1" d="M157.71,84.47l.07,0a3.42,3.42,0,0,1,5,.52,2.73,2.73,0,0,1-.11,3.93l-.82-1.06a1.52,1.52,0,0,0,.1-2.22c-.77-1-2-1-3.3-.07l-.06,0c-1.27,1-1.55,2.16-.75,3.2a1.66,1.66,0,0,0,2.3.52l.79,1a2.84,2.84,0,0,1-3.94-.9C155.61,87.66,156,85.81,157.71,84.47Z"/><path class="cls-1" d="M163.11,93.24l3.8-2.22.67,1.15-3.71,2.17c-1.13.65-1.38,1.28-.85,2.19s1.17,1.1,2.44.36l3.64-2.12.67,1.15L166,98.1a2.59,2.59,0,0,1-3.94-1A2.52,2.52,0,0,1,163.11,93.24Z"/><path class="cls-1" d="M167.19,101.66l.5,1.16a1.34,1.34,0,0,0-.58,2,1.18,1.18,0,0,0,1.53.81c.6-.26.7-.66.42-1.8-.46-1.65-.3-2.59.92-3.12s2.26.11,2.85,1.47.32,2.52-.87,3.19l-.48-1.12a1.19,1.19,0,0,0,.44-1.68c-.32-.73-.84-1-1.35-.75s-.7.56-.37,1.76c.44,1.63.35,2.61-1,3.17a2.34,2.34,0,0,1-3.05-1.53C165.43,103.41,166,102.28,167.19,101.66Z"/></svg>