<?xml version="1.0" encoding="utf-8"?>
<!-- Generator: Adobe Illustrator 24.1.0, SVG Export Plug-In . SVG Version: 6.00 Build 0)  -->
<svg version="1.1" xmlns="http://www.w3.org/2000/svg" xmlns:xlink="http://www.w3.org/1999/xlink" x="0px" y="0px"
	 viewBox="0 0 200 200" style="enable-background:new 0 0 200 200;" xml:space="preserve">
<style type="text/css">
	.st0{fill:none;}
	.st1{fill:#FFFFFF;}
	.st2{fill:#AFD7F4;}
</style>
<g id="Ebene_1">
	<g>
		<path class="st0" d="M67.9,109.2c0,0,0.1,0,0.1,0c0,0,0.1,0,0.1,0c3.1,0,5.5-0.7,7-2.3c1.6-1.6,2.3-3.9,2.3-6.9
			c0-6.1-2.8-9.2-9.3-9.2c0,0-0.1,0-0.1,0c0,0-0.1,0-0.1,0c-3.1,0-5.5,0.7-7,2.3c-1.6,1.6-2.3,3.9-2.3,6.9
			C58.5,106.1,61.3,109.2,67.9,109.2z M67.9,94.6C67.9,94.6,68,94.6,67.9,94.6c0.1,0,0.2,0,0.2,0c1.5,0,2.6,0.4,3.2,1.2
			c0.7,0.8,1.1,2.2,1.1,4.2c0,2.9-0.8,5.4-4.3,5.4c0,0-0.1,0-0.1,0c0,0-0.1,0-0.1,0c-1.5,0-2.6-0.4-3.2-1.2
			c-0.7-0.8-1.1-2.2-1.1-4.2C63.6,97.1,64.3,94.6,67.9,94.6z"/>
		<path class="st0" d="M42.1,116.7L42.1,116.7c0.4,1.3,0.8,2.6,1.3,3.9c0.2,0.6,0.4,1.2,0.7,1.8c-0.2-0.6-0.5-1.2-0.7-1.8
			C42.9,119.3,42.5,118,42.1,116.7z"/>
		<path class="st0" d="M43.4,79.4C51.8,56.3,74,39.7,100,39.7c0,0,0,0,0,0C74,39.7,51.8,56.3,43.4,79.4c-0.5,1.3-0.9,2.6-1.3,3.9h0
			C42.5,82,42.9,80.7,43.4,79.4z"/>
		<polygon class="st0" points="93.1,108.8 98.2,108.8 98.2,91.1 93.4,91.1 93.6,101.8 87.1,91.1 81.6,91.1 81.6,108.8 86.4,108.8 
			86.3,97.5 		"/>
		<path class="st0" d="M44.7,123.8C44.7,123.9,44.7,123.9,44.7,123.8L44.7,123.8C44.7,123.9,44.7,123.9,44.7,123.8z"/>
		<path class="st0" d="M102.9,39.8c0.2,0,0.5,0,0.7,0C103.4,39.9,103.1,39.8,102.9,39.8z"/>
		<path class="st0" d="M44.1,79.7c-0.5,1.3-0.9,2.6-1.2,3.8l-0.2,0.6h-0.6h-0.2c-0.3,1-0.5,2-0.7,3.1h3.6c0-0.1,0-0.3,0-0.4
			c0.3-0.2-0.1-0.5,0.2-0.7c0-1.3,0.8-2.5,1.1-3.8c0.3-0.4,0.9-0.4,1.1,0.2c0,0.2,0.1,0.5,0.3,0.6c0,0.4,0.4,0.8,0,1.1
			c0,0.5-0.5,0.8-0.7,1.3c-0.1,0.3,0.4,1.1,0.9,1.8h21.3c-0.2-0.5-0.1-1.2-0.3-1.7c0.1-0.2,0.1-0.5-0.2-0.6
			c-0.9,0.4-1.5,1.6-2.2,2.1c-0.3,0-0.5-0.2-0.7-0.3c0-1,0.6-1.7,0.7-2.6c0.3-0.6,0.3-1.3,0.2-2c-0.5-1.2-0.6-2.6-0.2-3.8
			c0-0.2-0.1-0.3,0-0.5c0.1,0.1,0.1-0.1,0.2-0.1c0-0.2,0-0.3,0.1-0.5c0,0,0,0-0.1,0c0,0,0,0-0.1,0c0,0-0.1,0.1-0.1,0.1l-0.4,0.3
			c-0.2,0.1-0.4,0-0.5-0.1L65,77.3c-0.2,0.2-0.4,0.4-0.7,0.7c-0.2,0.2-0.4,0.1-0.6,0c0,0,0,0-0.1,0c-0.2-0.1-0.4-0.4-0.2-0.7
			c0.4-1.2,1.3-2.1,1.9-3.2c0.4-0.9,0.8-1.7,1.2-2.6l0.1-0.4c0-0.1,0-0.2,0.1-0.3l0.2-0.2c0.1-0.1,0.2-0.2,0.3-0.2l0.7,0
			c0.4-0.2,0.8-0.2,1.3-0.2h0l0.1-0.3c0-0.7,0-1.5,0.5-1.9c2-1.7,4.7-2,7.1-2.7l0.1,0c0.1-0.1,0.2-0.1,0.3-0.1l0.2,0h0.2
			c0.2,0,0.4,0.1,0.4,0.3l0.1,0.4c0.5,0,1.1,0,1.6,0.2c0.2,0.2,0.6,0.3,0.8,0.6c0,0.6-0.5,0.7-0.9,0.9c-0.6-0.1-0.7,0.3-1.2,0.5
			c-0.2,0.3-0.6,0.2-0.8,0.5c0,0.3,0.3,1-0.2,1.1c-1,0.4-2.1,0.6-2.9,1.4c-0.7,0.1-1.5-0.1-2.1-0.2c-0.5,0.4-0.7,1-1.1,1.5
			c0.1,0.8,1.6,0.6,1.3,1.7C71.4,75,70,75.9,69.2,77c-0.4,0.7-0.9,1.3-1.3,2c0.5,0.8,1.1,1.5,1.8,2.1c1.6-0.1,3.2-0.7,4.8-1
			c0.7-0.2,1.4-0.6,1.8-1.3c1.2-0.9,2.5-2.1,3.5-3.3c0.9-0.4,1.4-1.3,1.6-2.2c0.4-1.8,1.3-3.3,1.7-5c-0.6-0.8-1.2-1.5-1.6-2.3
			c0-0.2,0.1-0.4,0.3-0.5c0.6-0.2,1-1,1.5-1.4c0.1-0.1,0.2,0.1,0.3,0.1c0.6,0.6-0.2,2.3,1.2,1.9c1.7-0.5,3.3-0.8,4.9-1.6
			c0.2,0,0.5-0.1,0.7,0.1c0.1,0.2,0.1,0.4,0,0.6c-1.2,1-2.3,2-3.5,2.9c-0.2,0.1-0.5,0.5-0.2,0.6c0.8,0.2,1.7,0,2.4,0.5
			c0.2,0.7-0.6,0.7-0.8,1.1c-1.3,0.6-1,2.4-1.8,3.5c-0.3,0.6-0.5,1.3-0.8,1.9c-1.1-0.1-1.9-0.7-3.1-0.8c-0.3-0.1-0.1,0.3-0.3,0.2
			c-0.3,0.1-0.2,0.5-0.5,0.5c0,0.3,0.3,0.3,0.5,0.4c0.8,0.5,1,0.9,1.4,1.1c0.6,0.3,0.8,1,1,1.2c0.1,0.3,0.2,0.6,0.1,1.1
			c-0.2,0.5-0.2,0.6-0.4,1c-0.2,0.5-0.4,0.9-0.7,1.1c-2.6,1.4-5.4,4.5-8.9,5.1c-0.9,0.1-0.7,0.2-1.1,0.2c-0.4,0.3-0.8,0.5-1.1,0.7
			h18.7c-0.3-0.6-0.7-1.2-1.3-1.7c0.3-1,0.1-1.9,0.5-2.9c-0.1-0.6,0.3-1.1,0.3-1.7c0.3-0.3,0.2-0.8,0.4-1.2c0.6-1.8,1-3.8,1.4-5.7
			c0.6-0.5,1.1-1.1,1.8-1.4c1-0.9,2.3-1.6,3.4-2.4c1.3-0.6,2.8,0.1,4.3-0.1c0.6-0.5,1.2-1,1.9-1.4c0.3-0.6,1-0.6,1.6-0.8
			c2.6,0.2,5.2,0.5,7.8,0.5c1.3-0.2,1.9,1.3,2.9,1.8c0.4,0.4,0.5,0.9,1,1.1c0.7,0,1.3-1.1,2-0.2c0.1,1.1-1,2.3-0.2,3.2
			c0.5,0.6,0.8,2.2,1.1,2.8c0,0.7-0.1,0.4-0.3,0.5c-0.3,0-0.5-0.2-0.7-0.2c-1.1,0.2-2.5-0.4-3.6-0.1c-0.6-0.3-1.1-1.2-1.7-1.5
			c-0.2-0.3-0.5,0-0.6-0.4c-0.5,0.2-0.6-0.3-1-0.2c-0.5-0.2-0.8-0.4-1.2-0.5c-0.1,0.1-0.1-0.2-0.3-0.2c-0.9-0.3-1.8-0.6-2.7-0.9
			c0-0.9-0.1-1.7-0.2-2.6c-0.5,0.7-1,1.5-1.1,2.3c-0.1,0.3-0.2,0.6-0.5,0.8c-0.9,0-2-0.1-3,0.1c0,0.8,0.4,1.6,0.6,2.5
			c-0.2,0.2,0.1,0.4-0.1,0.6c-1.1,0.5-2.1,1.5-3,2.3c-0.8,1-1.3,1.8-1.6,3c-0.4,0.6-0.6,1.3-0.8,2.1c-0.2,0.5,0,1.5-0.7,1.7
			c-0.1,0.2-0.3,0.5-0.4,0.7h22.8c0.3-1.5,0.4-3.6,0.3-5.1c0.2-0.8,0.1-1.8,0.2-2.6c0.2-0.2,0.5-0.3,0.6-0.6c1-0.5,2.1-0.6,3.1-1
			c0.2,0,0.3,0.2,0.4,0.3c-0.2,1.1-1,2-1.6,2.9c0.5,0.4,1.1,0.2,1.6,0.5c0.8,0.2,1.7,0.3,2.3,0.9c0.4,1.6,0.2,3.2,0.3,4.7h8
			c0.3-0.8,0.9-1.5,1-2.6c0.1-0.2,0.3-0.3,0.5-0.3c0.4,0,0.4,0.5,0.7,0.7c1.1,0.8,1.9,1.5,3,2.2h7.2c0.1-1,0.3-2,0.9-2.6
			c2.3-1.6,2.9-3.7,3-6.2l-0.1,0.1c-0.1,0.1-0.3,0.2-0.4,0.2l-0.4-0.1c-1-0.7-0.5-2-0.7-3c0-0.2-0.2-0.4-0.3-0.6l-0.1,0
			c-0.4-0.6-1-0.4-1.4-0.5l-0.2,0c-0.1,0-0.2-0.1-0.3-0.2l-0.2-0.2c0,0,0,0,0,0l-0.1-0.2c-0.2-0.2-0.1-0.5,0.1-0.7l0.2-0.3
			c0.5-0.4,0.9-0.9,1.2-1.4c0.3-0.6,0.3-1.3,0.2-1.9c0-0.1,0-0.1,0-0.2c0-0.2-0.1-0.5-0.1-0.7c0-0.1,0-0.1,0-0.2
			c-0.4-0.5-0.8-0.9-1.2-1.4c-1-0.5-0.9-1.9-1.9-2.3c-0.3,0.4-1.3,1.2-1.4,1.8c0.8,1,1,2.2,2,3c0.4,0.5,0.9,1.8,0.5,2.7
			c-0.7,0.8-0.4,0.6-1.2,1.2c-1,1.6-1.7-1.5-2.8-1.8c-0.9,0.7-1.5,1.9-2.7,1.9c-1-0.9-2.2-1.9-3.2-2.7c-0.9-0.6-1.6-1.4-2.6-1.8
			c-0.2,0.1-0.3,0.3-0.3,0.5c0.7,0.7,1.6,1.4,2.2,2.1c0.3,0.1,0.5,0.5,0.5,0.8c-0.7,1.2-2.1,2.1-2.9,3.1c0.1,0.7,0.2,1.4,0.6,2
			c0.3,1.7,1,3.3,1.3,5c-0.2,0.3-0.5,0.5-0.8,0.4c-0.9-1-1.5-2.2-2.1-3.4c-1.3-1.5-2.2-3.3-3.2-4.9c-0.1,0.1-0.2,0.1-0.3,0.1l-0.5,0
			c-0.8-0.3-1.4-0.8-2.2-1l-0.2-0.3c-0.1-0.1-0.1-0.2-0.1-0.3V73l0-0.2c0-0.2,0.1-0.3,0.3-0.4l0.3-0.1c0,0,0,0,0.1-0.1l0-0.1
			c0.1-0.1,0.2-0.2,0.3-0.2c0.2-0.3,0.4-0.7,0.5-1.1c0-0.1,0.1-0.2,0.2-0.2c-0.2-0.7-0.3-1.4-0.5-2.2c0-1.6-0.9-3.1-0.9-4.6
			c0.2-0.7,0.8-0.9,1.3-1.4c0.3-0.5,1-0.9,1.1-1.4c0.5-0.4,0.5-1.2,1.1-1.5c0.3,0.1,0.5,0,0.7,0.1c1.9,0,3.6,0.7,5.6,0.8
			c0.2,0.4,0.6,0,0.9,0.3c1.3,1.6,3.2,3,5.2,3.6c0.2-0.3,1.2-1.1,1.2-1.4c-2.2-1.7-4.3-3.4-6.8-5c-0.9-0.2-0.8,0.9-1.6,0.8
			c-1.2-0.4-2.2-0.4-3.5-0.7c-0.8-0.2-1.6,0-2.2,0.6c-0.8,0.2-1.4,1-2.1,1.5c-0.5,0-1,0-1.4-0.1c-0.3-0.2-0.7-0.5-1-0.8
			c-1.2-0.5-2.3-1.3-3.5-2.1c-0.1-0.2-0.3-0.5,0-0.8c0.5-0.3,0.7,0.1,1.2,0c0.2-0.1,0.4,0.2,0.6,0.1c1.7,0.6,3.5,0.8,5.4,0.6
			c0,0,0.1,0,0.1-0.1c-0.6-0.6-0.7-1.6-1.6-1.8c-0.3-0.2-0.6-0.3-1-0.4c-0.6-0.3-1.8,0-2.2-0.8c-0.1-0.2,0.1-0.5,0.3-0.6
			c1-0.3,2-0.3,2.9-0.8c1.1-0.2,2.4-0.3,3.4-1c0-0.2-0.2-0.3-0.2-0.4c-0.6-0.6-1.4-0.1-2.1,0.1c-0.9,0.3-1.9,0.9-2.9,0.6
			c-1.1-0.7-2.3-1.3-3-2.6c-0.1-0.2,0-0.4,0.1-0.5c1.1-0.5,2.1-1.2,3.4-1.3v-0.2c-0.2-0.2-0.5-0.3-0.8-0.3c-0.9,0.1-1.8,0.4-2.7,0.5
			c-0.8,0.4-1.7,1.1-2.6,0.8c0-0.2-0.2,0-0.2-0.2c-0.2-0.2-0.2-0.3-0.2-0.6c-1.2-1.1-1.8-3.9-3.6-4.3c-1.9-0.6-2.1,0.6-3.1,0.4
			c-0.7-0.3-0.4-0.8-0.4-1.5c-4.1-0.9-8.3-1.4-12.6-1.4C75.1,40.6,52.7,56.3,44.1,79.7z M59.5,64.4c0.8-0.2,1.5-1.4,2.4-0.8
			c0,0.8-0.6,1.5-0.9,2.2c0,0.3-0.3,0.7,0.2,0.8c0.5,0.1,1.2-0.4,1.5,0.2c-0.2,0.6-1.1,0.8-1.5,1.4c-0.2,0.1-0.5,0.3-0.8,0.1
			c-0.2-0.2-0.3-0.5-0.1-0.7c0.3-0.4-0.5-0.6-0.5-1.1c-0.3-0.3-0.5-0.9-1-1.1c-0.3,0.1-0.8,0.1-0.9-0.3C58.2,64.6,59,64.7,59.5,64.4
			z M51.4,71l0.7-1.4c0.5-0.7,1.2-1.3,1.6-2.1c0.5-0.3,0.8-0.7,1.2-1.2c0.1-0.2,0.2-0.4,0.4-0.5c0,0,0.1-0.1,0.1-0.1l0.1-0.1
			c0.1-0.2,0.3-0.2,0.5-0.2l0.5,0.1c0.5,0.5,1.1,0.9,1.6,1.4l0.2,0.4c0,0.1,0,0.3,0,0.4L58,68c-0.5,0.4-0.8,1-1.1,1.6l-0.3,0.2
			c-0.1,0.1-0.2,0.1-0.3,0.1h-1l-0.4,0.4c0,0,0,0,0,0l0,0v1.5l0,0.3c0,0.2-0.2,0.4-0.4,0.4h-0.4c-0.4,0.2-0.8,0.3-1.2,0.5
			c0,0.1-0.1,0.2-0.3,0.2c0,0,0,0,0,0c0,0,0,0,0,0c0,0,0,0-0.2,0.2c-0.1,0-0.2-0.1-0.3-0.2c-0.2,0-0.3-0.1-0.4-0.3
			c-0.2,0-0.5,0-0.5-0.3c-0.2-0.1-0.2-0.4-0.3-0.6C51.2,71.9,51.2,71.4,51.4,71z M62.8,73.5c0,0.1-0.1,0.2-0.2,0.3l-0.2,0.1
			C62.4,74,62.3,74,62.2,74h-0.3c-0.5,0-1.1,0-1.6,0.1l0,0c-0.3,0.5-0.1,1.1-0.2,1.6L60,76.1c-0.1,0.2-0.2,0.4-0.5,0.4h-0.2l-0.2,0
			c-0.1,0-0.2,0-0.3-0.1l-0.3-0.2c-0.2,0-0.4,0-0.7,0c-0.6,0.5-1.2,1.1-1.8,1.5c-0.6,0.2-1.1-0.6-1.5,0.2c-0.6,0.5-1.2,1.1-1.9,1.6
			c-0.8-0.1-1-1.1-1.4-1.6c-0.3-0.6-1.4-0.6-1-1.5c0.1-0.2,0.3-0.5,0.1-0.7c0-0.6-0.3-1.4,0.4-1.7c0.3-0.2,0.4,0.3,0.6,0.3
			c0,0.2,0.1,0.3,0.1,0.5c0.4-0.1,0.7,0.2,0.8,0.5c0.2,0.3,0.2,0.7,0.6,0.5c1.3-0.4,2.4-1,3.7-1.3c1.1-1.2,2.1-2.6,3.2-3.8
			c0.1-0.1,0.3-0.2,0.5-0.3l0.1,0c0.2-0.1,0.4-0.1,0.6,0.1l0.3,0.3c0.8,0.7,1.5,1.6,1.5,2.7L62.8,73.5z M70.4,53.9
			c0-0.1,0-0.2,0.1-0.3l-0.1-0.3c0.1-0.3,0.2-0.6,0.3-0.8c0.1-0.3,0.2-0.6,0.4-0.8l-0.1-0.5c0-0.1,0-0.2,0.1-0.2l0.3-0.3
			c1-0.8,1.6-1.9,2.7-2.6c1.1-0.7,2.1-1.4,3.4-1.7c0.4-0.1,0.8-0.1,1.3,0l0.3,0.1c0.1,0,0.2,0.1,0.2,0.2l0,0.2c0,0,0,0,0,0.1v0.3
			c0,0,0.1,0,0.1,0c0,0.1-0.1,0.2-0.2,0.2c0,0,0,0,0,0c-0.2,0.2-0.6,0.4-0.9,0.5c0,0.6-0.8,0.9-1.1,1.3c-0.7,1.1-1.9,1.9-2.4,3.3
			c-0.6,0.5-1.3,0.4-2.1,0.6c-0.2,0-0.4,0.1-0.6,0.2L71.9,54c-0.1,0.1-0.2,0.3-0.2,0.4c0,0,0-0.1,0-0.1l-0.4,0.4
			c0,0-0.1,0.1-0.1,0.1l-0.2,0.1c0,0-0.1,0-0.1,0h-0.3c-0.1,0-0.2-0.1-0.2-0.2l0-0.2c0,0,0,0,0,0l0-0.2c0-0.1,0-0.1,0.1-0.2
			C70.4,54.1,70.4,54,70.4,53.9z M85.2,48.8c-0.5,0.5-1,0.8-1.6,1.2c-0.2,0.8-0.6,1.6-0.6,2.4c-0.8,1.8-2.2,3.4-3.6,4.8
			c-1.1,0.5-2.1-0.7-3.3-0.6c-0.8,0.8-1,1.9-1.8,2.6c-0.9,0-1-0.8-1.2-1.4c0-0.2,0-0.3-0.2-0.5c-0.5,0.1-0.7,0.4-1.1,0.6
			c-1.1-0.3-2,1.9-2.8,0.4c0.2-1,0.3-1.6,0.4-2.6c0.2-0.2,0.6-0.3,0.9-0.1c0.5,0.3,0.9,1,1.4,1.1c1.8-1.1,3.7-2.2,5.6-3.1
			c1.1-0.8,3-1,3.2-2.6c0.9-0.6,0.8-1.9,1.4-2.7c0.3-0.7-0.2-1.4-0.6-2.1c0.2-0.1,0.2-0.3,0.4-0.3c0.3,0.2,0.7-0.1,1,0.3
			c0.8,0.5,1.5,1.3,2.5,1.1c0.3,0,0.5,0.2,0.7,0.5C86.1,48.3,85.4,48.5,85.2,48.8z M101.6,67.7v0.4c0,0.1,0,0.1-0.1,0.2
			c0,0.1,0,0.1,0,0.2l0,0.4c0,0.1-0.1,0.2-0.1,0.3l-0.2,0.2c-0.2,0.2-0.5,0.2-0.7,0c0,0,0,0-0.1-0.1l-0.1-0.2l0,0l-0.2-0.2
			c0,0,0,0,0,0c-1-0.7-1.6-1.9-2-3l0-0.5c0-0.1,0-0.2,0.1-0.3l0.2-0.2c0,0,0.1-0.1,0.1-0.1l0.2-0.1c0.1-0.1,0.2-0.1,0.2-0.1l0.8,0.2
			c0,0-0.1,0-0.1,0l0.4,0c0.1,0,0.2,0,0.3,0.1l0.4,0.4c0,0,0,0,0,0l0.3,0.1c0.2,0,0.4,0.1,0.4,0.3l0.1,0.5
			C101.9,66.8,101.5,67.3,101.6,67.7z M124.7,74.6c-1.6,0-3,0.1-4.6,0.3c-0.2-0.2-0.3-0.5-0.2-0.7c0.7-0.8,1.8-1,2.5-1.8
			c0.7-0.1,1.8-0.8,2.1,0.3C124.8,73.3,125.4,74.1,124.7,74.6z M122.5,60.8c0.3,0,0.5,0.2,0.8,0.2c0.6,0.5,1.6,0.6,2.1,1.3
			c0,0.3,0.2,0.7-0.1,0.9c-0.6,0.3-1.3,0.2-1.8,0.6c-0.6-0.1-1.4,0.4-1.6-0.4c-0.8-0.7-1.1-1.8-2-2.5c0.1-0.3-0.3-0.5-0.1-0.8
			C120.8,59.8,121.6,60.7,122.5,60.8z M112.8,49.4c0.5-0.1,0.9-0.3,1.3-0.5c0.3-0.8,0-1.4-0.3-2.1c-0.2-0.2-0.7-0.5-0.3-0.8
			c0.3-0.2,0.5,0.1,0.8,0.2c0.9,0.5,1.9,0.8,2.8,1.1c0.5,0.5,0.4,1.2,0.7,1.7c0.5,0.5,1,1.3,1.6,1.9c0,0,0,0.1,0,0.2l0.2,0
			c0.1,0.1,0.1,0.1,0.2,0.2l0.1,0.1c0.1,0.1,0.2,0.1,0.2,0.2l0.1,0.2c0.1,0.2,0,0.5-0.3,0.6c-0.1,0-0.1,0-0.2,0h-0.2
			c-0.6,0-1.1,0-1.7,0c0.4,0.4,0.7,0.9,1,1.4c0.1,0,0.2,0.1,0.3,0.1c-0.1,0.1-0.1,0.1-0.1,0.2c0.2,0.4,0.4,0.8,0.6,1.1l0.3,0.3
			c0.1,0.1,0.1,0.2,0.1,0.3v0.3c0,0,0.1,0.1,0.1,0.1l0.1,0.2c0.1,0.2,0.1,0.5-0.2,0.7c-0.1,0-0.2,0.1-0.2,0.1h-0.2
			c-2,0.1-3.5-1.1-5.5-1.4c-0.4-0.1-0.7,0-1.1-0.1l-0.1-0.1l-0.2,0.1c-0.3,0.7-1.2,1.2-1.4,2l-0.1,0.3c0,0.1-0.1,0.2-0.1,0.3
			l-0.2,0.2c0,0,0,0,0,0l-0.2,0.2c-0.1,0.1-0.2,0.1-0.3,0.1h-0.2c-0.1,0-0.2,0-0.2-0.1l-0.2-0.1h0l-0.2-0.1c-0.1,0-0.2-0.1-0.2-0.2
			l0.3,0.1c-0.1,0-0.2-0.1-0.3-0.1l-0.1,0c-0.2,0-0.4-0.2-0.5-0.4l0.1,0c-0.8-0.9-1.7-1.7-2.4-2.7l-0.1-0.1l-0.3,0.2
			c-1.6,0.8-2.9,1.9-4.3,3l-0.3,0.1c-0.3,0.1-0.5-0.1-0.6-0.4c0,0,0-0.1,0-0.1l0-0.2c0-0.1,0.1-0.2,0.1-0.3l0.1,0
			c0.4-1.1,1.5-1.8,1.4-3.1c0,0,0,0,0-0.1c0-0.1,0-0.2,0.1-0.3c-1.1,0.1-1.9,1.2-2.9,0.6c-0.3-0.4-0.1-0.9-0.1-1.4
			c0.3-0.6,0.4-1.3,0.8-1.8c0-0.2,0.1-0.4,0.3-0.5c2.6,0.2,5.1,0.3,7.9,0.6C110.4,51,111.5,50,112.8,49.4z M108.3,43.6
			c0.3,0,0.4,0.2,0.6,0.3c1.3,0.7,3.7,0.2,3.7,2.3c-0.3,0.1-0.5,0.6-0.8,0.3c-0.4-0.2-0.8-0.1-1.1-0.5c-0.6-0.2-1-0.4-1.5-0.5
			c-0.9,0-1.8-0.5-2.6-0.2c-1.1,0.1-2.2,0.4-3.2,0.6c-0.2,0.6,0.6,1.6-0.3,2c-1,0.1-1.8,0.1-2.6,0.1c-0.7,0.8-0.3,1.9-1.1,2.8
			c-0.2,0.2-0.7,0.2-0.8,0.4c0.1-0.1,0.1,0.2,0.2,0.2c0,0.6-0.3,0.8-0.6,1.4c-0.6,0.3-0.2,1.3-0.9,1.6c-0.2,0.4-0.6,0.3-1,0.2
			c-0.3-0.6-1.3-0.3-1.8-0.2c-0.3-0.3-0.4-0.7-0.2-1.1c0.1,0,0.1-0.2,0.2,0c0.7-0.2,1.1-1,1.6-1.1c0.4-0.4,1-0.6,1.1-1.2
			c0.3-0.1,0.1-0.5,0.2-0.8c-0.7-0.8-1.3-1.6-2-2.4c0-0.8,0.8-1.3,1-2c0.3-0.7,0.9-1,1.4-1.4c0.5,0,0.5-0.6,0.9-0.8
			c0.5,0,0.7-0.2,1.1-0.2c1.5-0.5,2.9-0.6,4.4-1.3C105.8,42.4,107,42.9,108.3,43.6z"/>
		<path class="st0" d="M46.1,109.2c0,0,0.1,0,0.1,0c0,0,0.1,0,0.1,0c3.1,0,5.5-0.7,7-2.3c1.6-1.6,2.3-3.9,2.3-6.9
			c0-6.1-2.8-9.2-9.3-9.2c0,0-0.1,0-0.1,0c0,0-0.1,0-0.1,0c-3.1,0-5.5,0.7-7,2.3c-1.6,1.6-2.3,3.9-2.3,6.9
			C36.7,106.1,39.5,109.2,46.1,109.2z M46.1,94.6c0,0,0.1,0,0.1,0c0,0,0.1,0,0.1,0c1.5,0,2.6,0.4,3.2,1.2c0.7,0.8,1.1,2.2,1.1,4.2
			c0,2.9-0.8,5.4-4.3,5.4c0,0-0.1,0-0.1,0c0,0-0.1,0-0.1,0c-1.5,0-2.6-0.4-3.2-1.2c-0.7-0.8-1.1-2.2-1.1-4.2
			C41.8,97.1,42.6,94.6,46.1,94.6z"/>
		<path class="st0" d="M139.1,124.7c-0.3,1.3-1.1,2.3-1.4,3.6c-0.2,0.3-0.3,0.8-0.6,0.9c-0.2,0.7-0.8,1.4-1.4,2.1
			c0,0.6-0.6,0.9-0.8,1.3c-0.5,0.1-0.6,0.8-1.1,0.9c-0.1,0.1-0.2,0.2-0.2,0.3c-0.1,0-0.3,0.2,0,0.1c0.1,0.1,0.4,0.3,0.3,0.4
			c0.3,0.5,0.4,1.1,0.8,1.5c1.1-0.6,2.3-1.6,3.3-2.5c0.5-0.6,1.2-1,1.4-1.8c0.5-0.5,0.6-1.3,1-1.9c0.1,0,0.2-0.1,0.3-0.2
			c0.2-0.5,0.6-1,0.7-1.6c0.1-0.5,0.4-1,0.6-1.6c0.3-1,0.7-2,0.9-3c-0.6-0.4-1.5-0.2-2.1-0.4C139.5,122.4,139.8,124.2,139.1,124.7z"
			/>
		<path class="st0" d="M124.2,137.5c-0.2-0.6,0-1.4-0.2-1.9c0-1.5-0.5-2.6-0.3-4c-0.2-0.1,0-0.2,0-0.3c-0.3-0.1-0.1-0.5-0.2-0.5
			c-1.1,0.7-2.1,1.7-3.3,2.2c-0.2,0.2,0,0.4,0,0.6c0.2,0.1,0.5,0,0.6,0c0.7-0.3,1.1,0.5,1.6,0.8c0,0.6,0.1,1.1,0.1,1.6
			c0,1.4-1.4,1.8-2.1,2.7c-0.4,0.9-1.1,1.4-1.8,2c-0.2,0.4,0.3,0.4,0.5,0.3c0.8-0.2,1.5-0.6,2.2-0.9c1.9-0.1,3.7,0.2,5.5,0.1
			c0.3-0.1,0.2-0.4,0.4-0.5c-0.6-0.5-1.4-0.3-2-0.5C124.1,139.2,124.6,138,124.2,137.5z"/>
		<path class="st0" d="M131.3,135.3c-0.5,0.2-1,0.2-1.5,0.3c-0.3,0.1-0.4,0.5-0.7,0.6c-0.4,0.6-0.6,1.4-0.5,2.2c0,0,0.1,0,0.2,0
			c0.2,0,0.6,0.2,0.8-0.1c1.3-0.2,2.4-0.8,3.4-1.4C132.5,136.4,131.8,135.8,131.3,135.3z"/>
		<polygon class="st0" points="20,108.8 24.6,108.8 28.3,98.4 28,108.8 32.7,108.8 32.7,91.1 26.4,91.1 22.2,103 18,91.1 11.7,91.1 
			11.7,108.8 16.5,108.8 16.2,98.3 		"/>
		<path class="st0" d="M47.5,125.5l0.7-0.1l1.6,0.6c0.2,0.2,0.4,0.5,0.4,0.8c0,0.2,1.4,2.3,1.5,1.9c1-0.1,0.6-1.8,1.6-1.6
			c0.7-0.3,1.3,0.4,2,0.3c1.1,0.7,2.4,0.8,3.5,1.3c1,0.4,1.7-0.6,2.4-1.1c0.9-0.6,1.8-1.5,2.4-2.4c0.5-4.1-0.5-8.4-0.5-12.5H52
			c-0.2,0.3-0.5,0.5-0.7,0.7c0.3,1.9-0.2,4.2,0.5,5.8c-0.2,0.2,0.1,0.4,0.2,0.6c0,0.4,0.4,0.6,0.2,1.1c0.3,0.1-0.1,0.1-0.1,0.3
			c0.1,0.2,0.1,0.2,0,0.4c-0.6,0.8-1.4,1.5-2.1,2.3c-0.2,0.1-0.3,0-0.5-0.1c-1.1-3.2-2.3-6.3-3.2-9.6c-0.1-0.5-0.5-1-0.6-1.4h-4.6
			c0.2,1,0.5,2.1,0.7,3.1h0.2h0.6l0.2,0.6c0.4,1.3,0.8,2.6,1.3,3.8c0.6,1.6,1.3,3.2,2,4.7l0.4,0.3L47.5,125.5z"/>
		<path class="st0" d="M183.7,108.8h5.4l-4.5-7.2c2.4-0.8,3.3-2.7,3.3-5c0-4.2-2.6-5.5-6.7-5.5l-9.7,0v17.8h4.7v-6.6h3.6
			L183.7,108.8z M176.2,95h4.1c1.2,0,2,0.2,2.3,0.4v0c0.3,0.2,0.5,0.5,0.5,1.2c0,1.6-1.4,1.7-2.8,1.7h-4.1V95z"/>
		<path class="st0" d="M105.9,40c0.2,0,0.4,0,0.6,0.1C106.3,40.1,106.1,40.1,105.9,40z"/>
		<path class="st0" d="M127.5,115.6c0,1.7-0.2,3.3,0,4.9c0.2,0.4-0.2,1.1,0.3,1.2c0.4-0.2,0.6-0.6,0.6-1c0.6-0.8,1.2-1.7,1.6-2.5
			c0.7-1.6,2.4-2.2,3.9-2.9c0.5-0.6,1.3-0.5,1.8-1c1.4-0.3,3-0.2,4.5-0.2c0.3,0.2,0.7,0.3,1.1,0.3c0.6,0.3,0.6,1,0.7,1.6
			c0.2,0.1,0,0.3,0.1,0.5c0.3,0,0,0.5,0.2,0.3c0.2,0.2-0.2,0.2,0,0.3c0.1,0.2,0,0.5-0.1,0.7c-0.6,0.2-1.3,0.4-1.9,0.5
			c0.1,0.7,0.2,1.4,0.3,2.2c0.6,0,1.3,0.3,1.9,0.3c0.5-0.2,0.3-0.7,0.6-1.1c0.1-2.4,0.2-5-1.4-6.8c-0.1,0-0.1,0.1-0.2,0.1
			c-0.1,0-0.1-0.1-0.2-0.1h-13.9C127.5,113.7,127.6,114.6,127.5,115.6z"/>
		<path class="st0" d="M153.9,107.3c1.8,1.4,3.5,1.6,5.8,1.6h6.8V105h-6.6c-2.5,0-3.6-0.8-3.7-3.2h10.3v-3.9h-10.3
			c0.2-2.1,1.4-3,3.7-3h6.6v-3.9h-6.7c-6.4,0-8.9,3.4-8.9,9.2C151,102.9,151.6,105.5,153.9,107.3z"/>
		<path class="st0" d="M84.9,113.7c-0.6,0.5-1,1-1.6,1.4c0,0.5,0.3,1.3-0.1,1.6c-0.2,0-0.3,0.3-0.5,0.4c-0.3,0.1-0.6,0.1-0.8,0
			c-0.6,0.3-1.2,0.3-1.8,0.7c-0.7-0.1-0.6,0.9-1.3,0.5c-0.2-0.2-0.3-0.3-0.5-0.5c-0.3-0.2-0.6,0.2-0.6-0.2c-0.9-0.3-2-0.4-2.9-0.8
			c-0.3-0.5-1.8,0.2-1.3-0.9c0.3-0.6,0.6-1.3,0.8-2c-0.9-0.3-1.8,1-2.6,0.2c-0.1-0.7,0.4-0.9,0.8-1.3h-2.4c0.1,0.6,0.3,1.3-0.2,1.8
			c-0.9,0.2-1.8,0.2-2.6,0c0.6,0.8,1.7,1.7,2.6,2.3c0.5,0.8-0.6,1.4-1,2.1c1.1,1.3,2.2,2.6,3.2,4c0.1,0.3,0.3,0.6,0,0.8
			c-0.2,0.2-0.5,0.3-0.7,0.3c-0.2,0-0.1,0.1,0,0.2c0,0.8-0.4,1.8-0.7,2.6c-0.3,0.6-0.2,1.3-0.6,1.9c-0.3,0.6,0.5,0.7,0.7,1
			c0.4,0.4,0.9,0.8,1,1.3c0.2,0.2,0.4,0.4,0.6,0.5c0.2,0.4,0.7,0.6,1.1,0.9c0.4-0.1,0.6,0.6,0.9,0.5c0.1,0.3,0.6,0.4,0.8,0.5
			c0.3,0.3,0.5,0.5,0.6,1c0.2,0.4,0.3,1.1,0,1.6c0,0.1,0.2,0.2,0,0.3c0.2,0.5,0,1,0.2,1.5c-0.1,0.2,0.2,0.3,0,0.4
			c0,0.1,0,0.2,0.1,0.3c0,0.2,0,0.3-0.2,0.5c-0.8,0.1-1.5,0.8-2.4,0.3c-0.5-0.3-1-0.8-1.6-0.7c-0.5-0.3-1.1-0.1-1.6-0.5
			c-0.5-0.6-1.6-1.3-2.2-1.8c-0.9-0.6-0.1,0.7-0.1,1.1c0,1.3,1.4,2.3,0.6,3.6c-0.8,0.6-0.8-0.6-1.4-0.7c-0.9-1-1.2-2.1-2.2-2.9
			c-0.2,0.4-0.5-0.3-0.5,0.2c-0.1,0.3-0.3,0.2-0.5,0.3c-0.3,0.2-0.5,0.5-0.6,0.7c0,0.4-0.1,1,0.2,1.3c0.8,0.5,1.7,0.9,2.4,1.7
			c1.3,1.9,3.3,3.7,4.5,5.6c0.6,0.2,0.5,1,1.2,1.1c0.2,0.1,0.3-0.1,0.5-0.2c0.1-0.3-0.2-0.5-0.3-0.7c-0.4-0.4-0.7-1-0.8-1.7
			c-0.6-0.4-0.1-1.1,0.1-1.7c0.3-0.2,0.7-0.6,0.8-0.9c0.2-0.2,0.4-0.3,0.7-0.6c0.3-0.1,0.8-0.6,1.1-0.3c0.1-0.4,0.5-0.1,0.7-0.4
			c0.4,0.1,0.8,0.2,1.2,0.2c0.5,0.3,1.1,0.2,1.7,0.4c0.5,0.2,0.9,0.1,1.4,0.3c0.6,0,1.3,0.1,1.8,0.3c0.2,0.1,0.8-0.1,1.1,0.2
			c0.2-0.2,0.5,0,0.6-0.1c0.3,0.2,0.9,0.2,1.3,0.2c0.5,0.5,0.8-0.5,1.3,0.2c0.7,0.5,1.4,1.1,2.1,1.6c0.2,0.1,0.3,0,0.5,0.3
			c2.4,1.2,4.6,2.7,6.5,4.8c0.2,0.4-0.2,0.7,0,1.1c-0.5,0.4-0.3,1.1-1.1,1.1c-1.1,0.5-1.9-1-3-1.1c0.2,0.5,0.2,1.1,0.2,1.8
			c-0.2,0.7-1.2,0.3-1.7,0.8c-1,0.2-1-0.9-1.4-1.4c-0.5-0.3-1.2-0.2-1.7-0.3c-0.6,0-1.1-0.2-1.6,0c-0.5-0.2-0.8,0-1.3-0.1
			c-0.3,0-0.6-0.2-0.8,0c-1.1-0.3-2.4-0.3-3.4-0.4c0.6,0.3,1.3,0.4,1.9,0.8c0.4,0.2,0.9,0.2,1.3,0.5c2.2,0.5,4.3,1.3,6.4,1.8
			c1.7,0.1,3.4-0.5,5.1-0.7c0.7-0.5,1.2-1.3,1.8-1.9c0.8-1.7,2.9-1.2,4.2-2c0.1-0.1,0.2-0.1,0.3-0.2c-1,0.1-1.6,0.3-2.6,0.5
			c-0.5,0.1-1.1,0.1-1.3-0.3c-0.3-1-0.8-1.9-1.3-2.8c-0.5-0.9,0.8-0.8,1-1.5c0.2-0.2,0.7-0.4,0.7-0.7c-0.1-0.1-0.2-0.2-0.3-0.2
			c-0.6,0.6-1.4,0.9-2.1,1.3c-0.8,0.1-1.4-0.7-2.1-1.2c-0.7-0.6-1.7-1-2.4-1.6c0-0.3,0-0.7,0.1-1c-0.8-0.2-1.7,0.1-2.4,0.4
			c-0.5-0.1-0.7,0.5-1.1,0.5c-0.6-0.3-1.3-0.5-2-0.7c-0.3,0.1-1.1-0.1-1.3,0.2c-1-0.4-1.4-0.2-2.5-0.3c-0.1,0-0.8-0.2-0.9-0.2
			c0-0.5-0.5,0-0.7-0.4c-0.3-0.6-0.6-1.4-0.2-2.1c0.5-0.1,0.9,0.1,1.3,0.2c1.6,0.8,3.7,0.5,5.6,0.6c0.8-0.7,2.3-0.1,3.1-0.8
			c0.5-0.2,0.8-0.6,1.2-0.9c-0.1-0.2,0.1-0.2,0.2-0.3c0.5-0.6,0.6-1.7,1.5-1.8c0.3-0.4,0.5-0.9,0.7-1.3c0.3,0,0.2-0.3,0.5-0.4
			c0,0,0,0,0,0.1c0.2-0.1,0-0.3,0.1-0.4c0.1,0,0.3-0.3,0.6-0.3c0.2-0.3,0.4-0.8,0.8-1.1c0-0.1-0.1,0-0.2,0c0,0.2-0.2,0-0.1,0.1
			c-0.3,0.2-0.5,0.4-0.8,0.5c-0.3,0.2-0.6-0.1-0.8-0.2c-0.2-0.1-0.4-0.2-0.4-0.5c-0.1-0.5-0.7-0.8-0.8-1.3c-0.1-0.3,0-0.6,0.2-0.8
			c0.9,0,1.7-0.1,2.5-0.3c0.5,0.2,1,0.1,1.6,0.1c0.3,0.3,0.9,0.1,1,0.5c0.8,0.1,1.5,0.2,2.2,0.4c0.1-0.3-0.1-0.5-0.2-0.7
			c0.2-0.6-0.2-1-0.2-1.5c-0.6-2.2,0.3-4.5,0.8-6.7c0.1-0.5,0-1,0.3-1.4c3-2.7,5.9-5.2,9.1-7.8c0.7-0.2,1.4-0.4,2.1-0.6H85.5
			C85.3,113.1,85.1,113.4,84.9,113.7z M90.5,135.6c-0.2,0.5-0.6,0.5-1.1,0.6c-1.8-1.3-4.4-0.3-6.5-0.5c-0.5,0.2-1,0.1-1.5,0.1
			c-0.9,0.4-1.9,0.5-2.8,1c-0.8-0.3-0.9,1.6-1.5,0.5c-0.1-1.1-1.1-2.4,0-3.3c0.8-0.5,1.8-1.3,2.4-1.9c0.9-0.4,1.6-1.5,2.6-1.7
			c2.3-0.2,4.1,0.1,6.2,0.4c0.6,0.6,1,1.3,1.4,2.1C90.1,133.7,90.8,134.5,90.5,135.6z M90.2,117.8c0.5-1,1.4-1.8,1.7-2.9
			c0.2-0.4,0.5-0.1,0.6-0.5c0.4-0.1,0.6,0.3,1,0.2c0.8,0.2,1.5,0.2,2.2,0.7c0.6,0.2,1.2,0.3,1.8,0.7c0.1,0,0.1,0.2,0.2,0.2
			c0.1-0.1,0.1,0.2,0.2,0.2c0,0.2,0.1,0.3,0,0.5c-1.3,0.4-2.9,0.8-3.9,1.1c-1.1,0.3-2.2,0.8-3.1,1.1c0.1,0.3-0.3,0.2-0.4,0.3
			c-0.1-0.1-0.4,0.1-0.5-0.1c-0.1-0.2-0.3-0.5,0-0.6C89.7,118.4,90.2,118.2,90.2,117.8z M87.4,128.1c0.1-0.2,0.2-0.4,0.4-0.4
			c0.2,0.1,0.4-0.2,0.6-0.3c0.3-0.1,0.6-0.2,1-0.3c0.3-0.5,1-0.3,1.3-0.8c1.1-0.5,2.3,0,3.2,0.7c0.3,0.3,0.6,0.6,0.9,0.9
			c0.1,0.1,0,0.3,0,0.4c-0.4,0.1-0.8,0.2-1.1,0.1c-2.1,0.1-4-0.3-5.9,0.2C87.6,128.4,87.1,128.4,87.4,128.1z"/>
		<path class="st0" d="M121.7,114.5c-0.3,0.7-1.1,0.9-1.6,1.2c-0.1-0.2-0.2,0-0.2,0c0,0.7,0.7,1,0.9,1.6c0.3,0.4,0.2,0.8-0.2,1.1
			c-0.8,0-1.6,0.4-2.4,0.2c-0.7-0.4-0.8,0.6-1.4,0.8c-1.6,1-3.3,2.4-4.9,3.1c-0.3,0.5-1,0.3-1.3,0.8c0,0.4-0.3,0-0.3,0.2
			c-0.6,0.3-1.6,0.5-2.2,1c-0.7,0-1.3,0.6-1.9,0.8c-0.2,0.1-0.4,0-0.5,0.2c-1.1-0.5-0.5,1.3-1.2,1.7c-0.6-0.2-0.1,0.5-0.5,0.7
			c-0.2,0-0.4,0-0.5-0.2c0-0.6-0.2-1.2-0.4-1.6c-0.4-0.4-0.7,0.8-1.2,1.2c0,0.6-0.3,1.1-0.2,1.6c0,0.8-0.2,1.4-0.4,2.1
			c0.1,0.3,0.3,0.5,0.6,0.6c0.3,0.1,0.8,0,1-0.3c0.1-0.4,0.4-0.6,0.5-0.9c0.1-0.2,0.3-0.2,0.5-0.2c0.4,0.7,0.3,1.7,0.1,2.4
			c1.4,0,2.7,0.4,4.2,0.3c1.7-1.3,3.5-2.3,5.2-3.3c1.6-1.3,3.2-2.6,4.8-3.7c0.6-1.3,1.1-2.7,1.9-3.9c0.1-0.2,0-0.3,0.1-0.5
			c0.8-1,1.3-2.2,1.7-3.3c0-1.8,0-3.7-0.1-5.5h-1.4C121.3,113.2,121.6,113.8,121.7,114.5z"/>
		<polygon class="st0" points="141.7,108.8 146.8,108.8 146.8,91.1 142,91.1 142.2,101.8 135.7,91.1 130.2,91.1 130.2,108.8 
			135,108.8 134.9,97.5 		"/>
		<path class="st0" d="M147.4,114.4c0,0.3,0.3,0.3,0.2,0.6c0.4,0.8,0.8,1.6,1.2,2.3c0.2,0,0.6-0.1,0.8-0.1c0-0.6,0.7-1,0.6-1.6
			c-0.3-0.9-1-1.7-0.1-2.8c0,0,0,0,0,0h-2.9C147.2,113.3,147.1,113.8,147.4,114.4z"/>
		<path class="st0" d="M111,108.8h5.2v-3.7h-4.9c-0.9,0-1.6-0.1-2-0.2c-1.7-0.5-1.6-2-1.6-3.4V91.1h-4.7v10.5c0,2.1,0.2,3.8,1.8,5.4
			C106.6,108.7,108.6,108.8,111,108.8z"/>
		<rect x="119.9" y="91.1" class="st0" width="4.9" height="17.8"/>
		<path class="st0" d="M118.6,147.8c-1.7,0.2-3.3,1.1-5,1.7c-1.9,0.5-3.4,2.1-5,3.3c0.4,0.2-0.1,0.3-0.1,0.4c0.5,1.2-0.5,2.2,0,3.4
			c0.2,0.2,0.5,0,0.7-0.2c0.1-0.8,0.8-1.4,1.3-2.1c1.3-1.2,2-2.2,3.5-2.9c1.1-0.4,2.2-0.9,3.3-1.3c1-0.5,2.1-0.6,3.2-0.6
			c0.2-0.2,0.3-0.2,0.5-0.2c0.1-0.3,0.6-0.4,0.7-0.8c-0.9-0.4-2-0.3-2.9-0.8C118.9,148,118.7,147.8,118.6,147.8z"/>
		<path class="st1" d="M192.2,79.4h-31.5c-8.6-25.3-32.6-43.6-60.8-43.6c-28.2,0-52.2,18.3-60.8,43.6H7.8c-4.3,0-7.8,3.5-7.8,7.8
			v25.6c0,4.3,3.5,7.8,7.8,7.8h31.4c8.6,25.3,32.6,43.6,60.8,43.6c28.2,0,52.2-18.3,60.8-43.6h31.5c4.3,0,7.8-3.5,7.8-7.8V87.2
			C200,82.9,196.5,79.4,192.2,79.4z M197,112.8c0,2.6-2.2,4.8-4.8,4.8h-33.5c-7.6,25.2-30.9,43.5-58.5,43.5
			c-25.6,0-47.5-15.8-56.6-38.1l0,0c0,0,0-0.1,0-0.1c-0.4-0.9-0.7-1.9-1.1-2.8c0,0,0-0.1,0-0.1c-0.3-0.8-0.5-1.6-0.8-2.4H7.8
			c-2.6,0-4.8-2.1-4.8-4.8V87.2c0-2.6,2.2-4.8,4.8-4.8h33.9C45.4,69.8,53.1,59,63.3,51.2c0,0,0,0,0,0c0,0,0,0,0.1,0
			c3.9-2.9,8.2-5.4,12.7-7.4c0,0,0,0,0.1,0c0.8-0.4,1.7-0.7,2.5-1c0.2-0.1,0.3-0.1,0.5-0.2c0.7-0.3,1.5-0.5,2.2-0.8
			c0.9-0.3,1.8-0.6,2.7-0.8c0,0,0,0,0,0c0.9-0.3,1.9-0.5,2.8-0.7c0.1,0,0.2-0.1,0.3-0.1c0,0,0.1,0,0.1,0c2.5-0.5,5-0.9,7.6-1.1
			c0,0,0,0,0.1,0c0.1,0,0.1,0,0.2,0c0.7-0.1,1.4-0.1,2-0.1c0.1,0,0.3,0,0.4,0c0.8,0,1.6-0.1,2.4-0.1c0,0,0,0,0,0c0,0,0,0,0,0
			c0.3,0,0.6,0,0.8,0c0.6,0,1.2,0,1.7,0c0.5,0,1,0.1,1.5,0.1c0.4,0,0.7,0,1.1,0.1c0.5,0,1.1,0.1,1.6,0.2c0.3,0,0.6,0.1,0.9,0.1
			c0.6,0.1,1.2,0.2,1.8,0.3c0.2,0,0.4,0.1,0.6,0.1c0.1,0,0.2,0,0.3,0c0,0,0,0,0,0c22.9,4,41.4,20.7,48,42.6h33.5
			c2.6,0,4.8,2.2,4.8,4.8V112.8z"/>
		<path class="st1" d="M8.8,88.8v22.4c0,0.3,0.2,0.5,0.5,0.5h181.3c0.3,0,0.5-0.2,0.5-0.5V88.8c0-0.3-0.2-0.5-0.5-0.5H9.3
			C9.1,88.3,8.8,88.5,8.8,88.8z M170.7,90.3l10.5,0.1c5,0,7.5,2.1,7.5,6.3c0,2.6-1,4.4-2.9,5.4c0.8,1.2,4.8,7.6,4.8,7.6h-7.2
			c0,0-3.5-5.9-3.9-6.6c-0.5,0-1.6,0-2.4,0c0,1.2,0,6.6,0,6.6h-6.3V90.3z M152.7,92.8c1.6-1.6,4-2.4,7.2-2.4h7.5v5.4h-7.4
			c-1.5,0-2.3,0.4-2.7,1.4c1.6,0,10.1,0,10.1,0v5.4c0,0-8.7,0-10.2,0c0.3,1.2,1,1.6,2.8,1.6h7.4v5.4h-7.6c-2.2,0-4.2-0.1-6.3-1.7
			c-2.2-1.6-3.2-4.1-3.3-7.6C150.2,97,151,94.4,152.7,92.8z M129.4,90.3h6.7c0,0,3.4,5.7,5.2,8.6c0-3.1-0.1-8.6-0.1-8.6h6.4v19.3
			h-6.3c0,0-3.7-6.2-5.6-9.3c0,3.2,0.1,9.3,0.1,9.3h-6.4V90.3z M119.2,90.3h6.5v19.3h-6.5V90.3z M102.3,90.3h6.3v11.1l0,0.3
			c0,1.5,0.1,2.1,1,2.4c0.2,0.1,0.8,0.2,1.8,0.2h5.7v5.3h-6c-2.5,0-4.8-0.2-6.7-2.1c-1.9-1.9-2-3.9-2-5.9V90.3z M80.8,90.3h6.7
			c0,0,3.4,5.7,5.2,8.6c0-3.1-0.1-8.6-0.1-8.6H99v19.3h-6.3c0,0-3.7-6.2-5.6-9.3c0,3.2,0.1,9.3,0.1,9.3h-6.4V90.3z M60.3,92.5
			c1.7-1.7,4.2-2.5,7.6-2.5l0.1,0h0c0,0,0.1,0,0.1,0c6.8,0,10.1,3.3,10.1,10c0,3.3-0.9,5.8-2.6,7.5c-1.7,1.7-4.2,2.5-7.6,2.5
			c0,0-0.1,0-0.1,0l-0.1,0c-6.8,0-10.1-3.3-10.1-10C57.7,96.7,58.6,94.2,60.3,92.5z M38.5,92.5c1.7-1.7,4.2-2.5,7.6-2.5l0.1,0l0,0
			c0,0,0.1,0,0.1,0c6.8,0,10.1,3.3,10.1,10c0,3.3-0.9,5.8-2.6,7.5c-1.7,1.7-4.2,2.5-7.6,2.5c0,0-0.1,0-0.1,0l-0.1,0
			c-6.8,0-10.1-3.3-10.1-10C35.9,96.7,36.8,94.2,38.5,92.5z M10.9,90.3h7.7c0,0,2.6,7.5,3.6,10.3c1-2.9,3.6-10.3,3.6-10.3h7.6v19.3
			h-6.2c0,0,0.1-3.6,0.1-6.3c-1,2.8-2.2,6.3-2.2,6.3h-5.8c0,0-1.2-3.5-2.3-6.4c0.1,2.8,0.2,6.4,0.2,6.4h-6.4V90.3z"/>
		<path class="st1" d="M46.1,104.6L46.1,104.6l-0.4,0.2l0.7-0.2l-0.2,0h0.1c2.5,0,3.5-1.3,3.5-4.7c0-1.7-0.3-2.9-0.9-3.7
			c-0.5-0.6-1.4-0.9-2.6-0.9l0,0c-0.1,0-0.1,0-0.2,0c-2.5,0-3.5,1.4-3.5,4.7c0,1.7,0.3,2.9,0.9,3.7C44,104.3,44.8,104.6,46.1,104.6z
			"/>
		<path class="st1" d="M182.3,96.7c0-0.3-0.1-0.5-0.1-0.5l0,0l0,0c0,0-0.5-0.3-1.9-0.3c0,0-2.3,0-3.3,0c0,0.6,0,1.1,0,1.7
			c1,0,3.3,0,3.3,0C182.1,97.6,182.3,97.3,182.3,96.7z"/>
		<path class="st1" d="M67.9,104.6L67.9,104.6l-0.4,0.2l0.7-0.2l-0.2,0h0.1c2.5,0,3.5-1.3,3.5-4.7c0-1.7-0.3-2.9-0.9-3.7
			c-0.5-0.6-1.4-0.9-2.6-0.9l0,0c-0.1,0-0.1,0-0.2,0c-2.5,0-3.5,1.4-3.5,4.7c0,1.7,0.3,2.9,0.9,3.7
			C65.8,104.3,66.6,104.6,67.9,104.6z"/>
		<path class="st1" d="M46.3,95.4c0.1,0,0.3-0.1,0.4-0.2L46.3,95.4z"/>
		<path class="st1" d="M68.1,95.4c0.1,0,0.3-0.1,0.4-0.2L68.1,95.4z"/>
		<path class="st1" d="M192.2,82.4h-33.5c-6.6-21.9-25.1-38.6-48-42.6c0.8,0.4,1.3,0.8,1.6,1.2c1.8,0.4,3.6,0.9,5.4,1.4
			c0.1,0,0.2,0.1,0.4,0.1c0.5,0.2,1,0.3,1.5,0.5c0.2,0.1,0.3,0.1,0.5,0.2c0.5,0.2,1,0.3,1.4,0.5c0.2,0.1,0.3,0.1,0.5,0.2
			c0.5,0.2,1,0.4,1.5,0.6c0.1,0,0.1,0.1,0.2,0.1c1.6,0.7,3.2,1.4,4.7,2.3c0.1,0.1,0.3,0.1,0.4,0.2c0.4,0.2,0.8,0.5,1.2,0.7
			c0.2,0.1,0.4,0.2,0.6,0.3c0.4,0.2,0.8,0.5,1.2,0.7c0.2,0.1,0.4,0.2,0.6,0.4c0.4,0.2,0.8,0.5,1.1,0.7c0.2,0.1,0.3,0.2,0.5,0.4
			c1.3,0.9,2.5,1.8,3.7,2.7c0.2,0.2,0.4,0.3,0.6,0.5c0.3,0.3,0.6,0.5,0.9,0.8c0.2,0.2,0.5,0.4,0.7,0.6c0.3,0.3,0.6,0.5,0.8,0.8
			c0.2,0.2,0.5,0.4,0.7,0.7c0.3,0.3,0.5,0.5,0.8,0.8c0.2,0.2,0.5,0.5,0.7,0.7c0.2,0.2,0.5,0.5,0.7,0.7c0.5,0.5,0.9,1,1.3,1.4
			c0.2,0.2,0.4,0.4,0.6,0.6c0.3,0.3,0.5,0.6,0.8,1c0.2,0.2,0.4,0.5,0.6,0.7c0.2,0.3,0.5,0.6,0.7,0.9c0.2,0.2,0.4,0.5,0.6,0.7
			c0.2,0.3,0.5,0.6,0.7,1c0.2,0.2,0.3,0.5,0.5,0.7c0.3,0.4,0.5,0.7,0.8,1.1c0.1,0.2,0.3,0.4,0.4,0.6c0.4,0.6,0.7,1.2,1.1,1.8
			c0.1,0.1,0.1,0.2,0.2,0.3c0.3,0.5,0.6,1,0.9,1.5c0.1,0.2,0.2,0.4,0.4,0.7c0.2,0.4,0.4,0.8,0.6,1.2c0.1,0.2,0.2,0.5,0.4,0.7
			c0.2,0.4,0.4,0.8,0.6,1.2c0.1,0.2,0.2,0.5,0.3,0.7c0.2,0.4,0.4,0.9,0.6,1.3c0.1,0.2,0.2,0.4,0.3,0.6c0.3,0.7,0.5,1.3,0.8,2
			c0.5,1.2,0.9,2.5,1.2,3.8c0,0,0,0.1,0,0.1h34.3c1.6,0,3,1,3.6,2.4c0.2,0.5,0.3,1,0.3,1.5v25.6c0,0.5-0.1,1-0.3,1.5
			c-0.6,1.4-2,2.4-3.6,2.4h0h-34.3c0,0.1-0.1,0.2-0.1,0.2c-0.4,1.2-0.8,2.5-1.2,3.6c-2.6,7.2-6.6,13.8-11.6,19.4
			c-1.5,1.7-3.1,3.3-4.8,4.8c-10.7,9.6-24.8,15.4-40.2,15.4c0,0,0,0,0,0s0,0,0,0c-0.8,0-1.6,0-2.4,0c-0.3,0-0.5,0-0.8,0
			c-0.5,0-1.1-0.1-1.6-0.1c-0.3,0-0.6-0.1-0.9-0.1c-0.5,0-0.9-0.1-1.4-0.1c-0.3,0-0.7-0.1-1-0.1c-0.4-0.1-0.9-0.1-1.3-0.2
			c-0.3-0.1-0.7-0.1-1-0.2c-0.4-0.1-0.8-0.1-1.2-0.2c-0.4-0.1-0.7-0.1-1.1-0.2c-0.4-0.1-0.8-0.2-1.2-0.3c-0.4-0.1-0.7-0.2-1.1-0.3
			c-0.4-0.1-0.7-0.2-1.1-0.3c-0.4-0.1-0.7-0.2-1.1-0.3c-0.4-0.1-0.7-0.2-1.1-0.3c-0.4-0.1-0.7-0.2-1.1-0.4c-0.3-0.1-0.7-0.2-1-0.3
			c-0.4-0.1-0.8-0.3-1.1-0.4c-0.3-0.1-0.6-0.2-0.9-0.4c-0.4-0.2-0.8-0.3-1.1-0.5c-0.3-0.1-0.6-0.3-0.9-0.4c-0.4-0.2-0.8-0.4-1.2-0.5
			c-0.3-0.1-0.5-0.3-0.8-0.4c-0.4-0.2-0.8-0.4-1.2-0.6c-0.2-0.1-0.5-0.3-0.7-0.4c-0.4-0.2-0.8-0.4-1.2-0.7c-0.2-0.1-0.4-0.3-0.6-0.4
			c-0.4-0.2-0.9-0.5-1.3-0.8c-0.2-0.1-0.4-0.2-0.5-0.3c-0.4-0.3-0.9-0.6-1.3-0.9c-0.1-0.1-0.3-0.2-0.4-0.3c-0.5-0.3-1-0.7-1.4-1
			c-0.1,0-0.1-0.1-0.2-0.1c-6.9-5-12.7-11.5-17-19c0,0,0,0,0,0c-0.4-0.6-0.7-1.2-1-1.9c0,0,0,0,0,0c-0.3-0.6-0.6-1.3-0.9-1.9
			c0,0,0,0,0-0.1c-0.3-0.6-0.6-1.3-0.9-1.9c0,0,0,0,0,0l-0.8-0.7l-0.4-0.3c9.1,22.4,31,38.1,56.6,38.1c27.6,0,51-18.3,58.5-43.5
			h33.5c2.6,0,4.8-2.1,4.8-4.8V87.2C197,84.6,194.9,82.4,192.2,82.4z"/>
		<path class="st1" d="M42.1,116.9c0-0.1,0-0.2-0.1-0.3H7.8h0c-2.1,0-3.9-1.7-3.9-3.9V87.2c0-2.1,1.6-3.7,3.7-3.9c0.1,0,0.2,0,0.2,0
			h34.3c0,0,0-0.1,0-0.1c0,0-0.6-0.1-0.6-0.1c2.4-8.4,6.5-16,12-22.4c0.1,0,0.1,0,0.2-0.1c0.9-1,1.6-1.8,2.3-2.7
			c2.2-2.3,4.5-4.4,7-6.3c0.2,0,0.3-0.1,0.4-0.3c0,0,0,0,0,0C53.1,59,45.4,69.8,41.6,82.4H7.8c-2.6,0-4.8,2.2-4.8,4.8v25.6
			c0,2.6,2.2,4.8,4.8,4.8h33.9c0.2,0.8,0.5,1.6,0.8,2.4c-0.3-0.9-0.6-1.9-0.9-2.8C41.5,117.1,42.2,117,42.1,116.9z"/>
		<path class="st1" d="M43.5,122.8c-0.4-0.9-0.7-1.9-1.1-2.8C42.8,121,43.1,121.9,43.5,122.8z"/>
		<path class="st1" d="M7.8,88.8v22.4c0,0.9,0.7,1.6,1.6,1.6h31.8c0-0.1,0-0.2-0.1-0.2h0.8c-0.1-0.2-0.1-0.5-0.2-0.7h4.2
			c0,0.1,0,0.2,0.1,0.3c-0.2,0.2-0.3,0.4-0.3,0.6H52c0.3-0.3,0.5-0.5,0.8-0.7c0.1-0.1,0.1-0.1,0.1-0.2h20.3
			c-0.1,0.1-0.2,0.3-0.4,0.4c-0.1,0.2-0.3,0.4-0.5,0.5h13c0.2-0.3,0.4-0.6,0.4-0.9h29.5c-1.2,0.6-2.6,0.6-4,0.5
			c-0.7,0.1-1.4,0.3-2.1,0.5h11.6c-0.2-0.2-0.4-0.3-0.6-0.5c-0.5-0.4-1.3,0-1.8-0.5h3.2c0.2,0.1,0.4,0.3,0.5,0.4c0,0.2,0,0.3,0,0.5
			h5.4c0-0.3,0-0.6,0.1-0.9c0,0,0,0,0,0h8.1c0,0.1,0.1,0.1,0.2,0.2c0.3,0,0.6-0.1,0.8-0.2h4.7c0,0.1,0,0.2-0.1,0.3
			c0,0.3,0,0.5,0.1,0.7h5.9c0-0.2,0.1-0.4,0.1-0.6c0-0.1,0-0.2,0-0.3h3c0,0.3,0,0.7-0.2,0.9h40.4c0.9,0,1.6-0.7,1.6-1.6V88.8
			c0-0.9-0.7-1.6-1.6-1.6h-43.3c0,0.3-0.1,0.7-0.1,1h-5.8c-0.2-0.1-0.3-0.2-0.4-0.3c-0.3-0.2-0.6-0.4-0.9-0.6H135
			c-0.1,0.3-0.2,0.6-0.3,1h-8.3c0.2-0.1,0.4-0.2,0.6-0.4c0-0.2,0-0.4,0-0.6h-7.3c0,0.1,0,0.2,0,0.2c-0.5,0-0.9-0.1-1.4-0.1
			c-0.3,0.2-0.7,0-0.9,0.4c0,0.1,0,0.3-0.1,0.4h-21c0.2-0.3,0.5-0.6,0.7-1h-6c0.2,0.3,0.3,0.6,0.5,1h-21c0.2,0,0.5-0.1,0.7-0.1
			c0.3-0.3,0.7-0.6,1.1-0.9h-3.3c0.1,0.2,0.2,0.4,0.3,0.6c0.2,0.1,0.3,0,0.5,0c0.2,0.2,0.4,0.3,0.6,0.3H48.2c-0.1-0.3-0.4-0.6-0.6-1
			h-2.9c-0.1,0.4-0.2,0.7-0.3,1h-3.5c0.1-0.3,0.1-0.6,0.2-1H9.3C8.5,87.2,7.8,87.9,7.8,88.8z M79.5,112.5c-0.5,0.8-1.1-0.1-2,0
			c-0.7-0.2-1.9,0.6-2.3-0.3c-0.1-0.1-0.2-0.2-0.3-0.3h5C79.8,112,79.7,112.2,79.5,112.5z M138.7,87.4c0.1,0.3,0.4,0.4,0.6,0.6
			c0,0.1-0.1,0.2-0.1,0.3h-2C137.7,87.9,138.2,87.6,138.7,87.4z M190.6,88.3c0.3,0,0.5,0.2,0.5,0.5v22.4c0,0.3-0.2,0.5-0.5,0.5H9.3
			c-0.3,0-0.5-0.2-0.5-0.5V88.8c0-0.3,0.2-0.5,0.5-0.5H190.6z"/>
		<path class="st1" d="M69.7,112.1c-2.1-0.3-4.1,0.4-6-0.2c-0.3,0.1-0.5,0.2-0.6,0.5c0,0.1,0,0.2,0,0.3h7.1c0-0.1,0-0.2-0.1-0.3
			C70,112.3,69.9,112.1,69.7,112.1z"/>
		<path class="st1" d="M100.2,38.9c-0.8,0-1.6,0-2.4,0.1C98.5,38.9,99.4,38.9,100.2,38.9C100.2,38.9,100.2,38.9,100.2,38.9z"/>
		<path class="st1" d="M84.1,41c0.9-0.3,1.9-0.5,2.8-0.7C86,40.6,85,40.8,84.1,41z"/>
		<path class="st1" d="M95.3,39.1c0.7-0.1,1.4-0.1,2-0.1C96.6,39,95.9,39,95.3,39.1z"/>
		<path class="st1" d="M87.4,40.3c2.3-0.3,5.6-0.8,7.6-1.1C92.4,39.3,89.9,39.7,87.4,40.3z"/>
		<path class="st1" d="M76.2,43.8c0.8-0.4,1.7-0.7,2.5-1C77.8,43.1,77,43.5,76.2,43.8z"/>
		<path class="st1" d="M63.6,51.1c0.2-0.1,0.3-0.2,0.5-0.4c3.7-2.7,7.7-5,12-6.9c-4.5,1.9-8.8,4.4-12.7,7.4
			C63.5,51.2,63.5,51.1,63.6,51.1C63.6,51.1,63.6,51.1,63.6,51.1z"/>
		<path class="st1" d="M79.2,42.6c0.7-0.3,1.5-0.5,2.2-0.8C80.6,42.1,79.9,42.4,79.2,42.6z"/>
		<path class="st2" d="M63.3,51.2C63.3,51.2,63.3,51.2,63.3,51.2C63.4,51.2,63.4,51.2,63.3,51.2C63.4,51.2,63.4,51.2,63.3,51.2z"/>
		<path class="st1" d="M63.3,51.2C63.3,51.2,63.3,51.2,63.3,51.2C63.4,51.2,63.4,51.2,63.3,51.2C63.4,51.2,63.4,51.2,63.3,51.2z"/>
		<path class="st2" d="M63.6,51.1c0,0-0.1,0.1-0.1,0.1c0,0,0,0-0.1,0.1c0,0,0,0,0,0C63.4,51.2,63.5,51.2,63.6,51.1z"/>
		<path class="st1" d="M63.6,51.1c0,0-0.1,0.1-0.1,0.1c0,0,0,0-0.1,0.1c0,0,0,0,0,0C63.4,51.2,63.5,51.2,63.6,51.1z"/>
		<path class="st2" d="M75.3,112.1c0.4,0.9,1.5,0,2.3,0.3c0.8-0.1,1.5,0.8,2,0c0.1-0.2,0.3-0.4,0.4-0.6h-5
			C75.1,111.9,75.2,112.1,75.3,112.1z"/>
		<path class="st1" d="M75.3,112.1c0.4,0.9,1.5,0,2.3,0.3c0.8-0.1,1.5,0.8,2,0c0.1-0.2,0.3-0.4,0.4-0.6h-5
			C75.1,111.9,75.2,112.1,75.3,112.1z"/>
		<path class="st1" d="M141.3,112.1c0-0.1,0-0.2,0.1-0.3h-4.7c-0.3,0.1-0.5,0.2-0.8,0.2c-0.1-0.1-0.1-0.1-0.2-0.2h-8.1c0,0,0,0,0,0
			c-0.1,0.3-0.1,0.6-0.1,0.9h13.9C141.3,112.6,141.3,112.4,141.3,112.1z"/>
		<path class="st1" d="M121.6,111.8h-3.2c0.5,0.5,1.3,0,1.8,0.5c0.2,0.1,0.4,0.3,0.6,0.5h1.4c0-0.2,0-0.3,0-0.5
			C122,112.1,121.8,112,121.6,111.8z"/>
		<path class="st2" d="M139.3,87.9c-0.2-0.2-0.5-0.3-0.6-0.6c-0.6,0.2-1.1,0.5-1.5,0.8h2C139.2,88.1,139.3,88,139.3,87.9z"/>
		<path class="st1" d="M139.3,87.9c-0.2-0.2-0.5-0.3-0.6-0.6c-0.6,0.2-1.1,0.5-1.5,0.8h2C139.2,88.1,139.3,88,139.3,87.9z"/>
		<path class="st1" d="M100.2,38.9C100.2,38.9,100.2,38.9,100.2,38.9c0.3,0,0.6,0,0.8,0C100.8,38.9,100.5,38.9,100.2,38.9z"/>
		<path class="st1" d="M110.7,39.8c-0.1,0-0.2,0-0.3,0C110.5,39.8,110.6,39.8,110.7,39.8C110.7,39.8,110.7,39.8,110.7,39.8z"/>
		<path class="st1" d="M117.2,88.2c0-0.1,0-0.3,0.1-0.4c0.2-0.4,0.6-0.2,0.9-0.4c0.5,0,1,0.1,1.4,0.1c0-0.1,0-0.2,0-0.2H96.9
			c-0.2,0.3-0.5,0.7-0.7,1H117.2z"/>
		<path class="st1" d="M141.4,88.2h5.8c0-0.3,0.1-0.6,0.1-1h-7.2c0.3,0.2,0.5,0.4,0.9,0.6C141.1,88,141.3,88.1,141.4,88.2z"/>
		<path class="st1" d="M70.3,88.2c-0.2,0-0.5-0.1-0.6-0.3c-0.2,0-0.3,0.1-0.5,0c-0.2-0.2-0.3-0.4-0.3-0.6H47.6
			c0.2,0.3,0.4,0.7,0.6,1H70.3z"/>
		<path class="st1" d="M126.4,88.2h8.3c0-0.4,0.1-0.7,0.3-1h-8c0,0.2,0,0.4,0,0.6C126.8,88,126.6,88.1,126.4,88.2z"/>
		<path class="st1" d="M70.4,88.2h21c-0.1-0.3-0.3-0.7-0.5-1H72.2c-0.4,0.3-0.8,0.5-1.1,0.9C70.9,88.1,70.6,88.2,70.4,88.2z"/>
		<path class="st1" d="M44.4,88.2c0.1-0.3,0.2-0.6,0.3-1h-3.6c-0.1,0.3-0.1,0.6-0.2,1H44.4z"/>
		<path class="st1" d="M63.6,51.1C63.6,51.1,63.6,51.1,63.6,51.1C63.6,51.1,63.6,51.1,63.6,51.1c-0.1,0.1-0.2,0.1-0.2,0.2
			c-0.1,0.2-0.3,0.3-0.4,0.3c-2.5,1.9-4.8,4-7,6.3c-0.7,0.9-1.4,1.7-2.3,2.7c-0.1,0-0.1,0-0.2,0.1c-5.5,6.5-9.6,14.1-12,22.4
			c0,0,0.6,0.1,0.6,0.1c0,0,0,0.1,0,0.1h0c0.4-1.3,0.8-2.6,1.3-3.9C51.8,56.3,74,39.7,100,39.7c0,0,0,0,0,0c0,0,0,0,0,0
			c1,0,1.9,0,2.9,0.1c0.2,0,0.5,0,0.7,0c0.8,0,1.5,0.1,2.3,0.2c0.2,0,0.4,0,0.6,0.1c2,0.2,3.9,0.5,5.8,0.9c-0.3-0.4-0.8-0.8-1.6-1.2
			c-0.1,0-0.2,0-0.3-0.1c-0.2,0-0.4-0.1-0.6-0.1c-0.6-0.1-1.2-0.2-1.8-0.3c-0.3,0-0.6-0.1-0.9-0.1c-0.5-0.1-1.1-0.1-1.6-0.2
			c-0.4,0-0.7,0-1.1-0.1c-0.5,0-1-0.1-1.5-0.1c-0.6,0-1.2,0-1.7,0c-0.3,0-0.6,0-0.9,0c-0.8,0-1.6,0-2.5,0.1c-0.1,0-0.3,0-0.4,0
			c-0.7,0-1.4,0.1-2,0.1c-0.1,0-0.2,0-0.3,0c-2,0.3-5.3,0.8-7.6,1.1c-0.1,0-0.3,0.1-0.4,0.1C86,40.6,85,40.8,84.1,41c0,0,0,0,0,0
			c-0.9,0.3-1.8,0.5-2.7,0.8c-0.7,0.2-1.5,0.5-2.2,0.8c-0.2,0.1-0.3,0.1-0.5,0.2c-0.9,0.3-1.7,0.7-2.5,1c0,0,0,0-0.1,0
			c-4.3,1.8-8.3,4.2-12,6.9C63.9,50.9,63.7,51,63.6,51.1z"/>
		<path class="st1" d="M95.1,39.1C95,39.1,95,39.1,95.1,39.1c0,0,0.1,0,0.2,0C95.2,39.1,95.1,39.1,95.1,39.1z"/>
		<path class="st1" d="M95.1,39.1C95,39.1,95,39.1,95.1,39.1c0,0,0.1,0,0.2,0C95.2,39.1,95.1,39.1,95.1,39.1z"/>
		<path class="st1" d="M97.3,39c0.1,0,0.3,0,0.4,0C97.6,39,97.5,39,97.3,39z"/>
		<path class="st1" d="M97.3,39c0.1,0,0.3,0,0.4,0C97.6,39,97.5,39,97.3,39z"/>
		<path class="st1" d="M87.3,40.3c-0.1,0-0.2,0.1-0.3,0.1C87.1,40.3,87.2,40.3,87.3,40.3C87.3,40.3,87.3,40.3,87.3,40.3z"/>
		<path class="st1" d="M87.3,40.3c-0.1,0-0.2,0.1-0.3,0.1C87.1,40.3,87.2,40.3,87.3,40.3C87.3,40.3,87.3,40.3,87.3,40.3z"/>
		<path class="st1" d="M81.4,41.9c0.9-0.3,1.8-0.6,2.7-0.8C83.2,41.3,82.3,41.6,81.4,41.9z"/>
		<path class="st1" d="M81.4,41.9c0.9-0.3,1.8-0.6,2.7-0.8C83.2,41.3,82.3,41.6,81.4,41.9z"/>
		<path class="st1" d="M78.7,42.8c0.2-0.1,0.3-0.1,0.5-0.2C79,42.7,78.8,42.7,78.7,42.8z"/>
		<path class="st1" d="M78.7,42.8c0.2-0.1,0.3-0.1,0.5-0.2C79,42.7,78.8,42.7,78.7,42.8z"/>
		<path class="st1" d="M76.1,43.8C76.1,43.8,76.1,43.8,76.1,43.8C76.1,43.8,76.1,43.8,76.1,43.8z"/>
		<path class="st1" d="M76.1,43.8C76.1,43.8,76.1,43.8,76.1,43.8C76.1,43.8,76.1,43.8,76.1,43.8z"/>
		<path class="st1" d="M63.6,51.1c-0.1,0.1-0.2,0.1-0.2,0.2C63.4,51.2,63.5,51.2,63.6,51.1C63.6,51.1,63.6,51.1,63.6,51.1z"/>
		<path class="st1" d="M43.5,122.9L43.5,122.9c0,0,0-0.1,0-0.1C43.5,122.9,43.5,122.9,43.5,122.9z"/>
		<path class="st1" d="M44.7,123.9C44.7,123.9,44.7,123.9,44.7,123.9c-0.2-0.5-0.5-1.1-0.7-1.6c-0.2-0.6-0.5-1.2-0.7-1.8
			c-0.5-1.3-0.9-2.6-1.3-3.9h0c0,0.1,0,0.2,0.1,0.3c0,0.1-0.6,0.1-0.6,0.2c0.3,0.9,0.6,1.9,0.9,2.8c0,0,0,0.1,0,0.1
			c0.3,0.9,0.7,1.9,1.1,2.8c0,0,0,0.1,0,0.1l0.4,0.3L44.7,123.9z"/>
		<g>
			<path class="st1" d="M82,130.3c-1,0.2-1.7,1.3-2.6,1.7c-0.7,0.6-1.6,1.4-2.4,1.9c-1,0.9,0,2.2,0,3.3c0.6,1.1,0.7-0.8,1.5-0.5
				c0.9-0.5,1.9-0.5,2.8-1c0.6,0,1.1,0,1.5-0.1c2.1,0.3,4.6-0.8,6.5,0.5c0.5-0.1,1-0.1,1.1-0.6c0.3-1.1-0.3-1.9-0.8-2.7
				c-0.5-0.8-0.8-1.5-1.4-2.1C86.2,130.4,84.3,130.1,82,130.3z"/>
			<path class="st1" d="M89.8,119.3c0.1,0.2,0.4,0,0.5,0.1c0.1-0.2,0.5,0,0.4-0.3c1-0.3,2.1-0.8,3.1-1.1c1-0.4,2.6-0.7,3.9-1.1
				c0.1-0.3,0-0.3,0-0.5c-0.1-0.1-0.1-0.3-0.2-0.2c-0.1,0-0.1-0.1-0.2-0.2c-0.5-0.4-1.2-0.5-1.8-0.7c-0.7-0.5-1.4-0.5-2.2-0.7
				c-0.4,0.2-0.6-0.3-1-0.2c-0.1,0.5-0.5,0.1-0.6,0.5c-0.3,1.1-1.2,1.9-1.7,2.9c0.1,0.4-0.5,0.6-0.4,0.9
				C89.5,118.9,89.7,119.2,89.8,119.3z"/>
			<path class="st1" d="M51.4,77.8c0.4,0.5,0.5,1.5,1.4,1.6c0.7-0.5,1.2-1.1,1.9-1.6c0.3-0.8,0.9,0,1.5-0.2c0.6-0.4,1.2-1,1.8-1.5
				c0.2,0,0.4,0,0.7,0l0.3,0.2c0.1,0.1,0.2,0.1,0.3,0.1l0.2,0h0.2c0.2,0,0.4-0.2,0.5-0.4l0.1-0.4c0.1-0.5-0.2-1.1,0.2-1.6l0,0
				c0.5-0.2,1.1-0.1,1.6-0.1h0.3c0.1,0,0.2,0,0.3-0.1l0.2-0.1c0.1-0.1,0.2-0.2,0.2-0.3l0-0.2c0.1-1.1-0.7-2-1.5-2.7L61,70.3
				c-0.2-0.2-0.4-0.2-0.6-0.1l-0.1,0c-0.2,0.1-0.4,0.1-0.5,0.3c-1.1,1.3-2.1,2.6-3.2,3.8c-1.3,0.3-2.4,0.9-3.7,1.3
				c-0.4,0.2-0.4-0.3-0.6-0.5c-0.1-0.3-0.4-0.6-0.8-0.5c0-0.2-0.1-0.3-0.1-0.5c-0.2-0.1-0.3-0.5-0.6-0.3c-0.7,0.3-0.3,1.1-0.4,1.7
				c0.2,0.3,0,0.5-0.1,0.7C50,77.2,51.2,77.2,51.4,77.8z"/>
			<path class="st1" d="M89.3,127.1c-0.3,0.1-0.6,0.2-1,0.3c-0.2,0.1-0.4,0.4-0.6,0.3c-0.2,0-0.3,0.3-0.4,0.4
				c-0.3,0.4,0.2,0.3,0.3,0.5c2-0.5,3.9-0.1,5.9-0.2c0.3,0.1,0.7,0,1.1-0.1c0-0.2,0-0.3,0-0.4c-0.3-0.3-0.6-0.6-0.9-0.9
				c-0.9-0.7-2.1-1.1-3.2-0.7C90.3,126.8,89.6,126.6,89.3,127.1z"/>
			<path class="st1" d="M61.9,63.6c-0.9-0.6-1.5,0.6-2.4,0.8c-0.5,0.3-1.4,0.2-1.6,0.8c0.1,0.4,0.5,0.4,0.9,0.3
				c0.5,0.2,0.7,0.8,1,1.1c0,0.5,0.8,0.7,0.5,1.1c-0.1,0.2-0.1,0.5,0.1,0.7c0.2,0.2,0.5,0,0.8-0.1c0.3-0.6,1.3-0.9,1.5-1.4
				c-0.3-0.6-1-0.2-1.5-0.2c-0.5-0.1-0.2-0.5-0.2-0.8C61.3,65.1,61.9,64.4,61.9,63.6z"/>
			<path class="st1" d="M63.6,77.9C63.7,77.9,63.7,77.9,63.6,77.9c0.2,0.2,0.5,0.2,0.7,0c0.2-0.2,0.5-0.4,0.7-0.7l0.3,0.2
				c0.1,0.1,0.3,0.1,0.5,0.1l0.4-0.3c0,0,0.1-0.1,0.1-0.1c0,0,0,0,0.1,0c0,0,0,0,0.1,0c0,0.2-0.1,0.3-0.1,0.5c0,0,0,0.2-0.2,0.1
				c-0.1,0.2,0,0.3,0,0.5c-0.4,1.2-0.3,2.6,0.2,3.8c0.2,0.7,0.1,1.4-0.2,2c-0.1,0.9-0.7,1.6-0.7,2.6c0.2,0.2,0.4,0.4,0.7,0.3
				c0.8-0.5,1.3-1.7,2.2-2.1c0.2,0.1,0.3,0.4,0.2,0.6c0.2,0.5,0.2,1.2,0.3,1.7c0.1,0.2,0.2,0.4,0.3,0.6c0.2,0.1,0.3,0,0.5,0
				c0.2,0.2,0.4,0.3,0.6,0.3H48.2c-0.1-0.3-0.4-0.6-0.6-1c-0.5-0.7-0.9-1.5-0.9-1.8c0.2-0.4,0.7-0.7,0.7-1.3c0.4-0.3,0-0.7,0-1.1
				c-0.2-0.2-0.3-0.5-0.3-0.6c-0.2-0.5-0.8-0.6-1.1-0.2c-0.2,1.3-1,2.5-1.1,3.8c-0.3,0.3,0.1,0.5-0.2,0.7c0,0.2,0,0.3,0,0.4
				c-0.1,0.4-0.2,0.7-0.3,1h-3.5c0.1-0.3,0.1-0.6,0.2-1c0.2-1,0.5-2.1,0.7-3.1h-34c-1.7,0-3.1,1.4-3.1,3.1v25.6
				c0,1.7,1.4,3.1,3.1,3.1h34.1c-0.3-1-0.5-2-0.7-3.1c0-0.1,0-0.2-0.1-0.2h0.8c-0.1-0.2-0.1-0.5-0.2-0.7h4.2c0,0.1,0,0.2,0.1,0.3
				c-0.2,0.2-0.3,0.4-0.3,0.6c0.1,0.5,0.5,1,0.6,1.4c0.9,3.3,2.1,6.4,3.2,9.6c0.1,0.1,0.3,0.2,0.5,0.1c0.7-0.8,1.6-1.4,2.1-2.3
				c0.1-0.2,0.1-0.2,0-0.4c0-0.2,0.4-0.2,0.1-0.3c0.2-0.4-0.2-0.6-0.2-1.1c-0.1-0.2-0.3-0.3-0.2-0.6c-0.7-1.6-0.2-3.9-0.5-5.8
				c0.2-0.2,0.4-0.5,0.7-0.7c0.3-0.3,0.5-0.5,0.8-0.7c0.1-0.1,0.1-0.1,0.1-0.2h20.3c-0.1,0.1-0.2,0.3-0.4,0.4
				c-0.1,0.2-0.3,0.4-0.5,0.5c-0.4,0.3-0.9,0.6-0.8,1.3c0.9,0.8,1.7-0.5,2.6-0.2c-0.2,0.7-0.5,1.4-0.8,2c-0.5,1.1,0.9,0.4,1.3,0.9
				c0.9,0.4,2,0.5,2.9,0.8c0.1,0.4,0.4,0,0.6,0.2c0.2,0.1,0.3,0.3,0.5,0.5c0.6,0.4,0.6-0.6,1.3-0.5c0.6-0.4,1.2-0.4,1.8-0.7
				c0.3,0.1,0.5,0.1,0.8,0c0.2-0.2,0.3-0.5,0.5-0.4c0.5-0.3,0.1-1.1,0.1-1.6c0.6-0.5,1-0.9,1.6-1.4c0.2-0.3,0.4-0.6,0.6-0.9
				c0.2-0.3,0.4-0.6,0.4-0.9h29.5c-1.2,0.6-2.6,0.6-4,0.5c-0.7,0.1-1.4,0.3-2.1,0.5c-0.7,0.2-1.4,0.4-2.1,0.6
				c-3.2,2.6-6.1,5.1-9.1,7.8c-0.3,0.4-0.2,0.9-0.3,1.4c-0.5,2.1-1.4,4.4-0.8,6.7c0,0.5,0.5,0.9,0.2,1.5c0.2,0.2,0.3,0.4,0.2,0.7
				c-0.7-0.2-1.4-0.3-2.2-0.4c-0.1-0.4-0.7-0.2-1-0.5c-0.5,0-1.1,0.1-1.6-0.1c-0.8,0.2-1.6,0.3-2.5,0.3c-0.2,0.2-0.3,0.5-0.2,0.8
				c0.1,0.5,0.7,0.8,0.8,1.3c0,0.2,0.2,0.3,0.4,0.5c0.2,0.1,0.6,0.3,0.8,0.2c0.3,0,0.5-0.3,0.8-0.5c-0.1-0.2,0.1,0.1,0.1-0.1
				c0.1,0,0.2,0,0.2,0c-0.3,0.3-0.5,0.8-0.8,1.1c-0.3,0-0.5,0.4-0.6,0.3c0,0.1,0.1,0.3-0.1,0.4c0-0.1,0-0.1,0-0.1
				c-0.2,0.1-0.2,0.4-0.5,0.4c-0.2,0.4-0.4,0.9-0.7,1.3c-0.9,0.1-1,1.2-1.5,1.8c-0.1,0.1-0.3,0.1-0.2,0.3c-0.4,0.2-0.7,0.7-1.2,0.9
				c-0.8,0.8-2.3,0.2-3.1,0.8c-1.9,0-4,0.2-5.6-0.6c-0.4,0-0.8-0.3-1.3-0.2c-0.4,0.7-0.2,1.5,0.2,2.1c0.2,0.4,0.7-0.1,0.7,0.4
				c0.1,0,0.8,0.2,0.9,0.2c1.1,0.1,1.5-0.2,2.5,0.3c0.3-0.3,1-0.1,1.3-0.2c0.7,0.2,1.4,0.4,2,0.7c0.4,0,0.6-0.6,1.1-0.5
				c0.7-0.3,1.6-0.6,2.4-0.4c-0.1,0.3-0.2,0.6-0.1,1c0.7,0.6,1.7,1,2.4,1.6c0.6,0.5,1.3,1.3,2.1,1.2c0.7-0.4,1.5-0.7,2.1-1.3
				c0.2,0,0.2,0.1,0.3,0.2c0,0.3-0.5,0.5-0.7,0.7c-0.2,0.7-1.4,0.6-1,1.5c0.5,0.9,1,1.8,1.3,2.8c0.2,0.5,0.8,0.5,1.3,0.3
				c0.9-0.2,1.6-0.4,2.6-0.5c0,0.1-0.2,0.1-0.3,0.2c-1.3,0.8-3.4,0.3-4.2,2c-0.6,0.6-1.1,1.4-1.8,1.9c-1.7,0.3-3.4,0.8-5.1,0.7
				c-2.1-0.6-4.2-1.3-6.4-1.8c-0.4-0.2-0.9-0.3-1.3-0.5c-0.6-0.4-1.3-0.5-1.9-0.8c1,0.1,2.3,0.1,3.4,0.4c0.2-0.2,0.5,0,0.8,0
				c0.5,0,0.8-0.2,1.3,0.1c0.5-0.2,1,0,1.6,0c0.5,0.1,1.2-0.1,1.7,0.3c0.4,0.6,0.4,1.7,1.4,1.4c0.5-0.5,1.5,0,1.7-0.8
				c0-0.6,0-1.3-0.2-1.8c1.1,0.1,1.8,1.6,3,1.1c0.8,0,0.6-0.7,1.1-1.1c-0.2-0.5,0.2-0.8,0-1.1c-1.9-2-4.2-3.5-6.5-4.8
				c-0.2-0.2-0.3-0.2-0.5-0.3c-0.7-0.5-1.4-1.1-2.1-1.6c-0.5-0.7-0.9,0.3-1.3-0.2c-0.3,0.1-0.9,0-1.3-0.2c-0.2,0.2-0.5-0.1-0.6,0.1
				c-0.2-0.3-0.8-0.1-1.1-0.2c-0.6-0.2-1.2-0.3-1.8-0.3c-0.5-0.2-0.9-0.1-1.4-0.3c-0.5-0.2-1.2-0.1-1.7-0.4
				c-0.4-0.1-0.8-0.2-1.2-0.2c-0.2,0.3-0.6,0-0.7,0.4c-0.3-0.3-0.7,0.2-1.1,0.3c-0.3,0.2-0.5,0.4-0.7,0.6c-0.2,0.3-0.5,0.8-0.8,0.9
				c-0.2,0.6-0.6,1.3-0.1,1.7c0.1,0.6,0.3,1.3,0.8,1.7c0.1,0.2,0.4,0.4,0.3,0.7c-0.2,0.1-0.3,0.2-0.5,0.2c-0.7,0-0.6-0.9-1.2-1.1
				c-1.2-2-3.2-3.7-4.5-5.6c-0.6-0.8-1.5-1.2-2.4-1.7c-0.3-0.3-0.2-0.9-0.2-1.3c0.1-0.3,0.3-0.6,0.6-0.7c0.2-0.1,0.5,0,0.5-0.3
				c-0.1-0.4,0.3,0.2,0.5-0.2c1.1,0.8,1.4,1.9,2.2,2.9c0.6,0,0.7,1.3,1.4,0.7c0.8-1.3-0.6-2.3-0.6-3.6c0-0.4-0.8-1.7,0.1-1.1
				c0.6,0.5,1.7,1.2,2.2,1.8c0.5,0.5,1.1,0.2,1.6,0.5c0.6,0,1.2,0.4,1.6,0.7c0.8,0.5,1.6-0.2,2.4-0.3c0.2-0.1,0.2-0.3,0.2-0.5
				c-0.1-0.1-0.2-0.2-0.1-0.3c0.2-0.1,0-0.3,0-0.4c-0.2-0.5,0-1-0.2-1.5c0.1-0.1,0-0.2,0-0.3c0.2-0.5,0.2-1.2,0-1.6
				c0-0.5-0.3-0.7-0.6-1c-0.2-0.1-0.7-0.1-0.8-0.5c-0.3,0.2-0.5-0.5-0.9-0.5c-0.4-0.3-0.9-0.5-1.1-0.9c-0.3-0.1-0.4-0.3-0.6-0.5
				c0-0.6-0.6-0.9-1-1.3c-0.3-0.3-1-0.4-0.7-1c0.4-0.5,0.3-1.3,0.6-1.9c0.3-0.8,0.6-1.8,0.7-2.6c-0.1,0-0.2-0.2,0-0.2
				c0.3,0,0.5-0.1,0.7-0.3c0.3-0.2,0.1-0.6,0-0.8c-1-1.3-2.1-2.6-3.2-4c0.3-0.6,1.4-1.2,1-2.1c-1-0.6-2-1.5-2.6-2.3
				c0.8,0.2,1.8,0.2,2.6,0c0.5-0.5,0.3-1.2,0.2-1.8c0-0.1,0-0.2-0.1-0.3c-0.1-0.1-0.2-0.3-0.3-0.3c-2.1-0.3-4.1,0.4-6-0.2
				c-0.3,0.1-0.5,0.2-0.6,0.5c0,0.1,0,0.2,0,0.3c0,4,1,8.4,0.5,12.5c-0.5,0.9-1.4,1.8-2.4,2.4c-0.7,0.6-1.5,1.5-2.4,1.1
				c-1.1-0.5-2.5-0.6-3.5-1.3c-0.7,0.1-1.3-0.6-2-0.3c-1-0.2-0.6,1.4-1.6,1.6c-0.1,0.3-1.5-1.8-1.5-1.9c0-0.3-0.2-0.6-0.4-0.8
				l-1.6-0.6l-0.7,0.1l-1-0.1l-0.4-0.3c9.7,20.8,30.7,34.4,53.9,34.4c24.9,0,47.3-15.7,55.8-39.1c0.5-1.2,0.9-2.5,1.2-3.8l0.2-0.6
				h0.6h34.3c1.7,0,3.1-1.4,3.1-3.1V87.2c0-1.7-1.4-3.1-3.1-3.1h-34.3h-0.6l-0.2-0.6c-0.4-1.3-0.8-2.6-1.2-3.8
				c-7.1-19.3-23.6-33.4-43.2-37.7c0,0.7-0.3,1.2,0.4,1.5c1,0.2,1.2-1,3.1-0.4c1.8,0.4,2.4,3.2,3.6,4.3c0,0.2,0,0.4,0.2,0.6
				c0,0.2,0.3,0,0.2,0.2c0.9,0.3,1.8-0.4,2.6-0.8c1,0,1.8-0.3,2.7-0.5c0.3,0,0.6,0.1,0.8,0.3v0.2c-1.3,0.1-2.3,0.8-3.4,1.3
				c-0.1,0.2-0.2,0.3-0.1,0.5c0.7,1.2,1.9,1.9,3,2.6c1,0.3,2-0.3,2.9-0.6c0.7-0.2,1.4-0.7,2.1-0.1c0,0.2,0.2,0.2,0.2,0.4
				c-1,0.6-2.2,0.8-3.4,1c-0.9,0.5-1.9,0.5-2.9,0.8c-0.2,0.1-0.4,0.4-0.3,0.6c0.4,0.8,1.6,0.5,2.2,0.8c0.3,0.1,0.7,0.2,1,0.4
				c0.8,0.2,1,1.2,1.6,1.8c0,0-0.1,0-0.1,0.1c-1.9,0.2-3.7,0-5.4-0.6c-0.2,0.1-0.4-0.2-0.6-0.1c-0.5,0.1-0.7-0.3-1.2,0
				c-0.2,0.2,0,0.5,0,0.8c1.1,0.8,2.2,1.6,3.5,2.1c0.2,0.3,0.6,0.6,1,0.8c0.5,0.1,0.9,0.2,1.4,0.1c0.7-0.5,1.3-1.3,2.1-1.5
				c0.5-0.6,1.3-0.8,2.2-0.6c1.2,0.3,2.3,0.3,3.5,0.7c0.9,0.1,0.8-1,1.6-0.8c2.4,1.6,4.5,3.3,6.8,5c0,0.3-1,1.1-1.2,1.4
				c-2-0.6-3.8-2-5.2-3.6c-0.3-0.3-0.6,0.2-0.9-0.3c-2,0-3.7-0.8-5.6-0.8c-0.2-0.1-0.5,0-0.7-0.1c-0.6,0.3-0.7,1.1-1.1,1.5
				c-0.2,0.5-0.8,1-1.1,1.4c-0.5,0.5-1.1,0.7-1.3,1.4c0,1.6,0.8,3,0.9,4.6c0.1,0.8,0.3,1.5,0.5,2.2c-0.1,0.1-0.2,0.1-0.2,0.2
				c-0.1,0.4-0.2,0.8-0.5,1.1c-0.1,0-0.2,0.1-0.3,0.2l0,0.1c0,0,0,0-0.1,0.1l-0.3,0.1c-0.1,0.1-0.2,0.2-0.3,0.4l0,0.2v0.2
				c0,0.1,0,0.2,0.1,0.3l0.2,0.3c0.8,0.3,1.4,0.8,2.2,1l0.5,0c0.1,0,0.2,0,0.3-0.1c1,1.7,1.9,3.4,3.2,4.9c0.6,1.1,1.3,2.4,2.1,3.4
				c0.3,0.2,0.7-0.1,0.8-0.4c-0.3-1.6-1.1-3.3-1.3-5c-0.3-0.6-0.5-1.3-0.6-2c0.8-1,2.1-1.9,2.9-3.1c0-0.3-0.1-0.7-0.5-0.8
				c-0.6-0.6-1.5-1.3-2.2-2.1c0-0.2,0.2-0.3,0.3-0.5c1,0.3,1.7,1.2,2.6,1.8c1,0.8,2.1,1.8,3.2,2.7c1.2-0.1,1.7-1.3,2.7-1.9
				c1.1,0.2,1.8,3.3,2.8,1.8c0.8-0.6,0.4-0.4,1.2-1.2c0.4-0.8-0.1-2.1-0.5-2.7c-1-0.8-1.1-2-2-3c0.1-0.5,1.1-1.4,1.4-1.8
				c1,0.3,0.9,1.8,1.9,2.3c0.4,0.5,0.8,0.9,1.2,1.4c0,0.1,0,0.1,0,0.2c0,0.2,0.1,0.5,0.1,0.7c0,0.1,0,0.1,0,0.2
				c0.1,0.7,0.2,1.3-0.2,1.9c-0.3,0.5-0.8,1-1.2,1.4l-0.2,0.3c-0.2,0.2-0.2,0.5-0.1,0.7l0.1,0.2c0,0,0,0,0,0l0.2,0.2
				c0.1,0.1,0.2,0.1,0.3,0.2l0.2,0c0.5,0.1,1-0.1,1.4,0.5l0.1,0c0.1,0.2,0.2,0.4,0.3,0.6c0.2,1-0.4,2.3,0.7,3l0.4,0.1
				c0.2,0,0.3-0.1,0.4-0.2l0.1-0.1c-0.1,2.5-0.8,4.6-3,6.2c-0.7,0.6-0.8,1.5-0.9,2.6c0,0.3-0.1,0.7-0.1,1h-5.8
				c-0.2-0.1-0.3-0.2-0.4-0.3c-0.3-0.2-0.6-0.4-0.9-0.6c-1-0.8-1.9-1.4-3-2.2c-0.3-0.2-0.3-0.7-0.7-0.7c-0.2,0-0.5,0.2-0.5,0.3
				c-0.2,1.2-0.7,1.8-1,2.6c-0.1,0.3-0.2,0.6-0.3,1h-8.3c0.2-0.1,0.4-0.2,0.6-0.4c0-0.2,0-0.4,0-0.6c-0.1-1.5,0-3.1-0.3-4.7
				c-0.6-0.6-1.5-0.7-2.3-0.9c-0.5-0.4-1.1-0.1-1.6-0.5c0.6-0.9,1.4-1.8,1.6-2.9c-0.2-0.1-0.2-0.3-0.4-0.3c-1,0.4-2.1,0.5-3.1,1
				c-0.1,0.3-0.5,0.4-0.6,0.6c-0.1,0.8,0,1.8-0.2,2.6c0.1,1.5-0.1,3.6-0.3,5.1c0,0.1,0,0.2,0,0.2c-0.5,0-0.9-0.1-1.4-0.1
				c-0.3,0.2-0.7,0-0.9,0.4c0,0.1,0,0.3-0.1,0.4h-21c0.2-0.3,0.5-0.6,0.7-1c0.1-0.2,0.3-0.4,0.4-0.7c0.7-0.2,0.5-1.3,0.7-1.7
				c0.2-0.8,0.4-1.5,0.8-2.1c0.3-1.1,0.9-2,1.6-3c0.9-0.8,1.9-1.8,3-2.3c0.2-0.2-0.2-0.5,0.1-0.6c-0.2-0.8-0.5-1.6-0.6-2.5
				c1-0.2,2.1-0.1,3-0.1c0.3-0.1,0.5-0.5,0.5-0.8c0.1-0.8,0.6-1.6,1.1-2.3c0.2,0.8,0.3,1.7,0.2,2.6c0.9,0.3,1.8,0.5,2.7,0.9
				c0.2,0,0.2,0.3,0.3,0.2c0.5,0.1,0.7,0.3,1.2,0.5c0.4-0.1,0.6,0.4,1,0.2c0.2,0.3,0.4,0.1,0.6,0.4c0.5,0.3,1,1.2,1.7,1.5
				c1.1-0.3,2.4,0.2,3.6,0.1c0.2,0.1,0.4,0.2,0.7,0.2c0.2-0.1,0.3,0.2,0.3-0.5c-0.3-0.7-0.6-2.2-1.1-2.8c-0.8-0.9,0.2-2.1,0.2-3.2
				c-0.7-0.9-1.3,0.3-2,0.2c-0.5-0.2-0.6-0.7-1-1.1c-1-0.5-1.6-2-2.9-1.8c-2.6-0.1-5.3-0.3-7.8-0.5c-0.6,0.2-1.3,0.2-1.6,0.8
				c-0.6,0.4-1.3,0.9-1.9,1.4c-1.5,0.2-3-0.5-4.3,0.1c-1.1,0.8-2.4,1.4-3.4,2.4c-0.7,0.3-1.2,1-1.8,1.4c-0.3,1.8-0.8,3.9-1.4,5.7
				c-0.3,0.3-0.1,0.8-0.4,1.2c0,0.6-0.4,1.1-0.3,1.7c-0.5,1-0.3,1.9-0.5,2.9c0.6,0.5,0.9,1.1,1.3,1.7c0.2,0.3,0.3,0.6,0.5,1h-21
				c0.2,0,0.5-0.1,0.7-0.1c0.3-0.3,0.7-0.6,1.1-0.9c0.4-0.2,0.8-0.5,1.1-0.7c0.4-0.1,0.2-0.2,1.1-0.2c3.4-0.5,6.2-3.6,8.9-5.1
				c0.3-0.2,0.5-0.6,0.7-1.1c0.1-0.3,0.2-0.5,0.4-1c0.1-0.5,0-0.8-0.1-1.1c-0.1-0.1-0.4-0.9-1-1.2c-0.4-0.2-0.6-0.7-1.4-1.1
				c-0.2-0.1-0.5-0.2-0.5-0.4c0.3,0.1,0.2-0.4,0.5-0.5c0.2,0.1,0.1-0.2,0.3-0.2c1.1,0.1,2,0.7,3.1,0.8c0.3-0.6,0.5-1.3,0.8-1.9
				c0.8-1.1,0.4-2.9,1.8-3.5c0.3-0.4,1-0.4,0.8-1.1c-0.7-0.5-1.6-0.3-2.4-0.5c-0.3-0.2,0.1-0.5,0.2-0.6c1.1-0.9,2.3-1.9,3.5-2.9
				c0-0.2,0.1-0.4,0-0.6c-0.2-0.2-0.5-0.1-0.7-0.1c-1.6,0.8-3.2,1.1-4.9,1.6c-1.3,0.5-0.6-1.3-1.2-1.9c-0.1,0-0.2-0.2-0.3-0.1
				c-0.5,0.5-0.8,1.3-1.5,1.4c-0.2,0.1-0.3,0.3-0.3,0.5c0.4,0.8,1,1.6,1.6,2.3c-0.3,1.7-1.3,3.3-1.7,5c-0.1,0.9-0.7,1.9-1.6,2.2
				c-1,1.2-2.3,2.4-3.5,3.3c-0.4,0.6-1.1,1.1-1.8,1.3c-1.6,0.3-3.2,0.9-4.8,1c-0.7-0.6-1.3-1.3-1.8-2.1c0.5-0.7,1-1.3,1.3-2
				c0.9-1.1,2.2-2,3.4-2.9c0.3-1.1-1.2-0.9-1.3-1.7c0.4-0.5,0.6-1.1,1.1-1.5c0.6,0,1.4,0.3,2.1,0.2c0.8-0.8,1.9-1,2.9-1.4
				c0.5-0.2,0.2-0.8,0.2-1.1c0.2-0.4,0.5-0.3,0.8-0.5c0.5-0.2,0.6-0.6,1.2-0.5c0.4-0.2,1-0.3,0.9-0.9c-0.1-0.3-0.5-0.4-0.8-0.6
				c-0.5-0.1-1.1-0.2-1.6-0.2L78,65.5c-0.1-0.2-0.3-0.3-0.4-0.3h-0.2l-0.2,0c-0.1,0-0.2,0.1-0.3,0.1l-0.1,0
				c-2.4,0.7-5.1,0.9-7.1,2.7c-0.5,0.5-0.5,1.3-0.5,1.9l-0.1,0.3h0c-0.4,0-0.9,0-1.3,0.2l-0.7,0c-0.1,0-0.2,0.1-0.3,0.2l-0.2,0.2
				c-0.1,0.1-0.1,0.2-0.1,0.3l-0.1,0.4c-0.4,0.9-0.8,1.7-1.2,2.6c-0.5,1.1-1.4,2-1.9,3.2C63.3,77.5,63.4,77.8,63.6,77.9z M75,111.8
				h5c-0.1,0.2-0.3,0.4-0.4,0.6c-0.5,0.8-1.1-0.1-2,0c-0.7-0.2-1.9,0.6-2.3-0.3C75.2,112.1,75.1,111.9,75,111.8z M104.2,130.2
				c-0.2,0-0.4,0-0.5,0.2c-0.1,0.3-0.4,0.5-0.5,0.9c-0.3,0.2-0.7,0.3-1,0.3c-0.3-0.1-0.5-0.3-0.6-0.6c0.2-0.7,0.3-1.4,0.4-2.1
				c-0.2-0.6,0.1-1.1,0.2-1.6c0.5-0.4,0.8-1.6,1.2-1.2c0.2,0.5,0.4,1,0.4,1.6c0.1,0.2,0.3,0.2,0.5,0.2c0.3-0.2-0.2-0.9,0.5-0.7
				c0.7-0.4,0.1-2.2,1.2-1.7c0.2-0.1,0.3,0,0.5-0.2c0.5-0.1,1.1-0.7,1.9-0.8c0.6-0.5,1.6-0.6,2.2-1c0-0.2,0.3,0.2,0.3-0.2
				c0.3-0.4,1-0.2,1.3-0.8c1.6-0.8,3.3-2.2,4.9-3.1c0.6-0.1,0.7-1.1,1.4-0.8c0.8,0.2,1.6-0.2,2.4-0.2c0.3-0.3,0.5-0.7,0.2-1.1
				c-0.2-0.6-1-0.9-0.9-1.6c0.1,0,0.2-0.2,0.2,0c0.5-0.3,1.3-0.5,1.6-1.2c-0.1-0.7-0.4-1.3-0.9-1.8c-0.2-0.2-0.4-0.3-0.6-0.5
				c-0.5-0.4-1.3,0-1.8-0.5h3.2c0.2,0.1,0.4,0.3,0.5,0.4c0,0.2,0,0.3,0,0.5c0,1.8,0.1,3.7,0.1,5.5c-0.4,1.2-0.9,2.3-1.7,3.3
				c0,0.2,0,0.3-0.1,0.5c-0.7,1.2-1.3,2.6-1.9,3.9c-1.7,1.1-3.2,2.4-4.8,3.7c-1.8,1.1-3.5,2.1-5.2,3.3c-1.5,0-2.8-0.3-4.2-0.3
				C104.5,131.9,104.6,130.9,104.2,130.2z M121.1,149.3c-0.2,0-0.3,0.1-0.5,0.2c-1.2,0-2.3,0.1-3.2,0.6c-1.1,0.4-2.2,0.9-3.3,1.3
				c-1.5,0.7-2.2,1.7-3.5,2.9c-0.5,0.7-1.2,1.2-1.3,2.1c-0.2,0.2-0.5,0.4-0.7,0.2c-0.5-1.2,0.5-2.2,0-3.4c0-0.2,0.5-0.3,0.1-0.4
				c1.6-1.1,3.1-2.8,5-3.3c1.7-0.5,3.3-1.4,5-1.7c0.1,0,0.2,0.2,0.3,0c0.9,0.4,2,0.3,2.9,0.8C121.8,148.9,121.2,149,121.1,149.3z
				 M126.9,140c-1.8,0.1-3.6-0.2-5.5-0.1c-0.7,0.3-1.4,0.8-2.2,0.9c-0.2,0-0.7,0-0.5-0.3c0.7-0.6,1.4-1.1,1.8-2
				c0.7-0.9,2.2-1.3,2.1-2.7c0-0.5-0.2-1.1-0.1-1.6c-0.5-0.3-0.9-1.1-1.6-0.8c-0.2,0.1-0.5,0.1-0.6,0c0-0.2-0.2-0.4,0-0.6
				c1.3-0.5,2.2-1.4,3.3-2.2c0.2,0.1-0.1,0.5,0.2,0.5c-0.1,0.1-0.2,0.2,0,0.3c-0.2,1.4,0.3,2.5,0.3,4c0.2,0.6,0,1.3,0.2,1.9
				c0.4,0.5-0.1,1.7,1,1.5c0.6,0.2,1.4,0,2,0.5C127.1,139.6,127.2,139.9,126.9,140z M129.6,138.4c-0.2,0.3-0.6,0.2-0.8,0.1
				c0-0.1-0.1,0-0.2,0c0-0.8,0.2-1.6,0.5-2.2c0.3-0.2,0.3-0.5,0.7-0.6c0.5-0.2,1-0.2,1.5-0.3c0.5,0.5,1.2,1.1,1.6,1.7
				C132,137.7,130.8,138.2,129.6,138.4z M141.9,126.3c-0.2,0.5-0.5,1-0.6,1.6c0,0.6-0.5,1.1-0.7,1.6c-0.1,0.1-0.2,0.2-0.3,0.2
				c-0.3,0.6-0.4,1.4-1,1.9c-0.1,0.8-0.9,1.2-1.4,1.8c-1,0.9-2.2,1.9-3.3,2.5c-0.3-0.4-0.5-1-0.8-1.5c0-0.1-0.3-0.3-0.3-0.4
				c-0.3,0-0.1-0.1,0-0.1c0-0.1,0.2-0.2,0.2-0.3c0.5-0.1,0.5-0.8,1.1-0.9c0.2-0.5,0.7-0.8,0.8-1.3c0.6-0.8,1.2-1.4,1.4-2.1
				c0.3-0.1,0.4-0.6,0.6-0.9c0.3-1.3,1.1-2.3,1.4-3.6c0.7-0.5,0.4-2.3,1.6-1.9c0.6,0.3,1.5,0,2.1,0.4
				C142.7,124.3,142.2,125.3,141.9,126.3z M143.2,119.6c-0.3,0.3-0.1,0.9-0.6,1.1c-0.7,0-1.3-0.3-1.9-0.3c-0.2-0.8-0.2-1.4-0.3-2.2
				c0.6-0.2,1.3-0.3,1.9-0.5c0.1-0.2,0.2-0.5,0.1-0.7c-0.2-0.1,0.2-0.2,0-0.3c-0.1,0.2,0.1-0.2-0.2-0.3c0-0.2,0.2-0.4-0.1-0.5
				c-0.1-0.6-0.2-1.3-0.7-1.6c-0.5,0-0.8,0-1.1-0.3c-1.5,0-3.1-0.2-4.5,0.2c-0.5,0.5-1.3,0.4-1.8,1c-1.4,0.7-3.2,1.3-3.9,2.9
				c-0.5,0.8-1,1.7-1.6,2.5c0,0.4-0.3,0.8-0.6,1c-0.6-0.1-0.2-0.8-0.3-1.2c-0.2-1.6,0-3.2,0-4.9c0.1-1,0.1-1.9,0.1-2.8
				c0-0.3,0-0.6,0.1-0.9c0,0,0,0,0,0h8.1c0,0.1,0.1,0.1,0.2,0.2c0.3,0,0.6-0.1,0.8-0.2h4.7c0,0.1,0,0.2-0.1,0.3c0,0.3,0,0.5,0.1,0.7
				c0,0.1,0.1,0.1,0.2,0.1c0.1,0,0.1-0.1,0.2-0.1C143.4,114.6,143.3,117.2,143.2,119.6z M149.7,117.2c-0.3,0-0.6,0.2-0.8,0.1
				c-0.5-0.7-0.8-1.6-1.2-2.3c0.1-0.3-0.2-0.3-0.2-0.6c-0.3-0.5-0.2-1.1-0.1-1.6c0-0.2,0.1-0.4,0.1-0.6c0-0.1,0-0.2,0-0.3h3
				c0,0.3,0,0.7-0.2,0.9c0,0,0,0,0,0c-0.9,1.1-0.2,1.9,0.1,2.8C150.4,116.1,149.7,116.6,149.7,117.2z M139.3,87.9
				c0,0.1-0.1,0.2-0.1,0.3h-2c0.5-0.3,1-0.6,1.5-0.8C138.8,87.6,139.1,87.7,139.3,87.9z M190.6,88.3c0.3,0,0.5,0.2,0.5,0.5v22.4
				c0,0.3-0.2,0.5-0.5,0.5H9.3c-0.3,0-0.5-0.2-0.5-0.5V88.8c0-0.3,0.2-0.5,0.5-0.5H190.6z"/>
			<path class="st1" d="M70.4,54.5C70.4,54.5,70.4,54.5,70.4,54.5l0,0.2c0,0.1,0.1,0.2,0.2,0.2H71c0,0,0.1,0,0.1,0l0.2-0.1
				c0.1,0,0.1-0.1,0.1-0.1l0.4-0.4c0,0,0,0.1,0,0.1c0.1-0.1,0.2-0.3,0.2-0.4l0.2-0.5c0.2-0.1,0.4-0.2,0.6-0.2c0.8-0.2,1.4,0,2.1-0.6
				c0.5-1.4,1.7-2.2,2.4-3.3c0.3-0.5,1.1-0.7,1.1-1.3c0.4-0.1,0.7-0.3,0.9-0.5c0,0,0,0,0,0c0.1-0.1,0.1-0.1,0.2-0.2c0,0-0.1,0-0.1,0
				v-0.3c0,0,0,0,0-0.1l0-0.2c0-0.1-0.1-0.2-0.2-0.2l-0.3-0.1c-0.4-0.1-0.8-0.1-1.3,0c-1.3,0.3-2.3,1.1-3.4,1.7
				c-1.1,0.7-1.7,1.8-2.7,2.6l-0.3,0.3c-0.1,0.1-0.1,0.1-0.1,0.2l0.1,0.5c-0.2,0.3-0.3,0.5-0.4,0.8c-0.1,0.2-0.2,0.5-0.3,0.8
				l0.1,0.3c0,0.1,0,0.2-0.1,0.3c0,0.1,0,0.2,0,0.2c0,0-0.1,0.1-0.1,0.2L70.4,54.5z"/>
			<path class="st1" d="M55.8,65.4c-0.2,0-0.4,0-0.5,0.2l-0.1,0.1c0,0-0.1,0.1-0.1,0.1c-0.2,0.2-0.3,0.3-0.4,0.5
				c-0.3,0.4-0.7,0.9-1.2,1.2c-0.4,0.8-1,1.4-1.6,2.1L51.4,71c-0.2,0.3-0.2,0.9-0.5,1.1c0,0.2,0.1,0.5,0.3,0.6
				c0,0.2,0.3,0.3,0.5,0.3c0.1,0.2,0.2,0.3,0.4,0.3c0.1,0.1,0.2,0.1,0.3,0.2c0.2-0.2,0.2-0.2,0.2-0.2c0,0,0,0,0,0c0,0,0,0,0,0
				c0.2,0,0.2-0.1,0.3-0.2c0.4-0.2,0.8-0.3,1.2-0.5h0.4c0.2,0,0.4-0.2,0.4-0.4l0-0.3v-1.5l0,0c0,0,0,0,0,0l0.4-0.4h1
				c0.1,0,0.2,0,0.3-0.1l0.3-0.2c0.3-0.5,0.6-1.1,1.1-1.6l0.2-0.4c0-0.1,0-0.3,0-0.4L58,66.9c-0.5-0.5-1.1-0.9-1.6-1.4L55.8,65.4z"
				/>
			<path class="st1" d="M112.8,49.4c-1.3,0.6-2.4,1.5-3.8,2c-2.7-0.3-5.3-0.4-7.9-0.6c-0.2,0.1-0.3,0.3-0.3,0.5
				c-0.4,0.5-0.5,1.2-0.8,1.8c0,0.5-0.3,0.9,0.1,1.4c1,0.5,1.8-0.5,2.9-0.6c-0.1,0.1-0.1,0.2-0.1,0.3c0,0.1,0,0.1,0,0.1
				c0.1,1.3-1,2-1.4,3.1l-0.1,0c-0.1,0.1-0.1,0.2-0.1,0.3l0,0.2c0,0,0,0.1,0,0.1c0.1,0.3,0.3,0.4,0.6,0.4l0.3-0.1
				c1.4-1,2.7-2.2,4.3-3l0.3-0.2l0.1,0.1c0.7,0.9,1.6,1.7,2.4,2.7l-0.1,0c0,0.2,0.2,0.4,0.5,0.4l0.1,0c0.1,0,0.2,0.1,0.3,0.1
				l-0.3-0.1c0,0.1,0.1,0.2,0.2,0.2l0.2,0.1h0l0.2,0.1c0.1,0.1,0.2,0.1,0.2,0.1h0.2c0.1,0,0.2,0,0.3-0.1l0.2-0.2c0,0,0,0,0,0
				l0.2-0.2c0.1-0.1,0.1-0.2,0.1-0.3l0.1-0.3c0.2-0.8,1-1.2,1.4-2l0.2-0.1l0.1,0.1c0.4,0,0.7,0,1.1,0.1c1.9,0.4,3.5,1.6,5.5,1.4h0.2
				c0.1,0,0.2,0,0.2-0.1c0.2-0.1,0.3-0.4,0.2-0.7l-0.1-0.2c0-0.1-0.1-0.1-0.1-0.1v-0.3c0-0.1,0-0.2-0.1-0.3l-0.3-0.3
				c-0.2-0.4-0.4-0.8-0.6-1.1c0-0.1,0.1-0.1,0.1-0.2c-0.1,0-0.2-0.1-0.3-0.1c-0.3-0.5-0.6-1-1-1.4c0.6,0,1.1,0,1.7,0h0.2
				c0.1,0,0.1,0,0.2,0c0.2-0.1,0.4-0.4,0.3-0.6l-0.1-0.2c0-0.1-0.1-0.2-0.2-0.2l-0.1-0.1c-0.1-0.1-0.1-0.1-0.2-0.2l-0.2,0
				c0-0.1,0-0.1,0-0.2c-0.5-0.6-1-1.3-1.6-1.9c-0.3-0.5-0.3-1.2-0.7-1.7c-0.9-0.3-1.9-0.6-2.8-1.1c-0.3,0-0.5-0.3-0.8-0.2
				c-0.4,0.3,0.1,0.6,0.3,0.8c0.3,0.6,0.6,1.3,0.3,2.1C113.7,49.1,113.3,49.4,112.8,49.4z"/>
			<path class="st1" d="M98.7,43.6c-0.4,0.1-0.4,0.7-0.9,0.8c-0.5,0.5-1.1,0.8-1.4,1.4c-0.2,0.8-1,1.2-1,2c0.7,0.8,1.3,1.6,2,2.4
				c-0.1,0.3,0.2,0.7-0.2,0.8c-0.1,0.6-0.7,0.8-1.1,1.2c-0.5,0.2-0.9,0.9-1.6,1.1c-0.1-0.1-0.1,0.1-0.2,0c-0.2,0.5-0.1,0.8,0.2,1.1
				c0.5,0,1.4-0.3,1.8,0.2c0.4,0,0.8,0.2,1-0.2c0.6-0.3,0.2-1.3,0.9-1.6c0.3-0.5,0.6-0.7,0.6-1.4c-0.1-0.1-0.1-0.3-0.2-0.2
				c0.1-0.2,0.5-0.2,0.8-0.4c0.8-0.8,0.4-2,1.1-2.8c0.9,0,1.7,0,2.6-0.1c0.8-0.3,0.1-1.4,0.3-2c1-0.2,2.1-0.6,3.2-0.6
				c0.9-0.3,1.7,0.2,2.6,0.2c0.6,0.1,0.9,0.3,1.5,0.5c0.3,0.4,0.7,0.2,1.1,0.5c0.3,0.3,0.5-0.2,0.8-0.3c0-2.2-2.4-1.6-3.7-2.3
				c-0.2-0.1-0.3-0.3-0.6-0.3c-1.3-0.7-2.6-1.2-4.1-1.4c-1.4,0.6-2.9,0.8-4.4,1.3C99.4,43.4,99.2,43.6,98.7,43.6z"/>
			<path class="st1" d="M69.5,55.7c0,1-0.2,1.7-0.4,2.6c0.8,1.5,1.7-0.7,2.8-0.4c0.4-0.2,0.7-0.5,1.1-0.6c0.1,0.2,0.2,0.3,0.2,0.5
				c0.2,0.6,0.3,1.5,1.2,1.4c0.8-0.7,1.1-1.9,1.8-2.6c1.2-0.1,2.1,1.1,3.3,0.6c1.4-1.3,2.7-2.9,3.6-4.8c0-0.8,0.4-1.6,0.6-2.4
				c0.5-0.3,1.1-0.7,1.6-1.2c0.1-0.3,0.8-0.5,0.6-1c-0.2-0.3-0.4-0.5-0.7-0.5c-1,0.2-1.7-0.6-2.5-1.1c-0.2-0.4-0.6,0-1-0.3
				c-0.2,0-0.2,0.2-0.4,0.3c0.4,0.6,1,1.3,0.6,2.1c-0.6,0.8-0.5,2.1-1.4,2.7c-0.2,1.6-2.1,1.8-3.2,2.6c-1.9,0.9-3.8,1.9-5.6,3.1
				c-0.5-0.1-0.9-0.8-1.4-1.1C70.1,55.4,69.7,55.5,69.5,55.7z"/>
			<path class="st1" d="M122.4,72.4c-0.7,0.8-1.8,1-2.5,1.8c-0.2,0.2-0.1,0.6,0.2,0.7c1.6-0.2,3-0.2,4.6-0.3c0.7-0.5,0-1.4-0.2-1.9
				C124.3,71.6,123.1,72.3,122.4,72.4z"/>
			<path class="st1" d="M125.4,62.3c-0.5-0.6-1.5-0.8-2.1-1.3c-0.3,0-0.5-0.2-0.8-0.2c-0.9-0.1-1.7-1-2.6-0.7
				c-0.3,0.3,0.2,0.5,0.1,0.8c0.9,0.7,1.2,1.8,2,2.5c0.2,0.8,1,0.3,1.6,0.4c0.5-0.4,1.3-0.3,1.8-0.6C125.6,63,125.5,62.6,125.4,62.3
				z"/>
			<path class="st1" d="M101.6,67.7c-0.1-0.5,0.3-0.9,0.2-1.4l-0.1-0.5c-0.1-0.2-0.3-0.3-0.4-0.3l-0.3-0.1c0,0,0,0,0,0l-0.4-0.4
				c-0.1-0.1-0.2-0.1-0.3-0.1l-0.4,0c0,0,0.1,0,0.1,0L99,64.8c-0.1,0-0.2,0-0.2,0.1l-0.2,0.1c0,0-0.1,0.1-0.1,0.1l-0.2,0.2
				c-0.1,0.1-0.1,0.2-0.1,0.3l0,0.5c0.5,1.1,1,2.3,2,3c0,0,0,0,0,0l0.2,0.2l0,0l0.1,0.2c0,0,0,0,0.1,0.1c0.2,0.2,0.5,0.2,0.7,0
				l0.2-0.2c0.1-0.1,0.1-0.2,0.1-0.3l0-0.4c0-0.1,0-0.1,0-0.2c0-0.1,0.1-0.1,0.1-0.2V67.7z"/>
			<path class="st1" d="M192.2,82.4h-33.5c-6.6-21.9-25.1-38.6-48-42.6c0.8,0.4,1.3,0.8,1.6,1.2c1.8,0.4,3.6,0.9,5.4,1.4
				c0.1,0,0.2,0.1,0.4,0.1c0.5,0.2,1,0.3,1.5,0.5c0.2,0.1,0.3,0.1,0.5,0.2c0.5,0.2,1,0.3,1.4,0.5c0.2,0.1,0.3,0.1,0.5,0.2
				c0.5,0.2,1,0.4,1.5,0.6c0.1,0,0.1,0.1,0.2,0.1c1.6,0.7,3.2,1.4,4.7,2.3c0.1,0.1,0.3,0.1,0.4,0.2c0.4,0.2,0.8,0.5,1.2,0.7
				c0.2,0.1,0.4,0.2,0.6,0.3c0.4,0.2,0.8,0.5,1.2,0.7c0.2,0.1,0.4,0.2,0.6,0.4c0.4,0.2,0.8,0.5,1.1,0.7c0.2,0.1,0.3,0.2,0.5,0.4
				c1.3,0.9,2.5,1.8,3.7,2.7c0.2,0.2,0.4,0.3,0.6,0.5c0.3,0.3,0.6,0.5,0.9,0.8c0.2,0.2,0.5,0.4,0.7,0.6c0.3,0.3,0.6,0.5,0.8,0.8
				c0.2,0.2,0.5,0.4,0.7,0.7c0.3,0.3,0.5,0.5,0.8,0.8c0.2,0.2,0.5,0.5,0.7,0.7c0.2,0.2,0.5,0.5,0.7,0.7c0.5,0.5,0.9,1,1.3,1.4
				c0.2,0.2,0.4,0.4,0.6,0.6c0.3,0.3,0.5,0.6,0.8,1c0.2,0.2,0.4,0.5,0.6,0.7c0.2,0.3,0.5,0.6,0.7,0.9c0.2,0.2,0.4,0.5,0.6,0.7
				c0.2,0.3,0.5,0.6,0.7,1c0.2,0.2,0.3,0.5,0.5,0.7c0.3,0.4,0.5,0.7,0.8,1.1c0.1,0.2,0.3,0.4,0.4,0.6c0.4,0.6,0.7,1.2,1.1,1.8
				c0.1,0.1,0.1,0.2,0.2,0.3c0.3,0.5,0.6,1,0.9,1.5c0.1,0.2,0.2,0.4,0.4,0.7c0.2,0.4,0.4,0.8,0.6,1.2c0.1,0.2,0.2,0.5,0.4,0.7
				c0.2,0.4,0.4,0.8,0.6,1.2c0.1,0.2,0.2,0.5,0.3,0.7c0.2,0.4,0.4,0.9,0.6,1.3c0.1,0.2,0.2,0.4,0.3,0.6c0.3,0.7,0.5,1.3,0.8,2
				c0.5,1.2,0.9,2.5,1.2,3.8c0,0,0,0.1,0,0.1h0h34.3c1.6,0,3,1,3.6,2.4c0.2,0.5,0.3,1,0.3,1.5v25.6c0,0.5-0.1,1-0.3,1.5
				c-0.6,1.4-2,2.4-3.6,2.4h0h-34.3h0c0,0.1-0.1,0.2-0.1,0.2c-0.4,1.2-0.8,2.5-1.2,3.6c-2.6,7.2-6.6,13.8-11.6,19.4
				c-1.5,1.7-3.1,3.3-4.8,4.8c-10.7,9.6-24.8,15.4-40.2,15.4c0,0,0,0,0,0c-0.8,0-1.6,0-2.4,0c-0.3,0-0.5,0-0.8,0
				c-0.5,0-1.1-0.1-1.6-0.1c-0.3,0-0.6-0.1-0.9-0.1c-0.5,0-0.9-0.1-1.4-0.1c-0.3,0-0.7-0.1-1-0.1c-0.4-0.1-0.9-0.1-1.3-0.2
				c-0.3-0.1-0.7-0.1-1-0.2c-0.4-0.1-0.8-0.1-1.2-0.2c-0.4-0.1-0.7-0.1-1.1-0.2c-0.4-0.1-0.8-0.2-1.2-0.3c-0.4-0.1-0.7-0.2-1.1-0.3
				c-0.4-0.1-0.7-0.2-1.1-0.3c-0.4-0.1-0.7-0.2-1.1-0.3c-0.4-0.1-0.7-0.2-1.1-0.3c-0.4-0.1-0.7-0.2-1.1-0.4c-0.3-0.1-0.7-0.2-1-0.3
				c-0.4-0.1-0.8-0.3-1.1-0.4c-0.3-0.1-0.6-0.2-0.9-0.4c-0.4-0.2-0.8-0.3-1.1-0.5c-0.3-0.1-0.6-0.3-0.9-0.4
				c-0.4-0.2-0.8-0.4-1.2-0.5c-0.3-0.1-0.5-0.3-0.8-0.4c-0.4-0.2-0.8-0.4-1.2-0.6c-0.2-0.1-0.5-0.3-0.7-0.4
				c-0.4-0.2-0.8-0.4-1.2-0.7c-0.2-0.1-0.4-0.3-0.6-0.4c-0.4-0.2-0.9-0.5-1.3-0.8c-0.2-0.1-0.4-0.2-0.5-0.3
				c-0.4-0.3-0.9-0.6-1.3-0.9c-0.1-0.1-0.3-0.2-0.4-0.3c-0.5-0.3-1-0.7-1.4-1c-0.1,0-0.1-0.1-0.2-0.1c-6.9-5-12.7-11.5-17-19
				c0,0,0,0,0,0c-0.4-0.6-0.7-1.2-1-1.9c0,0,0,0,0,0c-0.3-0.6-0.6-1.3-0.9-1.9c0,0,0,0,0-0.1c-0.3-0.6-0.6-1.3-0.9-1.9c0,0,0,0,0,0
				l0,0l-0.8-0.7l-0.4-0.3c9.1,22.4,31,38.1,56.6,38.1c27.6,0,51-18.3,58.5-43.5h33.5c2.6,0,4.8-2.1,4.8-4.8V87.2
				C197,84.6,194.9,82.4,192.2,82.4z"/>
			<path class="st1" d="M42.1,116.9c0-0.1,0-0.2-0.1-0.3H7.8c-2.1,0-3.9-1.7-3.9-3.9V87.2c0-2.1,1.6-3.7,3.7-3.9c0.1,0,0.2,0,0.2,0
				h34.3c0,0,0-0.1,0-0.1c0,0-0.6-0.1-0.6-0.1c2.4-8.4,6.5-16,12-22.4c0.1,0,0.1,0,0.2-0.1c0.9-1,1.6-1.8,2.3-2.7
				c2.2-2.3,4.5-4.4,7-6.3c0.2,0,0.3-0.1,0.4-0.3c0,0,0,0,0,0C53.1,59,45.4,69.8,41.6,82.4H7.8c-2.6,0-4.8,2.2-4.8,4.8v25.6
				c0,2.6,2.2,4.8,4.8,4.8h33.9c0.2,0.8,0.5,1.6,0.8,2.4c-0.3-0.9-0.6-1.9-0.9-2.8C41.5,117.1,42.2,117,42.1,116.9z"/>
			<path class="st1" d="M100.2,38.9c-0.8,0-1.6,0-2.4,0.1C98.5,38.9,99.4,38.9,100.2,38.9C100.2,38.9,100.2,38.9,100.2,38.9z"/>
			<path class="st1" d="M87.4,40.3c2.3-0.3,5.6-0.8,7.6-1.1C92.4,39.3,89.9,39.7,87.4,40.3z"/>
			<path class="st1" d="M66.9,48.8c0,0,0.1,0,0.1-0.1C67,48.7,66.9,48.7,66.9,48.8z"/>
			<path class="st1" d="M70.2,46.8c0.9-0.5,1.8-1,2.8-1.5C72,45.8,71.1,46.3,70.2,46.8z"/>
			<path class="st1" d="M64.1,50.7C64,50.7,64,50.8,64.1,50.7c0,0,0.1-0.1,0.2-0.1C64.2,50.6,64.1,50.7,64.1,50.7z"/>
			<path class="st1" d="M63.6,51.1C63.6,51.1,63.6,51.1,63.6,51.1c0.1-0.1,0.3-0.2,0.4-0.3c-0.2,0.1-0.4,0.3-0.6,0.4
				C63.5,51.2,63.5,51.1,63.6,51.1z"/>
			<path class="st1" d="M72.9,45.3c1-0.5,2.1-1,3.2-1.5C75,44.3,74,44.8,72.9,45.3z"/>
			<path class="st1" d="M69.9,47c0.1-0.1,0.2-0.1,0.3-0.2C70.1,46.8,69.9,46.9,69.9,47z"/>
			<path class="st1" d="M64.2,50.6c0.9-0.6,1.8-1.3,2.7-1.8C66,49.4,65.1,50,64.2,50.6z"/>
			<path class="st1" d="M67,48.7c0.9-0.6,1.9-1.2,2.8-1.7C68.9,47.5,67.9,48.1,67,48.7z"/>
			<path class="st1" d="M95.1,39.1C95,39.1,95,39.1,95.1,39.1c0,0,0.1,0,0.2,0C95.2,39.1,95.1,39.1,95.1,39.1z"/>
			<path class="st1" d="M87.3,40.3c-0.1,0-0.2,0.1-0.3,0.1C87.1,40.3,87.2,40.3,87.3,40.3C87.3,40.3,87.3,40.3,87.3,40.3z"/>
		</g>
		<path class="st1" d="M42.4,120C42.4,120,42.4,120,42.4,120C42.4,120,42.4,120,42.4,120z"/>
		<path class="st1" d="M42.4,120C42.4,120,42.4,120,42.4,120C42.4,120,42.4,120,42.4,120z"/>
		<path class="st1" d="M115.4,111.8H85.9c0,0.3-0.2,0.6-0.4,0.9h23.7c0.7-0.2,1.4-0.4,2.1-0.5C112.7,112.4,114.1,112.5,115.4,111.8z
			"/>
		<path class="st1" d="M45.9,112.1c-0.1-0.1-0.1-0.2-0.1-0.3h-4.2c0.1,0.2,0.1,0.5,0.2,0.7h-0.8c0,0.1,0,0.2,0.1,0.2h4.6
			C45.7,112.6,45.7,112.3,45.9,112.1z"/>
		<path class="st1" d="M72.9,112.3c0.1-0.1,0.2-0.3,0.4-0.4H53c0,0.1-0.1,0.1-0.1,0.2c-0.3,0.2-0.6,0.5-0.8,0.7h11
			c0-0.1,0-0.2,0-0.3c0.1-0.3,0.3-0.5,0.6-0.5c1.9,0.6,3.9-0.1,6,0.2c0.2,0,0.3,0.2,0.3,0.3c0,0.1,0,0.2,0.1,0.3h2.4
			C72.7,112.6,72.8,112.5,72.9,112.3z"/>
		<path class="st1" d="M147.4,111.8c0,0.1,0,0.2,0,0.3c0,0.2,0,0.4-0.1,0.6h2.9c0.1-0.3,0.2-0.6,0.2-0.9H147.4z"/>
		<path class="st1" d="M46.1,105.4c0,0,0.1,0,0.1,0c0,0,0.1,0,0.1,0c3.5,0,4.3-2.5,4.3-5.4c0-2-0.4-3.3-1.1-4.2
			c-0.7-0.8-1.7-1.2-3.2-1.2c0,0-0.1,0-0.1,0c0,0-0.1,0-0.1,0c-3.5,0-4.3,2.5-4.3,5.4c0,2,0.4,3.3,1.1,4.2
			C43.5,105,44.6,105.4,46.1,105.4z M46.1,95.4c0.1,0,0.2,0,0.2,0l0.4-0.2c-0.1,0.1-0.2,0.1-0.4,0.2l0,0c1.3,0,2.1,0.3,2.6,0.9
			c0.6,0.7,0.9,1.9,0.9,3.7c0,3.3-1,4.7-3.5,4.7h-0.1l0.2,0l-0.7,0.2l0.4-0.2h0c-1.3,0-2.1-0.3-2.6-1c-0.6-0.7-0.9-1.9-0.9-3.7
			C42.6,96.7,43.6,95.4,46.1,95.4z"/>
		<path class="st1" d="M17.1,103.2c1,2.9,2.3,6.4,2.3,6.4h5.8c0,0,1.2-3.4,2.2-6.3c-0.1,2.7-0.1,6.3-0.1,6.3h6.2V90.3h-7.6
			c0,0-2.6,7.5-3.6,10.3c-1-2.9-3.6-10.3-3.6-10.3h-7.7v19.3h6.4C17.3,109.6,17.2,106,17.1,103.2z M11.7,108.8V91.1H18l4.2,11.9
			l4.2-11.9h6.3v17.8H28l0.2-10.4l-3.6,10.4H20l-3.8-10.6l0.3,10.6H11.7z"/>
		<path class="st1" d="M67.8,110l0.1,0c0,0,0.1,0,0.1,0c3.3,0,5.9-0.9,7.6-2.5c1.7-1.7,2.6-4.2,2.6-7.5c0-6.7-3.3-10-10.1-10
			c0,0-0.1,0-0.1,0h0l-0.1,0c-3.4,0-5.9,0.8-7.6,2.5c-1.7,1.7-2.6,4.2-2.6,7.5C57.7,106.7,61,110,67.8,110z M60.8,93.1
			c1.6-1.6,3.9-2.3,7-2.3c0,0,0.1,0,0.1,0c0,0,0.1,0,0.1,0c6.5,0,9.3,3.1,9.3,9.2c0,3-0.7,5.4-2.3,6.9c-1.6,1.6-3.9,2.3-7,2.3
			c0,0-0.1,0-0.1,0c0,0-0.1,0-0.1,0c-6.5,0-9.3-3.1-9.3-9.2C58.5,97,59.2,94.6,60.8,93.1z"/>
		<path class="st1" d="M46.1,110l0.1,0c0,0,0.1,0,0.1,0c3.3,0,5.9-0.9,7.6-2.5c1.7-1.7,2.6-4.2,2.6-7.5c0-6.7-3.3-10-10.1-10
			c0,0-0.1,0-0.1,0l0,0l-0.1,0c-3.3,0-5.9,0.8-7.6,2.5c-1.7,1.7-2.6,4.2-2.6,7.5C35.9,106.7,39.3,110,46.1,110z M39.1,93.1
			c1.6-1.6,3.9-2.3,7-2.3c0,0,0.1,0,0.1,0c0,0,0.1,0,0.1,0c6.5,0,9.3,3.1,9.3,9.2c0,3-0.7,5.4-2.3,6.9c-1.6,1.6-3.9,2.3-7,2.3
			c0,0-0.1,0-0.1,0c0,0-0.1,0-0.1,0c-6.5,0-9.3-3.1-9.3-9.2C36.7,97,37.5,94.6,39.1,93.1z"/>
		<path class="st1" d="M111,109.6h6v-5.3h-5.7c-1,0-1.5-0.1-1.8-0.2c-0.9-0.3-1-0.9-1-2.4l0-0.3V90.3h-6.3v11.2c0,2.1,0.2,4.1,2,5.9
			C106.2,109.5,108.5,109.6,111,109.6z M103.1,91.1h4.7v10.4c0,1.4-0.1,2.9,1.6,3.4c0.4,0.1,1.1,0.2,2,0.2h4.9v3.7H111
			c-2.4,0-4.4-0.1-6.2-1.9c-1.6-1.6-1.8-3.3-1.8-5.4V91.1z"/>
		<path class="st1" d="M67.9,105.4C67.9,105.4,67.9,105.4,67.9,105.4c0.1,0,0.2,0,0.2,0c3.5,0,4.3-2.5,4.3-5.4c0-2-0.4-3.3-1.1-4.2
			c-0.7-0.8-1.7-1.2-3.2-1.2c0,0-0.1,0-0.1,0c0,0-0.1,0-0.1,0c-3.5,0-4.3,2.5-4.3,5.4c0,2,0.4,3.3,1.1,4.2
			C65.3,105,66.3,105.4,67.9,105.4z M67.9,95.4c0.1,0,0.2,0,0.2,0l0.4-0.2c-0.1,0.1-0.2,0.1-0.4,0.2l0,0c1.3,0,2.1,0.3,2.6,0.9
			c0.6,0.7,0.9,1.9,0.9,3.7c0,3.3-1,4.7-3.5,4.7H68l0.2,0l-0.7,0.2l0.4-0.2h0c-1.3,0-2.1-0.3-2.6-1c-0.6-0.7-0.9-1.9-0.9-3.7
			C64.4,96.7,65.4,95.4,67.9,95.4z"/>
		<path class="st1" d="M183.1,96.7c0-0.7-0.2-1-0.5-1.2v0c-0.3-0.2-1.1-0.4-2.3-0.4h-4.1v3.3h4.1C181.7,98.3,183.1,98.3,183.1,96.7z
			 M177,95.8c1,0,3.3,0,3.3,0c1.4,0,1.8,0.2,1.9,0.3l0,0l0,0c0.1,0,0.1,0.2,0.1,0.5c0,0.6-0.2,0.9-2,0.9c0,0-2.3,0-3.3,0
			C177,96.9,177,96.4,177,95.8z"/>
		<path class="st1" d="M153.5,107.9c2.1,1.6,4.1,1.7,6.3,1.7h7.6v-5.4h-7.4c-1.8,0-2.5-0.4-2.8-1.6c1.5,0,10.2,0,10.2,0v-5.4
			c0,0-8.5,0-10.1,0c0.4-1,1.2-1.4,2.7-1.4h7.4v-5.4h-7.5c-3.1,0-5.6,0.8-7.2,2.4c-1.7,1.7-2.5,4.2-2.5,7.5
			C150.2,103.8,151.3,106.3,153.5,107.9z M159.8,91.1h6.7V95h-6.6c-2.2,0-3.4,0.9-3.7,3h10.3v3.9h-10.3c0.1,2.4,1.2,3.2,3.7,3.2h6.6
			v3.9h-6.8c-2.3,0-4-0.2-5.8-1.6c-2.3-1.7-2.9-4.3-3-7C150.9,94.5,153.5,91.1,159.8,91.1z"/>
		<path class="st1" d="M177,103c0.8,0,1.9,0,2.4,0c0.4,0.7,3.9,6.6,3.9,6.6h7.2c0,0-4-6.4-4.8-7.6c1.9-1,2.9-2.8,2.9-5.4
			c0-4.2-2.5-6.3-7.5-6.3l-10.5-0.1v19.3h6.3C177,109.6,177,104.2,177,103z M176.2,108.8h-4.7V91.1l9.7,0c4.1,0,6.7,1.3,6.7,5.5
			c0,2.3-0.9,4.3-3.3,5l4.5,7.2h-5.4l-3.9-6.6h-3.6V108.8z"/>
		<path class="st1" d="M87.1,100.4c1.8,3,5.6,9.3,5.6,9.3H99V90.3h-6.4c0,0,0.1,5.5,0.1,8.6c-1.8-2.9-5.2-8.6-5.2-8.6h-6.7v19.3h6.4
			C87.2,109.6,87.1,103.6,87.1,100.4z M81.6,108.8V91.1h5.5l6.5,10.7l-0.1-10.7h4.8v17.8h-5.1l-6.8-11.4l0.1,11.4H81.6z"/>
		<path class="st1" d="M135.7,100.4c1.8,3,5.6,9.3,5.6,9.3h6.3V90.3h-6.4c0,0,0.1,5.5,0.1,8.6c-1.8-2.9-5.2-8.6-5.2-8.6h-6.7v19.3
			h6.4C135.8,109.6,135.7,103.6,135.7,100.4z M130.2,108.8V91.1h5.5l6.5,10.7L142,91.1h4.8v17.8h-5.1l-6.8-11.4l0.1,11.4H130.2z"/>
		<path class="st1" d="M125.6,90.3h-6.5v19.3h6.5V90.3z M124.8,108.8h-4.9V91.1h4.9V108.8z"/>
	</g>
</g>
<g id="Logo_deutsch">
</g>
</svg>
