<?xml version="1.0" encoding="utf-8"?>
<!-- Generator: Adobe Illustrator 24.1.0, SVG Export Plug-In . SVG Version: 6.00 Build 0)  -->
<svg version="1.1" id="Ebene_1" xmlns="http://www.w3.org/2000/svg" xmlns:xlink="http://www.w3.org/1999/xlink" x="0px" y="0px"
	 viewBox="0 0 200 200" style="enable-background:new 0 0 200 200;" xml:space="preserve">
<style type="text/css">
	.st0{fill:#FFFFFF;}
</style>
<g>
	<g>
		<path class="st0" d="M14.7,146.8c-1.1,0.4-2.4,0.6-3.6,0.6c-3,0-4.7-1.8-4.7-5.9c0-3.9,2-5.9,5.1-5.9c1.1,0,2.1,0.2,3,0.5
			l-0.3,1.2c-0.8-0.2-1.8-0.5-2.8-0.5c-2,0-3.5,1.5-3.5,4.6c0,3,1.2,4.6,3.5,4.6c0.7,0,1.4-0.1,2.1-0.3v-3.2h-1.6l0.1-1.2h2.8V146.8
			z"/>
		<path class="st0" d="M19.4,135.8h6.5l-0.1,1.2h-5.1v3.8h4.8v1.2h-4.8v4.2H26v1.2h-6.6V135.8z"/>
		<path class="st0" d="M35.7,146.1l3.3-10.4h1.7l1,11.5h-1.4l-0.8-9.5l-3,9.5h-1.9l-2.8-9.4l-0.8,9.4h-1.4l1-11.5h1.8L35.7,146.1z"
			/>
		<path class="st0" d="M46.1,135.8h6.5l-0.1,1.2h-5.1v3.8h4.8v1.2h-4.8v4.2h5.2v1.2h-6.6V135.8z"/>
		<path class="st0" d="M59.8,136.9h-1.3v9.2h1.3l0,1.2h-3.9l0-1.2h1.3v-9.2H56l0-1.2h3.9L59.8,136.9z"/>
		<path class="st0" d="M65.4,135.8l5,9.5v-9.5h1.3v11.5h-1.7l-5-9.5v9.5h-1.3v-11.5H65.4z"/>
		<path class="st0" d="M79.4,135.7c1.2,0,2.2,0.2,3,0.4l-0.2,1.2c-0.9-0.2-1.7-0.4-2.7-0.4c-1.3,0-2.1,0.5-2.1,1.5
			c0,1,0.7,1.5,2.3,2.2l0.4,0.2c1.8,0.8,3,1.7,3,3.4c0,1.8-1.4,3.1-3.9,3.1c-1.3,0-2.3-0.2-3.1-0.4l0.3-1.3c0.8,0.2,1.7,0.4,2.8,0.4
			c1.5,0,2.5-0.8,2.5-1.8s-0.9-1.6-2.2-2.2l-0.4-0.2c-1.8-0.9-3-1.7-3-3.4C75.9,136.6,77.4,135.7,79.4,135.7z"/>
		<path class="st0" d="M92.6,144.3H88l-0.9,3h-1.4l3.6-11.5h2l3.6,11.5h-1.4L92.6,144.3z M88.3,143.1h3.9l-1.9-6.3L88.3,143.1z"/>
		<path class="st0" d="M103.9,146.1l3.3-10.4h1.7l1,11.6l-1.4,0l-0.8-9.5l-3,9.5h-1.9l-2.8-9.4l-0.8,9.4H98l1-11.5h1.8L103.9,146.1z
			"/>
		<path class="st0" d="M122.1,135.7c1.2,0,2.2,0.2,3,0.4l-0.2,1.2c-0.9-0.2-1.7-0.4-2.7-0.4c-1.3,0-2.1,0.5-2.1,1.5
			c0,1,0.7,1.5,2.3,2.2l0.4,0.2c1.8,0.8,3,1.7,3,3.4c0,1.8-1.4,3.1-3.9,3.1c-1.3,0-2.3-0.2-3.1-0.4l0.3-1.3c0.8,0.2,1.7,0.4,2.8,0.4
			c1.5,0,2.5-0.8,2.5-1.8s-0.9-1.6-2.2-2.2l-0.4-0.2c-1.8-0.9-3-1.7-3-3.4C118.6,136.6,120.1,135.7,122.1,135.7z"/>
		<path class="st0" d="M128.2,135.8h8.5v1.2h-3.6v10.4h-1.3v-10.4h-3.6V135.8z"/>
		<path class="st0" d="M145.2,144.3h-4.6l-0.9,3h-1.4l3.6-11.5h2l3.6,11.5h-1.4L145.2,144.3z M141.3,133.1c0.5,0,0.9,0.4,0.9,0.9
			c0,0.5-0.4,0.9-0.9,0.9c-0.5,0-0.9-0.4-0.9-0.9C140.4,133.5,140.8,133.1,141.3,133.1z M141,143.1h3.9l-1.9-6.3L141,143.1z
			 M144.5,133.1c0.5,0,0.9,0.4,0.9,0.9c0,0.5-0.4,0.9-0.9,0.9c-0.5,0-0.9-0.4-0.9-0.9C143.6,133.5,144,133.1,144.5,133.1z"/>
		<path class="st0" d="M151.1,147.3v-11.5c1-0.1,1.8-0.1,2.8-0.1c2.2,0,3.8,1,3.8,3.1c0,1.6-0.9,2.8-2.7,3.2
			c0.4,0.3,0.8,0.8,1.2,1.4l2.2,3.9h-1.6l-1.6-3c-0.9-1.6-1.4-2.1-2.5-2.1l-0.3,0v5.1H151.1z M156.2,138.7c0-1.3-0.8-1.8-2.3-1.8
			c-0.6,0-1.1,0-1.6,0.1v3.9c0.3,0,0.6,0,1,0C155.4,141,156.2,140,156.2,138.7z"/>
		<path class="st0" d="M162.3,135.8h1.3v5.5l4.2-5.5h1.7l-3.6,4.6l4.1,7h-1.6l-3.4-5.9l-1.5,1.9v4h-1.3V135.8z"/>
		<path class="st0" d="M173.7,135.8h6.5l-0.1,1.2H175v3.8h4.8v1.2H175v4.2h5.2v1.2h-6.6V135.8z"/>
		<path class="st0" d="M184.6,147.3v-11.5c1-0.1,1.8-0.1,2.8-0.1c2.2,0,3.8,1,3.8,3.1c0,1.6-0.9,2.8-2.7,3.2
			c0.4,0.3,0.8,0.8,1.2,1.4l2.2,3.9h-1.6l-1.6-3c-0.9-1.6-1.4-2.1-2.6-2.1l-0.3,0v5.1H184.6z M189.7,138.7c0-1.3-0.8-1.8-2.3-1.8
			c-0.6,0-1.1,0-1.6,0.1v3.9c0.3,0,0.6,0,1,0C188.9,141,189.7,140,189.7,138.7z"/>
	</g>
	<g>
		<path class="st0" d="M132.2,90.1h-20.5v6.2h6.8v21.6h6.9V96.3h6.8V90.1z M90.3,103.8c0,9.8,5.2,14.4,12.9,14.4
			c2.9,0,5.4-0.5,7.1-1l-1-6c-1.4,0.3-3.7,0.9-6,0.9c-3.7,0-6.2-2.3-6.2-8.3c0-6,2.7-7.9,6-7.9c2.7,0,4.6,0.5,5.8,0.9l1.2-5.9
			c-1.7-0.5-3.9-1.1-6.9-1.1C95.6,89.8,90.3,94.3,90.3,103.8 M7,97.6c0-1.2,1-1.8,3.3-1.8c2.3,0,4.8,0.6,6.6,1l1-6.1
			c-2.1-0.5-4.6-0.9-7.7-0.9c-6.4,0-10,3.2-10,7.8c0,4.2,2.9,6.4,7.1,8.7l1.7,0.9c2.5,1.4,3.1,2,3.1,3.1c0,1.2-1.2,1.8-3.1,1.8
			c-2.7,0-5.4-0.5-7.5-1l-1.2,6.1c1.9,0.4,5,0.9,8.9,0.9c5.5,0,9.8-3.1,9.8-7.8c0-4.2-2.8-6.5-7.1-8.8l-1.7-0.9
			C8,99.5,7,98.7,7,97.6 M22,117.9h16.4l1-6.2H29v-5h9.3v-6H29v-4.4h10.3l-1-6.2H22V117.9z M57.9,117.9h8.3V90.1h-7v16.1l-8.1-16.1
			h-8.1v27.8H50v-15.8L57.9,117.9z M79,62.3c0,2.9-1.7,4.1-3.9,4.1c-0.6,0-1.2,0-1.7,0v-7.9c0.6,0,1.2-0.1,1.9-0.1
			C77.4,58.4,79,59.4,79,62.3 M85.7,62.3c0-7.1-5-9.7-10.6-9.7c-3.5,0-6.6,0.3-8.7,0.5v27.6h6.9V72h1.5C80.7,72,85.7,69.5,85.7,62.3
			 M70.5,117.9h16.4l1-6.2H77.4v-5h9.3v-6h-9.3v-4.4h10.3l-1-6.2H70.5V117.9z M100.8,61.2c0,2.1-1.7,3.2-4.2,3.2h-1v-6
			c0.7,0,1.4-0.1,2.1-0.1C99.4,58.4,100.8,59.1,100.8,61.2 M102,68.3c3.2-1.4,5.6-3.9,5.6-7.6c0-6-4.6-8.1-9.9-8.1
			c-3.3,0-5.8,0.2-8.9,0.5v27.5h6.8V70c1.4,0.4,2.3,1.3,3,2.9l3.1,7.7h7.4l-3.7-8.3C104.6,70.6,103.5,69.3,102,68.3 M128.4,66.4
			c0,6.2-2.9,8.5-5.8,8.5c-2.9,0-5.8-2.3-5.8-8.5c0-6.2,2.9-7.7,5.8-7.7C125.5,58.7,128.4,60.2,128.4,66.4 M135.3,66.4
			c0-9.8-5.8-13.8-12.5-13.8c-6.8,0-12.9,3.9-12.9,13.8c0,9.8,5.8,14.6,12.5,14.6C129.1,80.9,135.3,76.2,135.3,66.4 M157.7,105.9
			V90.1H151v16.4c0,3.9-1.7,5.6-4.8,5.6c-3.1,0-4.8-1.5-4.8-5.6V90.1h-7v15.8c0,8.1,4.1,12.2,11.8,12.2
			C153.9,118.2,157.7,114,157.7,105.9 M173.6,96.3h6.8v-6.2h-20.5v6.2h6.8v21.6h6.9V96.3z M189.6,111.7v-5h9.3v-6h-9.3v-4.4h10.3
			l-1-6.2h-16.3v27.8H199l1-6.2H189.6z"/>
	</g>
</g>
</svg>
