<?xml version="1.0" encoding="utf-8"?>
<!-- Generator: Adobe Illustrator 24.1.0, SVG Export Plug-In . SVG Version: 6.00 Build 0)  -->
<svg version="1.1" id="Ebene_1" xmlns="http://www.w3.org/2000/svg" xmlns:xlink="http://www.w3.org/1999/xlink" x="0px" y="0px"
	 viewBox="0 0 200 200" style="enable-background:new 0 0 200 200;" xml:space="preserve">
<style type="text/css">
	.st0{fill:#FFFFFF;}
</style>
<g>
	<g>
		<path class="st0" d="M58.6,99.5c-7.2-10-19.5-16.1-30.7-15.4C15.7,84.8,8.5,89.1,0,98.5c0,0,2.7,4.8,5.8,7
			c3.6-8.2,10.1-12,15.3-13.7c-2.8,2.2-4.7,5.7-4.7,9.6c0,6.8,5.5,12.3,12.3,12.3c6.8,0,12.3-5.5,12.3-12.3c0-4.2-2.1-7.9-5.4-10.2
			c4.2,1.2,9.7,3.8,14.2,9.6c-5,11.5-13.6,14.3-20.9,14.5v0.6C43.2,115.8,53.7,108,58.6,99.5 M25,101.4c0-2.1,1.7-3.8,3.8-3.8
			c2.1,0,3.8,1.7,3.8,3.8c0,2.1-1.7,3.8-3.8,3.8C26.7,105.2,25,103.5,25,101.4"/>
		<path class="st0" d="M79.4,97.6c-0.1-1.2-0.5-2.1-1.2-2.8c-0.7-0.7-1.6-1-2.7-1c-1.3,0-2.3,0.6-3,1.7c-0.7,1.1-1.1,2.8-1.1,5
			c0,0.9,0.1,1.7,0.2,2.4c0.1,0.7,0.3,1.4,0.6,2c0.3,0.6,0.8,1,1.3,1.4c0.6,0.3,1.3,0.5,2.2,0.5c1.1,0,2-0.4,2.6-1.1
			c0.6-0.7,1-1.7,1.1-2.8h7c-0.3,3-1.4,5.3-3.3,7c-1.9,1.7-4.3,2.6-7.3,2.6c-1.8,0-3.4-0.3-4.9-0.8c-1.5-0.6-2.7-1.4-3.7-2.4
			c-1-1.1-1.8-2.4-2.3-3.9c-0.5-1.5-0.8-3.2-0.8-5.1c0-1.8,0.3-3.5,0.8-5c0.6-1.5,1.3-2.8,2.4-3.9c1-1.1,2.2-1.9,3.5-2.4
			c1.3-0.6,2.8-0.8,4.3-0.8c3.3,0,6,0.8,7.9,2.5c1.9,1.6,3,4,3.3,7H79.4z M90.2,111.9V88.6h19.1v5.9h-12v2.9h10.9v5.7H97.3v2.8h12.4
			v5.9H90.2z M121.2,98.7h3c1.2,0,2.1-0.2,2.7-0.5c0.6-0.3,0.9-0.9,0.9-1.7c0-0.8-0.3-1.4-0.8-1.8c-0.6-0.4-1.3-0.6-2.2-0.6h-3.5
			V98.7z M121.2,103.8v8.1l-7.2,0V88.6h10.7c4.6,0,6.3,0.3,7.8,1.4c1.5,1,2.6,3,2.6,5.3c0,1.4-0.4,2.8-1.1,3.8c-0.7,1-2.2,2-2.2,2
			c4.7,2.4,2.7,8.5,4.1,10.7h-7.2c-1.8-4.1,1.4-8.1-5.1-8H121.2z M137.2,88.6h20.1v6h-6.5v17.2h-7.1V94.7h-6.5V88.6z M166.9,96.5
			l-2.3,7.2h4.4L166.9,96.5z M154.9,111.9l8.5-23.2h7l8.4,23.2h-7.5l-1-3.5h-7.2l-1.1,3.5H154.9z M192.4,95.7c0-2.9-5.4-3.2-5.4-0.9
			c0,3.4,13.1,1.2,13.1,9.5c0,7.4-7.9,8-10.9,8c-1.5,0-9.8-0.4-9.8-8.3h7.1c0,4.7,6.6,3.7,6.6,1.3c0-3.9-12.9-1.3-12.9-9.6
			c0-6.4,6.5-7.5,9.3-7.5c9.7,0,9.6,6.5,9.7,7.5H192.4z"/>
	</g>
</g>
</svg>
