<svg id="Ebene_1" data-name="Ebene 1" xmlns="http://www.w3.org/2000/svg" viewBox="0 0 200 200"><defs><style>.cls-1{fill:#fff;}</style></defs><title>ProVelo_Logo</title><path class="cls-1" d="M63.37,113.3c2.64.2,3.23.53,2.79,2.61-.32,1.5-.57,3-4.56,3-2.3,0-3.83,0-3.19-3h2.31c-.2,1,.12,1,1.31,1s1.52-.07,1.68-.83,0-.77-1.09-.85l-.52,0c-2.2-.16-3.51-.15-3-2.74s2-2.77,4.42-2.77c2,0,3.66,0,3.13,2.54l-.08.37H64.29c.2-.93-.18-.93-1.15-.93-1.3,0-1.47.27-1.58.77-.15.73.19.75.82.8Z"/><path class="cls-1" d="M79.93,115.38l-.05.27a3.68,3.68,0,0,1-1.38,2.57,4.8,4.8,0,0,1-3,.66c-2.46,0-4.24-.12-3.53-3.43l.49-2.34c.64-3,2.34-3.43,5-3.43,2.49,0,3.59.25,3.06,3l-.07.35H77.94l.07-.35c.09-.81-.46-.87-1.29-.87-1.37,0-1.6.42-1.87,1.72l-.3,1.41c-.29,1.35-.34,1.87,1.11,1.87,1,0,1.5-.07,1.73-1.13l.06-.27Z"/><path class="cls-1" d="M93.19,118.81H90.77l.76-3.55H88.38l-.76,3.55H85.21l1.92-9.06h2.42l-.73,3.41H92l.72-3.41h2.41Z"/><path class="cls-1" d="M111.72,109.75h2.43l-3.93,9.06h-3.49l0-5.68h-.09l-2.53,5.68h-3.45l0-9.06h2.45l-.18,7H103l3.19-7h2.51l.14,7h.08Z"/><path class="cls-1" d="M121.29,113.39h3.86l-.36,1.68h-3.86l-.37,1.76h4.2l-.42,2h-6.62l1.93-9.06h6.53l-.42,2h-4.12Z"/><path class="cls-1" d="M133.13,118.81h-2.42l1.93-9.06h2.41Z"/><path class="cls-1" d="M147.88,111.78l-5.36,4.86,0,.07h4.34l-.45,2.1H139l.43-2,5.31-4.84v-.08h-4l.45-2.1h7.13Z"/><path class="cls-1" d="M140.32,85.4l-5.59,11.22c0-.88-.76-11.22-.76-11.22h-4.41l1.07,15.31h6.51l7.72-15.31Z"/><path class="cls-1" d="M161.85,89l.77-3.64H151.46l-3.25,15.31H159.5l.78-3.64h-6.93c.07-.36.48-2.29.54-2.53h6.37l.67-3.14h-6.38c.08-.36.45-2.12.5-2.36Z"/><path class="cls-1" d="M172.8,96.88c.09-.44,2.45-11.5,2.45-11.5h-4.37l-3.27,15.33h10.6l.82-3.83Z"/><path class="cls-1" d="M199.27,86.85c-.89-1.1-2.5-1.57-5.41-1.57-4.24,0-7.26,1-8.26,5.63l-.9,4.22c-.39,1.86-.22,3.21.53,4.13.89,1.1,2.51,1.57,5.41,1.57,4.24,0,7.27-1,8.26-5.62l.89-4.23C200.19,89.12,200,87.77,199.27,86.85Zm-10,7.91L190,91.4c.48-2.06,1.07-2.28,3.14-2.28,1.1,0,1.76.07,2.05.42s.26.85.06,1.79l-.72,3.36c-.45,2.13-1.14,2.3-3.15,2.3-1.08,0-1.73-.06-2-.41S189.09,95.73,189.27,94.76Z"/><path class="cls-1" d="M59.55,100.73l3.25-15.3h7.69c3.79,0,4.88,1.61,4,5.61-.92,4.3-2.19,5.78-6.45,5.78H64.46l-.83,3.91ZM68,93.27C69.63,93.2,69.9,93,70.32,91c.33-1.57.19-2.06-1.4-2.06h-2.8l-.91,4.29Z"/><path class="cls-1" d="M83,85.43h7.88c3.52.06,5.09.82,4.28,4.63-.54,2.55-.86,4-3.9,4.71l0,.17c1.65.06,2.54,1,2.17,2.71l-.65,3.08H88.66l.45-2.14c.29-1.14,0-1.92-1.26-1.92H84.69l-.87,4.06H79.74Zm5.61,7.69c1.76,0,1.83-.65,2.2-2.39.29-1.36,0-1.75-1.32-1.75H86.32l-.88,4.14Z"/><path class="cls-1" d="M101.27,95.24l.92-4.32c1-4.71,4.13-5.61,8.27-5.61s6.89.9,5.89,5.61l-.92,4.32c-1,4.72-4.13,5.61-8.27,5.61S100.27,100,101.27,95.24Zm10-.45.74-3.44c.48-2.27-.23-2.49-2.35-2.49s-2.86.22-3.41,2.49l-.73,3.44c-.43,2.29.22,2.51,2.34,2.51S110.83,97.08,111.32,94.79Z"/><path class="cls-1" d="M19.82,84.77a9.2,9.2,0,0,0-7.15-3.15A13.12,13.12,0,0,0,.14,92.36a9.21,9.21,0,0,0,2,7.58,9.25,9.25,0,0,0,7.19,3.15A13.1,13.1,0,0,0,21.82,92.41,9.29,9.29,0,0,0,19.82,84.77ZM9.64,100.68A6.91,6.91,0,0,1,4.27,98.3a7.17,7.17,0,0,1-1.55-5.92A10.14,10.14,0,0,1,12.33,84a6.94,6.94,0,0,1,5.39,2.36,7.23,7.23,0,0,1,1.52,5.94A10.13,10.13,0,0,1,9.64,100.68Z"/><path class="cls-1" d="M45.36,84.77a9.22,9.22,0,0,0-7.16-3.15A13.13,13.13,0,0,0,25.67,92.36a9,9,0,0,0,9.17,10.73A13.1,13.1,0,0,0,47.36,92.41,9.29,9.29,0,0,0,45.36,84.77ZM35.18,100.68A6.94,6.94,0,0,1,29.8,98.3a7.2,7.2,0,0,1-1.54-5.92A10.14,10.14,0,0,1,37.87,84a7,7,0,0,1,5.39,2.36,7.23,7.23,0,0,1,1.52,5.94A10.13,10.13,0,0,1,35.18,100.68Z"/></svg>