<svg id="Ebene_1" data-name="Ebene 1" xmlns="http://www.w3.org/2000/svg" viewBox="0 0 200 200"><defs><style>.cls-1{fill:#fff;}</style></defs><title>Libero_Logo</title><path class="cls-1" d="M171,87.76H159l13.21,17.95L159,123.65H171l13.2-17.94Zm15.77,0h-12L188,105.71l-13.21,17.94h12L200,105.71Z"/><rect class="cls-1" x="13.68" y="74.99" width="9.98" height="9.99"/><path class="cls-1" d="M47.19,87.12a16.65,16.65,0,0,0-9.6,3.07V75h-10v48.62h10v-2.43a16.64,16.64,0,0,0,9.6,3.06c9.65,0,17.48-8.31,17.48-18.55S56.84,87.12,47.19,87.12ZM46,114.42a8.74,8.74,0,1,1,8.82-8.73A8.78,8.78,0,0,1,46,114.42Z"/><rect class="cls-1" y="74.99" width="9.98" height="48.62"/><path class="cls-1" d="M125.52,86.74a11.4,11.4,0,0,0-8.83,4.18V87.76h-10v35.85h10v-18.3a8.8,8.8,0,0,1,8.83-8.75Z"/><path class="cls-1" d="M103.82,109.42a18.48,18.48,0,1,0-.93,3H92.06a9.58,9.58,0,0,1-14.91-3Zm-27-7.48a9.58,9.58,0,0,1,17.85,0Z"/><path class="cls-1" d="M144.29,114.42a8.74,8.74,0,1,1,8.82-8.74A8.77,8.77,0,0,1,144.29,114.42Zm-18.57-8.73a18.57,18.57,0,1,0,18.56-18.57A18.56,18.56,0,0,0,125.72,105.69Z"/><rect class="cls-1" x="13.68" y="87.76" width="9.98" height="35.85"/></svg>