<?xml version="1.0" encoding="utf-8"?>
<!-- Generator: Adobe Illustrator 24.1.0, SVG Export Plug-In . SVG Version: 6.00 Build 0)  -->
<svg version="1.1" xmlns="http://www.w3.org/2000/svg" xmlns:xlink="http://www.w3.org/1999/xlink" x="0px" y="0px"
	 viewBox="0 0 200 200" style="enable-background:new 0 0 200 200;" xml:space="preserve">
<style type="text/css">
	.st0{fill:#FFFFFF;}
</style>
<g id="Ebene_1">
	<g>
		<path class="st0" d="M58.7,126.1c2,0,3-0.3,3.9-0.9c0.9-0.7,1.5-2.1,1.4-3.8c0-1.5-0.5-2.8-1.6-3.6c-0.8-0.6-1.6-0.8-3.3-0.8
			l-2.4,0l0,9.1L58.7,126.1z"/>
		<path class="st0" d="M108.2,117l-2,0l0,9.8h1.5c4.3,0,5.9-1.4,5.9-5.2C113.6,118.1,112.3,117,108.2,117z"/>
		<path class="st0" d="M77,25.8l0.5,1.8l1.6-0.5c0.6-0.2,1.1-0.6,0.9-1.3c-0.2-0.8-1.1-0.6-1.7-0.5L77,25.8z"/>
		<path class="st0" d="M178.6,103.5c-1.6-0.1-2.5,1.2-2.6,2.7l-0.1,1.1l5,0.3l0.1-1C181.1,105,180.5,103.7,178.6,103.5z"/>
		<path class="st0" d="M59,131l-2.2,0l0,9.3l2.1,0c4.5,0,6.2-1.3,6.1-4.6C65.1,132.3,63.4,131,59,131z"/>
		<path class="st0" d="M91.8,65c-0.1-0.9-0.4-2.3-0.5-3.2c-0.5,3.2-0.7,4.6-1.1,6.3l-2,7.8l6.1,0L92.4,68C92.1,67,91.9,66,91.8,65z"
			/>
		<path class="st0" d="M96.8,21c0.7,0,1.6-0.1,1.5-1c0-0.8-0.8-0.9-1.5-0.9l-1.2,0l0.1,1.9L96.8,21z"/>
		<polygon class="st0" points="37.2,50.2 38.6,52.6 39.9,51 		"/>
		<path class="st0" d="M35,146.7l-1.5,1.1l1,1.3c0.3,0.5,0.9,0.8,1.5,0.4c0.6-0.5,0.2-1.3-0.1-1.8L35,146.7z"/>
		<path class="st0" d="M47.1,45.6c1.2-1.2,1.7-2.6,0.4-3.9c-1.1-1.2-2.6-0.8-3.8,0.2L43,42.6l3.4,3.6L47.1,45.6z"/>
		<path class="st0" d="M38.4,147.2c0.6-0.4,0.3-1.1,0-1.5l-0.7-1l-1.4,1.1l0.8,1.1C37.3,147.3,37.9,147.6,38.4,147.2z"/>
		<path class="st0" d="M70.5,170.8c-1.5-0.6-2.9,0.1-3.5,1.5c-0.6,1.4-0.1,2.9,1.4,3.5c1.5,0.6,2.8-0.1,3.4-1.5
			C72.5,172.8,72,171.4,70.5,170.8z"/>
		<path class="st0" d="M198.3,102.7c2.3-1.6,2.3-4.3,0-5.9c-2.3-1.6-2.5-4.5-0.4-6.4c2.1-1.9,1.7-4.6-0.8-5.9
			c-2.5-1.3-3-4.2-1.2-6.3c1.8-2.2,1.2-4.7-1.5-5.7c-2.6-1-3.5-3.7-2-6.1c1.5-2.4,0.5-4.8-2.2-5.5c-2.7-0.7-4-3.3-2.8-5.8
			c1.2-2.5-0.1-4.9-2.9-5.2c-2.8-0.3-4.4-2.7-3.5-5.4c0.9-2.7-0.7-4.8-3.5-4.8c-2.8,0-4.7-2.2-4.1-4.9c0.6-2.8-1.3-4.7-4.1-4.3
			c-2.8,0.4-4.9-1.6-4.7-4.4c0.2-2.8-1.9-4.5-4.6-3.8c-2.7,0.7-5.1-0.9-5.2-3.8c-0.1-2.8-2.4-4.2-5-3.2c-2.6,1.1-5.1-0.3-5.6-3.1
			c-0.5-2.8-2.9-3.9-5.4-2.5c-2.5,1.4-5.1,0.3-6-2.4c-0.8-2.7-3.4-3.5-5.6-1.8c-2.3,1.7-5.1,1-6.2-1.6c-1.2-2.6-3.8-3.1-5.8-1.1
			c-2,2-4.9,1.6-6.4-0.8c-1.5-2.4-4.1-2.6-5.9-0.4c-1.8,2.2-4.7,2.2-6.4,0c-1.8-2.2-4.4-2-5.9,0.4c-1.5,2.4-4.3,2.8-6.4,0.8
			c-2-2-4.7-1.4-5.8,1.1c-1.2,2.6-4,3.3-6.2,1.6c-2.3-1.7-4.8-0.9-5.6,1.8c-0.8,2.7-3.5,3.8-6,2.4c-2.5-1.4-4.9-0.2-5.3,2.5
			c-0.5,2.8-3,4.2-5.6,3.1c-2.6-1.1-4.9,0.4-5,3.2c-0.1,2.8-2.5,4.5-5.2,3.8c-2.7-0.7-4.8,1-4.5,3.8c0.2,2.8-1.9,4.8-4.7,4.4
			c-2.8-0.4-4.6,1.6-4,4.3c0.6,2.8-1.3,5-4.1,5c-2.8,0-4.4,2.1-3.5,4.8c0.9,2.7-0.6,5.1-3.4,5.4c-2.8,0.3-4.1,2.7-2.8,5.2
			c1.2,2.5,0,5.2-2.7,5.8c-2.7,0.7-3.7,3.2-2.2,5.5C9,69.2,8.1,72,5.5,73c-2.6,1-3.3,3.6-1.5,5.7c1.8,2.1,1.3,5-1.2,6.3
			c-2.5,1.3-2.8,4-0.7,5.9c2.1,1.9,1.9,4.8-0.4,6.4c-2.3,1.6-2.3,4.3,0,5.9c2.3,1.6,2.5,4.5,0.4,6.4c-2.1,1.9-1.7,4.6,0.8,5.9
			c2.5,1.3,3,4.2,1.2,6.3c-1.8,2.2-1.2,4.7,1.5,5.7c2.6,1,3.5,3.7,2,6.1c-1.5,2.4-0.6,4.8,2.2,5.5c2.7,0.7,4,3.3,2.8,5.8
			c-1.2,2.5,0.1,4.9,2.9,5.2c2.8,0.3,4.4,2.7,3.5,5.4c-0.9,2.7,0.7,4.8,3.5,4.8c2.8,0,4.7,2.2,4.1,4.9c-0.6,2.8,1.3,4.7,4.1,4.3
			c2.8-0.4,4.9,1.6,4.7,4.4c-0.2,2.8,1.8,4.5,4.6,3.8c2.7-0.7,5.1,0.9,5.2,3.8c0.1,2.8,2.4,4.2,5,3.2c2.6-1.1,5.1,0.3,5.6,3.1
			c0.5,2.8,2.9,3.9,5.4,2.5c2.5-1.4,5.1-0.3,6,2.4c0.8,2.7,3.4,3.5,5.6,1.8c2.3-1.7,5.1-1,6.2,1.6c1.2,2.6,3.8,3.1,5.8,1.1
			c2-2,4.9-1.6,6.4,0.8c1.5,2.4,4.1,2.6,5.9,0.4c1.8-2.2,4.7-2.2,6.4,0c1.8,2.2,4.4,2,5.9-0.4c1.5-2.4,4.3-2.8,6.4-0.8
			c2,2,4.7,1.4,5.8-1.1c1.2-2.6,4-3.3,6.2-1.6c2.3,1.7,4.8,0.9,5.6-1.8c0.8-2.7,3.5-3.8,6-2.4c2.5,1.4,4.9,0.2,5.3-2.5
			c0.5-2.8,3-4.2,5.6-3.1c2.6,1.1,4.9-0.4,5-3.2c0.1-2.8,2.5-4.5,5.2-3.8c2.7,0.7,4.8-1,4.5-3.8c-0.2-2.8,1.9-4.8,4.7-4.4
			c2.8,0.4,4.6-1.6,4-4.3c-0.6-2.8,1.3-5,4.1-5c2.8,0,4.4-2.1,3.5-4.8c-0.9-2.7,0.6-5.1,3.4-5.4c2.8-0.3,4.1-2.7,2.8-5.2
			c-1.2-2.5,0-5.2,2.7-5.8c2.7-0.7,3.7-3.2,2.2-5.5c-1.5-2.4-0.7-5.1,2-6.1c2.6-1,3.3-3.6,1.5-5.7c-1.8-2.1-1.3-5,1.2-6.3
			c2.5-1.3,2.8-4,0.7-5.9C195.8,107.2,196,104.3,198.3,102.7z M100.3,189.3c-49.2,0.1-89.4-39.8-89.6-89.1
			C10.5,51,50.5,10.8,99.8,10.7c49.2-0.1,89.4,39.8,89.6,89.1C189.5,149,149.5,189.2,100.3,189.3z"/>
		<path class="st0" d="M77.9,23.9c0.5-0.2,1.1-0.6,0.9-1.2c-0.2-0.7-0.9-0.7-1.4-0.5l-1.2,0.4l0.5,1.7L77.9,23.9z"/>
		<path class="st0" d="M99.8,12.3c-48.3,0.1-87.6,39.6-87.4,87.9c0.1,48.3,39.6,87.5,87.9,87.4c48.3-0.1,87.5-39.6,87.4-87.9
			C187.5,51.4,148.1,12.2,99.8,12.3z M151.5,82.2l0,4.9c0,0.9-0.1,0.9-0.9,0.9l-16.8,0c-0.9,0-0.9-0.1-0.9-0.9l0-2.4
			c0-0.8,0.1-0.9,0.9-0.9l1.1,0l-0.1-22.3l-1,0c-0.8,0-0.9-0.1-0.9-1l0-2.4c0-0.8,0.1-0.9,0.9-1l16.7,0c0.6,0,0.8,0.1,0.8,0.8l0,4.9
			c0,0.6-0.1,0.8-0.8,0.8l-3.1,0c-0.6,0-0.8-0.1-0.8-0.8l0-0.8l-5.8,0l0,7.5l7.7,0c0.9,0,0.9,0.1,1,0.9l0,3c0,0.8-0.1,0.9-0.9,1
			l-7.7,0l0,8.9l6,0l0-1c0-0.6,0.1-0.8,0.8-0.8l3.1,0C151.4,81.4,151.5,81.5,151.5,82.2z M132.8,127.8v12.9l0.8,0c0.9,0,1,0.1,1,1
			l0,2.6c0,0.9-0.1,1-1,1l-7.1,0c-0.9,0-1-0.1-1-1l0-2.6c0-0.9,0.1-1,1-1l0.8,0l0-23.9l-0.9,0c-0.9,0-1-0.1-1-1l0-2.6
			c0-0.9,0.1-1,1-1l5.9,0c0.7,0,0.8,0,1.1,0.7l8,15c1.1,2,2.4,5.1,3,7c-0.1-3.6-0.1-4.6-0.1-6.3l0-11.8l-0.9,0c-0.9,0-1-0.1-1-1
			l0-2.6c0-0.9,0.1-1,1-1l7.2,0c0.9,0,1,0.1,1,1l0,2.6c0,0.9-0.1,1-1,1l-0.8,0v27.6c0,0.9-0.1,1-1,1h-3.2c-0.7,0-0.8,0-1.1-0.7
			l-8.9-16.6c-1.5-2.7-2.1-4-3-6.6C132.8,125.4,132.8,125.4,132.8,127.8z M114.5,102.9c-1.2,0-2.1-1-2.1-2.1c0-1.2,1-2.1,2.1-2.1h43
			c1.2,0,2.1,1,2.1,2.1c0,1.2-1,2.1-2.1,2.1H114.5z M143.6,29.6l2.3,1.6l-1.5,5.6l0,0l4.7-3.4l2.3,1.6l-4.8,6.9l-1.5-1.1l3.7-5.3
			l0,0l-5.5,4l-1.2-0.8l1.9-6.5l0,0l-3.7,5.3l-1.5-1.1L143.6,29.6z M130,27.4c1.2-2.4,3.6-3.2,6-2c2.4,1.1,3.3,3.5,2.2,5.9
			c-1.2,2.4-3.6,3.2-6,2C129.8,32.2,128.8,29.8,130,27.4z M120.3,24.2c0.8-2.6,3.2-3.6,5.7-2.8c0.9,0.3,1.9,0.9,2.3,2l-1.7,0.7
			c-0.2-0.5-0.7-0.9-1.3-1.1c-1.3-0.4-2.7,0.4-3.1,1.8c-0.5,1.5,0.2,2.9,1.5,3.3c0.7,0.2,1.4,0.1,1.9-0.3l1.1,1.6
			c-1,0.7-2.2,0.8-3.3,0.5C120.8,28.9,119.5,26.7,120.3,24.2z M123.1,57.7c4.8,1.6,7,6.4,7.1,14.8c0,7.1-1.7,11.7-5.4,13.9
			c-2,1.2-3.7,1.6-7.8,1.6l-8.8,0c-0.9,0-1-0.1-1-0.9l0-2.4c0-0.8,0.1-0.9,0.9-0.9l0.9,0L109,61.5l-0.9,0c-0.8,0-1-0.1-1-0.9l0-2.4
			c0-0.8,0.1-1,1-1l8.9,0C120.4,57.1,121.6,57.2,123.1,57.7z M107.8,106.8c0,0.4-0.1,0.4-0.4,0.4l-1.3,0c-0.3,0-0.3,0-0.5-0.3
			l-3.7-6.8c-0.6-1.1-0.9-1.7-1.2-2.7c0.1,1.6,0.1,1.6,0.1,2.6l0,5.3l0.3,0c0.4,0,0.4,0.1,0.4,0.4l0,1.1c0,0.4-0.1,0.4-0.4,0.4l-3,0
			c-0.4,0-0.4,0-0.4-0.4l0-1.1c0-0.4,0.1-0.4,0.4-0.4l0.3,0l0-9.9h-0.3c-0.4,0-0.4-0.1-0.4-0.4l0-1.1c0-0.4,0-0.4,0.4-0.4l2.4,0
			c0.3,0,0.3,0,0.5,0.3l3.3,6.2c0.4,0.8,1,2.1,1.3,2.9c-0.1-1.5-0.1-1.9-0.1-2.6l0-4.9l-0.3,0c-0.4,0-0.4-0.1-0.4-0.4l0-1.1
			c0-0.4,0.1-0.4,0.4-0.4l3,0c0.4,0,0.4,0.1,0.4,0.4l0,1.1c0,0.4-0.1,0.4-0.4,0.4l-0.4,0L107.8,106.8z M114.5,26.2
			c0.1-0.6,0.7-1,1.3-0.8c0.6,0.1,1,0.7,0.8,1.3c-0.1,0.6-0.7,1-1.3,0.8C114.8,27.3,114.4,26.8,114.5,26.2z M104.1,17.4l2.5,0.2
			l3,6.2l0,0l0.6-5.8l1.8,0.2l-0.8,8.4l-2.4-0.2l-3.1-6.3l0,0l-0.6,6l-1.8-0.2L104.1,17.4z M103.7,83.8c0.6,0,0.8,0.1,0.8,0.8l0,2.8
			c0,0.6-0.1,0.8-0.8,0.8l-8.2,0c-0.6,0-0.8-0.1-0.8-0.8l0-2.8c0-0.6,0.1-0.8,0.8-0.8l0.8,0l-1-3.9l-7.9,0l-1,3.9l0.8,0
			c0.6,0,0.8,0.1,0.8,0.8l0,2.8c0,0.6-0.1,0.8-0.8,0.8l-7.6,0c-0.6,0-0.8-0.1-0.8-0.8l0-2.8c0-0.6,0.1-0.8,0.8-0.8l0.8,0L88.3,58
			c0.2-0.7,0.3-0.8,1-0.8l4.7,0c0.7,0,0.8,0,1,0.8l7.8,25.8L103.7,83.8z M76.7,116.8l-1.2,0c-0.9,0-1-0.1-1-1l0-2.6c0-0.9,0.1-1,1-1
			l18.1-0.1c0.7,0,0.8,0.1,0.8,0.8l0,5.5c0,0.7-0.1,0.8-0.8,0.8l-3.3,0c-0.7,0-0.8-0.1-0.8-0.8l0-1.1l-6.3,0l0,8.1l8.3,0
			c0.9,0,1,0.1,1,1l0,3.2c0,0.9-0.1,1-1,1l-8.2,0l0,9.6l6.5,0l0-1c0-0.7,0.1-0.8,0.8-0.8l3.4,0c0.7,0,0.8,0.1,0.8,0.8l0,5.2
			c0,0.9-0.1,1-1,1l-18.1,0.1c-0.9,0-1-0.1-1-1l0-2.6c0-0.9,0.1-1,1-1l1.2,0L76.7,116.8z M50.6,116.9l-1.2,0c-0.9,0-1-0.1-1-1l0-2.6
			c0-0.9,0.1-1,1-1l9.7,0c4.9,0,6.6,0.3,8.3,1.7c1.8,1.4,3,4.1,3,6.8c0,3.5-1.4,5.7-4.8,7.3c3.8,1,6.1,4,6.1,8c0,3.3-1.6,6.6-4,8
			c-1.8,1.1-3.5,1.4-8,1.4l-10.2,0c-0.9,0-1-0.1-1-1l0-2.6c0-0.9,0.1-1,1-1l1.2,0L50.6,116.9z M41.6,102.9c-1.2,0-2.1-1-2.1-2.1
			c0-1.2,1-2.1,2.1-2.1h43c1.2,0,2.1,1,2.1,2.1c0,1.2-1,2.1-2.1,2.1H41.6z M49.4,61.7c-0.6,0-0.8-0.1-0.8-0.8l0-2.8
			c0-0.6,0.1-0.8,0.8-0.8l6.3,0c0.7,0,0.8,0.1,1,0.7l3.7,11.4c0.6,1.8,0.9,3.2,1.3,5.4c0.2-0.9,0.2-0.9,0.7-2.8
			c0.2-0.7,0.6-2.1,0.8-2.7L67.1,58c0.2-0.7,0.3-0.7,1-0.7l6.1,0c0.6,0,0.8,0.1,0.8,0.8l0,2.8c0,0.6-0.1,0.8-0.8,0.8h-0.8l1.2,22.3
			l0.9,0c0.6,0,0.8,0.1,0.8,0.8l0,2.8c0,0.6-0.1,0.8-0.8,0.8l-7.5,0c-0.6,0-0.8-0.1-0.8-0.8l0-2.8c0-0.6,0.1-0.8,0.8-0.8l0.9,0
			l-0.3-12.5l0-0.3l0-2.1l0-4.3c-0.8,3.6-1.2,4.8-1.8,6.7l-2.9,9.3c-0.2,0.7-0.3,0.7-1,0.7l-2.6,0c-0.7,0-0.8,0-1-0.8l-2.6-8.8
			c-0.8-2.6-1-3.6-1.7-7.1l0,1.7l0,1.8l0,2.1l0,1.7l-0.2,11.9l0.9,0c0.6,0,0.8,0.1,0.8,0.8l0,2.8c0,0.6-0.1,0.8-0.8,0.8l-7.3,0
			c-0.6,0-0.8-0.1-0.8-0.8l0-2.8c0-0.6,0.1-0.8,0.8-0.8l1.1,0l0.9-22.3L49.4,61.7z M91.6,107.3c-0.4,0-0.4-0.1-0.4-0.4l0-1.1
			c0-0.4,0.1-0.4,0.4-0.4l0.5,0l0-9.9l-0.5,0c-0.4,0-0.4-0.1-0.4-0.4l0-1.1c0-0.4,0-0.4,0.4-0.4l3.5,0c0.4,0,0.4,0.1,0.4,0.4l0,1.1
			c0,0.4-0.1,0.4-0.4,0.4l-0.4,0l0,9.9l0.4,0c0.4,0,0.4,0.1,0.4,0.4l0,1.1c0,0.4-0.1,0.4-0.4,0.4L91.6,107.3z M97,17.5
			c1.7-0.1,3.2,0.5,3.3,2.4c0,1.2-0.5,2.1-1.7,2.4l2.3,3.5l-2.2,0.1l-1.9-3.3l-0.9,0l0.1,3.4L94.1,26l-0.3-8.4L97,17.5z M89.5,18
			l0.3,1.7L86,20.3l0.3,1.5l3.6-0.6l0.3,1.7l-3.6,0.6l0.3,1.7l4-0.7l0.3,1.7l-5.9,1L83.9,19L89.5,18z M76.9,20.7
			c1.4-0.4,3-0.6,3.6,1.2c0.3,0.9-0.1,1.7-0.9,2.2l0,0c1.1-0.2,2,0.4,2.3,1.5c0.5,1.7-0.9,2.7-2.4,3.1l-3.3,1l-2.4-8.1L76.9,20.7z
			 M64.8,25.3l5.7,3.9l0,0l-2.4-5.3l1.7-0.8l3.4,7.7l-2.2,1l-5.8-4l0,0l2.5,5.5L66,34l-3.4-7.7L64.8,25.3z M58.8,28.4l4.3,7.2
			l-1.6,0.9l-4.3-7.2L58.8,28.4z M53.8,31.5l1,1.4l-3.1,2.3l0.9,1.3l3-2.1l1,1.4l-3,2.1l1,1.4l3.3-2.4l1,1.4l-4.8,3.5l-4.9-6.8
			L53.8,31.5z M42.4,40.7c2-1.9,4.4-2.6,6.5-0.4c1.9,2,1.3,4.6-0.5,6.3l-2.2,2.1l-5.8-6.1L42.4,40.7z M35.8,48l8.8,2.5l-1.3,1.6
			l-1.8-0.6l-2.1,2.5l0.9,1.7l-1.3,1.6l-4.2-8.1L35.8,48z M27.2,60.9l5.7,1l0,0l-3.8-4.4l1.4-2.4l7.3,4.2l-0.9,1.6l-5.6-3.2l0,0
			l4.5,5.1L35.1,64l-6.7-1.4l0,0l5.6,3.2l-0.9,1.6l-7.3-4.2L27.2,60.9z M36.8,151.2c-1.4,1-2.9,0-3.8-1.2l-2-2.8l6.8-5l1.9,2.5
			c0.9,1.2,1.6,2.7,0.1,3.7c-0.8,0.6-1.6,0.5-2.4-0.1l0,0C38,149.5,37.7,150.6,36.8,151.2z M42.6,158.4l-1.2,1.2l-4.1-4.3l6.1-5.8
			l3.9,4.2l-1.2,1.2l-2.6-2.8l-1.1,1.1l2.5,2.7l-1.2,1.2l-2.5-2.7l-1.2,1.2L42.6,158.4z M50.7,158.8c-0.4-0.3-1.1-0.6-1.5-0.1
			c-1,1.2,2.6,2.9,0.7,5.2c-1.2,1.4-2.9,1.1-4.3,0c-0.8-0.7-1.3-1.6-1.5-2.6l1.9-0.3c0,0.6,0.2,1.3,0.7,1.7c0.5,0.4,1.2,0.6,1.5,0.2
			c1-1.2-2.6-3.1-0.7-5.2c1.2-1.4,3-1.1,4.2,0c0.7,0.6,1.3,1.4,1.4,2.3l-1.9,0.2C51.4,159.6,51.1,159.1,50.7,158.8z M59.9,165.6
			l-2-1.3l-3.8,5.6l-1.5-1l3.8-5.6l-2-1.3l0.9-1.4l5.5,3.7L59.9,165.6z M73.6,175c-1,2.5-3.5,3.3-5.9,2.3c-2.4-1-3.5-3.3-2.5-5.8
			c1-2.5,3.5-3.3,5.9-2.3C73.6,170.2,74.7,172.5,73.6,175z M81.6,174.9l-3.7-1l-0.4,1.6l3.4,0.9l-0.4,1.7l-3.4-0.9l-0.9,3.2
			l-1.8-0.5l2.2-8.1l5.5,1.5L81.6,174.9z M102.3,183.8l-3.9,0.1l-0.1-4.7l-4.7,0.1l-0.1-3.9l4.7-0.1l-0.1-4.7l3.9-0.1l0.1,4.7
			l4.7-0.1l0.1,3.9l-4.7,0.1L102.3,183.8z M115.3,144.7l-6.5-13h-2.6l0,9.1l1.1,0c0.9,0,1,0.1,1,1l0,2.6c0,0.9-0.1,1-1,1l-8.5,0
			c-0.9,0-1-0.1-1-1l0-2.6c0-0.9,0.1-1,1-1l1.1,0l0-23.9l-1.2,0c-0.9,0-1-0.1-1-1v-2.6c0-0.9,0.1-1,1-1l10.1,0
			c3.6,0,5.5,0.3,7.1,1.3c2.8,1.6,4.2,4.3,4.2,8.1c0,4.4-1.6,7-5.5,9l5.9,10.2l1.2,0c0.7,0,0.8,0.1,0.8,0.8l0,3
			c0,0.7-0.1,0.8-0.8,0.8l-5.1,0C115.7,145.4,115.7,145.4,115.3,144.7z M122.3,180.5c-1,0.3-2,0.2-3-0.2l0.9-1.8
			c0.5,0.4,1.2,0.5,1.8,0.3c0.6-0.2,1.2-0.6,1-1.2c-0.4-1.5-4,0.4-4.8-2.3c-0.5-1.7,0.7-3.1,2.3-3.5c0.9-0.3,1.9-0.3,2.7,0.1
			l-0.8,1.7c-0.4-0.3-1-0.3-1.4-0.2c-0.5,0.1-1.1,0.6-1,1.2c0.4,1.5,3.9-0.5,4.7,2.3C125.2,178.7,124,180,122.3,180.5z M135.5,175.4
			l-4.1-4.6l0,0l0.7,6.1l-1.5,0.7l-5.7-6.7l1.8-0.8l3.4,4.4l0,0l-0.6-5.7l1.6-0.7l3.8,4.4l0,0l-1-5.6l1.7-0.8l1.2,8.7L135.5,175.4z
			 M141.9,171.9l-4.3-7.2l1.6-1l4.3,7.2L141.9,171.9z M148.1,167.9l-4-5.5l-1.9,1.4l-1-1.3l5.4-3.9l1,1.3l-1.9,1.4l4,5.5
			L148.1,167.9z M153.8,163.6l-1.2-1.3l-0.3-6.6l-3,2.8l-1.1-1.2l4.7-4.3l1.1,1.2l0.4,6.6l3.2-2.9l1.2,1.3L153.8,163.6z
			 M161.3,156.4l-6.4-5.5l3.7-4.3l1.3,1.1l-2.5,2.9l1.2,1l2.4-2.8l1.3,1.1l-2.4,2.8l1.3,1.1l2.6-3.1l1.3,1.1L161.3,156.4z
			 M174.3,106.3c0.2-2.7,1.5-4.9,4.6-4.7c2.7,0.2,4,2.5,3.9,5l-0.2,3l-8.4-0.6L174.3,106.3z M172.5,117.4l6.5-2.3l0,0l-5.7-1.2
			l0.4-1.8l8.2,1.7l-0.5,2.4l-6.6,2.3l0,0l5.9,1.2l-0.4,1.8l-8.2-1.7L172.5,117.4z M170.2,125.4l9.2-0.5l-0.7,2l-1.9,0.1l-1.1,3.1
			l1.4,1.3l-0.7,1.9l-6.7-6.3L170.2,125.4z M166.1,134.7l6,3l1.6-3.1l1.5,0.8l-2.4,4.7l-7.5-3.8L166.1,134.7z M166.1,140.2
			c1,0.7,1.4,1.7,0.9,2.8l4.1,0.2l-1.2,1.9l-3.8-0.4l-0.5,0.8l2.8,1.9l-1,1.5l-7-4.7l1.8-2.7C163.2,140,164.5,139.1,166.1,140.2z
			 M158.2,64.5c-2.2,0-3.9-1.6-3.9-3.8c0-2.2,1.6-3.8,3.9-3.8c2.2,0,3.9,1.6,3.9,3.8C162.1,62.9,160.5,64.5,158.2,64.5z"/>
		<path class="st0" d="M158.2,57.8c-1.7,0-2.9,1.3-2.9,2.9c0,1.7,1.2,2.9,2.9,2.9c1.7,0,2.9-1.3,2.9-2.9
			C161.1,59,159.9,57.8,158.2,57.8z M158.8,62.5l-0.5-1.3h-0.5v1.3h-1v-3.8h1.5c0.8,0,1.4,0.4,1.4,1.3c0,0.4-0.2,0.9-0.6,1.1
			l0.6,1.4H158.8z"/>
		<path class="st0" d="M158.3,59.6h-0.6v0.8h0.6c0.3,0,0.5-0.1,0.5-0.4C158.8,59.7,158.6,59.6,158.3,59.6z"/>
		<path class="st0" d="M132.9,31.8c1.4,0.7,2.8,0.1,3.5-1.3c0.7-1.4,0.2-2.9-1.2-3.6c-1.4-0.7-2.9-0.1-3.5,1.3
			C131.1,29.6,131.5,31.1,132.9,31.8z"/>
		<path class="st0" d="M165,143.6c0.4-0.6,0.8-1.3,0.1-1.8c-0.7-0.5-1.2,0.1-1.6,0.7l-0.7,1l1.6,1.1L165,143.6z"/>
		<polygon class="st0" points="174.3,128.9 175,126.9 172.2,127 		"/>
		<path class="st0" d="M116.8,83.2c5.4,0,7-2.6,7-10.7c0-5.1-0.8-8-2.6-9.4c-1.1-0.9-2.1-1.2-4.5-1.2l-1.7,0l0.1,21.3L116.8,83.2z"
			/>
	</g>
</g>
<g id="Ebene_3">
</g>
<g id="Ebene_2">
</g>
</svg>
