<svg id="Ebene_1" data-name="Ebene 1" xmlns="http://www.w3.org/2000/svg" viewBox="0 0 200 200"><defs><style>.cls-1{fill:#fff;}</style></defs><title>MeyerBurger_Logo</title><polyline class="cls-1" points="29.91 75.76 28.14 83.31 28.63 88.61 30.28 81.38"/><polyline class="cls-1" points="38.9 78.81 33.87 85.39 33.33 90.21 38.04 84"/><polyline class="cls-1" points="45.96 84.38 38.2 88.98 37.29 93.69 44.52 89.35"/><polyline class="cls-1" points="50.45 92.19 40.77 93.9 39.65 98.34 48.48 96.79"/><polyline class="cls-1" points="41.09 99.36 51.26 101.18 49.28 105.19 39.86 103.48"/><polyline class="cls-1" points="39.01 104.6 48.15 110.11 46.34 113.48 37.94 108.35"/><polyline class="cls-1" points="34.72 108.88 41.09 117.44 39.81 120.17 33.92 112.31"/><polyline class="cls-1" points="29.27 111.08 31.51 121.4 30.34 123.97 28.2 114.5"/><polyline class="cls-1" points="21.3 75.76 23.11 83.31 22.69 88.61 20.97 81.38"/><polyline class="cls-1" points="12.31 78.81 17.44 85.39 17.92 90.21 13.22 84"/><polyline class="cls-1" points="5.3 84.38 13 88.98 13.96 93.69 6.74 89.35"/><polyline class="cls-1" points="0.86 92.19 10.49 93.9 11.61 98.34 2.73 96.79"/><polyline class="cls-1" points="10.11 99.36 0 101.18 1.93 105.19 11.34 103.48"/><polyline class="cls-1" points="12.2 104.6 3.1 110.11 4.98 113.48 13.32 108.35"/><polyline class="cls-1" points="16.53 108.88 10.11 117.44 11.45 120.17 17.28 112.31"/><polyline class="cls-1" points="22.04 111.08 19.69 121.4 20.92 123.97 23.06 114.5"/><polyline class="cls-1" points="64.15 94.97 66.56 94.97 69.29 102.68 69.34 102.68 71.96 94.97 74.32 94.97 74.32 104.76 72.71 104.76 72.71 97.22 72.66 97.22 69.98 104.76 68.59 104.76 65.86 97.22 65.81 97.22 65.81 104.76 64.15 104.76"/><polyline class="cls-1" points="78.87 94.97 85.88 94.97 85.88 96.47 80.58 96.47 80.58 98.98 85.5 98.98 85.5 100.43 80.58 100.43 80.58 103.32 86.03 103.32 86.03 104.76 78.87 104.76"/><polyline class="cls-1" points="92.83 100.97 89.14 94.97 91.12 94.97 93.69 99.36 96.31 94.97 98.18 94.97 94.49 100.97 94.49 104.76 92.83 104.76"/><polyline class="cls-1" points="101.61 94.97 108.72 94.97 108.72 96.47 103.37 96.47 103.37 98.98 108.29 98.98 108.29 100.43 103.37 100.43 103.37 103.32 108.78 103.32 108.78 104.76 101.61 104.76"/><path class="cls-1" d="M114.45,99.41h2.83c2.24.26,2.22-3.35,0-3h-2.78M112.73,95h4.71a2.73,2.73,0,0,1,2,5l-.37.16.21.11c1.87.3.86,3.45,1.66,4.38l.11.16h-1.88l-.1-.32c-.46-1.65.43-3.65-2.09-3.69h-2.51v4h-1.72Z"/><path class="cls-1" d="M132.85,103.37h3.43a1.35,1.35,0,0,0,1.23-1.17l.05-.33-.05-.37-.06-.32-.16-.27-.16-.21-.27-.16-.21-.16h-.37l-.38-.06h-3.05m0-1.23h2.84c1.88,0,2-2.86,0-2.73h-2.84ZM131.14,95h4.76a2.41,2.41,0,0,1,1.82,4.39l-.27.11v0l.43.11c2.64,1.56,1.5,5.5-2.25,5.13h-4.49Z"/><path class="cls-1" d="M143.18,95h1.71v5.73a2.36,2.36,0,1,0,4.6,0V95h1.71v6.26c.26,5.07-8,5-8,.48v-.48"/><path class="cls-1" d="M157.36,99.41h2.83c2.19.24,2.24-3.37-.05-3h-2.78M155.64,95h4.66a2.73,2.73,0,0,1,2,5l-.43.16.27.11.27,0,.21.11.27.21.16.27.16.37.11.43.05.54v.85l.16.7v.37l.16.27.06.21.16.16h-1.82l-.22-.32c-.17-1.64.31-3.77-2-3.69h-2.51v4h-1.72Z"/><path class="cls-1" d="M176.24,104.76h-1.07l-.26-1.12-.7.7c-4.05,2.43-8-1.84-6.79-6l.16-.43.16-.48c1.31-3.43,7-3.75,8.24-.16l.1.43.06.38h-1.66l-.11-.43-.21-.43c-2.93-3.08-6.15.67-5,4l.1.38.11.26c.83,2.27,4.42,2.4,5.14.16l.16-.53.05-.59h-2.62V99.57h4.17"/><polyline class="cls-1" points="180.58 94.97 187.64 94.97 187.64 96.47 182.29 96.47 182.29 98.98 187.27 98.98 187.27 100.43 182.29 100.43 182.29 103.32 187.75 103.32 187.75 104.76 180.58 104.76"/><path class="cls-1" d="M193.42,99.41h2.78c2.27.28,2.32-3.34,0-3h-2.78M191.65,95h4.71a2.73,2.73,0,0,1,2,5l-.42.16.26.11c1.86.37.79,3,1.61,4.38l.16.16h-1.82l-.21-.32c-.27-1.68.38-3.67-2-3.69h-2.51v4h-1.77Z"/></svg>