<?xml version="1.0" encoding="utf-8"?>
<!-- Generator: Adobe Illustrator 24.1.0, SVG Export Plug-In . SVG Version: 6.00 Build 0)  -->
<svg version="1.1" xmlns="http://www.w3.org/2000/svg" xmlns:xlink="http://www.w3.org/1999/xlink" x="0px" y="0px"
	 viewBox="0 0 200 200" style="enable-background:new 0 0 200 200;" xml:space="preserve">
<style type="text/css">
	.st0{fill:none;}
	.st1{fill:#FFFFFF;}
	.st2{fill:#A1CE94;}
	.st3{fill:#A765A3;}
</style>
<g id="Ebene_1">
	<g id="Ebene_1_1_">
	</g>
</g>
<g id="Logo_Zermatt">
	<g>
		<path class="st0" d="M114.1,140.1c-0.9,0.8-1.6,2.1-1.8,2.6c-0.8,2.6,1.9-0.6,2.6-1.6c0.6-0.7,1.3-1.8,1.3-2.2
			C116.2,138.5,114.9,139.4,114.1,140.1z"/>
		<path class="st0" d="M180.4,133.1c-0.9,0.8-1.6,2.1-1.8,2.6c-0.8,2.6,1.9-0.6,2.6-1.6c0.6-0.7,1.3-1.8,1.3-2.2
			C182.5,131.6,181.2,132.4,180.4,133.1z"/>
		<path class="st0" d="M87.2,144.9c-0.9,4.4,4-0.7,3.9-2.6C90.9,140.6,88.9,142.5,87.2,144.9z"/>
		<path class="st0" d="M126.8,134.2c-0.4,0-0.9,0.1-1.6,0.1c0,0,0,0-0.1,0c-0.3,0.9-2.3,5.7-2.6,6.6c-0.4,1.5,0.2,1.9,1.1,1.8
			c0.7-0.1,1.6-0.5,2.3-1.1c0.1-0.1,0.3-0.2,0.4-0.3c0-1.2,0.8-2.6,2.3-7.5C127.9,134.1,127.5,134.2,126.8,134.2z"/>
		<path class="st0" d="M135.3,136.7c-0.1-0.5-1.5,0.4-2.3,2.9C134.8,138,135.4,137,135.3,136.7z"/>
		<path class="st0" d="M53.9,141.9C53.8,141.9,53.8,141.9,53.9,141.9c-0.4,0.9-2.3,5.7-2.6,6.6c-0.4,1.5,0.2,1.9,1.1,1.8
			c0.7-0.1,1.6-0.5,2.3-1.1c0.2-0.1,0.3-0.2,0.4-0.3c0-1.2,0.8-2.6,2.3-7.5c-0.9,0.1-1.3,0.1-2,0.2C55,141.8,54.6,141.8,53.9,141.9z
			"/>
		<path class="st0" d="M197.5,132.9c-1.1,0-2,0.9-2,2c0,1.2,0.9,2.1,2,2.1c1.1,0,2-0.9,2-2.1C199.4,133.8,198.6,132.9,197.5,132.9z
			 M198.2,136.4l-0.8-1.2H197v1.2h-0.4v-2.8h1.1c0.7,0,1,0.3,1,0.8c0,0.5-0.3,0.7-0.7,0.8l0.8,1.2H198.2z"/>
		<path class="st0" d="M14.4,149.4c-0.1-0.5-1.5,0.4-2.3,2.9C13.8,150.7,14.4,149.7,14.4,149.4z"/>
		<path class="st0" d="M42.7,147.6c-0.9,0.8-1.6,2.1-1.8,2.6c-0.7,2.6,1.9-0.6,2.6-1.6c0.6-0.7,1.3-1.8,1.3-2.2
			C44.8,146,43.5,146.9,42.7,147.6z"/>
		<path class="st0" d="M198.2,134.3c0-0.4-0.3-0.4-0.6-0.4H197v0.9h0.5C197.8,134.8,198.2,134.8,198.2,134.3z"/>
		<path class="st1" d="M120.4,67.5c-0.2-0.3-2.8-3-2.8-3s-2.9-0.4-3.4-0.4c-0.4-0.4-3.3-3.1-3.3-3.1s-0.5-0.1-0.6-0.1
			c0.1-0.5,0.4-1.4,0.4-1.4l-1.1-2.2c0,0-1.3-2.2-1.3-2.3c0-0.1-1-2.1-1-2.1c0-0.1-0.9-2.1-0.9-2.1s-2.9-2.2-3-2.3
			c-0.1-0.1-2.1-2.1-2.1-2.1l-3.2-1.9l-4.3-1.2L93.3,44c0,0-1,1.6-1,1.8c-0.1,0.1-2.3,2.8-2.3,2.8s-0.5,2.9-0.6,3.5
			c-0.2,0.2-0.5,0.4-0.6,0.5c-0.4,0.1-2.7,0.4-2.7,0.4s-0.4,3.2-0.4,3.4c0,0.1-0.8,3.1-0.8,3.2c0,0.1-0.4,1.1-0.5,1.4
			C84,61.1,83,61.5,83,61.5s-3.4,6.2-3.5,6.5c-0.2,0.2-3.8,3.7-4,3.9c-0.2,0.1-1.7,0.9-2.1,1.1c-0.5,0-27.8,0-27.8,0v36.8
			c0,0,37.8,0,38.7,0c0.6,0.6,15.7,16.2,15.7,16.2s15.1-15.6,15.7-16.2c0.9,0,38.7,0,38.7,0V73c0,0-22,0-22.5,0
			C131.4,72.8,120.7,67.7,120.4,67.5z M153.3,108.8h-38.1l-15.3,15.7l-15.3-15.7H46.6V74.1h27l2.5-1.3l4.2-4.1l3.4-6.3
			c0,0,1.1-0.4,1.6-0.6c0.2-0.6,0.6-1.9,0.6-2c0-0.1,0.8-3.1,0.9-3.3c0-0.1,0.3-2.6,0.3-2.6s1.7-0.3,2.1-0.3
			c0.3-0.2,0.8-0.6,1.2-0.9C90.5,52,91,49,91,49s2-2.5,2.1-2.7c0.1-0.1,0.6-1.1,0.6-1.1l0.4-0.8l3.4,1l2.9,1.7c0,0,1.9,2,2,2.1
			c0.1,0.1,2.8,2.2,2.8,2.2l0.8,1.8l1.1,2.2l1.3,2.3l0.9,1.8c0,0-0.3,1.2-0.4,1.5c0.2,0.3,0.2,0.4,0.4,0.7c0.3,0.1,0.9,0.2,0.9,0.2
			l3.3,3.1l3.4,0.4l2.7,2.9l11.9,5.7h21.7V108.8z"/>
		<path class="st1" d="M99.9,120.7l11.5-11.9h-23L99.9,120.7z M99.9,119.9c-0.7-0.7-8.8-9.1-10.3-10.6c2.1,0,18.4,0,20.5,0
			C108.8,110.8,100.6,119.2,99.9,119.9z"/>
		<polygon class="st1" points="99,114.5 99,116.8 100.9,116.8 100.9,114.5 103.1,114.5 103.1,112.6 100.9,112.6 100.9,110.4 
			99,110.4 99,112.6 96.7,112.6 96.7,114.5 		"/>
		<path class="st1" d="M104.8,52.8l-0.3-0.6l-0.9-0.7l-1.8-1.4l-2-2c0.2,1.1,0.5,2.1,1.2,2.9C102.1,51.6,103.2,52.2,104.8,52.8z"/>
		<path class="st1" d="M75.9,76.9L75.9,76.9L75.9,76.9l1-0.4l0.2-0.1l0,0l1.8,0l0.6-1.3l1.3-0.2l1-0.9l1.2-1.1l1-1.1l1.2-1.5
			l-0.2-0.4l-3.9,2.3l-2.7,1.1c0.5-0.4,1-0.9,1.5-1.4l10.2-6.3l2.7-2.5l1.2-1.9l2.5-1c0.1,0.2,0.3,0.6,0.4,0.9
			c-0.1,0.1-0.3,0.5-0.5,0.8l-2.1,1.8l-0.2,9.1l-2.8,1.4l-1,2.4l1.3,0.4l0.3-2.2l0.8,0l1-0.7l0.2-0.2l-0.1,1.4l-0.8,0.4l0.7,1.1
			l0,0.6l0.5,0.6l0.9-3.6l0.1-1c0,0,0,0,0,0l0.3-3.9l0.4-4.8l1.1-1.8l0.8-1.4l0.3-0.4l-0.6-1.3l0,0l0.2-3.8l1.1-2.7l0.9-1.1L98.3,51
			l-1.5-2.4l-2-2.7L94.1,47l-2,2.5l-0.7,3.8l-1.8,1.4l-1.5,0.2l-0.2,1.8L87,60.1l-0.8,2.5l-1.7,0.7l-3.3,6.1l-5.1,5l0,0l0,0l0,0l0,0
			l-0.2,0.2l0.3,0.7l-0.6,0.9v0v0v0l0.1,0.3L75.9,76.9z M88.1,60.4l0.9-3.5c0,0,0.1-0.6,0.1-1.1c0.4-0.1,1-0.1,1-0.1l2.3-1.8
			c0,0,0.6-3.5,0.7-4c0.3-0.3,1.6-2,1.7-2.2c0.5,0.7,1,1.4,1,1.4c0,0.1,1.6,2.5,1.6,2.5s0.2,0.1,0.4,0.3l-1.1,1.1H95l-1.5,0.7
			l-1.3,1.3l0,0l1.5-0.4l1.1-0.7l0.7,0.7l1.3,1.3l0,0l0,0l0,0h-0.6l-0.5,0l-4.8,2.4l-2.1,3.1l-1.2,0.5L88.1,60.4z"/>
		<path class="st1" d="M108.2,66.6l0.3,1.3l-1.5,3l1.7,0.4h1.5h1.1l-0.2-0.9l-0.7-0.2l-0.9-0.9l-0.4-1.4l0.9,0.7l0.9,0.9l0.2-1.1
			l-1.5-1.4l-1.1-1.3L108.2,66.6z M108.4,66.7C108.4,66.7,108.4,66.7,108.4,66.7C108.4,66.7,108.4,66.7,108.4,66.7
			C108.4,66.7,108.4,66.7,108.4,66.7z M108.4,66.5C108.4,66.5,108.4,66.5,108.4,66.5C108.4,66.5,108.5,66.6,108.4,66.5
			C108.5,66.6,108.4,66.6,108.4,66.5z M108.5,66.7C108.5,66.7,108.5,66.7,108.5,66.7C108.5,66.7,108.5,66.7,108.5,66.7
			C108.5,66.7,108.5,66.7,108.5,66.7z"/>
		<path class="st1" d="M108.4,66.7C108.4,66.7,108.4,66.7,108.4,66.7C108.4,66.7,108.4,66.7,108.4,66.7
			C108.4,66.7,108.4,66.7,108.4,66.7z"/>
		<path class="st1" d="M108.5,66.7C108.5,66.7,108.5,66.7,108.5,66.7C108.5,66.7,108.5,66.7,108.5,66.7
			C108.5,66.7,108.5,66.7,108.5,66.7z"/>
		<polygon class="st1" points="99.6,75.1 100.4,72.7 102.4,74.3 102.7,72.3 103.2,71.6 103,70.5 101.6,69.8 101.4,68.7 101.7,68.8 
			103,69.6 103.7,69.6 104.8,71.8 105.9,71.4 103.6,68.2 102.5,66.8 100.8,66 100.8,64.7 100.2,62.4 99.3,65.7 99.7,69.4 99.2,73.5 
					"/>
		<polygon class="st1" points="116.7,70.7 116.9,70.9 118.7,70.9 120,71.4 120,70.7 118.4,69.8 117.3,68.2 116.7,66.6 116.8,68.9 		
			"/>
		<path class="st2" d="M108.4,66.5C108.4,66.6,108.5,66.6,108.4,66.5C108.5,66.6,108.4,66.5,108.4,66.5
			C108.4,66.5,108.4,66.5,108.4,66.5z"/>
		<polygon class="st3" points="76.1,74.3 76.1,74.3 76.1,74.3 		"/>
		<polygon class="st3" points="76.1,74.3 76.1,74.3 76.1,74.3 76.1,74.3 76.1,74.3 		"/>
		<polygon class="st1" points="84.8,75.9 84.8,75.9 84.8,76 84.9,76.8 84.9,76.8 84.9,76.8 86.1,76.7 87.7,76.7 89.4,76.3 89.8,75 
			90.6,74.1 90.6,73 90.8,71.7 91.2,71.1 92.3,70.8 93.6,67.8 92.5,68.2 89,71.3 86.5,72.7 85.2,72.5 85.1,72.6 84,73.9 84.7,75 
			85.3,74.2 85.9,73.5 86,74.4 86,74.4 86,74.4 86,74.8 85.4,75.7 		"/>
		<path class="st1" d="M67.8,94.1l1.1-2.6h-0.1c-1.3,0.7-2.5,1.2-4,1.1l-4.2-0.2l7.3-11.6h-8.9l-1,2.3H58c1.1-0.7,1.8-1,3-0.9
			l3.4,0.2l-7.3,11.7H67.8z"/>
		<path class="st1" d="M79,91.5L79,91.5c-1.1,0.9-2.5,1.3-3.8,1.2l-2.6-0.2v-4.8h1.5c0.6,0,1.5,0,1.8,0.6H76v-2.1H76
			c-0.2,0.1-0.6,0.1-0.9,0.1h-2.4v-3.8c0.6-0.1,1.4-0.1,2.1-0.1c0.9,0,1.8,0.1,2.4,0.8h0.1v-2.4h-0.1c-0.3,0.1-0.6,0.1-1,0.1h-6.5
			v0.1c1,0.4,0.9,1.9,0.9,2.8v7.6c0,0.9,0.1,2.4-0.9,2.8v0.1h8.4L79,91.5z"/>
		<path class="st1" d="M110.7,91.2c-0.4,1-0.7,1.9-1.4,2.5c-0.4-0.5-0.5-1-0.6-1.7l-1.3-9.9c0-0.5,0.1-1.1,0.6-1.2v-0.1h-3.5v0
			c0,0.4-0.1,0.8-0.3,1.3l-3.4,8.6L97,81.8c-0.1-0.3-0.3-0.6-0.3-0.9v0h-3.5v0.1c0.9,0.5,0.7,1.3,0.6,1.9l-1.2,8.5
			c-0.2,1-0.3,2-1,2.7c-1.1-0.7-2.2-1.7-3-2.7l-2.9-3.7c1.7-0.4,3.2-1.8,3.2-3.6c0-1.8-1.5-3.3-4.2-3.3H80v0.1
			c1,0.4,0.9,1.9,0.9,2.8v7.6c0,0.9,0.1,2.4-0.9,2.8v0.1h3.9v-0.1c-1-0.4-0.9-1.8-0.9-2.8v-9.1c0.5-0.1,0.9-0.1,1.4-0.2
			c1.4-0.1,2.6,0.8,2.6,2.2c0,1.9-1.9,2.6-3.5,2.9l1.9,2.9l2.5,3.1c0.6,0.7,1.3,1,2.3,1h1.5h0.4h2.9v-0.1c-0.9-0.4-0.8-1.3-0.6-2.5
			l1.2-8.7l3.8,9.1c0.5,1.1,0.8,1.7,1.8,2.4l4.5-11.6l1.2,9.7c0,0.7-0.1,1.3-0.8,1.5v0.1h3h0.9h2.8v-0.1c-1-0.4-0.8-1-0.4-2.1
			l1.1-2.9h5.1l1.1,2.9c0.5,1.4,0.7,1.6-0.3,2.1v0.1h4.1v-0.1c-1.2-0.6-1.5-1.7-2-2.9L117,80.8h-3.2v0.1c1,0.3,0.6,1.2,0.3,1.9
			L110.7,91.2z M115.7,82.5l2,5.1h-4L115.7,82.5z"/>
		<path class="st1" d="M123.6,82.3h1.8v9c0,0.9,0.1,2.4-0.9,2.8v0.1h4v-0.1c-1.1-0.6-1-1.4-1-2.6v-9.2h1.6c0.7,0,1.5,0.1,1.7,0.8
			h0.1l0.6-2.4h-0.1c-0.3,0.1-0.6,0.1-0.9,0.1h-7.9c-0.3,0-0.5,0-0.8-0.1h-0.1l-0.7,2.4h0.1C121.8,82.5,122.7,82.3,123.6,82.3z"/>
		<path class="st1" d="M134.5,82.3h1.6v9c0,0.9,0.1,2.4-0.9,2.8v0.1h4v-0.1c-1.1-0.6-1.1-1.4-1.1-2.6v-9.2h1.8
			c0.7,0,1.5,0.1,1.7,0.8h0.1l0.6-2.4h-0.1c-0.3,0.1-0.6,0.1-0.9,0.1h-7.9c-0.3,0-0.5,0-0.8-0.1h-0.1l-0.7,2.4h0.1
			C132.7,82.5,133.6,82.3,134.5,82.3z"/>
		<path class="st1" d="M73.1,103.6l-0.7-5.1c0-0.2,0.1-0.5,0.3-0.6v0h-1.8v0c0,0.2-0.1,0.4-0.2,0.6l-1.7,4.4l-1.9-4.6
			c-0.1-0.1-0.1-0.3-0.1-0.5v0h-1.8v0c0.5,0.3,0.4,0.7,0.3,1l-0.6,4.3c-0.1,0.6-0.1,1.1-0.6,1.4v0H66v0c-0.5-0.2-0.4-0.7-0.3-1.3
			l0.6-4.4l2,4.7c0.2,0.6,0.4,0.9,0.9,1.3l2.3-5.9l0.6,5c0,0.4-0.1,0.7-0.4,0.8v0h2v0C73.2,104.3,73.1,104,73.1,103.6z"/>
		<path class="st1" d="M80.5,103.1l-2.2-5.3h-1.6v0c0.5,0.2,0.3,0.6,0.2,1l-1.7,4.3c-0.2,0.6-0.4,1.2-1,1.5v0H76v0
			c-0.5-0.2-0.4-0.5-0.2-1.1l0.5-1.5H79l0.6,1.5c0.3,0.7,0.4,0.8-0.1,1.1v0h2.1v0C80.9,104.3,80.7,103.7,80.5,103.1z M76.6,101.3
			l1-2.6l1,2.6H76.6z"/>
		<path class="st1" d="M85.9,97.8h-3.9h-0.3c-0.1,0-0.3,0-0.4-0.1h0L81,99h0c0.3-0.3,0.8-0.4,1.2-0.4h0.9v4.6c0,0.5,0.1,1.2-0.5,1.4
			v0h2v0c-0.5-0.3-0.5-0.7-0.5-1.3v-4.7h0.9c0.3,0,0.8,0.1,0.9,0.4h0l0.3-1.2h0C86.3,97.8,86.1,97.8,85.9,97.8z"/>
		<path class="st1" d="M89.3,103.2c0,0.5,0.1,1.2-0.5,1.4v0h2v0c-0.5-0.3-0.5-0.7-0.5-1.3v-4.7h0.9c0.3,0,0.8,0.1,0.9,0.4h0l0.3-1.2
			h0c-0.1,0.1-0.3,0.1-0.5,0.1h-3.9h-0.3c-0.1,0-0.3,0-0.4-0.1h0L87.1,99h0c0.3-0.3,0.8-0.4,1.2-0.4h0.9V103.2z"/>
		<path class="st1" d="M93.3,104.6L93.3,104.6l4.3,0l0.5-1.4h0c-0.5,0.5-1.2,0.7-1.9,0.6l-1.3-0.1v-2.5h0.8c0.3,0,0.8,0,0.9,0.3h0
			v-1.1h0c-0.1,0.1-0.3,0.1-0.5,0.1h-1.2v-1.9c0.3-0.1,0.7-0.1,1.1-0.1c0.5,0,0.9,0,1.2,0.4h0v-1.2h0c-0.1,0.1-0.3,0.1-0.5,0.1h-3.3
			v0c0.5,0.2,0.5,1,0.5,1.4v3.9C93.8,103.7,93.9,104.4,93.3,104.6z"/>
		<path class="st1" d="M100.8,101.1l1,1.5l1.3,1.6c0.3,0.4,0.7,0.5,1.2,0.5h1c-0.6-0.4-1.2-0.9-1.7-1.4l-1.5-1.9
			c0.8-0.2,1.6-0.9,1.6-1.8c0-0.9-0.8-1.7-2.1-1.7H99v0c0.5,0.2,0.5,1,0.5,1.4v3.9c0,0.5,0.1,1.2-0.5,1.4v0h2v0
			c-0.5-0.2-0.5-0.9-0.5-1.4v-4.6c0.2,0,0.5-0.1,0.7-0.1c0.7,0,1.3,0.4,1.3,1.1C102.5,100.6,101.6,101,100.8,101.1z"/>
		<path class="st1" d="M110.5,97.9c0.5,0.2,0.5,1,0.5,1.4v1.3h-3.7v-1.3c0-0.5-0.1-1.2,0.5-1.4v0h-2v0c0.5,0.2,0.5,1,0.5,1.4v3.9
			c0,0.5,0.1,1.2-0.5,1.4v0h2v0c-0.5-0.2-0.5-1-0.5-1.4v-1.9h3.7v1.9c0,0.5,0.1,1.2-0.5,1.4v0h2v0c-0.5-0.2-0.5-1-0.5-1.4v-3.9
			c0-0.5-0.1-1.2,0.5-1.4v0L110.5,97.9L110.5,97.9z"/>
		<path class="st1" d="M116.9,97.7c-2.2-0.1-3.9,1.6-3.9,3.6c0,2.1,1.7,3.6,3.8,3.6c2.1,0,3.8-1.5,3.8-3.6
			C120.6,99.3,119,97.6,116.9,97.7z M116.8,104.1c-1.6,0-2.6-1.5-2.6-2.9c0-1.6,1-2.7,2.6-2.7c1.6,0,2.6,1.5,2.6,3
			C119.4,102.9,118.4,104.1,116.8,104.1z"/>
		<path class="st1" d="M125.8,103.2l-1.5-1.9c0.8-0.2,1.6-0.9,1.6-1.8c0-0.9-0.8-1.7-2.1-1.7h-2.5v0c0.5,0.2,0.5,1,0.5,1.4v3.9
			c0,0.5,0.1,1.2-0.5,1.4v0h2v0c-0.5-0.2-0.5-0.9-0.5-1.4v-4.6c0.2,0,0.5-0.1,0.7-0.1c0.7,0,1.3,0.4,1.3,1.1c0,1-1,1.4-1.8,1.5
			l1,1.5l1.3,1.6c0.3,0.4,0.7,0.5,1.2,0.5h1C126.9,104.3,126.2,103.7,125.8,103.2z"/>
		<path class="st1" d="M132.9,97.9c0.5,0.3,0.5,0.7,0.5,1.3v3.9l-3.8-4.8l-0.1-0.2c-0.1-0.1-0.1-0.1-0.2-0.3v0h-1.5v0
			c0.5,0.3,0.5,0.7,0.5,1.3v4.1c0,0.6,0,1-0.5,1.3v0h1.8v0c-0.5-0.3-0.5-0.7-0.5-1.3v-4l3.5,4.5c0.5,0.6,0.8,0.9,1.5,1.2v-5.8
			c0-0.6,0-1,0.5-1.3v0L132.9,97.9L132.9,97.9z"/>
		<path class="st1" d="M138.2,97.6c-0.9,0-1.7,0.7-1.7,1.6c0,0.9,0.8,1.7,1.7,1.7c0.9,0,1.7-0.7,1.7-1.7
			C139.8,98.3,139.1,97.6,138.2,97.6z M138.2,100.6c-0.8,0-1.4-0.6-1.4-1.4c0-0.8,0.6-1.4,1.4-1.4c0.8,0,1.4,0.6,1.4,1.4
			C139.5,100,138.9,100.6,138.2,100.6z"/>
		<path class="st1" d="M138.9,98.8c0-0.4-0.2-0.6-0.7-0.6h-0.7v1.9h0.3v-0.8h0.3l0.5,0.8h0.3l-0.6-0.9
			C138.7,99.3,138.9,99.2,138.9,98.8z M138.1,99.1h-0.3v-0.6h0.4c0.2,0,0.4,0,0.4,0.3C138.6,99.1,138.4,99.1,138.1,99.1z"/>
		<polygon class="st1" points="106.8,58.2 108,62 108.7,59.8 106.5,55.6 106,56.7 104.5,56.4 		"/>
		<path class="st1" d="M192.4,134.8c-0.7,0.6-1.6,1-2.3,1.1c-0.9,0.1-1.5-0.4-1.1-1.8c0.3-0.9,2.2-5.8,2.6-6.6
			c1.8-0.3,5.6-0.7,7-1.2c0.8-0.1,0.9-0.8-0.1-0.7l-6.6,0.8c0.5-1.6,0.4-2.6,0-2.5c-0.4,0-0.9,0.8-1.4,2.7l-5.5,0.6
			c-0.4,0,0.1,1,0.6,1c1.2-0.1,1.9-0.1,2.5-0.2c0.7-0.1,1.1-0.1,2-0.2c-1.3,4.1-2.1,5.8-2.3,6.9c-0.1,0-0.1,0.1-0.2,0.1
			c-1.3,0.8-2.8,2.4-3.6,2.5c-1,0.1-1.3-1.1-1.4-2c0.8-1.8,1.7-2.3,1.5-3.8c-0.1-0.6-0.4-1-1.2-0.9c-2.5,0.3-4.9,3.4-5.6,5.9
			c-0.1,0.5-0.1,0.9-0.1,1.2c0,0.3,0.1,0.5,0.3,0.7c-0.4,0.2-0.7,0.4-0.9,0.4c-1.8,0.2-0.6-4.6-3.1-4.3c-0.3,0-1.2,0.4-4,2.5
			c0.6-2.4,1.7-4.4,2.9-6.4c1-1.8,2.4-3.7,2.1-6c-0.2-1.8-1.8,1.1-2.1,1.7c-4.1,9.5-5.7,13.4-4.2,13.3c1-0.1,2.6-2.9,4.7-3.7
			c1.3-0.5,1.5,2.1,1.9,3.1c0.3,0.7,0.8,1,1.4,0.9c0.7-0.1,1.5-0.6,2.3-1.2c0.1-0.1,0.1-0.1,0.2-0.2c0.9-0.2,2-1,2.7-1.9
			c0.1,0.4,0.6,2.2,2.9,1.9c1.5-0.2,2.1-1.3,3.6-2.5c0,0,0,0,0,0c0,0,0,0,0,0c0.3,1,1.1,1.3,2,1.2c1.2-0.1,2.6-0.9,3.2-1.3
			C194.2,134.9,193.9,133.7,192.4,134.8z M181.3,134.2c-0.7,0.9-3.4,4.2-2.6,1.6c0.2-0.6,0.9-1.8,1.8-2.6c0.7-0.7,2.1-1.6,2.1-1.1
			C182.6,132.4,181.9,133.5,181.3,134.2z"/>
		<path class="st1" d="M63.2,148.3c-0.4,0-0.8,0.4-0.8,1.1c0.1,0.6,0.6,0.8,1,0.8c0.4,0,0.8-0.4,0.7-1
			C64.1,148.6,63.6,148.3,63.2,148.3z"/>
		<path class="st1" d="M148.6,138.6c-0.3,0-1,0.4-1.9,1c-0.5,0.4-0.9,0.6-1.2,0.6c-0.6,0.1-0.8-0.6-1-1.7c-0.3-1.4-2.7-1.3-2.4-2
			c0.1-0.5,0.3-1.5,0.4-2c0.3-1.2-0.2-1.8-1.2-0.6c-0.6,0.7-0.8,2.8-1.2,3.7c-0.2,0.3-0.5,1.1-1.2,1.9c-0.4,0.3-0.8,0.6-0.9,0.7
			c-1.3,0.8-2.3,1.5-3.4,1.6c-0.6,0.1-1.1-0.1-1.5-0.7c1-0.6,3.5-3.2,3.5-4.9c0-0.6-0.4-1.2-1.2-1.1c-0.3,0-0.7,0.1-1.1,0.5
			c-1.1,0.8-2.8,3.1-2.7,5.4c0,0,0,0.1,0,0.1c-0.1,0.1-0.2,0.1-0.4,0.2c-0.7,0.6-1.6,1-2.3,1.1c-0.9,0.1-1.5-0.4-1.1-1.8
			c0.3-0.9,2.2-5.8,2.5-6.6c1.8-0.3,5.6-0.7,7-1.2c0.7-0.2,0.9-0.8-0.1-0.7l-6.6,0.8c0.5-1.6,0.4-2.6,0-2.5c-0.4,0-0.9,0.8-1.4,2.7
			l-3.7,0.4l0,0c0.5-1.6,0.4-2.6,0-2.5c-0.4,0-0.9,0.8-1.4,2.7l-5.5,0.6c-0.4,0,0.1,1,0.6,1c1.2-0.1,1.9-0.1,2.5-0.2
			c0.7-0.1,1.1-0.1,2-0.2c-1.3,4.1-2.1,5.8-2.3,6.9c-0.1,0-0.1,0.1-0.2,0.1c-1.3,0.8-2.8,2.4-3.6,2.5c-1,0.1-1.3-1.1-1.4-2
			c0.8-1.8,1.7-2.3,1.5-3.8c-0.1-0.6-0.4-1-1.2-0.9c-2.3,0.2-4.6,3-5.4,5.4c-0.4,0.1-1,0.4-1.7,0.8c-1.2,0.8-1.3,0.3-1.5-1
			c0-0.4-0.1-0.8-0.1-1.4c-0.2-1.5-0.7-1.1-1.5-0.4c-0.5,0.4-2,3.1-2.4,3.4c-0.2-0.4-0.2-1.2-0.2-1.8c-0.1-0.8-0.3-1.4-1-1.2
			c-0.4,0.1-1.7,1.4-2.2,1.8c0.4-2,0.3-2.6,0-2.6c-0.2,0-0.5,0.5-0.7,1.1c-0.5,1.2-1.5,5.5-0.8,5.4c0.2,0,0.5-0.3,0.9-0.9
			c0.6-0.8,1.4-2.3,2.1-2.9c1-0.7,0.9,0.5,0.8,1.8c0.1,0.8,0.2,1.7,1.2,0.9c0.8-0.6,2.1-3.1,2.6-3.7c0.4,2.2,1.1,3,1.9,2.9
			c0.6-0.1,1.4-0.6,2.3-1.2c0,0.2,0,0.4,0,0.6c0.1,0.7,0.5,1,1.2,1c0.9-0.1,2.2-1,3-2c0.1,0.4,0.6,2.2,2.9,1.9
			c1.5-0.2,2.1-1.3,3.6-2.5c0,0,0,0,0,0c0,0,0,0,0,0c0.3,1,1.1,1.3,2,1.2c1.2-0.1,2.6-0.9,3.2-1.3c0,0,0.1-0.1,0.1-0.1
			c0.4,0.7,1.1,0.9,1.9,0.9c1.2-0.1,2.6-0.9,3.2-1.3c0.1-0.1,0.3-0.2,0.4-0.3c0.6,0.9,1.4,1.2,2.4,1.1c1.2-0.1,2.7-0.9,4.3-2
			c0.2-0.2,0.6-0.4,0.7-0.6c0.7-0.6,1.4-1.8,2.1-2.4c1.7,0.4,2,1.2,2.2,2.2c0.2,1.2,0.8,1.7,1.4,1.6c0.7-0.1,1.6-0.7,2.6-1.5
			C149,139.4,149.3,138.5,148.6,138.6z M115,141.2c-0.7,0.9-3.4,4.2-2.6,1.6c0.2-0.6,0.9-1.8,1.8-2.6c0.7-0.7,2.1-1.6,2.1-1.1
			C116.3,139.4,115.6,140.5,115,141.2z M126.5,141.5c-0.1,0.1-0.3,0.2-0.4,0.3c-0.7,0.6-1.6,1-2.3,1.1c-0.9,0.1-1.5-0.4-1.1-1.8
			c0.3-0.9,2.2-5.8,2.6-6.6c0,0,0,0,0.1,0c0.7,0,1.2-0.1,1.6-0.1c0.7-0.1,1.1-0.1,2-0.2C127.3,139,126.5,140.4,126.5,141.5z
			 M135.3,136.7c0,0.3-0.5,1.3-2.3,2.9C133.9,137.1,135.3,136.2,135.3,136.7z"/>
		<path class="st1" d="M166.5,133.3c-0.3-1.5-1.3-1-1.2-0.3c0.1,0.6,0.2,1.4,0.3,2.2c0.2,1.8,0,3.4-2.3,3.7
			c-1.6,0.2-1.9-3.2-3.4-3.1c-1,0.1-2.3,2-3,2.8c0-2.1,0.4-2.4,0.3-3.4c-0.1-0.9-0.8-0.4-1,0.2c-0.5,1.3-0.8,4.2-0.8,4.2
			c0.1,1.3,1.1,1.1,1.7,0.4c0.9-0.9,1.8-2.7,2.6-2.8c0.9-0.1,0.6,3.1,3.5,2.8c3.1-0.3,3.8-2.1,3.5-4.6
			C166.8,134.7,166.7,134,166.5,133.3z"/>
		<path class="st1" d="M91.3,140.7c-1-0.7-2.3,0.8-3.2,1.2c-1.4-0.7-1.1,0.2-1.3,1.1c-0.3,0.3-2.2,2.1-3.1,2.8
			c-0.4,0.3-0.6,1.8,0.7,0.7c0.3-0.2,1.4-0.9,1.7-1.1c-0.1,0.4-0.2,1.1-0.2,1.7c0.1,0.6,0.4,1.1,1.3,1c1.8-0.2,5.2-3.2,5-5.6
			C92.2,141.7,91.9,141.1,91.3,140.7z M87.2,144.9c1.7-2.4,3.8-4.3,3.9-2.6C91.2,144.2,86.3,149.3,87.2,144.9z"/>
		<path class="st1" d="M86.5,131.8c-0.3,0-0.6,0.4-0.8,1.1c-0.5,1.4-3.2,8.2-3.7,9.6c-0.5,1.3-1.7,4.6-2.5,4.6
			c-0.3,0-0.6-0.5-0.6-2.1c-0.1-1.4-0.2-3.3-0.4-5.1c-0.3-2.5-0.6-4.8-1.1-5.7c-0.5-0.8-1.1-0.9-1.4-0.1c-1.3,2.9-3.2,9.9-4.1,12.9
			c-0.5,1.6-0.4,2.8,0.1,2.7c0.2,0,0.6-0.6,1-1.8c0.8-2.3,2.3-8.3,3-10.6c0.2-0.7,0.5-1.2,0.7-1.3c0.2,0,0.4,0.4,0.5,1.6
			c0.4,2.1,0.4,7.7,0.8,9.7c0.3,1,0.8,1.6,1.4,1.5c0.5-0.1,1.1-0.6,1.7-1.8c2.1-4.1,4.1-9.5,5.6-14
			C86.9,132.3,86.8,131.8,86.5,131.8z"/>
		<path class="st1" d="M65.9,139.4l-6.6,0.8c0.5-1.6,0.4-2.6,0-2.5c-0.4,0-0.9,0.8-1.4,2.7l-3.7,0.4c0.5-1.6,0.4-2.6,0-2.5
			c-0.4,0-0.9,0.8-1.4,2.7l-0.3,0l0,0l-5.2,0.5c-0.4,0,0.1,1,0.6,1c1.2-0.1,1.9-0.1,2.5-0.2c0.7-0.1,1.1-0.1,2-0.2
			c-1.3,4.1-2.1,5.8-2.3,6.9c-0.1,0-0.1,0.1-0.2,0.1c-1.3,0.8-2.8,2.4-3.6,2.5c-1,0.1-1.3-1.1-1.4-2c0.8-1.8,1.7-2.3,1.5-3.8
			c-0.1-0.6-0.4-1-1.2-0.9c-2.2,0.3-4.5,2.8-5.3,5.2c0,0-1.4,0.5-2.2,1.1c-1.2,0.8-1.3,0.3-1.5-1c0-0.4-0.1-0.8-0.1-1.4
			c-0.2-1.5-0.7-1.1-1.5-0.4c-0.5,0.4-2,3.1-2.4,3.4c-0.2-0.4-0.2-1.2-0.2-1.8c-0.1-0.8-0.3-1.4-1-1.2c-0.4,0.1-1.7,1.4-2.2,1.8
			c0.4-2,0.3-2.6,0-2.6c-0.2,0-0.5,0.5-0.7,1.1c-0.2,0.5-0.5,1.5-0.7,2.5c-0.3,0.2-0.8,0.4-1.3,0.8c-0.5,0.4-0.9,0.6-1.2,0.6
			c-0.6,0.1-0.8-0.6-1-1.7c-0.3-1.4-2.7-1.3-2.4-2c0.1-0.5,0.3-1.5,0.4-2c0.3-1.2-0.2-1.8-1.2-0.6c-0.6,0.7-0.8,2.8-1.2,3.7
			c-0.2,0.3-1,1.8-1.6,2.2c-1.3,0.9-2.8,1.8-3.9,2c-0.6,0.1-1.1-0.1-1.5-0.7c1-0.6,3.5-3.2,3.5-4.9c0-0.6-0.4-1.2-1.2-1.1
			c-0.3,0-0.7,0.1-1.1,0.5c-1,0.8-2.7,3-2.7,5.1c-1.2,0.4-2.4,0.8-4.7,1.6c-0.7,0.2-1.8,0.5-2.7,0.6c-0.8,0.1-1.4,0-1.5-0.4
			c0-0.2,0.2-0.5,0.6-1c2-2.1,4.1-4.6,5.9-6.9c1-0.1,1.2-0.1,2.4-0.3c1.6-0.3,1.4-1.4,0.1-1.2c-0.6,0.1-1.1,0.1-1.5,0.2
			c1.1-1.6,2.1-3.1,2.8-4.4c0.4-0.8,0.8-1.6,0.7-2.2c-0.1-0.6-0.5-1-1.6-0.9c-2.4,0.1-6.9,1.4-8,2.7c-1.1,1.4,0.5,0.6,1.6,0.1
			c2-0.8,6.6-2.4,6.5-1.2c-0.1,1.2-1.6,3.6-3.5,6c-1.3,0.1-1.7,0.2-2.6,0.4c-1.6,0.3-2.6,1.1-0.7,1.2c0.4,0,0.9-0.1,1.3-0.1
			c0.3,0,0.7-0.1,1-0.1c-2.4,2.9-4.9,5.7-5.9,6.6c-0.6,0.5-0.8,1-0.7,1.4c0.1,0.7,1.1,1.2,1.9,1.3c0.5,0.1,0.9,0.1,1.5,0
			c1.8-0.2,4.2-1,7.2-2.2c0.1,0,0.3-0.1,0.4-0.2c0.6,1.1,1.4,1.5,2.5,1.4c1.2-0.1,2.7-0.9,4.3-2c1.9-1.7,2.2-2.3,2.8-3
			c1.7,0.4,2,1.2,2.2,2.2c0.2,1.2,0.8,1.7,1.4,1.6c0.7-0.1,1.6-0.7,2.6-1.5c0,0,0,0,0,0c-0.1,0.8-0.1,1.4,0.2,1.4
			c0.2,0,0.5-0.3,0.9-0.9c0.6-0.8,1.4-2.3,2.1-2.9c1-0.7,0.9,0.5,0.8,1.8c0.1,0.8,0.2,1.7,1.2,0.9c0.8-0.6,2.1-3.1,2.6-3.7
			c0.4,2.2,1.1,3,1.9,2.9c0.6-0.1,1.4-0.6,2.4-1.3c0.2-0.1,0.3-0.3,0.5-0.4c-0.1,0.4-0.1,0.7-0.1,1c0.1,0.7,0.5,1,1.2,1
			c0.9-0.1,2.2-1,3-1.9c0.1,0.4,0.6,2.2,2.9,1.9c1.5-0.2,2.1-1.3,3.6-2.5c0,0,0,0,0,0c0,0,0,0,0,0c0.3,1,1.1,1.3,2,1.2
			c1.2-0.1,2.6-0.9,3.2-1.3c0,0,0.1-0.1,0.1-0.1c0.4,0.7,1.1,0.9,1.9,0.9c1.2-0.1,2.6-0.9,3.2-1.3c1.3-0.9,0.9-2.1-0.6-0.9
			c-0.7,0.6-1.6,1-2.3,1.1c-0.9,0.1-1.5-0.4-1.1-1.8c0.3-0.9,2.2-5.8,2.6-6.6c1.8-0.3,5.6-0.7,7-1.2C66.8,140,66.9,139.3,65.9,139.4
			z M14.4,149.4c0,0.3-0.5,1.3-2.3,2.9C12.9,149.8,14.3,148.9,14.4,149.4z M43.6,148.7c-0.7,0.9-3.4,4.2-2.6,1.6
			c0.2-0.6,0.9-1.8,1.8-2.6c0.7-0.7,2.1-1.6,2.1-1.1C44.9,146.9,44.2,148,43.6,148.7z M55.1,149c-0.1,0.1-0.3,0.2-0.4,0.3
			c-0.7,0.6-1.6,1-2.3,1.1c-0.9,0.1-1.5-0.4-1.1-1.8c0.3-0.9,2.2-5.8,2.6-6.6c0,0,0,0,0.1,0c0.7,0,1.2-0.1,1.5-0.1
			c0.7-0.1,1.1-0.1,2-0.2C55.9,146.5,55.1,147.9,55.1,149z"/>
		<path class="st1" d="M198.6,134.4c0-0.5-0.3-0.8-1-0.8h-1.1v2.8h0.4v-1.2h0.5l0.8,1.2h0.5l-0.8-1.2
			C198.3,135.1,198.6,134.9,198.6,134.4z M197.4,134.8H197v-0.9h0.6c0.3,0,0.6,0.1,0.6,0.4C198.2,134.8,197.8,134.8,197.4,134.8z"/>
		<path class="st1" d="M197.5,132.6c-1.3,0-2.4,1-2.4,2.4c0,1.4,1.1,2.4,2.4,2.4c1.3,0,2.4-1,2.4-2.4
			C199.9,133.6,198.8,132.6,197.5,132.6z M197.5,137c-1.1,0-2-0.9-2-2.1c0-1.1,0.9-2,2-2c1.1,0,2,0.9,2,2
			C199.4,136.1,198.6,137,197.5,137z"/>
	</g>
</g>
</svg>
