<?xml version="1.0" encoding="utf-8"?>
<!-- Generator: Adobe Illustrator 24.1.0, SVG Export Plug-In . SVG Version: 6.00 Build 0)  -->
<svg version="1.1" xmlns="http://www.w3.org/2000/svg" xmlns:xlink="http://www.w3.org/1999/xlink" x="0px" y="0px"
	 viewBox="0 0 200 200" style="enable-background:new 0 0 200 200;" xml:space="preserve">
<style type="text/css">
	.st0{fill:#FFFFFF;}
</style>
<g id="Ebene_1">
</g>
<g id="Ebene_3">
	<path class="st0" d="M200,115.8c0,6.7-5.3,11.9-14.2,11.9H157v-9.6h27.7c1.7,0,2.8-0.7,2.8-2c0-1.1-0.7-2.1-2.9-2.3
		c-1.2-0.1-11.9-1.4-15.2-1.9c-9.5-1.1-12.6-6.8-12.6-12.6c0-6.7,5.3-11.9,14.2-11.9h27.4V97h-26.3c-1.7,0-2.8,0.7-2.8,2
		c0,1.1,0.7,2.1,2.9,2.4c1.2,0.1,12,1.4,15.3,1.8C196.9,104.4,200,110,200,115.8 M43.5,84.5c-1.6,0.1-3.1,0.7-3.4,2.3l-1,8.3
		c5.5,1,9.6,5.8,9.6,11.5c0,6.5-5.2,11.7-11.7,11.7c-6.4,0-11.7-5.2-11.7-11.7c0-5.7,4.2-10.5,9.6-11.5l-1-8.3
		c-0.3-1.6-1.7-2.2-3.4-2.3H0l5.5,9.8C7,96.9,9.6,97,10,97h7.8c-1.9,3.1-2.9,6.5-2.9,9.5c0,12.3,9.9,22.3,22.2,22.3
		c12.2,0,22.2-10,22.2-22.3c0-3-1.1-6.4-3-9.5h7.9c0.4,0,3-0.1,4.5-2.7l5.5-9.8H43.5z M29.6,106.6c0-4.1,3.3-7.5,7.5-7.5
		c4.1,0,7.5,3.3,7.5,7.5c0,4.1-3.4,7.5-7.5,7.5C33,114,29.6,110.7,29.6,106.6 M137.4,127.7h13.2V71.2h-13.2V127.7z M117.7,112.9
		c0,3.5-1.9,5.2-5.7,5.2H98.2V97H112c3.8,0,5.7,1.8,5.7,5.4V112.9z M114.8,87.5H98.2V71.2H85.1v56.5h29.8c10.7,0,16.1-5.2,16.1-15.5
		v-9.3C130.9,92.7,125.5,87.5,114.8,87.5"/>
</g>
</svg>
