<svg id="Ebene_1" data-name="Ebene 1" xmlns="http://www.w3.org/2000/svg" viewBox="0 0 200 200"><defs><style>.cls-1,.cls-2{fill:#fff;}.cls-1{fill-rule:evenodd;}</style></defs><title>RedBull_Logo</title><path class="cls-1" d="M152.48,147.31v-16h-8.79V149c0,6,6.18,10.83,13.81,10.83S171.32,155,171.32,149V131.34h-8.73v16a5.06,5.06,0,0,1-10.11,0Z"/><rect class="cls-2" x="191.15" y="112.37" width="8.85" height="46.46"/><rect class="cls-2" x="176.18" y="112.37" width="8.85" height="46.46"/><path class="cls-1" d="M14.23,122.12H9.42v36.71H0V114.5H16.19a13.07,13.07,0,0,1,3.18,25.81l13,18.52H21.28l-9.41-14.51V133.71h2.18a6.06,6.06,0,0,0,6.3-5.8A5.9,5.9,0,0,0,14.23,122.12Z"/><path class="cls-2" d="M60.2,146.89a16.13,16.13,0,0,0,.08-1.86c.14-9.58-6.2-14.83-14.28-14.83a14.82,14.82,0,0,0,0,29.63c6.17,0,11-2.8,13.46-7.17l-7.19-3.31a6,6,0,0,1-5.55,3.36,5.77,5.77,0,0,1-6-5.52v-.3ZM40.67,141.8a5.41,5.41,0,1,1,10.81,0Z"/><path class="cls-2" d="M95.44,158.83l0-46.46H86.6v22a12.6,12.6,0,0,0-8.9-3.74c-7.3,0-13.23,6.49-13.23,14.48s5.93,14.48,13.23,14.48a12.57,12.57,0,0,0,8.94-3.84v3.09ZM80.22,152c-3.59,0-6.5-3.18-6.5-7.11s2.91-7.11,6.5-7.11,6.49,3.18,6.49,7.11S83.81,152,80.22,152Z"/><path class="cls-2" d="M132.86,134.7a11.75,11.75,0,0,0,3.9-8.61,11.55,11.55,0,0,0-3.19-8c-2.11-2.32-5.85-3.63-10.9-3.63H107.54v44.33h19.54c7.49-.12,13.52-5.77,13.52-12.71C140.6,141.07,138.82,137.47,132.86,134.7Zm-7.41,16.43H117v-29h5.9a4.93,4.93,0,0,1,4.7,5,4.69,4.69,0,0,1-4.7,4.7h-3.07v8h5.64a5.69,5.69,0,0,1,0,11.38Z"/><path class="cls-2" d="M137.1,85.53a8.47,8.47,0,0,1-1,.06h-.88a2.92,2.92,0,0,0-.54.05h0l0,0a4,4,0,0,0-.58,1.85c.09.76.87.91,1.45,1a3.71,3.71,0,0,0,.69.09.85.85,0,0,0,.84-.42,10.29,10.29,0,0,0,.65-2.33.24.24,0,0,0,0-.22.56.56,0,0,0-.41-.14Z"/><path class="cls-2" d="M179.46,88.16a5.58,5.58,0,0,0-1.5-1.28,6.63,6.63,0,0,1-.58-.41l-.1-.08a.64.64,0,0,0-.42-.15,1.56,1.56,0,0,0-1.21.92c0,.35.48,1,1.12,1.73l.14.16a1.51,1.51,0,0,0,1,.62h0a1.32,1.32,0,0,0,1-.42C179.18,89,179.69,88.5,179.46,88.16Z"/><path class="cls-2" d="M182.14,92.62a2.92,2.92,0,0,1-.22-.54,7.18,7.18,0,0,1-.12-.79,4.87,4.87,0,0,0-.24-1.13,1.14,1.14,0,0,0-1-.64,1,1,0,0,0-.42.09c-.63.32-1,.65-.9,1.36a27.46,27.46,0,0,1,.74,2.79c0,.16.13.67.38.67h0l1.81-.6a.31.31,0,0,0,.19-.16C182.51,93.42,182.32,93,182.14,92.62Z"/><path class="cls-2" d="M178,90.85l0,0H178c-1.05.07-1.7-.78-2.32-1.6-.21-.27-.4-.52-.61-.74a9.94,9.94,0,0,0-1-1,3.43,3.43,0,0,1-.81-.86,10.05,10.05,0,0,1-.46-1.47c-.11-.41-.22-.79-.31-1.06a.77.77,0,0,1-.07-.16c-.19-.51-.42-1.13-1.07-1.24a6.9,6.9,0,0,0-1-.08,3,3,0,0,1-2.38-.88,1.71,1.71,0,0,1,0-1.82,6.22,6.22,0,0,0,.26-.76,7.22,7.22,0,0,0,.19-3.55c0-.15-.09-.31-.14-.47a2.55,2.55,0,0,1-.2-1.23.39.39,0,0,1,.41-.22,2.14,2.14,0,0,1,.53.1l.35.09a8.45,8.45,0,0,0,1.81.24,8.15,8.15,0,0,0,3.13-.64,6,6,0,0,0,3.52-5.33c-.24-2.5-1.78-4.91-4.72-7.37l-.22-.18c-.38-.32-.84-.72-.85-1.07s.9-.57,1.48-.7l.35-.08.15,0a6.53,6.53,0,0,0,2.11-.82c2.09-1.41,2-3.89,1.78-5.26a1.3,1.3,0,0,1,0-.13c0-.18-.09-.4-.25-.4a.21.21,0,0,0-.16.07l-.19.18a4.47,4.47,0,0,1-.82.66,7.29,7.29,0,0,1-2.23.72,12.81,12.81,0,0,0-1.48.37c-2.08.72-3.37,1.78-3.84,3.14a3.14,3.14,0,0,0,.36,2.46,16.39,16.39,0,0,0,2.62,2.93c1.5,1.44,3,2.92,3.41,4.94a3,3,0,0,1-1.46,3,4.4,4.4,0,0,1-2.28.57,6.94,6.94,0,0,1-3.18-.8,33.67,33.67,0,0,1-3.53-2.16,22.14,22.14,0,0,0-5.45-2.95,12,12,0,0,0-2.71-.76,8.62,8.62,0,0,1-3.71-1.38c-.37-.24-.74-.51-1.1-.77a9.83,9.83,0,0,0-3.13-1.73,7.14,7.14,0,0,0-1.25-.26,3.76,3.76,0,0,1-1.76-.56l-.73-.54a21.86,21.86,0,0,0-2.8-1.82,21.79,21.79,0,0,0-5.27-1.64,2.75,2.75,0,0,1-1.4-1.11,4.36,4.36,0,0,0-.91-.91,7.16,7.16,0,0,0-4.56-2,4,4,0,0,0-.49,0,4.55,4.55,0,0,0-2.39,1.26l-.21.18a34.34,34.34,0,0,0-4.59-5.23,32.53,32.53,0,0,0-44.18,0,34.46,34.46,0,0,0-4.26,4.81l-.36-.13a6.35,6.35,0,0,0-2.11-.34,7,7,0,0,0-2.67.51c-.53.29-1,.62-1.56.94a12.26,12.26,0,0,1-2.7,1.43,19.11,19.11,0,0,1-2.34.83,10.85,10.85,0,0,0-4.33,2.1l-.91.85c-1.15,1.08-1.27,1.19-2.21,1.19a7.7,7.7,0,0,0-5.33,1.85,12.35,12.35,0,0,1-4,2.75,9.62,9.62,0,0,1-2.17.39,12,12,0,0,0-2.34.36,14,14,0,0,0-4.7,2.78c-.46.37-1.09.85-1.38,1l-.49.3c-1.77,1-3.45,2-5.59,2h-.16A4.09,4.09,0,0,1,25,69a4.67,4.67,0,0,1,1.33-4.63c.62-.62,1.32-1.22,2-1.79a18.43,18.43,0,0,0,2.85-2.78,3.41,3.41,0,0,0-.2-4c-.94-1-3-1.54-3.82-1.73L27,54,26.73,54c-.5-.09-1-.16-1.47-.28-1.24-.34-2.2-1.3-3.31-1.9a3.42,3.42,0,0,0-.51,2.15A5.71,5.71,0,0,0,24.57,58l.2.08a3.68,3.68,0,0,0,1.48.24h.62a4.06,4.06,0,0,1,1,.08.92.92,0,0,1,.65.75c0,.22-.07.39-.35.61l-.78.65A26.26,26.26,0,0,0,23.56,64c-1.49,1.61-1.56,4.4-.87,6.21a6.67,6.67,0,0,0,5.37,4,8.17,8.17,0,0,0,1.11.08,14.38,14.38,0,0,0,3.44-.56l.11,0c.05,0,.14,0,.16.25,0,.5.06,1.06.08,1.6a20,20,0,0,0,.15,2.06A13.6,13.6,0,0,0,33.9,80c.11.26.2.47.23.58a1,1,0,0,1-.24,1A7.82,7.82,0,0,1,31,82.94c-.5.07-1,.09-1.43.11l-.44,0a.8.8,0,0,0-.47.22A6.51,6.51,0,0,0,27.89,85c-.18.47-.37,1-.56,1.36A5.86,5.86,0,0,1,25,88.25l-.64.38,0,0a6.7,6.7,0,0,1-1.18,1.51,2.07,2.07,0,0,1-1.25.46h0l0,0a6,6,0,0,0-1.1,2.8c0,.15-.07.31-.1.46l0,.14h.09a9.25,9.25,0,0,1,1.09.19,7.15,7.15,0,0,0,1.51.22,2.58,2.58,0,0,0,1.26-.3,3.21,3.21,0,0,0,1.33-1.47,4.51,4.51,0,0,1,.76-1.07.86.86,0,0,1,.68-.29,3.37,3.37,0,0,1,.8.14,3.24,3.24,0,0,0,.74.15,4.67,4.67,0,0,0,2.88-1.12c.24-.19.48-.42.71-.64a8.85,8.85,0,0,1,1.13-.93,4.18,4.18,0,0,1,1.8-.35,14.79,14.79,0,0,1,2.61.32,4.75,4.75,0,0,0,1.24.17,4,4,0,0,0,2-.48c.67-.38,1.34-.73,1.88-1l.8-.43A6.59,6.59,0,0,0,46,84.58c.28-.56.77-1.77.77-1.79l0-.05-1.11-.85,0,.07a17.71,17.71,0,0,1-1.22,1.78c-2,2.67-5.15,3-7.72,3h-.53a9.72,9.72,0,0,0-7.61,3.17.22.22,0,0,1-.31,0,.29.29,0,0,1,0-.23,1.43,1.43,0,0,1,.21-.53c2-2.82,5.38-3.24,8.12-3.29a12.08,12.08,0,0,0,4.78-1.14,7.53,7.53,0,0,0,3.33-4.15,17.91,17.91,0,0,0,.61-3,22.66,22.66,0,0,1,.44-2.35.26.26,0,0,1,.23-.16l.08,0c.1,0,.3.09.3.24-.28,1.56-.65,3.68.06,5.46a2.11,2.11,0,0,0,2.15,1,13.44,13.44,0,0,0,2.14-.23c.55-.08,1.07-.17,1.52-.19l.58,0a13,13,0,0,1,2.59.34,13.58,13.58,0,0,0,2.24.33l.44,0a7.37,7.37,0,0,0,.82,0,2.18,2.18,0,0,0,1.45-.41c.24-.19.15-.47,0-.84l0-.06c0-.07,0-.13-.06-.21-.15-.48-.38-1.2,0-1.54a.4.4,0,0,1,.21-.07.16.16,0,0,1,.17.12c.05.14.09.28.13.42a4.91,4.91,0,0,0,.71,1.69A10.69,10.69,0,0,0,65,84a4.62,4.62,0,0,1,2.22,3.35c0,.71-.69,1.2-1.2,1.51a8.59,8.59,0,0,1-2.83.85.5.5,0,0,1-.25,0A5.15,5.15,0,0,1,61,87.53a8.55,8.55,0,0,0-.91-1.34,2.12,2.12,0,0,0-1.93-.68,17.28,17.28,0,0,0-2.41.4.53.53,0,0,0-.39.3.63.63,0,0,0,0,.58c.46.81.9,1.55,1.37,2.33l.2.35a.62.62,0,0,0,.55.22l.35,0,.39,0a1,1,0,0,1,.83.3c.14.22.27.45.39.67a4.75,4.75,0,0,0,1.15,1.53,2.92,2.92,0,0,0,1.9.66,3.22,3.22,0,0,0,.93-.13,34.86,34.86,0,0,0,6.08-2.38h.64l.43,0a2.66,2.66,0,0,0,1.86-.62c.19-.28.37-.56.55-.84a32.56,32.56,0,0,0,54.22.36,2.34,2.34,0,0,0,.33.59.89.89,0,0,0,.73.32,4.07,4.07,0,0,0,.49,0,2,2,0,0,1,.77,0,1.72,1.72,0,0,1,.78.57,1.85,1.85,0,0,0,.82.61c.66.22,1.35.4,2,.58a24,24,0,0,1,2.67.81,5.15,5.15,0,0,0,1.54.31,2.06,2.06,0,0,0,1.41-.56,2.94,2.94,0,0,0,1.08-1.91c.14-.74.38-.79.92-.82a1.45,1.45,0,0,0,.54-.08,5.45,5.45,0,0,0,1.44-1.8,5,5,0,0,1,.33-.57.85.85,0,0,0,.17-.49.5.5,0,0,0-.52-.5h-.14s-2.26,0-2.88,0c-.94,0-1.34,1-1.67,1.74a5,5,0,0,1-.4.84,1.43,1.43,0,0,1-1.32.71,6,6,0,0,1-.75-.16c-1.23-.3-2.49-.61-3-1.82a1.12,1.12,0,0,1,.19-1,18.13,18.13,0,0,1,2.4-2.4,5,5,0,0,0,3.13-2.32,2.23,2.23,0,0,0,.29-.65,1.44,1.44,0,0,1,.53-.87c.2-.1.36-.07.4.1a3.38,3.38,0,0,1-.36,1.86l-.15.39,0,.1h.1c.34,0,.69,0,1,0a20.36,20.36,0,0,0,3.63-.43,20.75,20.75,0,0,1,3.57-.42h.4c.55,0,1.08,0,1.6.09a15.52,15.52,0,0,0,1.55.1l.53,0a3.07,3.07,0,0,0,3.06-1.92,11.47,11.47,0,0,0-.1-5,1.88,1.88,0,0,1,0-.2v0a.23.23,0,0,1,.11-.24.27.27,0,0,1,.38.19A25.45,25.45,0,0,1,156,79.8a10.34,10.34,0,0,0,1.66,4,6,6,0,0,0,5.09,2.65,10.49,10.49,0,0,0,1.47-.16,4.38,4.38,0,0,1,.7,0,8.38,8.38,0,0,1,6.75,3.36.13.13,0,0,1,0,.11.18.18,0,0,1-.25.13l-.23-.18c-1.51-1.17-3.08-2.38-5-2.62A5.59,5.59,0,0,0,165,87a15.06,15.06,0,0,0-1.67.13,13.83,13.83,0,0,1-1.56.12,4.59,4.59,0,0,1-1.78-.32c-2.26-.74-4.1-3.34-4.69-5a.29.29,0,0,0-.24-.15.38.38,0,0,0-.19.06c-.26.17-.31.26-.34.42a12.93,12.93,0,0,0,.28,1.79c.29,1.23.74,3.09,2.35,3.77l.6.38a4.9,4.9,0,0,0,2.59,1,2.59,2.59,0,0,0,.68-.09A8.53,8.53,0,0,1,162.8,89a9.18,9.18,0,0,1,5.33,1.79,5.2,5.2,0,0,1,.76.57,3.76,3.76,0,0,0,1.12.74,2.18,2.18,0,0,0,.85.16,2.4,2.4,0,0,0,1.41-.47,1.49,1.49,0,0,1,.6-.15c.58,0,.9.45,1.31,1a7,7,0,0,0,.89,1.08,2.54,2.54,0,0,0,1.83.57c.31,0,.63,0,.93,0l.84,0,.29-.05v-.08A10.88,10.88,0,0,0,178,90.85ZM129.91,59.09a.8.8,0,0,1-.22,1l-.8.74a14.84,14.84,0,0,0-2.6,2.8,8,8,0,0,0-.76,1.37.19.19,0,0,1-.33.08,4,4,0,0,1,.21-2.11,9.71,9.71,0,0,1,3.3-4.11,1.18,1.18,0,0,1,.58-.16A.62.62,0,0,1,129.91,59.09ZM72.05,61.33a.63.63,0,0,1,.53-.23.79.79,0,0,1,.32.06,2.67,2.67,0,0,1,1,1.28,7.16,7.16,0,0,1,.18,4.29c0,.13-.12.21-.21.21s-.13,0-.17-.18a13.56,13.56,0,0,0-1-3.5,4.21,4.21,0,0,0-.43-.68C72,62.17,71.76,61.81,72.05,61.33Zm59.89,20.19-1.72,2.54a5.36,5.36,0,0,0-.94,1.84,6.12,6.12,0,0,0,0,1.86v.14a.25.25,0,0,1-.13-.14,3.6,3.6,0,0,1-.48-3.13c.23-.53,1.63-2.52,2-3.17.13-.21.24-.42.12-.57a4,4,0,0,0-1.46-.62h-.05a1.11,1.11,0,0,0-.55.5l-.1.13-2.12,3.86-.05.14a2,2,0,0,0-.12,1.17q.09.45.21.9c-2.45,4-10.62,14.78-26.37,14.78A30.64,30.64,0,0,1,74,87.07c0-.07.07-.13.1-.2a2.38,2.38,0,0,0,0-2.37,16.32,16.32,0,0,1-2-3.85l0,0h0l-.43-.15a2.62,2.62,0,0,0-1-.25h0c-.43,0-.71.15-.83.39l0,0L72,85.06a2,2,0,0,1,.22,1.21,7.81,7.81,0,0,1-1.52,2.47.35.35,0,0,1-.2.08s-.14,0-.06-.28a11.68,11.68,0,0,0,.4-3,27.41,27.41,0,0,0-2-3.88l0-.06a2.71,2.71,0,0,1-.56-1.54.6.6,0,0,1,.42-.51,6.71,6.71,0,0,1,1-.25c.79-.17,1.62-.36,1.92-.8a12.18,12.18,0,0,0,1.79-4.77c0-.09.07-.26.2-.26s.15,0,.17.2a7.19,7.19,0,0,1-1.22,5.39.54.54,0,0,0-.08.43.53.53,0,0,0,.2.28c.44.3,2,.13,3.15-.47a11.79,11.79,0,0,0,2.49-.29l.75-.13a.33.33,0,0,1,.16.17,5.48,5.48,0,0,0-1.29,2.67c-.18.19-.39.38-.59.56a3.76,3.76,0,0,0-1.56,2.38.35.35,0,0,0,.35.37.86.86,0,0,0,.37-.1.78.78,0,0,1,.39-.1.24.24,0,0,1,.21.24l-.83,1.22a2,2,0,0,0,0,1.58c.09.29,0,.52.13.77a1.61,1.61,0,0,0,1.54.9,9.76,9.76,0,0,0,3-.75l.52-.18a7.48,7.48,0,0,1,4.13-.28,5.78,5.78,0,0,0,3.32-1.83,1.92,1.92,0,0,1,1.3.73,7.05,7.05,0,0,0,5.44,2.32h.48c.23-.06.29-.17.3-.31s-.12-.35-.37-.46l-1.23-.66a5.16,5.16,0,0,1-2.37-2.39A13.46,13.46,0,0,0,91,82.89l-.29-.42a5.05,5.05,0,0,1-.48-.79h0c1.35.48,2.11,1.48,3,3.14a5.24,5.24,0,0,0,4.1,2.57,2.67,2.67,0,0,0,.64-.07.37.37,0,0,0,.32-.3c0-.14,0-.27-.15-.34l-1-.51a7.74,7.74,0,0,1-2.56-3c-.26-.44-.53-.9-.83-1.31A4.9,4.9,0,0,0,93,81a2.47,2.47,0,0,1-.53-.56,38.25,38.25,0,0,1-2.58-10.41,8.52,8.52,0,0,0-1-2.76,74.28,74.28,0,0,0-5.48-7.09l-.39-.4-.1-.1-6.7-5.56-.75-.51a32,32,0,0,1,3.92-4.38,30.79,30.79,0,0,1,41.68,0,33.18,33.18,0,0,1,4.48,5.12c-1.26,1-2.56,2-3.82,2.87a49.4,49.4,0,0,0-7.83,6.54c-2.33,2.4-3.18,5.41-4,8.32-.12.43-.24.85-.37,1.28-.22.79-.42,1.61-.62,2.41-1.07,4.29-2.17,8.57-6.46,11.35a.35.35,0,0,0,.09.64,3.57,3.57,0,0,0,3.69-1.15c1.09-1.34,1.69-2.58,3-4a.48.48,0,0,1,.31-.15c.09,0,.11.09.09.24a5.51,5.51,0,0,1-.84,1.52,5.62,5.62,0,0,0-.85,1.56,8,8,0,0,1-2.58,3.1,1.44,1.44,0,0,0-.25.22c-.1.12-.09.17-.09.17,0,.27.18.44.62.46h0c2.4,0,4.11-1.71,5.76-3.36a.38.38,0,0,1,.28-.11.66.66,0,0,1,.26,0,5.46,5.46,0,0,1,.56.48A4,4,0,0,0,114.32,88h0a16.57,16.57,0,0,1,2.47-.23,6.46,6.46,0,0,1,.65,0c.88.26,1.76.59,2.6.91.6.22,1.22.46,1.83.67h0c.8,0,1.38-.78,1.8-1.43a2.29,2.29,0,0,0,0-1.37,3.17,3.17,0,0,1-.1-.79,1,1,0,0,1,.57,0,2.47,2.47,0,0,0,.56,0,.49.49,0,0,0,.37-.59,5.21,5.21,0,0,0-1-1.91,6,6,0,0,1-.85-1.57A6,6,0,0,0,122,79.75a4.92,4.92,0,0,1-1.4-2.15s0-.18,0-.24.23,0,.23,0c.29.21.58.45.86.68a6.52,6.52,0,0,0,3,1.67,18.73,18.73,0,0,0,3.37.15.44.44,0,0,0,.38-.57,17.75,17.75,0,0,1-1.21-3.12,9.3,9.3,0,0,1-.23-4.77.28.28,0,0,1,.26-.22h0a.52.52,0,0,1,.34.43l0,.22c.16,2.3.31,4.47,1.71,6.31a3.75,3.75,0,0,0,1.43,1.22,3.63,3.63,0,0,1,1,.73A1.41,1.41,0,0,1,131.94,81.52ZM84.53,83.44a.93.93,0,0,1,.66,0c.33.16.18,1,.16,1.08a1.32,1.32,0,0,1-.29.72,3,3,0,0,1-1.54.32c-.44,0-.6-.08-.69-.22s.06-.45.06-.45A2.9,2.9,0,0,1,84.53,83.44Zm-1-8.8A5.27,5.27,0,0,1,84,73.57a10.48,10.48,0,0,1,.46-1,.93.93,0,0,1,.8-.48,1.06,1.06,0,0,1,.94.49,3.6,3.6,0,0,1,.53.77,4.65,4.65,0,0,0,.69.89,5,5,0,0,1,1,1.84,3.56,3.56,0,0,1,.06,1.4,2.12,2.12,0,0,1-.22.71.49.49,0,0,1-.46.32c-.34,0-.31-.39-.32-.45a5.88,5.88,0,0,0-.25-1.56c-.23-.51-1.33-1.93-2-1.87a1.88,1.88,0,0,0-.89.67c-.37.49-.37.55-.49.62s-.26,0-.31-.25A2.06,2.06,0,0,1,83.54,74.64Zm34.23,1.58a1.24,1.24,0,0,1-.52-.56c-.15-.26-.27-.49-.62-.46h-.06a1.46,1.46,0,0,0-.78.37l-.75.57a3.92,3.92,0,0,0-1.51,2,3.28,3.28,0,0,0-.09.43,1,1,0,0,1-.33.71H113a.43.43,0,0,1-.28-.11.31.31,0,0,1-.14-.27,4.1,4.1,0,0,1,1.3-3.47,10.33,10.33,0,0,0,1.6-1.77c.24-.3.48-.61.74-.9s.5,0,1,.53a11.33,11.33,0,0,1,1.2,2.15.74.74,0,0,1,0,.58C118.23,76.19,118,76.34,117.77,76.22Zm0,9.25a.75.75,0,0,1-.69.3,1.49,1.49,0,0,1-.78-.22,1.87,1.87,0,0,1-.72-1.49.48.48,0,0,1,.19-.47.49.49,0,0,1,.29-.06,2.13,2.13,0,0,1,1.42.69S118.07,85,117.79,85.47Z"/><path class="cls-2" d="M61.92,86.5a7.24,7.24,0,0,1,.5,1c.25.56.47,1,.72,1.12a1,1,0,0,0,.36,0,3.55,3.55,0,0,0,2-.77c.33-.27.22-.46.08-.71l-.16-.28a5.14,5.14,0,0,1-.32-.9c-.17-.56-.3-1-.91-1a17.25,17.25,0,0,1-2.63.18s-.3,0-.39.21.13.45.38.68A3,3,0,0,1,61.92,86.5Z"/><path class="cls-2" d="M21,89.33a1,1,0,0,0,.61.24,1.17,1.17,0,0,0,.52-.13,6.6,6.6,0,0,0,1.92-2.29c.1-.28-.22-.54-.62-.86l-.05,0a.64.64,0,0,0-.71,0l-.46.3a16.91,16.91,0,0,0-1.5,1.09,1.07,1.07,0,0,0-.31.69.6.6,0,0,0,.09.43C20.57,88.83,21,89.26,21,89.33Z"/><path class="cls-2" d="M19.21,89.36a.15.15,0,0,0-.09,0A2,2,0,0,0,18,90.6c-.12,1.67-.17,1.85-.63,2.36a.53.53,0,0,0-.07.62,10.86,10.86,0,0,0,2,.64h0c.15,0,.27-.42.6-1.57.18-.62.38-1.32.61-2,0,0,0-.1-.13-.32S19.57,89.36,19.21,89.36Z"/></svg>