<svg id="Ebene_1" data-name="Ebene 1" xmlns="http://www.w3.org/2000/svg" viewBox="0 0 200 200"><defs><style>.cls-1{fill:#fff;}</style></defs><title>UGG_Logo</title><path class="cls-1" d="M69.43,91.65h2.93v14.69c0,5,1.53,6.3,4.29,6.3s4.3-1.27,4.3-6.3V91.65h2.92v14.57c0,6.36-2.35,8.87-7.22,8.87s-7.22-2.51-7.22-8.87Z"/><path class="cls-1" d="M104.87,91.65v23h-4L91.79,94.7h-.06v19.92H89.12v-23h4.14l8.94,19.66h.06V91.65Z"/><path class="cls-1" d="M113,114.62h-2.92v-23H113Z"/><path class="cls-1" d="M131.46,91.65v2.54h-6v20.43h-2.93V94.19h-6V91.65Z"/><path class="cls-1" d="M134.48,114.62v-23h11.83v2.54h-8.9v7.38h8.27v2.55h-8.27v7.95h9.1v2.55Z"/><path class="cls-1" d="M150.45,91.65h7.06c2.93,0,5,1,6.17,3.5.92,1.94,1,6.52,1,7.25,0,4.9-.45,7.73-1.4,9.26-1.24,2-3.56,3-7.57,3h-5.28Zm2.93,20.42h2.76c4.07,0,5.57-1.53,5.57-6.87v-4.64c0-4.65-1.43-6.37-4.48-6.37h-3.85Z"/><path class="cls-1" d="M80.7,127.24c0-2.7-1.11-4.17-4.07-4.17-.92,0-4.23.16-4.23,5v7.76c0,5,1.47,6.3,4.23,6.3a7.36,7.36,0,0,0,4.11-1V134.2H76.5v-2.54h7.16v11.16a14.14,14.14,0,0,1-7,1.72c-4.87,0-7.22-2.51-7.22-8.87v-7.54c0-4.58,2.35-7.51,7.22-7.51s7.32,1.81,7.13,6.62Z"/><path class="cls-1" d="M92,133.5v10.57H89.07v-23H97c4.07,0,5.5,2.86,5.5,5.72a5,5,0,0,1-4.2,5.25v.07c2.64.41,3.6,1.3,3.76,5.91a35.25,35.25,0,0,0,.79,6h-3c-.83-1.59-.64-4.59-.89-7.64-.22-2.8-2.49-2.93-3.47-2.93ZM92,131h4.38c2.11,0,3.12-1.81,3.12-3.82,0-1.65-.82-3.5-3.09-3.5H92Z"/><path class="cls-1" d="M110.13,144.07H107.2v-23h2.93Z"/><path class="cls-1" d="M131.57,121.1v23h-4l-9.07-19.92h-.06v19.92h-2.61v-23H120l8.93,19.66H129V121.1Z"/><path class="cls-1" d="M136.94,121.1H144c2.93,0,5,1.05,6.17,3.5.93,1.94,1,6.52,1,7.25,0,4.9-.44,7.73-1.4,9.26-1.24,2-3.56,3-7.57,3h-5.28Zm2.93,20.42h2.76c4.08,0,5.57-1.53,5.57-6.87V130c0-4.65-1.43-6.37-4.48-6.37h-3.85Z"/><path class="cls-1" d="M159.62,144.07h-2.93v-23h2.93Z"/><path class="cls-1" d="M180.62,121.1v23h-4l-9.07-19.92h-.06v19.92h-2.61v-23H169l8.93,19.66H178V121.1Z"/><path class="cls-1" d="M196.94,127.24c0-2.7-1.12-4.17-4.08-4.17-.92,0-4.23.16-4.23,5v7.76c0,5,1.47,6.3,4.23,6.3a7.36,7.36,0,0,0,4.11-1V134.2h-4.23v-2.54h7.15v11.16a14.11,14.11,0,0,1-7,1.72c-4.86,0-7.22-2.51-7.22-8.87v-7.54c0-4.58,2.36-7.51,7.22-7.51s7.32,1.81,7.13,6.62Z"/><path class="cls-1" d="M69.44,82.11H99.51S90.1,60.7,69.44,60.92a27.87,27.87,0,0,0-15.61,5.47A36.89,36.89,0,0,1,69.44,82.11Z"/><path class="cls-1" d="M9.16,144.58H37.53S25,125.06,30.33,95.89s26.91-40.38,35-41.38L36.85,56.89s-27.46,2-35.13,39C1.72,95.89-5.35,121.13,9.16,144.58Z"/></svg>