<svg id="Ebene_1" data-name="Ebene 1" xmlns="http://www.w3.org/2000/svg" viewBox="0 0 200 200"><defs><style>.cls-1{fill:#fff;}</style></defs><title>BillBaut_Logo</title><path class="cls-1" d="M9.22,86.75H0V113.3H53V94.1H9.22Zm35,15.83v2.21h-35v-2.21Z"/><path class="cls-1" d="M102.48,94.1l.07-7.35H93.33V113.3h52.94V94.1Zm35,10.69H102.37v-2.21H137.5Z"/><rect class="cls-1" x="55.22" y="86.75" width="8.36" height="5.01"/><polygon class="cls-1" points="55.22 94.1 55.29 113.3 63.65 113.3 63.58 94.1 55.22 94.1"/><rect class="cls-1" x="65.78" y="86.75" width="8.62" height="26.55"/><rect class="cls-1" x="76.61" y="86.75" width="8.62" height="26.55"/><polygon class="cls-1" points="148.48 102.59 158.66 102.58 158.66 107.69 156.36 107.69 156.36 104.79 148.48 104.79 148.48 113.3 166.38 113.3 166.38 94.1 148.48 94.1 148.48 102.59"/><polygon class="cls-1" points="178.92 107.72 176.74 107.72 176.74 94.13 168.59 94.1 168.59 113.3 187.13 113.3 187.13 94.1 178.92 94.1 178.92 107.72"/><polygon class="cls-1" points="197.19 94.1 197.19 86.75 189.35 86.75 189.35 113.3 197.19 113.3 197.19 103.95 200 103.95 200 94.1 197.19 94.1"/></svg>