<?xml version="1.0" encoding="utf-8"?>
<!-- Generator: Adobe Illustrator 24.1.0, SVG Export Plug-In . SVG Version: 6.00 Build 0)  -->
<svg version="1.1" xmlns="http://www.w3.org/2000/svg" xmlns:xlink="http://www.w3.org/1999/xlink" x="0px" y="0px"
	 viewBox="0 0 200 200" style="enable-background:new 0 0 200 200;" xml:space="preserve">
<style type="text/css">
	.st0{fill:#FFFFFF;}
</style>
<g id="Ebene_1">
</g>
<g id="Logo_deutsch">
	<g>
		<g>
			<g>
				<path class="st0" d="M47.4,94.5c-0.9-0.9-2.2-1.3-3.8-1.3c-1.6,0-3,0.3-4.3,1c-1.3,0.7-2.4,1.6-3.3,2.6
					c-1.2,1.5-2.1,3.2-2.6,5.2c-0.5,2-0.7,3.9-0.7,5.8c0,2.4,0.5,4.2,1.5,5.5c1,1.3,2.5,2,4.5,2c1.6,0,3.1-0.3,4.4-0.9
					c1.3-0.6,2.4-1.2,3.2-2l0,0l0,0c0.1-0.3,0.3-0.7,0.4-1.2c0.1-0.4,0.2-0.9,0.2-1.3v-0.2l-0.2,0.1c-0.5,0.3-1,0.6-1.5,0.8
					c-0.6,0.2-1.1,0.4-1.7,0.6c-0.6,0.2-1.2,0.3-1.7,0.4c-0.6,0.1-1.1,0.2-1.5,0.2c-2.4,0-3.5-1.7-3.5-5.2v-1.2
					c2.4-0.1,4.4-0.4,5.9-0.8c1.6-0.5,2.8-1.1,3.7-1.7c0.9-0.7,1.5-1.5,1.8-2.3c0.3-0.9,0.5-1.7,0.5-2.6
					C48.8,96.6,48.3,95.4,47.4,94.5z M44.8,99.9c-0.2,0.5-0.5,1-1.1,1.4c-0.6,0.4-1.4,0.8-2.4,1.1c-1,0.3-2.4,0.5-4.2,0.5
					c0.1-0.8,0.3-1.5,0.5-2.2c0.2-0.8,0.5-1.5,0.9-2.2c0.5-0.8,1.1-1.5,1.9-2c0.8-0.5,1.6-0.7,2.5-0.7c0.8,0,1.3,0.2,1.6,0.7
					c0.3,0.5,0.5,1.1,0.5,1.8C45,98.9,44.9,99.4,44.8,99.9z"/>
			</g>
			<g>
				<path class="st0" d="M27.6,90.8c0.7,0,1.3-0.2,1.8-0.7c0.5-0.5,0.7-1.1,0.7-2c0-0.8-0.2-1.4-0.7-1.8c-0.5-0.4-1.1-0.7-1.8-0.7
					c-0.7,0-1.3,0.2-1.8,0.7c-0.5,0.5-0.7,1.1-0.7,1.8C25.1,89.9,26,90.8,27.6,90.8z"/>
			</g>
			<g>
				<path class="st0" d="M26.7,111.8c-0.1-0.2-0.1-0.3-0.1-0.3l2.2-17.8l-0.1,0c-0.2-0.1-0.5-0.1-0.9-0.1c-0.4,0-0.7,0-0.9,0
					c-0.9,0-1.7,0.1-2.5,0.3c-0.7,0.2-1.4,0.4-1.9,0.7c-0.2,0.2-0.4,0.6-0.6,1.1c-0.2,0.5-0.2,0.9-0.2,1.2V97l3.2-0.3l-2.2,15.5
					c0,0.4,0.2,0.9,0.5,1.6c0.3,0.6,0.7,1.2,1.1,1.7l0,0h0.1c0.3,0,0.7,0,1.2-0.1c0.4-0.1,0.9-0.1,1.4-0.2c0.5-0.1,0.9-0.2,1.4-0.3
					c0.5-0.1,0.9-0.3,1.2-0.4l0,0l0,0c0.2-0.3,0.3-0.7,0.5-1.2c0.1-0.5,0.2-0.9,0.2-1.3v-0.1l-3.5,0.4
					C26.8,112,26.8,111.9,26.7,111.8z"/>
			</g>
			<g>
				<path class="st0" d="M16.1,111.7c0-0.1-0.1-0.3-0.1-0.4l3.3-26.5l-0.1,0c-0.2-0.1-0.5-0.1-0.9-0.1c-0.4,0-0.7,0-0.9,0
					c-0.9,0-1.7,0.1-2.4,0.3c-0.7,0.2-1.4,0.4-1.9,0.7c-0.2,0.2-0.4,0.6-0.6,1.1c-0.2,0.5-0.2,0.9-0.2,1.2V88l3.1-0.3L14.4,94
					c-0.5-0.2-1-0.4-1.6-0.5c-0.6-0.2-1.2-0.2-1.8-0.2c-1.7,0-3.3,0.4-4.7,1.2c-1.4,0.8-2.6,1.9-3.5,3.2c-0.9,1.3-1.6,2.8-2.1,4.6
					C0.2,104,0,105.8,0,107.6c0,1.4,0.1,2.6,0.4,3.6c0.3,1,0.7,1.8,1.2,2.4c0.5,0.6,1.1,1.1,1.9,1.4c0.7,0.3,1.5,0.4,2.4,0.4
					c1.1,0,2.2-0.3,3.4-0.7c1.2-0.5,2.2-1.3,3.1-2.5h0.1c0.1,0.5,0.2,1,0.4,1.6c0.2,0.6,0.4,1.1,0.7,1.5l0,0.1h0.1
					c0.3,0,0.7,0,1.1-0.1c0.4-0.1,0.9-0.1,1.4-0.2c0.5-0.1,0.9-0.2,1.4-0.3c0.5-0.1,0.9-0.3,1.2-0.4l0,0l0,0
					c0.2-0.3,0.3-0.7,0.5-1.2c0.1-0.5,0.2-0.9,0.2-1.2v-0.1l-3.4,0.3C16.1,112,16.1,111.9,16.1,111.7z M4.1,105.1
					c0.1-0.7,0.2-1.4,0.3-2.1c0.1-0.7,0.3-1.4,0.6-2.1c0.2-0.7,0.5-1.3,0.9-1.8c0.6-0.9,1.3-1.6,2.2-2.3c0.9-0.6,1.9-0.9,3.1-0.9
					c0.5,0,1,0.1,1.6,0.2c0.5,0.1,1,0.3,1.3,0.5l-1.6,12.5c-0.6,1-1.3,1.8-2.1,2.3c-0.8,0.5-1.7,0.8-2.6,0.8c-1.1,0-2-0.4-2.7-1.2
					c-0.7-0.8-1-2.1-1-3.9C4,106.4,4,105.8,4.1,105.1z"/>
			</g>
		</g>
		<g>
			<path class="st0" d="M193.9,114.9h-6.1V93.8h5l0.9,2.1c0.8-1.4,2.2-2.5,5.4-2.5h1l-0.8,5.2c0,0-0.7-0.1-1.3-0.1
				c-1.8,0-3.2,1-4.1,2.6V114.9z"/>
			<path class="st0" d="M99.3,98.7c-2.2,0-3.4,2-3.4,5.7c0,3.6,1.2,5.6,3.4,5.6c2.2,0,3.4-2,3.4-5.6
				C102.7,100.7,101.5,98.7,99.3,98.7 M99.3,115.4c-7.1,0-9.6-5.9-9.6-11c0-8.2,5-11.1,9.6-11.1c4.7,0,9.6,2.9,9.6,11.1
				C109,112.5,104,115.4,99.3,115.4"/>
			<path class="st0" d="M118.3,109.7c0.4,0.3,1.1,0.5,2.2,0.5c1.7,0,4-0.6,4-6.1c0-3.6-1.1-5.4-3.4-5.4c-1.1,0-2,0.4-2.8,1.3V109.7z
				 M120.2,115.4c-4.6,0-6.9-1.6-7.9-2.3l-0.1-0.1V85.6l6.1-0.8v10.6c0.9-0.9,2.5-2.1,5-2.1c4.7,0,7.5,3.7,7.5,10
				C130.8,111.4,127.2,115.4,120.2,115.4"/>
			<path class="st0" d="M137.3,91.9c-2,0-3.1-1.1-3.1-3.1v-0.2c0-1.9,1.1-3,3.1-3c2,0,3.1,1.1,3.1,3v0.2
				C140.4,90.7,139.3,91.9,137.3,91.9 M140.4,114.9h-6.1V93.8h6.1V114.9z"/>
			<polygon class="st0" points="144.8,114.9 151,114.9 151,84.8 144.8,85.6 			"/>
			<path class="st0" d="M158.5,91.9c-2,0-3.1-1.1-3.1-3.1v-0.2c0-1.9,1.1-3,3.1-3c2,0,3.1,1.1,3.1,3v0.2
				C161.7,90.7,160.5,91.9,158.5,91.9 M161.6,114.9h-6.1V93.8h6.1V114.9z"/>
			<path class="st0" d="M177.5,108.8c-0.6,0.8-1.5,1.2-2.7,1.2c-1.7,0-3.6-0.6-3.6-5.6c0-3.9,1.4-5.9,4.3-5.9c0.8,0,1.4,0.1,2,0.3
				V108.8z M183.5,95c-0.9-0.5-3.3-1.7-7.4-1.7c-7.1,0-11.2,4.1-11.2,11.4c0,6.9,2.9,10.8,8.1,10.8c1.7,0,3.6-0.5,4.6-1.8
				c0.1-0.2,0.2-0.3,0.2-0.3l0.7,1.6h5.2v-7.4V95.1L183.5,95z"/>
			<polygon class="st0" points="78.8,85.6 71.7,104.8 64.5,85.6 58,85.6 56.1,114.9 62.2,114.9 63.2,99 69.3,114.9 74,114.9 
				80.1,99 81,114.9 87.3,114.9 85.3,85.6 			"/>
		</g>
	</g>
</g>
</svg>
