<svg id="Ebene_1" data-name="Ebene 1" xmlns="http://www.w3.org/2000/svg" viewBox="0 0 200 200"><defs><style>.cls-1{fill:#fff;}</style></defs><title>PanoramaCenter_Logo</title><path class="cls-1" d="M20.65,80.92c3.37-.34,11.56,12.9,13.23,12.92s5.09-2.62,6.28-2.53,6.75,5.82,6.75,5.82v-21H0v24.94C9.15,91.1,18.84,81.11,20.65,80.92Z"/><path class="cls-1" d="M27.81,116H27v1.16h.79a.58.58,0,1,0,0-1.16Z"/><path class="cls-1" d="M22.8,116H22v1.16h.79a.58.58,0,1,0,0-1.16Z"/><path class="cls-1" d="M17.48,115.94a.68.68,0,0,0-.56.25c-.13.16-.21.36-.21,1.4s.08,1.22.21,1.39a.71.71,0,0,0,.56.25A.74.74,0,0,0,18,119c.12-.17.2-.36.2-1.39s-.08-1.24-.2-1.4A.71.71,0,0,0,17.48,115.94Z"/><path class="cls-1" d="M41.05,108.07h-.62v3.19h.62a.71.71,0,0,0,.67-.32c.11-.15.15-.31.15-1.27s0-1.12-.15-1.28A.73.73,0,0,0,41.05,108.07Z"/><path class="cls-1" d="M40.44,93.44c-1.23-.49-4.25,3.78-6.64,3.07-2-.59-10-10.06-12.64-11.32C19.72,84.51,9.52,98,0,110.62v12.46H46.91V99.25S41.67,93.92,40.44,93.44Zm-4.39,11.67h1.07v1.16H36.05Zm-1.8,0h1.07v1.16H34.25ZM7,120.48a2.77,2.77,0,0,1-2.16-.75l.89-.9a1.84,1.84,0,0,0,1.27.4c.55,0,.82-.18.82-.51a.48.48,0,0,0-.11-.34.75.75,0,0,0-.38-.15l-.69-.09a2,2,0,0,1-1.14-.51,1.58,1.58,0,0,1-.39-1.14,1.84,1.84,0,0,1,2.08-1.8,2.53,2.53,0,0,1,1.91.68l-.87.88a1.42,1.42,0,0,0-1.08-.34c-.49,0-.69.28-.69.53a.38.38,0,0,0,.11.27.62.62,0,0,0,.39.16l.69.1a1.91,1.91,0,0,1,1.12.47,1.68,1.68,0,0,1,.42,1.25C9.14,119.85,8.14,120.48,7,120.48Zm2.23-12.41H7.78v4.44H6.39v-4.44H5v-1.25H9.18Zm5.16,12.36H13v-2.25H11.46v2.25h-1.4v-5.69h1.4v2.19H13v-2.19h1.39Zm.08-7.92H13v-2.25H11.53v2.25h-1.4v-5.69h1.4V109H13v-2.19h1.4Zm4.65,7.33a2.12,2.12,0,0,1-1.59.64,2.09,2.09,0,0,1-1.59-.64,4.67,4.67,0,0,1,0-4.51,2.09,2.09,0,0,1,1.59-.64,2.12,2.12,0,0,1,1.59.64,4.75,4.75,0,0,1,0,4.51Zm.85-9.33a2,2,0,0,1-2.16,2,2,2,0,0,1-2.15-2v-3.69H17v3.66a.76.76,0,1,0,1.52,0v-3.66h1.4Zm2.94,7.89H22v2h-1.4v-5.69h2.25a1.83,1.83,0,1,1,0,3.66Zm2.69-5.89H24.33l-1.82-2.86v2.86h-1.4v-5.69h1.22l1.83,2.86v-2.86h1.39Zm2.32,5.89H27v2h-1.4v-5.69h2.25a1.83,1.83,0,1,1,0,3.66Zm4.16,2h-1.4v-5.69H32Zm-1.66-7.87a2.79,2.79,0,0,1-2.16-.75l.9-.9a1.81,1.81,0,0,0,1.27.4c.55,0,.81-.18.81-.51a.46.46,0,0,0-.11-.33.61.61,0,0,0-.37-.16l-.69-.09a1.87,1.87,0,0,1-1.14-.51,1.53,1.53,0,0,1-.39-1.14,1.84,1.84,0,0,1,2.07-1.8,2.56,2.56,0,0,1,1.92.68l-.88.88a1.4,1.4,0,0,0-1.08-.33c-.48,0-.68.28-.68.52a.37.37,0,0,0,.11.27.68.68,0,0,0,.39.17l.69.09a1.91,1.91,0,0,1,1.12.47,1.68,1.68,0,0,1,.42,1.25C32.57,111.93,31.57,112.56,30.37,112.56Zm7.25,7.87H36.4l-1.83-2.86v2.86H33.18v-5.69H34.4l1.82,2.86v-2.86h1.4Zm.22-9.92a2.16,2.16,0,0,1-4.31,0v-3.69h1.4v3.66c0,.53.28.83.75.83a.74.74,0,0,0,.76-.83v-3.66h1.4ZM43,117.94a2.45,2.45,0,0,1-.57,1.9,2.37,2.37,0,0,1-3.24,0,4.75,4.75,0,0,1,0-4.51,2.11,2.11,0,0,1,1.58-.64A2.07,2.07,0,0,1,43,116.58h-1.4a.74.74,0,0,0-.82-.64.69.69,0,0,0-.55.25c-.13.16-.21.36-.21,1.4s.08,1.23.21,1.4a.68.68,0,0,0,.55.24.75.75,0,0,0,.84-.83v-.08h-.84v-1.17H43Zm-.29-6a2.15,2.15,0,0,1-1.54.56H39v-5.69h2.11a2.15,2.15,0,0,1,1.54.56,4.72,4.72,0,0,1,0,4.57Z"/><path class="cls-1" d="M61.89,89.79h-3v7.43H54V76.39h7.86a6.7,6.7,0,1,1,0,13.4ZM61.66,81H58.91V85.2h2.75a2.11,2.11,0,1,0,0-4.22Z"/><path class="cls-1" d="M80.51,97.22l-.92-3.1h-6.1l-1,3.1h-5.1l7.22-20.83h3.76l7.22,20.83ZM76.64,84.29l-1.79,5.56h3.46Z"/><path class="cls-1" d="M98.9,97.22,92.55,86.75V97.22H87.67V76.39h4.27l6.35,10.47V76.39h4.88V97.22Z"/><path class="cls-1" d="M119,95.06a7.74,7.74,0,0,1-11.09,0c-2.09-2.2-2-5.12-2-8.25s-.08-6.06,2-8.26a7.74,7.74,0,0,1,11.09,0c2.09,2.2,2,5.12,2,8.26S121.13,92.86,119,95.06Zm-3.59-13.38a2.43,2.43,0,0,0-2-.9,2.4,2.4,0,0,0-2,.9c-.45.62-.73,1.32-.73,5.13s.28,4.47.73,5.09a2.39,2.39,0,0,0,2,.93,2.41,2.41,0,0,0,2-.93c.44-.62.72-1.29.72-5.09S115.89,82.3,115.45,81.68Z"/><path class="cls-1" d="M133.76,97.22l-3.51-7.75H128.6v7.75h-4.87V76.39h7.86a6.49,6.49,0,0,1,6.77,6.7,6,6,0,0,1-3.23,5.44l4.29,8.69ZM131.36,81H128.6V85.2h2.76a2.11,2.11,0,1,0,0-4.22Z"/><path class="cls-1" d="M154.16,97.22l-.92-3.1h-6.1l-1,3.1h-5.1l7.22-20.83H152l7.22,20.83Zm-3.87-12.93-1.79,5.56H152Z"/><path class="cls-1" d="M175.14,97.22v-10l-2.82,5.16H169.2l-2.81-5.16v10h-4.88V76.39h4.79l4.46,9.19,4.46-9.19H180V97.22Z"/><path class="cls-1" d="M194.9,97.22l-.92-3.1h-6.11l-1,3.1h-5.1L189,76.39h3.76L200,97.22ZM191,84.29l-1.78,5.56h3.46Z"/><path class="cls-1" d="M60.9,123.44a7.23,7.23,0,0,1-5.52-2.34c-2.09-2.2-2-5.13-2-8.26s-.08-6,2-8.25a7.23,7.23,0,0,1,5.52-2.34c3.76,0,6.8,2.19,7.53,6.79h-5a2.5,2.5,0,0,0-2.53-2.23,2.36,2.36,0,0,0-1.93.88c-.44.62-.75,1.35-.75,5.15s.31,4.54.75,5.15a2.33,2.33,0,0,0,1.93.88,2.49,2.49,0,0,0,2.53-2.22h5C67.7,121.24,64.66,123.44,60.9,123.44Z"/><path class="cls-1" d="M71.23,123.26V102.42H84.72V107H76.11v3.48h7.17V115H76.11v3.66h8.61v4.56Z"/><path class="cls-1" d="M98.9,123.26l-6.35-10.48v10.48H87.67V102.42h4.27l6.35,10.48V102.42h4.88v20.84Z"/><path class="cls-1" d="M115.93,107v16.27h-4.87V107h-4.88v-4.57h14.63V107Z"/><path class="cls-1" d="M123.73,123.26V102.42h13.49V107H128.6v3.48h7.17V115H128.6v3.66h8.62v4.56Z"/><path class="cls-1" d="M150.19,123.26l-3.51-7.75H145v7.75h-4.88V102.42H148a6.5,6.5,0,0,1,6.78,6.7,6,6,0,0,1-3.23,5.45l4.29,8.69ZM147.79,107H145v4.21h2.76a2.11,2.11,0,1,0,0-4.21Z"/></svg>