<?xml version="1.0" encoding="utf-8"?>
<!-- Generator: Adobe Illustrator 24.1.0, SVG Export Plug-In . SVG Version: 6.00 Build 0)  -->
<svg version="1.1" xmlns="http://www.w3.org/2000/svg" xmlns:xlink="http://www.w3.org/1999/xlink" x="0px" y="0px"
	 viewBox="0 0 200 200" style="enable-background:new 0 0 200 200;" xml:space="preserve">
<style type="text/css">
	.st0{fill:#FFFFFF;}
	.st1{fill:none;}
</style>
<g id="Ebene_1">
	<g id="Ebene_2_1_">
		<path class="st0" d="M68.5,76.1c0.9,1.4,2.2,2.5,3.8,3.1c4.4,1.7,9.2,1.6,13.5-0.2c2.1-1,3.9-2.3,5.4-4c1.5-1.7,2.8-3.6,3.6-5.7
			c0.9-2.3,1.3-4.8,1.3-7.3c0-2.2-0.4-4.4-1.2-6.5c-0.7-1.8-1.8-3.4-3.2-4.8c-1.3-1.3-2.9-2.3-4.6-2.9c-1.8-0.7-3.8-1-5.7-1
			c-1.9,0-3.7,0.3-5.5,0.9c-1.4,0.5-2.7,1.4-3.6,2.6l2.6-18.6h-9.9l-6.7,48h9.2L68.5,76.1z M72.9,58.2c1.5-1.7,3.7-2.6,6-2.6
			c1.9,0,3.7,0.7,5.1,2c1.4,1.4,2.2,3.4,2.1,5.4c0,1.2-0.2,2.4-0.6,3.5c-0.4,1-1,1.8-1.7,2.6c-0.7,0.7-1.6,1.3-2.6,1.7
			c-1,0.4-2.1,0.6-3.3,0.6c-1.9,0-3.7-0.6-5.1-1.8c-1.5-1.4-2.3-3.3-2.2-5.3C70.6,62,71.4,59.9,72.9,58.2z"/>
		<path class="st0" d="M100,79.7h9.8l3.4-23.9h7.7l1-7.9h-7.5l0.3-2.6c0.1-1.3,0.7-2.6,1.6-3.6c1-0.8,2.1-1.1,3.4-1.1h1.3l1.6,0.2
			l1.4-8.6l-1.8-0.3c-1.2-0.2-2.4-0.3-3.6-0.3c-7.8,0-12.3,4-13.4,11.9l-0.6,4.3H100l-1,7.9h4.3L100,79.7z"/>
		<path class="st0" d="M147.6,47.9l-2.6,17.4c0,2-1,3.9-2.6,5.1c-1.3,0.8-2.7,1.2-4.2,1.3c-1.3,0-2.5-0.3-3.6-1
			c-1.2-1-1.9-2.5-1.7-4.1c0-0.2,0-0.4,0-0.6c0-0.3,0-0.6,0-0.9l2.4-17.3h-9.7l-2.6,18.3c0,0.5-0.2,1.1-0.2,1.6
			c-0.1,0.5,0,1.1,0,1.7c-0.3,3.3,0.9,6.5,3.4,8.6c2.5,1.6,5.4,2.5,8.3,2.4c1.7,0,3.5-0.3,5.1-0.8c1.5-0.5,2.9-1.3,4.1-2.4v2.4h9.2
			l4.3-31.7H147.6z"/>
		<path class="st0" d="M61.7,95.1c-0.7-1.7-1.8-3.3-3.2-4.7c-1.3-1.3-3-2.4-4.7-3.1c-1.8-0.7-3.8-1-5.8-1c-1.9,0-3.7,0.3-5.4,0.9
			c-1.4,0.5-2.7,1.4-3.6,2.6l2.6-18.6h-9.8l-6.7,48h9.2l1-3.5c0.9,1.4,2.3,2.5,3.8,3.1c2.1,0.9,4.4,1.3,6.7,1.2
			c2.4,0,4.7-0.5,6.8-1.4c2.1-0.9,3.9-2.2,5.4-3.9c1.5-1.7,2.7-3.7,3.5-5.8c0.9-2.3,1.3-4.8,1.3-7.3C62.9,99.4,62.5,97.2,61.7,95.1z
			 M52.3,106.1c-0.4,1-1,1.8-1.7,2.6c-0.7,0.8-1.6,1.3-2.6,1.7c-1,0.4-2.1,0.7-3.2,0.6c-1.9,0-3.7-0.6-5.1-1.9
			c-1.5-1.3-2.3-3.3-2.2-5.3c-0.1-2.3,0.8-4.5,2.4-6.2c1.5-1.7,3.7-2.6,6-2.6c3.8-0.2,7.1,2.7,7.3,6.6c0,0.3,0,0.6,0,0.8
			C53,103.7,52.8,105,52.3,106.1z"/>
		<path class="st0" d="M91.2,118.8c2-0.8,3.9-2,5.5-3.6c1.6-1.6,2.9-3.5,3.7-5.7c0.9-2.4,1.4-4.9,1.4-7.5c0.1-2.4-0.4-4.7-1.2-6.9
			c-0.8-1.8-1.9-3.4-3.3-4.8c-1.4-1.3-3-2.3-4.8-2.9c-1.8-0.6-3.8-1-5.7-1c-1.8,0-3.7,0.3-5.4,0.9c-1.5,0.5-2.8,1.5-3.8,2.8v-2.8
			h-9.2l-6.6,47h9.8l2.7-18.4c1,1.3,2.4,2.3,4,2.9c2,0.8,4.1,1.2,6.3,1.2C86.9,120.1,89.1,119.7,91.2,118.8z M78.4,109.3
			c-1.4-1.4-2.2-3.3-2.1-5.3c-0.1-2.3,0.8-4.5,2.4-6.2c1.5-1.7,3.7-2.6,5.9-2.6c2-0.1,3.9,0.6,5.3,1.9c1.4,1.4,2.2,3.3,2.1,5.3
			c0,1.2-0.2,2.4-0.7,3.5c-0.4,1-1.1,1.8-1.8,2.6c-0.7,0.8-1.6,1.4-2.6,1.8c-1,0.4-2.1,0.7-3.3,0.6c-1.9,0.2-3.8-0.5-5.3-1.7H78.4z"
			/>
		<path class="st0" d="M137.6,119.2l4.5-31.8h-9l-0.9,3.3c-1.1-1.4-2.6-2.5-4.3-3.2c-2-0.8-4.1-1.2-6.3-1.2c-2.3,0-4.6,0.4-6.7,1.3
			c-2,0.9-3.9,2.1-5.4,3.7c-1.6,1.7-2.8,3.7-3.6,5.8c-0.9,2.5-1.3,5.1-1.3,7.7c0,2,0.3,4.1,1,6c0.6,1.7,1.6,3.3,2.9,4.7
			c1.3,1.4,2.8,2.4,4.5,3.1c1.9,0.8,3.9,1.1,6,1.1c1.8,0,3.7-0.3,5.4-0.8c1.6-0.5,3.1-1.5,4.2-2.8v2.9L137.6,119.2z M127.3,108.8
			c-1.5,1.6-3.6,2.6-5.9,2.6c-1.9,0.1-3.8-0.6-5.1-1.9c-1.4-1.4-2.1-3.4-2-5.4c0-1.2,0.3-2.3,0.8-3.4c0.4-1,1-1.9,1.8-2.7
			c0.7-0.7,1.6-1.3,2.6-1.8c1-0.4,2-0.6,3.1-0.6c1.9-0.1,3.7,0.6,5.1,1.9c1.5,1.4,2.2,3.3,2.1,5.4c0,1.2-0.2,2.3-0.6,3.4
			C128.8,107.1,128.2,108,127.3,108.8L127.3,108.8z"/>
		<path class="st0" d="M104.4,127l-2.6,17.4c0,2-1,3.9-2.6,5.1c-1.3,0.8-2.7,1.2-4.2,1.3c-1.3,0-2.5-0.4-3.6-1c-1.2-1-1.9-2.5-1.7-4
			c0-0.2,0-0.4,0-0.6c0-0.3,0-0.6,0-0.9l2.6-17.3h-9.8l-2.6,18.3c0,0.6-0.2,1.1-0.2,1.6c0,0.5,0,1.1,0,1.7c-0.3,3.3,0.9,6.5,3.4,8.6
			c2.4,1.7,5.4,2.6,8.3,2.6c1.7,0,3.5-0.3,5.1-0.8c1.5-0.5,2.9-1.3,4.1-2.4v2.4h9l4.5-31.8L104.4,127z"/>
		<path class="st0" d="M148.1,129.9c-1.4-1.3-3-2.3-4.8-2.9c-1.8-0.7-3.8-1-5.7-1c-1.8,0-3.6,0.3-5.4,1c-1.5,0.5-2.8,1.5-3.8,2.7
			v-2.6h-9.2l-6.5,46.9h9.8l2.6-18.6c1.1,1.3,2.4,2.3,4,3c2,0.8,4.1,1.2,6.3,1.2c2.3,0,4.5-0.4,6.6-1.3c2-0.8,3.9-2,5.5-3.6
			c1.6-1.6,2.8-3.5,3.7-5.6c1-2.4,1.5-4.9,1.5-7.5c0-2.4-0.4-4.7-1.2-6.9C150.7,132.9,149.6,131.3,148.1,129.9z M142,145.6
			c-0.4,1-1,1.8-1.8,2.6c-1.6,1.6-3.7,2.5-5.9,2.4c-1.9,0.1-3.7-0.6-5.1-1.9c-1.4-1.4-2.2-3.3-2.1-5.3c-0.1-2.3,0.8-4.5,2.3-6.2
			c1.5-1.7,3.7-2.6,5.9-2.6c1.9-0.1,3.8,0.6,5.3,1.9c1.4,1.4,2.1,3.4,2,5.4C142.7,143.2,142.5,144.4,142,145.6z"/>
		<polygon class="st0" points="153.9,158.8 163.8,158.8 168.2,127 158.3,127 		"/>
		<path class="st0" d="M169.2,112.3c-0.9-1-2.2-1.5-3.6-1.4c-1.7,0-3.3,0.7-4.5,1.8c-1.2,1.1-1.9,2.7-1.9,4.3c0,1.3,0.5,2.6,1.4,3.5
			c0.9,1,2.2,1.5,3.5,1.4c0.8,0,1.7-0.2,2.4-0.5c0.8-0.3,1.4-0.8,2-1.4c0.6-0.6,1.1-1.2,1.4-2c0.3-0.7,0.5-1.6,0.5-2.4
			C170.4,114.5,170,113.3,169.2,112.3z"/>
	</g>
</g>
<g id="Schutzzone">
	<g id="Ebene_1_1_">
		<rect x="31.8" y="47.9" class="st1" width="136.4" height="110.9"/>
		<line class="st1" x1="0" y1="16.1" x2="200" y2="190.4"/>
		<line class="st1" x1="200" y1="16.1" x2="0" y2="190.4"/>
	</g>
</g>
</svg>
