<svg id="Ebene_1" data-name="Ebene 1" xmlns="http://www.w3.org/2000/svg" viewBox="0 0 200 200"><defs><style>.cls-1,.cls-2{fill:#fff;}.cls-2{fill-rule:evenodd;}</style></defs><title>3</title><path class="cls-1" d="M100.52,45.19,98.43,93.44l-9.16-23.7L94,93.7,79.17,73.79,89.66,94.27l-36.82-26,32.44,27L64.57,87.57l16.64,9.59c-15.47,0-34-12.24-39.68-37.62,0,0,33.07.38,44.11,15.08-2.08-20.71,12.22-40.23,14.88-42.9,2.67,2.67,17,22.19,14.89,42.9,11-14.7,44.11-15.08,44.11-15.08-5.69,25.38-24.21,37.62-39.69,37.62l16.64-9.59-20.7,7.71,32.43-27-36.81,26,10.49-20.48L107,93.7l4.77-24-9.15,23.7-2.1-48.25Z"/><path class="cls-1" d="M64.57,133.78l-.14-3.21H51.61l-.13,3.21a.65.65,0,0,0,.2,0c.35,0,.6-.49.84-.91a2,2,0,0,1,2.09-1.09h1.65V145.4a9.65,9.65,0,0,1,3.5,0V131.82h1.65A2,2,0,0,1,63.57,133c.22.4.46.82.8.82a.71.71,0,0,0,.2,0Z"/><path class="cls-2" d="M78.84,139.37c0-4-2.56-6.44-6.53-6.44-3.63,0-6.81,2.32-6.81,6.17,0,4.1,2.56,6.59,6.59,6.59,3.79,0,6.75-2.41,6.75-6.32Zm-3.5-.11c0,1.91-.46,5.21-3,5.21-2.85,0-3.34-2.88-3.34-5.12,0-2.08.47-5.21,3.14-5.21s3.2,3.05,3.2,5.12Z"/><path class="cls-2" d="M92.91,142.06c0-2.11-2.09-3.29-4-3.45a3,3,0,0,0,3-2.79c0-1.42-1.29-2.13-2.56-2.38a15.78,15.78,0,0,0-3.12-.19H81c0,.42.58.64.84.93a2.74,2.74,0,0,1,.52,2v9.24h5.12a7.79,7.79,0,0,0,3.65-.58,3,3,0,0,0,1.8-2.76Zm-4.19-5.92c0,1.76-.91,2.27-2.56,2.27a5,5,0,0,1-.55,0v-3.72c0-.34.13-.38.69-.38,1.13,0,2.42.29,2.42,1.85Zm.72,5.7c0,1.71-.85,2.45-2.5,2.45-.93,0-1.33-.09-1.33-.85v-3.87h.44a9.72,9.72,0,0,1,1.63.11,2.07,2.07,0,0,1,1.76,2.16Z"/><path class="cls-2" d="M107.26,145.4,103,134.69c-.38-.95-.62-1.44-1.56-1.44H97.81c0,.66,1.19.51,1.19,1.44a4.47,4.47,0,0,1-.41,1.34l-4,9.37h1.52l1.49-3.49h4.85l1.36,3.49a8.94,8.94,0,0,1,1.69-.13,12.15,12.15,0,0,1,1.81.13Zm-5.32-4.81H98.1l2-4.74,1.81,4.74Z"/><path class="cls-1" d="M119.68,136.6l-.13-2.75a7.08,7.08,0,0,0-3.48-.83c-3.65,0-6.92,2.41-6.92,6.28,0,4,3,6.3,6.88,6.3a5.65,5.65,0,0,0,3.58-1.07v-1.78a4,4,0,0,1-3,1.49c-2.85,0-4-2.62-4-5.12,0-2.27,1.13-4.92,3.67-4.92a2.45,2.45,0,0,1,1.6.47,3,3,0,0,1,.85,1.38.78.78,0,0,0,.69.62.34.34,0,0,0,.22-.07Z"/><path class="cls-1" d="M133.1,136.6l-.13-2.75a7.07,7.07,0,0,0-3.47-.83c-3.65,0-6.93,2.41-6.93,6.28,0,4,3.05,6.3,6.88,6.3a5.66,5.66,0,0,0,3.59-1.07v-1.78a4,4,0,0,1-3,1.49c-2.85,0-4-2.62-4-5.12,0-2.27,1.13-4.92,3.67-4.92a2.44,2.44,0,0,1,1.6.47,3,3,0,0,1,.85,1.38.78.78,0,0,0,.69.62.32.32,0,0,0,.22-.07Z"/><path class="cls-2" d="M149.33,139.37c0-4-2.56-6.44-6.52-6.44-3.63,0-6.81,2.32-6.81,6.17,0,4.1,2.56,6.59,6.59,6.59,3.78,0,6.74-2.41,6.74-6.32Zm-3.49-.11c0,1.91-.47,5.21-3,5.21-2.85,0-3.34-2.88-3.34-5.12,0-2.08.47-5.21,3.14-5.21s3.21,3.05,3.21,5.12Z"/><path class="cls-2" d="M13.09,118.7c0-2.58-2.42-3.94-4.56-4.14a3.57,3.57,0,0,0,3.41-3.45c0-1.76-1.47-2.63-2.94-2.92A16.29,16.29,0,0,0,5.44,108H0c0,.5.73.8,1,1.13a3.59,3.59,0,0,1,.53,2.41v11.28H6.82a8.8,8.8,0,0,0,4.18-.68,3.79,3.79,0,0,0,2.09-3.39Zm-4.56-7.08c0,2-1,2.69-2.9,2.69a3.44,3.44,0,0,1-.64,0v-4.72c0-.4.16-.49.8-.49a2.47,2.47,0,0,1,2.74,2.56Zm.85,6.81c0,2.1-1,3.14-2.83,3.14-1.09,0-1.56-.11-1.56-1v-5h.53a4.07,4.07,0,0,1,3.3,1.14,2.94,2.94,0,0,1,.56,1.71Z"/><path class="cls-2" d="M29.69,122.64c0-.07,0-.09-.13-.11l-.38-.07A4.65,4.65,0,0,1,27,121c-.69-.69-1.56-1.78-2.56-2.94l-1.11-1.29c1.22-.42,2.91-1.47,2.91-3.16a2.54,2.54,0,0,0-.73-1.82c-1.07-1-2.74-1.16-4.32-1.16H15c0,.46.47.49.84.91a2.67,2.67,0,0,1,.54,1.92v9.32a9.7,9.7,0,0,1,1.67-.13,9.3,9.3,0,0,1,1.6.13v-5.18a1.3,1.3,0,0,1,.91.42c1,1,2.21,3.41,3.79,4.28a7.4,7.4,0,0,0,3.14.6,19.1,19.1,0,0,0,2.11-.12.11.11,0,0,0,.09-.13Zm-6.77-8.71c0,1.43-.55,2.61-2.15,2.61-.54,0-1.12,0-1.12-.6v-4.12a4.41,4.41,0,0,1,1.2-.11,2.11,2.11,0,0,1,1.45.49,2.3,2.3,0,0,1,.62,1.73Z"/><path class="cls-1" d="M35.07,122.77V111a.31.31,0,0,0-.33-.35H30.42c0,.42.44.46.82.91a2.73,2.73,0,0,1,.56,2v9.24a10,10,0,0,1,1.62-.13,10.62,10.62,0,0,1,1.65.13Z"/><path class="cls-1" d="M49,113.43l-.09-2.81H38.14L38,113.45l.16,0c.25,0,.43-.25.58-.54a1.65,1.65,0,0,1,1.85-1.11h1.27v11a10.92,10.92,0,0,1,1.65-.13,11.87,11.87,0,0,1,1.62.13v-11h1.27A1.71,1.71,0,0,1,48.34,113c.13.27.31.45.51.45a.34.34,0,0,0,.15,0Z"/><path class="cls-1" d="M55.32,122.77V111a.31.31,0,0,0-.33-.35H50.67c0,.42.44.46.82.91a2.73,2.73,0,0,1,.56,2v9.24a9.94,9.94,0,0,1,1.62-.13,10.82,10.82,0,0,1,1.65.13Z"/><path class="cls-1" d="M67.31,119.41c0-4.12-5.47-3.78-5.47-6.41,0-1,1-1.51,1.87-1.51a2.7,2.7,0,0,1,1.22.26,2.31,2.31,0,0,1,1,1.16c.27.64.47.91.87.91a.39.39,0,0,0,.2-.06L66.8,111a7.56,7.56,0,0,0-3.18-.63,6.8,6.8,0,0,0-2.94.63,3.19,3.19,0,0,0-1.94,2.76c0,4.16,5.37,3.63,5.37,6.46a1.72,1.72,0,0,1-1.92,1.58c-1.69,0-2.8-1.14-3.7-2.48v2.77a8,8,0,0,0,3.92.91c2.72,0,4.9-1.34,4.9-3.61Z"/><path class="cls-1" d="M82.07,122.77V110.62H78.8v4.92H73.93V111a.32.32,0,0,0-.34-.33h-4.3c0,.46.49.49.89,1a2.94,2.94,0,0,1,.47,1.89v9.26a9.33,9.33,0,0,1,1.67-.13,8.81,8.81,0,0,1,1.61.13v-5.92H78.8v5.92a9.26,9.26,0,0,1,1.67-.13,8.57,8.57,0,0,1,1.6.13Z"/><path class="cls-2" d="M106.46,122.77l-4.95-13.07c-.42-1.15-.75-1.75-1.82-1.75H96c0,.82,1.22.53,1.22,1.75a5,5,0,0,1-.47,1.65L92,122.77H93.7l1.78-4.38h5.79l1.58,4.38a9.72,9.72,0,0,1,1.74-.15,11.42,11.42,0,0,1,1.87.15Zm-5.7-5.78h-4.7l2.49-6.08,2.21,6.08Z"/><path class="cls-1" d="M124.21,122.77,122.56,114a13,13,0,0,1-.27-2.36,1.94,1.94,0,0,1,.22-1h-2.34c-.75,0-.93.31-1.24,1l-2.74,5.9-2.9-6.37c-.18-.42-.28-.51-.75-.51h-3.68c0,.35.34.53.71.82a1.53,1.53,0,0,1,.63,1.32,6.32,6.32,0,0,1-.11.86l-2,9.15h1.49l1.81-8.57,3.78,8.77,4.12-9,1.69,8.75a10.41,10.41,0,0,1,3.28,0Z"/><path class="cls-1" d="M136.32,120.17a.53.53,0,0,0-.19,0c-.76,0-.32,1.39-2.5,1.39h-2.74V116.9h4.25v-1.34h-4.25v-3.7h3.43a2.31,2.31,0,0,1,1.38.41l-.06-1.65h-9.4c0,.44.45.51.82.91a2.63,2.63,0,0,1,.56,1.94v8.3c0,.92.07,1,1,1h6.88c.49,0,.58-.39.65-1.06l.15-1.54Z"/><path class="cls-2" d="M152.75,122.64c0-.07-.05-.09-.14-.11l-.38-.07a4.65,4.65,0,0,1-2.16-1.47c-.69-.69-1.55-1.78-2.56-2.94l-1.11-1.29c1.22-.42,2.92-1.47,2.92-3.16a2.51,2.51,0,0,0-.74-1.82c-1.07-1-2.74-1.16-4.32-1.16h-6.21c0,.46.47.49.85.91a2.73,2.73,0,0,1,.53,1.92v9.32a9.77,9.77,0,0,1,1.67-.13,9.41,9.41,0,0,1,1.61.13v-5.18a1.31,1.31,0,0,1,.91.42c1,1,2.2,3.41,3.78,4.28a7.43,7.43,0,0,0,3.14.6,19.44,19.44,0,0,0,2.12-.12.12.12,0,0,0,.09-.13ZM146,113.93c0,1.43-.56,2.61-2.17,2.61-.53,0-1.1,0-1.1-.6v-4.12a4.36,4.36,0,0,1,1.2-.11,2.11,2.11,0,0,1,1.44.49,2.3,2.3,0,0,1,.63,1.73Z"/><path class="cls-1" d="M158.13,122.77V111a.31.31,0,0,0-.34-.35h-4.32c0,.42.45.46.83.91a2.74,2.74,0,0,1,.55,2v9.24a10.07,10.07,0,0,1,1.63-.13,10.82,10.82,0,0,1,1.65.13Z"/><path class="cls-1" d="M172.05,114l-.13-2.76a7,7,0,0,0-3.47-.83c-3.65,0-6.93,2.41-6.93,6.28,0,4.06,3,6.3,6.88,6.3a5.65,5.65,0,0,0,3.59-1.06v-1.79a4,4,0,0,1-3,1.5c-2.85,0-4-2.63-4-5.12,0-2.28,1.13-4.93,3.67-4.93a2.54,2.54,0,0,1,1.61.47,2.93,2.93,0,0,1,.84,1.39c.14.39.4.62.69.62a.38.38,0,0,0,.22-.07Z"/><path class="cls-2" d="M186.73,122.77l-4.3-10.71c-.38-1-.62-1.44-1.56-1.44h-3.58c0,.67,1.17.51,1.17,1.44a4.44,4.44,0,0,1-.4,1.34L174,122.77h1.52l1.49-3.49h4.85l1.36,3.49a9.77,9.77,0,0,1,1.69-.13,13.77,13.77,0,0,1,1.81.13ZM181.4,118h-3.83l2-4.75,1.8,4.75Z"/><path class="cls-1" d="M199.93,122.77V110.62h-1.54l.13,8.12L192.18,111a.87.87,0,0,0-.8-.4H188c0,.42.57.64.85.93a2.6,2.6,0,0,1,.53,2v9.24h1.51l-.11-8.59,5.55,6.86a5.47,5.47,0,0,0,1.24,1.18,4.08,4.08,0,0,0,2.12.55Z"/><path class="cls-1" d="M42.74,158.38a3.27,3.27,0,0,0-2.51-1,2.67,2.67,0,0,0-2.9,2.4c0,1.43.94,2.06,1.78,2.71s2.35,1.44,2.35,2.71a1.59,1.59,0,0,1-1.77,1.67,3.66,3.66,0,0,1-2.2-.88l-.63.84a4.28,4.28,0,0,0,2.86,1.06,2.91,2.91,0,0,0,3.15-2.66c0-1.3-.81-2.23-2.2-3.25s-1.93-1.48-1.93-2.2a1.39,1.39,0,0,1,1.58-1.38,3.22,3.22,0,0,1,1.75.72l.67-.72Z"/><path class="cls-1" d="M52.59,157.54c-.83,2.74-1.67,5.48-2.48,8.57h0c-.79-3.13-1.59-5.93-2.38-8.72l-1.34.29,3,10H50.6c.81-2.7,1.64-5.39,2.44-8.38h0c.79,3,1.59,5.68,2.41,8.38h1.24l3.15-10.09-1.13-.21c-.84,2.79-1.67,5.59-2.5,8.72h0c-.81-3.09-1.63-5.83-2.46-8.57Z"/><polygon class="cls-1" points="65.95 167.69 65.95 157.54 64.54 157.54 64.54 167.69 65.95 167.69 65.95 167.69"/><polygon class="cls-1" points="75.38 167.69 75.38 158.55 78.64 158.55 78.64 157.54 70.72 157.54 70.72 158.55 73.97 158.55 73.97 167.69 75.38 167.69 75.38 167.69"/><polygon class="cls-1" points="90.43 157.54 83.67 157.54 83.67 158.47 88.61 158.47 82.7 167.2 82.7 167.69 90.56 167.69 90.56 166.77 84.56 166.77 90.43 157.93 90.43 157.54 90.43 157.54"/><polygon class="cls-1" points="100.78 157.54 95.77 157.54 95.77 167.69 101.4 167.69 101.4 166.68 97.18 166.68 97.18 162.85 100.7 162.85 100.7 161.83 97.18 161.83 97.18 158.55 100.78 158.55 100.78 157.54 100.78 157.54"/><path class="cls-2" d="M107.87,158.55h1.2a1.57,1.57,0,0,1,1.73,1.73,2,2,0,0,1-2.13,2.19h-.8v-3.92Zm-1.41,9.14h1.41v-4.2h1.49l2.35,4.38,1.42-.44-2.52-4.32a3.29,3.29,0,0,0,1.7-3c0-1.76-1.29-2.61-3-2.61h-2.9v10.15Z"/><polygon class="cls-1" points="118.01 167.69 123.64 167.69 123.64 166.68 119.41 166.68 119.41 157.54 118.01 157.54 118.01 167.69 118.01 167.69"/><path class="cls-2" d="M131.32,157.54l-4.13,10.15h1.36l1.09-3h3.87l1.05,3h1.62l-3.78-10.15ZM130,163.69a48.29,48.29,0,0,0,1.61-4.64h0c.51,1.83,1,3.23,1.51,4.64Z"/><path class="cls-1" d="M149.72,157.54h-1.16v8.09h0c-.68-1-4.43-5.45-6.66-8.09h-1.05v10.15H142v-8.08h0c.61.89,4.4,5.44,6.6,8.08h1.11V157.54Z"/><path class="cls-2" d="M155.63,157.54v10.15h3c3.6,0,5.75-2,5.75-5.38,0-2.44-1.42-4.77-5.52-4.77Zm1.41,1h1.87c2.67,0,3.94,1.47,3.94,3.73,0,3-1.38,4.4-4.24,4.4H157v-8.13Z"/></svg>