<svg id="Ebene_1" data-name="Ebene 1" xmlns="http://www.w3.org/2000/svg" viewBox="0 0 200 200"><defs><style>.cls-1,.cls-2{fill:#fff;}.cls-1{fill-rule:evenodd;}</style></defs><title>Perskindol_Logo</title><path class="cls-1" d="M189.26,76.15V74.44h1.37c.55,0,1.21.11,1.21.81s-.49.9-1.69.9m.8.52c.89,0,1.58-.43,1.58-1.42a1.22,1.22,0,0,0-.57-1.07,2.26,2.26,0,0,0-1.21-.25h-2.13v5h.64V76.67h1l1.41,2.26h.76Zm-.58,3.63a3.68,3.68,0,0,1-3.61-3.87,3.6,3.6,0,1,1,7.19,0A3.67,3.67,0,0,1,190.37,80.3Zm0,.6a4.48,4.48,0,1,0-4.21-4.47A4.34,4.34,0,0,0,190.37,80.9Z"/><path class="cls-2" d="M12.7,33.69a9.94,9.94,0,0,0-5.56-1.47H0V64.82H6.29V51.66l1,.05c5.58,0,9.05-3.72,9.05-9.72C16.3,38.08,15.09,35.29,12.7,33.69ZM10.85,42.2c0,3.22-1.37,4.5-4.7,4.42V37.93H7.6C9.76,37.93,10.85,39.36,10.85,42.2Z"/><polygon class="cls-2" points="26.39 51.23 32.05 51.23 32.05 44.39 26.39 44.39 26.39 37.71 33.32 37.72 33.32 30.89 19.72 30.89 19.72 65.01 33.48 65 33.48 58.16 26.39 58.16 26.39 51.23"/><path class="cls-2" d="M54.71,39.42c0-10.49-7.94-10.49-10.92-10.49H37.46V65.09h6.59v-15l4.79,15h6.95L50.48,48.74C53.25,46.83,54.71,43.62,54.71,39.42Zm-6.78,0c0,2.18-.6,4.78-3.48,4.78l-.76,0V35.34h.52C47.27,35.15,47.93,37.5,47.93,39.46Z"/><path class="cls-2" d="M68.05,43.26c-2.13-1.7-4-3.16-4-5.62,0-2,1.13-3.26,3-3.26a6.75,6.75,0,0,1,4.54,2.23l.52.49V29.24L72,29.15a10.93,10.93,0,0,0-6-1.82c-5.3,0-9,4.51-9,11,0,5.36,2.4,8.19,6.26,11l.77.58c1.61,1.19,3,2.22,3,4.47A3.41,3.41,0,0,1,63.55,58a7.66,7.66,0,0,1-4.79-1.86l-.49-.36v7.58l.11.09a9.88,9.88,0,0,0,5.83,1.89c6,0,9.89-4.55,9.89-11.6C74.1,48.08,70.89,45.52,68.05,43.26Z"/><polygon class="cls-2" points="97.36 27.5 89.63 27.5 84.27 42.84 84.27 27.5 76.72 27.5 76.72 65.1 84.27 65.1 84.27 47.51 90.23 65.1 98.2 65.1 90.78 44.87 97.36 27.5"/><rect class="cls-2" x="100.06" y="27.5" width="7.2" height="37.59"/><path class="cls-2" d="M126.18,44.43a31.49,31.49,0,0,0,.15,3.19L119,27.5H112.1V65.1h7.2V47.81l0-1.54-.16-1.92,7.54,20.75h6.74V27.5h-7.19Z"/><path class="cls-2" d="M151.85,31.71a12.28,12.28,0,0,0-8.08-2.82c-.44,0-.79,0-1,0H137.4V65.09h6c9.16,0,13.8-6,13.8-17.8C157.16,40,155.37,34.73,151.85,31.71Zm-8.31,26.9h0V36.3c5.47.25,7.52,7.16,7.52,11.55S148.71,58.61,143.54,58.61Z"/><path class="cls-2" d="M172,29.89c-8.48,0-11.5,9.08-11.5,17.59s3,17.61,11.5,17.61c5.55,0,11.48-4.63,11.48-17.61S177.53,29.89,172,29.89ZM172,60a3.55,3.55,0,0,1-2.55-1.14c-2.11-2.14-3-6.84-3-10.55.09-9,3-12.15,5.51-12.15a3.72,3.72,0,0,1,2.73,1.28c1.95,2,3.17,6.57,3,11a24.41,24.41,0,0,1-1.5,7.61C175.17,58.64,173.76,60,172,60Z"/><polygon class="cls-2" points="193.72 58.27 193.72 32.24 187.1 32.24 187.1 64.82 200 64.82 200 58.27 193.72 58.27"/><path class="cls-2" d="M167.13,102.38c4.09,6.71,4.39,10.65,4.39,10.65,12.24-16.34,1.17-40.32,1.17-40.32h-9.31a.48.48,0,0,1-.08.16c-.07.08-6.78,8-3.39,23.13a16.77,16.77,0,0,1-2.46,18.87.36.36,0,0,1-.38.11.37.37,0,0,1-.25-.3c0-.07-.85-6.65-4.8-9.09a23.35,23.35,0,0,1-4.53,12,46,46,0,0,1-8.14,8.69s-4.21,4-6.23,13.15a.35.35,0,0,1-.44.27c-.29-.07-2.79-1-1.58-10.13,0-.05.53-3.52-2.53-8.78-.81,1.93-3.61,7.46-10.91,13.14-.1.07-7.48,4.87-9.3,11.65a25.14,25.14,0,0,0-1.29,8.56.35.35,0,0,1-.23.33.31.31,0,0,1-.13,0,.39.39,0,0,1-.27-.11c-.27-.3-6.76-7.32-6.76-15.24a57.53,57.53,0,0,1,0-8.67,25.31,25.31,0,0,0-5.25-14.76c1.3,4,3.44,13.31-1,22.8a.35.35,0,0,1-.37.2.36.36,0,0,1-.31-.29c0-.15-2.65-14.71-10-21.52a6,6,0,0,0-2.22,2.74c-1,2.18-2.19,6.46-1.63,14.43a.35.35,0,0,1-.47.36c-.23-.07-22.8-7.64-21.54-30.33-2.12,1.36-9.53,7.1-10.18,21.15a.36.36,0,0,1-.68.14,55.15,55.15,0,0,0-6.32-10.33,22.62,22.62,0,0,1-3.41-7,29.91,29.91,0,0,1,.51-18.52s0,0,0-.06a38.14,38.14,0,0,0,3.49-16.37.35.35,0,0,1,.34-.36v0l-13.82,0a57.87,57.87,0,0,0-2.5,6.6C21.33,91.14,25.56,98,25.56,98c2.48,7.59.75,10.94.75,10.94C24,119.45,26,122.52,26,122.52a20.24,20.24,0,0,0,7.46,10.8,23,23,0,0,1,.72-8c4.09,9.19,9,11.68,9,11.68,6.29,3.5,6.29,7.59,6.29,7.59,3.64-4.09,0-10.81,0-10.81a18.66,18.66,0,0,1,2.17-13.42c-.14,9.63,13,16,13,16,8.32,5.25,2.92,12,2.92,12,11.24.43,16.12-14.94,16.12-14.94A40.81,40.81,0,0,1,86.28,146c2.34,11.53,5.68,12.1,5.68,12.1.17-7.44,2.34-10.06,2.34-10.06a32.18,32.18,0,0,0,17.8,24.21c-7.73-14,.93-24.8.93-24.8,8-6.86,12.37-18.54,12.37-18.54a28,28,0,0,1-.59,8.33c.14,12.85,8.18,14.45,8.18,14.45-2.06-7.3,5.54-16.21,5.54-16.21,7.73-8.46,8.32-12,8.32-12,1.45,6.28-.29,15-.29,15-.88,12.25,8.6,15.76,8.6,15.76-2.33-9.34.3-12.7.3-12.7a106.59,106.59,0,0,0,6.13-11.81,15.25,15.25,0,0,1,2.62,10.65c12.4-10.51,4.09-25.39,4.09-25.39C164.51,102.51,167.13,102.38,167.13,102.38Z"/><path class="cls-2" d="M81.31,75.68,82.58,74A20.43,20.43,0,0,0,81.31,75.68Z"/><path class="cls-2" d="M79.9,78.64l1.41-3A25.85,25.85,0,0,0,79.9,78.64Z"/><path class="cls-2" d="M143.82,72.71h-19a19.58,19.58,0,0,1,.59,3.66c.38,5-.57,14-10.27,21,0,0-11.17,5.91-12.92,14.89,0,0-15.31-11.49-11-21.77A24.79,24.79,0,0,1,93.35,87s-5,1-6.7,13.56c0,0-4.13-5.46-5.44-6.44,0,0-5.58-6.24-1.31-15.43a25.85,25.85,0,0,1,1.41-3A20.43,20.43,0,0,1,82.58,74l.93-1.26h-21c-3.29,3.28-6,10.52-6,10.52a23,23,0,0,0,2.44,19.6,28.37,28.37,0,0,0,3.64,4.73,15.45,15.45,0,0,0,1.13,1.07C69.29,113.12,71.8,121,71.8,121c6.35-7.44,1.41-17.51,1.41-17.51,6,2.48,9.72,7.63,11.62,11a25.41,25.41,0,0,1,1.52,3.06,15.72,15.72,0,0,0,.82-3.24,23.71,23.71,0,0,0-.92-9.78,44.25,44.25,0,0,1,7.45,5.47,21.15,21.15,0,0,1,5.44,6.67,44.14,44.14,0,0,1,4.18,11.5,43,43,0,0,1,4.88-6.58,57.28,57.28,0,0,1,6.06-5.89,23.6,23.6,0,0,0,9-20.91c6,3.6,5.9,13,5.9,13a22.58,22.58,0,0,0,1.48,8.24,14.79,14.79,0,0,0,2.37,4.24,23.28,23.28,0,0,1,1.43-7.21,21.06,21.06,0,0,1,5.9-8.67C154.44,90,143.82,72.71,143.82,72.71Z"/><path class="cls-2" d="M111.52,72.71H94.08c-.06,3.94,1.92,7.54,6.2,12.34a27.25,27.25,0,0,1,4.78,7.41,15.74,15.74,0,0,1,.64,1.79,17.66,17.66,0,0,0,6-8.39C113.35,80.9,111.52,72.71,111.52,72.71Z"/></svg>