<svg id="Ebene_1" data-name="Ebene 1" xmlns="http://www.w3.org/2000/svg" viewBox="0 0 200 200"><defs><style>.cls-1{fill:#fff;}</style></defs><title>Studer_Logo</title><path class="cls-1" d="M51.86,119.91v1c0,4.67,3,6.14,5.76,6.14,3.47,0,6.13-1.47,6.13-5.57,0-7.61-15.42-6.76-15.42-17.08,0-6.09,4.34-9.33,10.09-9.33,6.29,0,9.81,3,9.52,10H63.37c.05-3.76-1.14-6.23-5.28-6.23-2.62,0-5.28,1.33-5.28,5,0,7.57,15.42,6.47,15.42,17.37,0,7.24-5,9.57-10.66,9.57-10.14.09-10.14-7.66-10-11Z"/><path class="cls-1" d="M94.26,95.78v3.81h-9v30.55H80.84V99.59h-9V95.78Z"/><path class="cls-1" d="M98.64,95.78H103v22c0,7.52,2.28,9.42,6.42,9.42s6.43-1.9,6.43-9.42v-22h4.38v21.8c0,9.52-3.53,13.28-10.81,13.28s-10.8-3.76-10.8-13.28Z"/><path class="cls-1" d="M128,95.78h10.56c4.38,0,7.52,1.57,9.23,5.24,1.38,2.9,1.53,9.75,1.53,10.85,0,7.33-.67,11.57-2.1,13.85-1.85,2.95-5.33,4.42-11.32,4.42H128Zm4.37,30.56h4.14c6.1,0,8.33-2.29,8.33-10.28v-7c0-7-2.14-9.52-6.71-9.52h-5.76Z"/><path class="cls-1" d="M155.69,130.14V95.78H173.4v3.81H160.07v11h12.37v3.81H160.07v11.9h13.61v3.8Z"/><path class="cls-1" d="M183.77,114.34v15.8h-4.38V95.78h11.85c6.09,0,8.24,4.29,8.24,8.57,0,4.05-2.24,7.14-6.29,7.85v.1c3.95.62,5.38,2,5.62,8.85a51.94,51.94,0,0,0,1.19,9h-4.57c-1.24-2.38-1-6.85-1.33-11.42-.33-4.18-3.71-4.38-5.19-4.38Zm0-3.8h6.57c3.14,0,4.66-2.72,4.66-5.72,0-2.47-1.23-5.23-4.61-5.23h-6.62Z"/><path class="cls-1" d="M49,86.56H70.22S63.58,71.45,49,71.61a19.68,19.68,0,0,0-11,3.86A26,26,0,0,1,49,86.56Z"/><path class="cls-1" d="M6.46,130.64h20s-8.83-13.77-5.08-34.35,19-28.5,24.7-29.21L26,68.76S6.62,70.18,1.22,96.29C1.22,96.29-3.78,114.09,6.46,130.64Z"/></svg>