<svg id="Ebene_1" data-name="Ebene 1" xmlns="http://www.w3.org/2000/svg" viewBox="0 0 200 200"><defs><style>.cls-1{fill:#fff;}</style></defs><title>CasinoBern_Logo</title><path class="cls-1" d="M121.19,103.92v9.89h-1.53v-9.89a4.56,4.56,0,1,0-9.12,0v9.89H109v-9.89a6.09,6.09,0,1,1,12.17,0Zm-21.3-6.09a6.09,6.09,0,0,0-6.09,6.09v9.89h1.52v-9.89a4.57,4.57,0,1,1,9.13,0v9.89H106v-9.89A6.09,6.09,0,0,0,99.89,97.83Zm-15.22,0a6.09,6.09,0,0,0-6.08,6.09v9.89h1.52v-9.89a4.57,4.57,0,1,1,9.13,0v9.89h1.52v-9.89A6.09,6.09,0,0,0,84.67,97.83ZM135,65.06,123.09,49.15V44.59h-1.52v4.56H78.21V44.59H76.69v4.56L64.78,65.06,53.49,71v2.52H71V72H55v-.08l10.78-5.65L77.45,50.67h44.88L134,66.24l10.78,5.65V72h-16v1.52h17.5V71Z"/><path class="cls-1" d="M71,97.83v1.52a3.05,3.05,0,0,0-3,3.05v5.32h3v1.52h-7.6v4.57H61.86V76.53h1.52v31.19h3V102.4A4.57,4.57,0,0,1,71,97.83Zm-4.56-7.58H71V88.73h-3V81.1h3V79.58H66.42Zm70-13.72v31.19h-3V102.4a4.58,4.58,0,0,0-4.57-4.57v1.52a3,3,0,0,1,3,3.05v5.32h-3v1.52h7.61v4.57h1.52V76.53Zm-3,3h-4.57V81.1h3v7.6h-3v1.53h4.57ZM99.89,74.25a4.58,4.58,0,0,0-4.57,4.57V90.23h1.53V78.82a3,3,0,1,1,6.08,0V90.23h1.52V78.82A4.57,4.57,0,0,0,99.89,74.25Zm16.73,0a4.57,4.57,0,0,0-4.56,4.57V90.23h1.52V78.82a3,3,0,1,1,6.08,0V90.23h1.53V78.82A4.58,4.58,0,0,0,116.62,74.25Zm-33.47,0a4.57,4.57,0,0,0-4.56,4.57V90.23h1.52V78.82a3,3,0,1,1,6.09,0V90.23h1.52V78.82A4.58,4.58,0,0,0,83.15,74.25Z"/><path class="cls-1" d="M96.84,64.36H95.32a4.57,4.57,0,0,1,9.13,0h-1.52a3,3,0,0,0-6.09,0Zm28.9,2v47.4h-1.52v-19H75.54v19H74V66.41L99.88,52.86Zm-50.2.92v.08h48.68v-.08L99.88,54.57Zm48.68,25.94V68.93H75.54V93.27H90.75V72h1.53v21.3h15.21V72H109v21.3Z"/><path class="cls-1" d="M25.34,152.52l2.36-2.42H29v.11l-2,2.08,2,2.82v.11H27.71c-.32-.46-1-1.47-1.48-2.18l-.89.91v1.27h-1V150.1h1ZM32,153V150.1h1V153a1.21,1.21,0,0,0,1.27,1.3,1.18,1.18,0,0,0,1.25-1.3V150.1h1V153a2.3,2.3,0,0,1-4.6,0Zm8.35,2.18V150.1h1v4.22h2.75v.9Zm5.45-5.12h4.39V151H48.52v4.21h-1V151H45.8ZM52.91,153V150.1h1V153a1.21,1.21,0,0,0,1.27,1.3,1.19,1.19,0,0,0,1.26-1.3V150.1h1V153a2.16,2.16,0,0,1-2.3,2.29A2.18,2.18,0,0,1,52.91,153Zm8.36-2.94H63.6c1.3,0,2.11.64,2.11,1.76a1.63,1.63,0,0,1-1,1.56v.08L66,155.12v.1H64.79l-1.14-1.56H62.31v1.56h-1Zm2.29.91H62.31v1.78h1.28c.65,0,1-.29,1-.89S64.23,151,63.56,151Z"/><path class="cls-1" d="M74.46,152.52l2.35-2.42h1.27v.11l-2,2.08,2,2.82v.11H76.83L75.34,153l-.88.91v1.27h-1V150.1h1Zm6.48.52V150.1h1V153a1.21,1.21,0,0,0,1.27,1.3A1.18,1.18,0,0,0,84.5,153V150.1h1V153a2.16,2.16,0,0,1-2.29,2.29A2.18,2.18,0,0,1,80.94,153Zm8.36,2.18V150.1h1v4.22h2.74v.9Zm7.78,0h-1V150.1h1Zm8.57,0h-.25L102,152.1v3.12h-1V150.1h.26l3.45,3.06v-3h1Zm5.43-5.12h.18l2.66,5.12h-1.18l-.34-.7h-2.46l-.33.7h-1.18Zm.12,1.87h-.07l-.78,1.67-.06.11H112l-.06-.11Zm5.49-1.87H119c1.31,0,2.12.64,2.12,1.76a1.63,1.63,0,0,1-1,1.56v.08l1.23,1.62v.1h-1.18l-1.14-1.56h-1.34v1.56h-1ZM119,151h-1.25v1.78H119c.65,0,1-.29,1-.89S119.65,151,119,151Zm6.84,4.21h-1V150.1h1Zm4.87-2.7L133,150.1h1.28v.11l-2,2.08,2,2.82v.11h-1.26L131.57,153l-.88.91v1.27h-1V150.1h1Z"/><path class="cls-1" d="M145.12,153.1h-2.44v1.22h3v.9h-4V150.1h4V151h-3v1.24h2.44Zm5.68.27h.08l.42-1,1.1-2.3h1.18l-2.65,5.12h-.19l-2.64-5.12h1.17l1.11,2.3Zm8.86-.27h-2.44v1.22h3v.9h-4V150.1h4V151h-3v1.24h2.44Zm8.77,2.12h-.25l-3.45-3.12v3.12h-1V150.1h.25l3.46,3.06v-3h1Zm2.63-5.12h4.4V151h-1.67v4.21h-1V151h-1.69Z"/><path class="cls-1" d="M27.64,123.29h.41L36.5,140.6H34.62L33,137.31H22.74l-1.65,3.29H19.25Zm.32,3.35h-.23l-4,8.8-.17.31H32.2l-.17-.31Zm13.1,11.1a8,8,0,0,0,5.28,1.71c3.44,0,4.91-1.3,4.91-3.23s-1.5-2.77-5-3.75c-3.87-1.13-6-2.26-6-5,0-2.91,2.48-4.59,6.32-4.59,4.15,0,6,1.62,6,1.62l-.9,1.36a8.51,8.51,0,0,0-5.1-1.42c-2.6,0-4.65,1-4.65,3,0,1.7,1.53,2.43,5,3.41,4.18,1.15,6,2.54,6,5.28S51,141,46.37,141c-4.24,0-6.23-2-6.23-2ZM15.3,135.65A6.74,6.74,0,0,1,9,139.45a7.49,7.49,0,0,1,0-15,6.79,6.79,0,0,1,4.89,1.83,1.73,1.73,0,0,0-1.21,1.64,1.83,1.83,0,0,0,1.83,1.83,1.94,1.94,0,0,0,1.63-3A8.06,8.06,0,0,0,9,122.91,9,9,0,0,0,9,141a8.28,8.28,0,0,0,7.7-4.67Zm45.93,4.95H59.59V123.29h1.64Zm23,0h-.52L70.93,126.81V140.6H69.29V123.29h.52l12.75,13.76V123.29H84.2ZM91,132c0-5.13,3.49-9.06,8.91-9.06s8.89,3.93,8.89,9.06-3.46,9-8.89,9S91,137.05,91,132Zm16.15,0c0-4.09-2.74-7.5-7.24-7.5s-7.24,3.41-7.24,7.5,2.71,7.48,7.24,7.48S107.14,136,107.14,132Z"/><path class="cls-1" d="M131.78,140.6h-7.87V123.29h7.44c3.75,0,6.2,1.5,6.2,4.67a3.89,3.89,0,0,1-2.8,3.84V132c2,.52,3.38,1.78,3.38,3.92C138.13,139.19,135.45,140.6,131.78,140.6Zm-.43-15.78h-5.8v6.29h6c2.63-.06,4.3-1.1,4.3-3.09C135.85,125.68,134,124.82,131.35,124.82Zm-5.8,7.85v6.4h6.26c2.57,0,4.65-.95,4.65-3.29,0-2.05-1.94-3-4.36-3.11Zm30.76.17h-9.58v6.23h10.88v1.53H145.09V123.29h12.52v1.53H146.73v6.49h9.58Zm7.91-9.55h6.9c4.32,0,6.86,2,6.86,5.71a5.25,5.25,0,0,1-4.27,5.4v.11l4.68,5.69v.4h-1.76l-4.88-5.88h-5.88v5.88h-1.65Zm6.9,1.53h-5.25v8.37h5.53c2.8,0,4.91-1.27,4.91-4.13S174.23,124.82,171.12,124.82ZM200,140.6h-.52l-12.75-13.79V140.6h-1.65V123.29h.52l12.76,13.76V123.29H200Z"/></svg>