<svg id="Ebene_1" data-name="Ebene 1" xmlns="http://www.w3.org/2000/svg" viewBox="0 0 200 200"><defs><style>.cls-1{fill:#fff;}</style></defs><title>Jungfrau_Logo</title><path class="cls-1" d="M193.3,133.23h-1.17c.09-12.26.24-35.59.23-36.12h0l0,0c-.08-1.06-1.26-6.41-16.42-7.52-3.9-.29-12.78-1-24.45-1.91-14.19-1.12-32.53-2.57-51.11-4l.09-1.16c18.58,1.43,36.92,2.87,51.12,4,11.66.92,20.53,1.62,24.44,1.91,15.7,1.15,17.36,6.88,17.5,8.6h-.05l.06.08C193.55,97.65,193.31,131.77,193.3,133.23Z"/><path class="cls-1" d="M123.82,124.73c-26-1-55.72-2.33-77.39-3.26-13.45-.58-23.6-1-27.43-1.17-12.87-.49-19.08-2.51-19-6.18C-.06,113.48.28,78.06.35,71l.91-.49c.09.07,9.6,6.35,17.11,6.35,1.07,0,2.69,0,4.83.15l-.05,1.17C21,78.05,19.42,78,18.37,78,11.8,78,4.11,73.64,1.51,72c-.14,14.75-.38,41.11-.33,41.9v.22c-.07,2.73,6.44,4.55,17.86,5,3.84.15,14,.59,27.44,1.17,21.67.93,51.35,2.21,77.39,3.26Z"/><path class="cls-1" d="M143.15,59.89l5-1c-.38-1.21-2.24-6.65-2.43-7.75C145.45,52.28,143.5,58.6,143.15,59.89Z"/><path class="cls-1" d="M126.79,54.75a8.72,8.72,0,0,0-2.48.22l-2,.44V61l1.86-.39a7,7,0,0,0,3.53-1.47,3.08,3.08,0,0,0,.89-2.28A1.82,1.82,0,0,0,126.79,54.75Z"/><path class="cls-1" d="M0,114.26c.29-2,1.42-5.54,18-8.9,19.87-4,182-38.44,182-38.44V23.59S37.4,58.05,18.15,61.91.14,71,0,71.58v.15M30.2,87c0,4.34-.44,5.88-1.6,7.68a13.44,13.44,0,0,1-4.54,4.2L22,97a10.53,10.53,0,0,0,3.11-3.63c.46-1,.62-2.18.62-5l0-21.86,4.5-1Zm22.13-6.82c0,3.12-.47,4.29-1.79,5.78a11.13,11.13,0,0,1-6.24,3.3c-3.76.8-6.12.08-7.28-1.42-.73-.95-.92-2-.92-4.07l0-13.33,4.34-.92,0,12.68a6.29,6.29,0,0,0,.34,2.71c.55,1,1.78,1.3,3.45.94a4.68,4.68,0,0,0,3-1.69c.55-.77.78-1.43.78-3.44l0-12.8L52.35,67Zm21.44,2.46-4.42.94-5-8.27a41.35,41.35,0,0,1-2.52-4.65c.08,1.24.12,3.6.15,5.64l.14,8.81L58,86l0-20.18,4.76-1,5.14,8a25.68,25.68,0,0,1,2.2,4.22c-.07-1-.3-3.21-.3-5.19l-.06-8.56,4-.85Zm22.09-6.2a18.78,18.78,0,0,1-7.32,3.31c-3.45.72-5.85.2-7.71-1.38s-2.55-3.61-2.55-6.7a12.37,12.37,0,0,1,4.12-9.59,12.69,12.69,0,0,1,6.09-3,10.55,10.55,0,0,1,7.12.74l-2.21,3a7.19,7.19,0,0,0-4.84-.53c-2.52.53-4.07,1.77-4.81,3.87a14.5,14.5,0,0,0-.7,4.79c0,3.16.73,4.91,2.24,5.58a5.68,5.68,0,0,0,3.44.18,8.67,8.67,0,0,0,2.72-1.1V71l-3.64.77-.61-3.18,8.67-1.84Zm17.17-19L105.51,59v4.72l6.09-1.29v3.35L105.5,67.1v8.84l-4.26.9,0-20.18,12.31-2.61Zm16.14,13.48-2-2.81c-2-2.88-2.75-3.49-3.44-4a2.08,2.08,0,0,0-1.47-.19l0,8.42-4.22.89,0-20.18L125,51.63c2.72-.57,4.61-.63,5.89.16A4.47,4.47,0,0,1,133,55.84a7.15,7.15,0,0,1-5.09,6.71,3.25,3.25,0,0,1,.93.75c.66.7,1.74,1.88,2.67,3l2.82,3.48Zm21.68-4.59-1.77-4.46-7,1.49-1.75,5.2-4.45,1,7.66-21.88,4.65-1,7.29,18.71Zm23.57-12c0,3.13-.47,4.29-1.79,5.79a11.27,11.27,0,0,1-6.24,3.3c-3.76.8-6.12.08-7.28-1.43-.74-1-.93-2-.93-4.07l0-13.32,4.34-.92,0,12.68a6.16,6.16,0,0,0,.35,2.7c.54.95,1.78,1.3,3.44.95a4.79,4.79,0,0,0,3-1.7c.54-.76.78-1.42.78-3.44l0-12.79,4.34-.92Z"/><path class="cls-1" d="M150.64,126.52a3.51,3.51,0,0,0-2.51,2,8.08,8.08,0,0,0-.57,3.37,6.66,6.66,0,0,0,.69,3.45c.47.71,1.33.9,2.51.65a3.31,3.31,0,0,0,2.71-2.47,9.19,9.19,0,0,0,.34-2.87,7,7,0,0,0-.49-3.07C152.83,126.55,151.94,126.24,150.64,126.52Z"/><path class="cls-1" d="M80.21,141.35a3.49,3.49,0,0,0-2.51,2,8.08,8.08,0,0,0-.57,3.37,6.59,6.59,0,0,0,.69,3.44c.47.72,1.33.9,2.51.66A3.34,3.34,0,0,0,83,148.3a9.59,9.59,0,0,0,.34-2.87,7.13,7.13,0,0,0-.49-3.08C82.4,141.38,81.51,141.07,80.21,141.35Z"/><path class="cls-1" d="M60.3,145.81l-1.59.33v4l1.79-.38a2.88,2.88,0,0,0,1.89-1,2.52,2.52,0,0,0,.42-1.52,1.54,1.54,0,0,0-.54-1.31A2.41,2.41,0,0,0,60.3,145.81Z"/><path class="cls-1" d="M137.82,129.66a5.28,5.28,0,0,0-1.58.14l-1.3.27v3.59l1.18-.25a4.32,4.32,0,0,0,2.24-.94,2,2,0,0,0,.56-1.47A1.17,1.17,0,0,0,137.82,129.66Z"/><path class="cls-1" d="M164.56,123.86l-1.6.33v4l1.8-.38a2.91,2.91,0,0,0,1.89-1,2.52,2.52,0,0,0,.42-1.52,1.58,1.58,0,0,0-.54-1.31A2.41,2.41,0,0,0,164.56,123.86Z"/><path class="cls-1" d="M193.41,97.21c-.14,2.08.49,6.36-16.55,9.89-18,3.73-156.26,33-156.26,33v35.56s137.05-28.89,156-32.95,16.59-9.94,16.88-12V97.37C193.45,96.88,193.42,97.06,193.41,97.21ZM38.23,150.55l-3.54.75v10.85l-2.73.57V151.87l-3.59.76v-2.19l10.33-2.18Zm12.9,6.34a7.2,7.2,0,0,1-4.67,3,5.08,5.08,0,0,1-4.43-.7,5.61,5.61,0,0,1-1.87-4.67c0-4.23,2.34-7.23,6.18-8a5,5,0,0,1,4.72,1,5.79,5.79,0,0,1,1.47,4.39A8.6,8.6,0,0,1,51.13,156.89Zm12.69-6.41a7.14,7.14,0,0,1-3.34,1.46l-1.77.38v4.77l-2.74.57v-13l3.77-.8c2.48-.52,3.2-.45,4-.22a2.88,2.88,0,0,1,2.07,3A5,5,0,0,1,63.82,150.48Zm21.26-.74a7.15,7.15,0,0,1-4.68,3A5.1,5.1,0,0,1,76,152a5.59,5.59,0,0,1-1.87-4.68c0-4.23,2.33-7.23,6.17-8,2.07-.43,3.62-.07,4.73,1a5.8,5.8,0,0,1,1.47,4.39A8.64,8.64,0,0,1,85.08,149.74ZM97.39,138l-4.77,1v3.05l3.86-.81v2.16l-3.86.81V150l-2.71.57v-13l7.82-1.64ZM115,145.24,106.59,147V134l8.22-1.73-.4,2.23-5.11,1.07v3l4.28-.9v2.17l-4.26.89v3.47L115,143Zm13.44-7.35c0,2-.3,2.77-1.13,3.73a7.08,7.08,0,0,1-4,2.11c-2.39.5-3.89,0-4.63-.94a3.93,3.93,0,0,1-.59-2.63v-8.61l2.76-.58v8.19a4.14,4.14,0,0,0,.22,1.75c.34.61,1.13.84,2.19.62a2.94,2.94,0,0,0,1.89-1.09,3.26,3.26,0,0,0,.49-2.22V130l2.76-.58Zm10.92,2.22-1.28-1.82a8.83,8.83,0,0,0-2.19-2.56,1.29,1.29,0,0,0-.93-.13V141l-2.68.57v-13l4.4-.93c1.72-.36,2.93-.39,3.74.12a2.93,2.93,0,0,1,1.35,2.62,4.56,4.56,0,0,1-3.22,4.32,2.2,2.2,0,0,1,.59.49c.42.46,1.11,1.22,1.7,2l1.79,2.26Zm16.17-5.2a7.13,7.13,0,0,1-4.67,3,5.08,5.08,0,0,1-4.43-.69,5.58,5.58,0,0,1-1.87-4.67c0-4.24,2.34-7.24,6.17-8,2.07-.44,3.62-.08,4.73,1a5.76,5.76,0,0,1,1.47,4.39A8.64,8.64,0,0,1,155.51,134.91Zm12.57-6.38a7.18,7.18,0,0,1-3.35,1.47l-1.77.37v4.77l-2.73.58v-13l3.76-.79c2.49-.53,3.2-.46,4-.23a2.89,2.89,0,0,1,2.06,3A5,5,0,0,1,168.08,128.53Zm13.36,2.72L173.05,133V120l8.22-1.73-.4,2.22-5.11,1.08v3l4.28-.9v2.17l-4.26.89v3.47l5.66-1.19Z"/><path class="cls-1" d="M46.26,148.49a3.53,3.53,0,0,0-2.51,2,8,8,0,0,0-.56,3.36,6.63,6.63,0,0,0,.68,3.45c.47.71,1.33.9,2.51.65a3.3,3.3,0,0,0,2.71-2.46,9.3,9.3,0,0,0,.34-2.88,7,7,0,0,0-.49-3.07C48.45,148.52,47.56,148.22,46.26,148.49Z"/></svg>