<svg id="Ebene_1" data-name="Ebene 1" xmlns="http://www.w3.org/2000/svg" viewBox="0 0 200 200"><defs><style>.cls-1{fill:#fff;}</style></defs><title>Schweiz_v2</title><path class="cls-1" d="M18.3,170.83c-4.6-1.28-9.15-1.68-9.15-4.15,0-2.08,2.21-2.7,4-2.7,2.48,0,5.22,1,5.09,3.8h8.22c0-7.06-6.41-10.15-12.64-10.15-5.93,0-12.86,2.69-12.86,9.58,0,5.83,4.77,7.81,9.23,9.09s9.06,1.77,9.06,4.59c0,2.34-2.56,3.23-5,3.23-3.54,0-5.79-1.2-6-4.9H0c0,8.07,6.5,11.26,13.7,11.26,6.94,0,13.74-2.57,13.74-10.56C27.44,174.23,22.85,172.11,18.3,170.83Z"/><path class="cls-1" d="M42.52,184.74c-3.18,0-4.47-3.05-4.47-6,0-3.18.67-6.75,4.87-6.75a3.49,3.49,0,0,1,3.66,3.31h7.3c-.58-6-5.57-9-11.32-9-7.38,0-12,5.21-12,12.49,0,7.06,5.13,11.75,12,11.75,6.15,0,10.83-3.49,11.54-9.67H46.8C46.45,183.28,45.17,184.74,42.52,184.74Z"/><path class="cls-1" d="M73.1,166.24c-2.74,0-5.79,1.45-7,3.79H66V158.29H58.52v31.52H66V177.32c0-2.47,1.24-4.9,4.07-4.9,3,0,3.75,1.81,3.75,4v13.37h7.52v-14.7C81.37,171.8,80.75,166.24,73.1,166.24Z"/><polygon class="cls-1" points="109.92 181.69 109.83 181.69 106.47 166.9 99.31 166.9 96.04 181.73 95.96 181.73 92.11 166.9 84.51 166.9 91.67 189.81 99.27 189.81 102.85 174.58 102.94 174.58 106.56 189.81 114.17 189.81 121.33 166.9 113.68 166.9 109.92 181.69"/><path class="cls-1" d="M135.78,166.24a12,12,0,0,0-12.38,12c0,7.68,5.09,12.19,12.56,12.19,5.12,0,10-2.3,11.4-7.6h-7A4.42,4.42,0,0,1,136,185.4c-3.18,0-5-2-5.12-5.21h16.83C148.11,172.42,144,166.24,135.78,166.24ZM130.92,176c.48-2.82,2.21-4.68,4.86-4.68a4.61,4.61,0,0,1,4.46,4.68Z"/><rect class="cls-1" x="152.44" y="166.9" width="7.51" height="22.92"/><rect class="cls-1" x="152.44" y="158.29" width="7.51" height="5.74"/><polygon class="cls-1" points="186.47 172.59 186.47 166.9 166.41 166.9 166.41 172.64 176.93 172.64 165.48 183.99 165.48 189.81 187.31 189.81 187.31 184.07 175.03 184.07 186.47 172.59"/><rect class="cls-1" x="191.78" y="181.6" width="8.22" height="8.21"/><path class="cls-1" d="M169.26,102.26c.29-.85-.76-6.54-5.21-11.38S149.91,79.5,149.91,79.5l-8.63-4.83s1.71-1.9,1.14-2.66-3.6-2-3.6-2,11-6.64,13.47-8,14.89-8.44,15.36-9.68a2.89,2.89,0,0,0-1-3.13c-.76-.66-11-4.84-19.53-3.89a79.67,79.67,0,0,0-14.61,2.95s.76-3.13-.19-3.8-5-.19-5-.19,2.18-10.05,2.18-16.22-2-15.18-2.84-16.6a3.68,3.68,0,0,0-3-1.89c-.66.09-3.6,3.7-7,9.67a122.32,122.32,0,0,1-7.2,10.91,21.84,21.84,0,0,0-2.09,4.74s-2.28-3.51-3.79-3.41-3.7,2.56-3.7,2.56-5.22-9.11-6.74-11S84.19,13.2,81,12.54,76,11.3,75.65,13.3s.17,8,.93,11,.67,10,1.63,12.44c.79,2,1.62,3.7,1.62,3.7s-4.18-1.52-5.22-.76A3.43,3.43,0,0,0,73,42.13a11,11,0,0,1-.48,2.27s-7.88-3.88-12.43-5.69-9.29-3.41-12-2.94S45,36.16,45,37.29s2.28,8.16,2.28,9.2,1.94,6.21,3.6,7.87,6.22,6.41,6.74,6.93S59.81,63,59.81,63s-2.47,1.61-2.47,2.94S59.72,70,59.72,70a13.06,13.06,0,0,1-3.42.85c-2.75.48-10.62,2.37-13.09,3.89s-9.53,5.64-10.72,6.83a5.23,5.23,0,0,0-1.8,2.94c0,.66,1,2.93,2,2.93s8.92,1.15,11,1.53,9.87,1.89,10.72,1.89,5,.76,5,.76-2,3.94-.86,5,3.61.19,3.61.19-5,6.16-6.54,8.54-5.7,10.14-7.21,12.8l-2.09,4.26s-.19,2,3.42,2.09,11.47-3.32,17-5.78A73.05,73.05,0,0,0,78,112s.85,4.56,1.9,5.41,1.61,1.42,3,.76a7.44,7.44,0,0,0,2.56-2.75,60.81,60.81,0,0,1,0,10.43c-.47,6.16-1.51,14-.28,14.8a3,3,0,0,0,2.75.66,28.43,28.43,0,0,0,10.43-7.78c3.51-4.55,10-16.12,10-16.12l2.09.86c1,.37,1.7.66,2.27.37s1.61-3.89,1.61-4.55.2-2.56.2-2.56,2.84,1.8,5.5,6.74,8.72,13.36,10.81,14.79,3.41,2.27,4.08,2.18,2.65-2.47,3.6-7.88,1.05-13.37-1.23-19.06-2.75-7.39-2.75-7.39a5,5,0,0,0,2.09-.67c.47-.47-.57-2.75-.57-2.75s1.51-.57,6.92.29a58.82,58.82,0,0,1,11.95,3,68.76,68.76,0,0,0,8.82,2.85C165.66,104.06,169,103.12,169.26,102.26ZM134.52,57.51c1.85-.88,2.4-.87,2.13-2.34s-1-2-.84-4.13c.21-2.55,4.41-1.25,4.76-1.22,1,.11,4.71,1.08,7.52.87,10.6-.76,15.6-.23,15.6-.23s-14.71,3.72-20.2,5.59-14.1,6.17-14.91,6.52-1.3.68-1.56.15.24-1,.49-1.24S132.67,58.38,134.52,57.51Zm-14.7-31.27c2.76-9.1,4.25-11.13,4.25-11.13s.85,2.93-2.94,13.94c-4.78,13.87-7.26,17.07-7.26,17.07S115.37,40.89,119.82,26.24Zm-42-13c2.08,1.91,2.11,1.59,2.77,3.83s3.17,5.67,4.75,10,6,16.6,6,16.6-2.93-4.34-4.4-6.67S82.44,26.82,81,23,77.82,13.22,77.82,13.22ZM49.45,43.31c-1.19-2.12-2.34-3.71-.93-3.94,1.65-.26,2.52,1.48,5,3.17a34.2,34.2,0,0,0,8.16,4.59c3,1.06,9.12.29,9.12.29A4,4,0,0,1,69.36,49c-1,.66-.79,2.25.13,4.35a44.6,44.6,0,0,0,3.57,5.81s-9.53-4.71-12.56-6.43S50.64,45.42,49.45,43.31ZM98.52,47.2c14.54,0,24.62,11.83,24.62,25.94s-13.09,27-27.63,27S70.36,89.63,70.63,74.58A28,28,0,0,1,98.52,47.2Zm.25,76.21a32.5,32.5,0,0,1-2.26-6.66s-1.41,7.06-1.7,8.49a51.69,51.69,0,0,1-2.94,9c-1.24,2.49-5.24,6.87-5.36,6.54s1.72-4,3.65-8,1.74-7.91,3-13.33,2.82-13.74,3.12-14,.9-.57,1.09.1A21.74,21.74,0,0,1,99,112.23c.1,3.06,1.44,3.54,3.54,4.3s2.09.89,2.09,2.42S99.47,124.85,98.77,123.41ZM113.3,97.68c-.6.6-1.49,5.2-1.19,7.71a6.7,6.7,0,0,1-3,5.93c-1.48.89-5.19,0-6.52-1s-4.89-6.66-5.63-7.4-2.37.14-3.26.44-7,7.11-8.15,8.3a3.36,3.36,0,0,1-4.45.29c-1.63-1-2.67-4.74-2.67-8.29,0-3-.11-5.35-.58-6.56a16.74,16.74,0,0,1-1.26,2.31c-1.34,1.9-.51,1.77-1.47,3.73-1.46,3-3.14,2.31-4.81,4.14-2,2.24-3.3,3.61-6.09,6.55-6.8,7.15-15.13,10.23-15.59,9.51s2.27-1.91,3.54-2.72a125.41,125.41,0,0,0,13-11.32c3.29-3.55,10.6-11.62,11.91-13.07a21.38,21.38,0,0,0-2-1.32c-1-.59-5.63-.74-7.11-1.18s-2.52-.45-3.86-2.82-.89-2.23.3-4.3,3.85-5.49,4.3-7.56c0-.16,0-.3.06-.44-1.43.24-12.24,2-18.32,2.78-2.73.34-17.85,3.17-17.85,3.17s6.53-3.8,17.48-5.61c6.18-1,18.07-1,18.7-1-.11-1.23-1-1.78-1.56-2.61-.74-1-4.74-4-5.48-6.37s-.59-3.26.59-4.74S68.09,62,70,61.07a23.64,23.64,0,0,0,3-1.49c-1.68,2-4.43,4.71-4.94,6.38a12,12,0,0,0,.29,7.86,15.06,15.06,0,0,1,1.19,8.75c-.6,2.81-1.34,3.11-.3,4.74s2.37,1.78,4.45,3.56,4.29,3.41,5,4.89,2.37,5.63,5.93,7.12,6.22-.16,8.29-.75a15.08,15.08,0,0,1,4.75-.44c1,0,4.89,2.81,8.6,1.63s5-5,6.22-6.23,7-2.52,8.3-3.26,2.08-1.93,2.53-4.89.44-4.6,1.33-6.52,4.59-6.08,4-8.75S125,67,124.86,64.33s-.15-7.11-2.23-9-3.7-2.52-6.52-4.29-8-5.49-12-5.94-7-.44-9.33.3S85,47.58,82.31,50a101.64,101.64,0,0,0-7.41,7.29,9,9,0,0,0-.15-3.59A19.6,19.6,0,0,1,74.91,47c.44-1.33,3-1.33,5-1.78a19,19,0,0,1,5-.44,12.29,12.29,0,0,1,4.89,1.48,28,28,0,0,0,4.3-1.19c1.34-.59,3.12-5.18,4.3-7.26s2.37-2.07,3.85-1.63,3.56,4.74,5.05,6.37,4.44,5.64,5.78,6.23,2.52.45,4.45.3a46.82,46.82,0,0,1,8.74.74c2.52.44,1.63,3.56,1.63,5.93s-2.37,6.82-2.53,8,3,3.71,5.05,4.89A7.43,7.43,0,0,1,134,74.41c.15,2.23-1.92,4-3.85,4.74S125.44,82,125,83.45s1.78,5.34,2.67,7.42,0,5-1.48,6.81-7.86.15-9.34-.44A3.5,3.5,0,0,0,113.3,97.68Zm24.37,19.55c.33,2.11-1.11,4.65-1.88,4.65s-3-2.21-3.87-4a52.2,52.2,0,0,0-3.64-5.41s1.1,2.43,1.32,3,3,8.38,3.87,10.61c1,2.65,1.32,6.73.77,7.07s-1.54-.31-1.66-1.55c-.22-2.43-2-5.52-3-9.06a28.6,28.6,0,0,0-2.65-6.29s-8.51-16.46-7.51-15.81a45.55,45.55,0,0,1,3.42,3.32c1.33,1.21,3.1,3.43,4.76,4.2s5.23,2.31,6.77,3S137.33,115.14,137.67,117.23Zm30.68-15.36c-.65.47-2.27-1-3.59-2.27s-6.62-4.3-10.09-6.12-10.58-5.62-14.38-6.78-9.09-2-10.74-2.81-.5-.83-.5-.83,5.79,1.16,8.1,1,3.71-.42,4.86-3c.66-1.49-1.53-4.58-1.53-4.58a53,53,0,0,1,5.82,2.58,34.93,34.93,0,0,1,7,6c2,2,.84,5.44,1.65,6C165.2,97.46,168.75,101.59,168.35,101.87Z"/><path class="cls-1" d="M78.74,72.09l9.56,2.36s-.52,4.19-.65,5.76-.26,5.63-.26,5.63l9.82,1.7s.52-5.63.65-7.47a32.34,32.34,0,0,1,.66-4s4.85.65,5.63.78l5.89.92,2.36-9.56-11.52-2.23s.78-4.06,1.17-5.63,1.32-4.45,1.32-4.45l-9.83-2s-1.44,4.45-1.83,5.77-1.18,4.58-1.18,4.58l-9.69-1.31s-1,3.54-1.44,5.11A38.76,38.76,0,0,0,78.74,72.09Z"/><path class="cls-1" d="M69,77.91H68.9a3.69,3.69,0,0,1,0,.66l.16,0Z"/><path class="cls-1" d="M77.39,95.94l-.23.25.41.31a2.1,2.1,0,0,1,.31.56c.25-.54.41-.94.41-.94Z"/></svg>