<svg version="1.1" id="Layer_1" xmlns="http://www.w3.org/2000/svg" x="0" y="0" width="105" height="28" viewBox="0 0 105 28" xml:space="preserve"><g fill="#FFF"><path id="Path_1079" d="M19.519 13.233c2.597 1.225 4.226 3.834 4.165 6.671 0 4.442-3.797 7.808-8.81 7.808H0V.289h14.624c4.815 0 8.329 2.966 8.329 7.017a6.992 6.992 0 01-3.433 5.923v.004zm-3.235 5.773c.032-1.344-1.047-2.459-2.412-2.489-.089-.002-.179 0-.267.008H7.183v4.985h6.422c1.362.112 2.56-.885 2.673-2.228.008-.092.01-.183.006-.276zm-.432-10.445c.062-1.262-.927-2.333-2.208-2.394a2.47 2.47 0 00-.322.006H7.184v4.774h6.138c1.278.114 2.407-.812 2.523-2.071a1.95 1.95 0 00.007-.315z"/><path id="Path_1080" d="M75.879 20.793v6.919H56.861V.289h7.58v20.502l11.438.002z"/><path id="Path_1081" d="M105 13.979c0 8.002-5.819 13.732-14.02 13.732H78.811V.289H90.98C99.204.292 105 5.968 105 13.979zm-7.67 0c0-4.068-2.685-6.769-6.702-6.769h-4.304v13.583h4.304c4.022 0 6.703-2.769 6.702-6.814z"/></g><path id="Path_1082" fill="#FFF" d="M39.281.001c-7.848.187-14.056 6.605-13.866 14.337.19 7.73 6.707 13.846 14.554 13.658 7.711-.185 13.867-6.396 13.871-13.993C53.743 6.176 47.227-.092 39.281.001zm0 20.983c-3.916-.091-7.014-3.294-6.92-7.15.094-3.858 3.345-6.91 7.261-6.817 3.849.091 6.921 3.192 6.921 6.985-.048 3.903-3.298 7.03-7.262 6.982z"/></svg>