<svg xmlns="http://www.w3.org/2000/svg" width="103.428" height="25.942" viewBox="0 0 103.428 25.942"><path id="Path_1103" data-name="Path 1103" d="M3.026-1.258l-1.7.238V0H7.48v-1.02l-1.7-.238v-11.288c1.02-.85 2.516-2.21 4.012-2.21a3.292 3.292 0 013.2 3.264v10.234l-1.7.238V0h6.154v-1.02l-1.7-.238v-11.56a5.687 5.687 0 013.74-1.938c1.666 0 3.468.918 3.468 3.876v9.622l-1.7.238V0H27.4v-1.02l-1.7-.238v-9.35c0-3.842-1.9-6.12-5.1-6.12-2.312 0-3.808 1.394-5.44 2.788a4.689 4.689 0 00-4.216-2.788c-2.992 0-3.876 1.6-5.27 2.754a17.928 17.928 0 00-1.224-2.754L1.224-15.5v.884c1.258 0 1.8.306 1.8 2.108zm37.74-9.588c0-4.76-5.338-5.882-7.412-5.882-2.244 0-3.06.476-3.06 1.938a1.439 1.439 0 001.462 1.564c2.278 0 1.7-2.278 2.958-2.278 1.088 0 3.332 1.02 3.332 4.726-3.57.816-8.976 2.924-8.976 7.242A4.111 4.111 0 0033.354.51a7 7 0 004.76-2.244A2.237 2.237 0 0040.188.51a3.883 3.883 0 003.2-1.9l-.714-.68a1.509 1.509 0 01-1.088.612c-.408 0-.816-.17-.816-.952zm-2.754 7.582a4.2 4.2 0 01-3.23 1.8 2.607 2.607 0 01-2.754-2.822c0-3.366 3.706-4.828 5.984-5.236zM49.13-23.358c0-.748.034-1.36.068-2.074l-4.692 1.564v1.02a2.95 2.95 0 01.884-.136 1.1 1.1 0 01.986 1.224v20.5l-1.7.238V0h6.018v-1.02l-1.7-.238V-4.08c0-1.292 1.054-3.128 2.516-4.964l4.25 7.786-1.7.238V0h6.12v-1.02l-1.394-.238-5.644-10.166c.51-.578 1.632-2.346 2.584-2.346a15.958 15.958 0 001.632.272 1.632 1.632 0 001.632-1.632 1.483 1.483 0 00-1.7-1.6c-2.04 0-3.774 2.72-4.76 3.978a49.1 49.1 0 00-3.332 5h-.068zM74.052-10.2c-.476-3.366-2.176-6.528-5.95-6.528-3.332 0-6.29 3.638-6.29 9.282 0 3.978 2.21 7.956 6.63 7.956 2.89 0 4.9-2.006 5.984-4.42l-.85-.578c-1.054 1.632-2.21 2.72-4.114 2.72-3.128 0-4.624-3.332-4.726-5.678zM64.6-9.01c-.034-.34-.034-.68-.034-1.734 0-2.04.85-4.76 3.74-4.76 1.972 0 2.618 1.768 2.618 3.06 0 1.53-.714 1.87-1.8 2.176zM91.834 0v-1.02l-1.7-.238v-13.4c0-.748.034-1.36.068-2.074l-4.692 1.568v1.02a2.905 2.905 0 01.85-.136c.714 0 1.02.612 1.02 2.958v10.064l-1.7.238V0zm-3.06-24.31a1.749 1.749 0 00-1.87 1.8 1.749 1.749 0 001.87 1.8 1.749 1.749 0 001.87-1.8 1.749 1.749 0 00-1.87-1.8zm10.472 8.092v-6.7l-2.754 2.244v4.454h-2.176v1.5h2.108v10.37c0 3.2 1.19 4.862 3.4 4.862 2.074 0 3.332-.85 4.828-2.21l-.51-1.054a5.058 5.058 0 01-2.652 1.292c-1.7 0-2.312-.714-2.312-2.618v-10.644h4.454v-1.5z" transform="translate(-1.224 25.432)" fill="#fff"/></svg>